#
# The license for this database is specified in the Creative Commons Attribution-Share Alike 2.1 Japan. If you use data from this database, please be sure attribute this database as follows: "BodyParts3D, (c)  The Database Center for Life Science licensed under CC Attribution-Share Alike 2.1 Japan".
# http://dbarchive.biosciencedbc.jp/en/bodyparts3d/lic.html
#
#
# Compatibility version : 4.3i
# File ID : FJ6387
# Representation ID : BP49892
# Build-up logic : FMA 3.2.1-inference part_of
# Concept ID : FMA24442
# English name : Left pisiform
# Bounds(mm): (230.455200,-137.602500,789.562300)-(238.898600,-127.033600,801.423000)
# Volume(cm3): 0.438600
#
v 231.626 -130.772 799.95
v 232.09 -128.111 799.151
v 231.411 -131.865 799.056
v 231.658 -133.826 797.418
v 230.563 -129.973 796.864
v 231.047 -129.779 798.97
v 230.8 -128.61 796.115
v 230.906 -128.64 797.703
v 231.668 -127.632 797.824
v 231.865 -127.396 797.119
v 231.972 -128.65 794.834
v 230.686 -131.111 792.473
v 231.874 -129.47 792.729
v 231.234 -132.423 790.886
v 231.192 -131.501 790.521
v 231.679 -132.129 789.892
v 232.029 -131.375 790.254
v 232.059 -131.751 789.817
v 232.667 -133.012 789.755
v 233.012 -133.249 800.594
v 233.815 -132.783 801.284
v 234.133 -132.002 801.328
v 232.264 -129.38 800.193
v 232.855 -131 801.035
v 234.015 -129.646 800.605
v 233.54 -127.061 798.912
v 234.815 -127.843 799.715
v 232.532 -127.034 798.146
v 232.888 -127.146 798.045
v 234.798 -127.587 798.549
v 233.059 -135.999 797.468
v 234.55 -137.438 795.39
v 232.454 -135.827 793.945
v 232.815 -134.994 791.607
v 233.789 -131.031 790.811
v 232.548 -133.763 790.44
v 234.57 -134.072 789.809
v 232.803 -132.18 789.76
v 232.739 -132.593 789.606
v 235.215 -132.17 790.744
v 235.015 -133.641 789.98
v 236.355 -133.642 800.485
v 235.506 -127.978 799.688
v 235.608 -127.553 799.463
v 235.07 -134.876 800.156
v 234.962 -136.719 798.153
v 236.417 -136.656 798.242
v 236.723 -135.11 799.69
v 237.443 -134.925 799.162
v 236.783 -129.07 799.109
v 237.163 -129.05 797.838
v 236.097 -137.269 797.034
v 236.664 -137.034 793.073
v 236.473 -132.385 791.568
v 237.491 -132.355 792.37
v 237.294 -133.257 791.739
v 236.577 -129.923 791.697
v 236.537 -130.678 791.489
v 236.873 -129.514 793.127
v 234.88 -136.957 792.252
v 235.11 -135.644 790.577
v 235.644 -134.781 790.225
v 237.831 -133.33 799.215
v 238.454 -134.562 797.772
v 238.067 -130.414 797.649
v 237.746 -136.44 796.394
v 238.71 -133.174 797.19
v 238.814 -134.56 795.664
v 238.257 -130.642 795.046
v 238.495 -135.263 793.141
v 238.662 -134.287 793.184
v 237.936 -135.013 791.794
v 230.8 -128.61 796.115
v 231.865 -127.396 797.119
v 231.865 -127.396 797.119
v 230.686 -131.111 792.473
v 231.192 -131.501 790.521
v 231.192 -131.501 790.521
v 234.133 -132.002 801.328
v 232.264 -129.38 800.193
v 233.54 -127.061 798.912
v 232.532 -127.034 798.146
v 235.608 -127.553 799.463
v 235.608 -127.553 799.463
v 237.163 -129.05 797.838
v 236.577 -129.923 791.697
v 236.577 -129.923 791.697
v 236.537 -130.678 791.489
v 236.873 -129.514 793.127
v 234.88 -136.957 792.252
v 234.88 -136.957 792.252
v 237.936 -135.013 791.794
vn -0.770957 -0.0510672 0.634836
vn -0.53857 0.574628 0.616235
vn -0.896276 -0.263627 0.356636
vn -0.903948 -0.39524 0.163291
vn -0.993137 -0.0365118 0.111115
vn -0.882871 0.148353 0.445567
vn -0.91053 0.412921 0.0207866
vn -0.885242 0.387133 0.257825
vn -0.720082 0.660777 0.21179
vn -0.678534 0.732409 0.0562965
vn 0.0385744 0.914073 -0.40371
vn -0.984666 -0.160999 -0.0671774
vn -0.278086 0.834867 -0.475042
vn -0.870315 -0.401937 -0.284604
vn -0.923337 -0.177144 -0.340689
vn -0.595168 -0.203404 -0.777433
vn -0.130825 0.764758 -0.630896
vn -0.116462 0.496059 -0.860443
vn -0.346868 -0.442153 -0.827154
vn -0.618889 -0.46176 0.635417
vn -0.146931 -0.282661 0.9479
vn 0.0192873 0.0574015 0.998165
vn -0.697928 0.255824 0.668917
vn -0.396955 0.0911919 0.913297
vn 0.0997091 0.389778 0.915495
vn -0.225655 0.615563 0.755091
vn -0.00151844 0.520787 0.853685
vn -0.555994 0.739519 0.37945
vn 0.241638 0.889636 -0.387503
vn 0.330768 0.858123 -0.392704
vn -0.653591 -0.691529 0.307581
vn -0.284206 -0.957612 0.0469756
vn -0.744415 -0.657277 -0.117618
vn -0.605005 -0.647597 -0.463234
vn 0.170394 0.546676 -0.819824
vn -0.57149 -0.579256 -0.581258
vn 0.0565309 -0.227654 -0.9721
vn 0.257319 0.401883 -0.878793
vn -0.0194665 0.0452942 -0.998784
vn 0.435113 0.277767 -0.856459
vn 0.411 0.248061 -0.877237
vn 0.454298 -0.0995486 0.88527
vn 0.33027 0.30608 0.892881
vn 0.348089 0.873324 -0.340791
vn -0.0456426 -0.608711 0.792078
vn -0.254294 -0.825815 0.503353
vn 0.327602 -0.772631 0.5438
vn 0.384938 -0.524183 0.759641
vn 0.698519 -0.422384 0.577636
vn 0.688772 0.307116 0.656714
vn 0.301056 0.892804 -0.335062
vn 0.198855 -0.958107 0.206123
vn 0.401335 -0.869998 -0.286415
vn 0.583705 0.164831 -0.795059
vn 0.756478 0.237447 -0.609393
vn 0.643122 0.300599 -0.704297
vn -0.0241215 0.87067 -0.491275
vn 0.402478 0.110702 -0.908711
vn 0.0686728 0.965275 -0.252048
vn -0.52795 -0.759302 -0.380434
vn -0.0536861 -0.655114 -0.75362
vn 0.383011 -0.222478 -0.896552
vn 0.816456 0.02185 0.576994
vn 0.898693 -0.276627 0.340336
vn 0.904179 0.339866 0.25875
vn 0.718346 -0.673785 0.173186
vn 0.976986 0.078285 0.198417
vn 0.986267 -0.162638 0.0287563
vn 0.920532 0.333381 -0.20366
vn 0.867348 -0.456098 -0.199203
vn 0.923335 0.114122 -0.366646
vn 0.738036 0.119393 -0.664114
vn -0.514966 0.762248 -0.392158
vn 0.186283 0.877446 -0.442026
vn -0.45883 0.76966 -0.443958
vn -0.734314 0.585269 -0.343866
vn -0.746224 0.588725 -0.310729
vn -0.384827 0.622985 -0.681027
vn 0.512095 0.275439 0.813568
vn -0.119072 0.522984 0.843984
vn 0.269752 0.918923 -0.287775
vn 0.19409 0.919515 -0.341792
vn 0.237393 0.495166 0.835736
vn 0.793199 0.557085 0.245949
vn 0.804088 0.585745 0.101711
vn 0.201312 0.250232 -0.947026
vn 0.880022 0.284514 -0.380281
vn 0.886143 0.172643 -0.430053
vn 0.777245 0.592331 -0.212211
vn 0.0257318 -0.988518 -0.148899
vn 0.2332 -0.780661 -0.579815
vn 0.506465 -0.633351 -0.585114
g grp1
usemtl mtl1
f 3//3 20//20 1//1 
f 3//3 1//1 6//6 
f 1//1 23//23 6//6 
f 2//2 6//6 23//23 
f 2//2 26//26 28//28 
f 3//3 5//5 4//4 
f 20//20 3//3 4//4 
f 3//3 6//6 5//5 
f 2//2 8//8 6//6 
f 5//5 12//12 4//4 
f 8//8 5//5 6//6 
f 7//7 5//5 8//8 
f 2//2 9//9 8//8 
f 9//9 10//10 7//7 
f 7//7 8//8 9//9 
f 28//28 9//9 2//2 
f 9//9 28//28 10//10 
f 29//29 74//74 82//82 
f 29//29 11//11 74//74 
f 33//33 4//4 14//14 
f 4//4 12//12 14//14 
f 5//5 7//7 12//12 
f 75//75 11//11 73//73 
f 11//11 13//13 73//73 
f 34//34 33//33 14//14 
f 73//73 13//13 76//76 
f 15//15 14//14 12//12 
f 76//76 13//13 77//77 
f 17//17 78//78 13//13 
f 14//14 15//15 16//16 
f 36//36 14//14 16//16 
f 17//17 18//18 78//78 
f 18//18 16//16 78//78 
f 16//16 18//18 39//39 
f 14//14 36//36 34//34 
f 36//36 16//16 19//19 
f 19//19 16//16 39//39 
f 18//18 35//35 38//38 
f 17//17 35//35 18//18 
f 38//38 39//39 18//18 
f 37//37 19//19 39//39 
f 24//24 1//1 20//20 
f 24//24 20//20 21//21 
f 20//20 45//45 21//21 
f 21//21 22//22 24//24 
f 22//22 25//25 24//24 
f 21//21 42//42 22//22 
f 21//21 45//45 42//42 
f 46//46 45//45 20//20 
f 1//1 24//24 23//23 
f 24//24 25//25 80//80 
f 26//26 2//2 25//25 
f 25//25 2//2 80//80 
f 27//27 26//26 25//25 
f 43//43 27//27 25//25 
f 81//81 44//44 30//30 
f 4//4 31//31 20//20 
f 31//31 46//46 20//20 
f 82//82 81//81 29//29 
f 29//29 30//30 11//11 
f 30//30 29//29 81//81 
f 51//51 11//11 30//30 
f 44//44 51//51 30//30 
f 4//4 33//33 31//31 
f 31//31 33//33 32//32 
f 46//46 31//31 32//32 
f 59//59 11//11 51//51 
f 59//59 13//13 11//11 
f 17//17 13//13 35//35 
f 59//59 57//57 13//13 
f 35//35 13//13 57//57 
f 34//34 36//36 61//61 
f 36//36 19//19 61//61 
f 34//34 60//60 33//33 
f 60//60 34//34 61//61 
f 61//61 37//37 62//62 
f 62//62 37//37 41//41 
f 41//41 72//72 62//62 
f 37//37 39//39 41//41 
f 41//41 39//39 38//38 
f 35//35 41//41 38//38 
f 19//19 37//37 61//61 
f 40//40 41//41 35//35 
f 42//42 25//25 79//79 
f 42//42 50//50 25//25 
f 45//45 48//48 42//42 
f 50//50 42//42 63//63 
f 43//43 83//83 27//27 
f 83//83 26//26 27//27 
f 25//25 50//50 43//43 
f 50//50 83//83 43//43 
f 50//50 85//85 84//84 
f 47//47 45//45 46//46 
f 46//46 52//52 47//47 
f 47//47 48//48 45//45 
f 48//48 49//49 42//42 
f 47//47 49//49 48//48 
f 63//63 42//42 49//49 
f 65//65 50//50 63//63 
f 50//50 65//65 85//85 
f 46//46 32//32 52//52 
f 53//53 52//52 32//32 
f 53//53 66//66 52//52 
f 47//47 52//52 66//66 
f 66//66 49//49 47//47 
f 69//69 85//85 65//65 
f 60//60 32//32 33//33 
f 32//32 90//90 53//53 
f 66//66 53//53 70//70 
f 35//35 58//58 40//40 
f 54//54 56//56 40//40 
f 54//54 40//40 58//58 
f 55//55 54//54 58//58 
f 54//54 55//55 56//56 
f 69//69 55//55 88//88 
f 71//71 56//56 55//55 
f 71//71 55//55 69//69 
f 35//35 86//86 58//58 
f 85//85 69//69 89//89 
f 87//87 89//89 69//69 
f 87//87 69//69 88//88 
f 61//61 53//53 91//91 
f 41//41 56//56 72//72 
f 61//61 62//62 92//92 
f 92//92 53//53 61//61 
f 40//40 56//56 41//41 
f 63//63 67//67 65//65 
f 63//63 49//49 64//64 
f 63//63 64//64 67//67 
f 64//64 66//66 68//68 
f 49//49 66//66 64//64 
f 68//68 69//69 67//67 
f 70//70 68//68 66//66 
f 71//71 69//69 68//68 
f 68//68 67//67 64//64 
f 67//67 69//69 65//65 
f 70//70 53//53 92//92 
f 56//56 71//71 72//72 
f 68//68 70//70 71//71 
f 71//71 70//70 72//72 
