#
# The license for this database is specified in the Creative Commons Attribution-Share Alike 2.1 Japan. If you use data from this database, please be sure attribute this database as follows: "BodyParts3D, (c)  The Database Center for Life Science licensed under CC Attribution-Share Alike 2.1 Japan".
# http://dbarchive.biosciencedbc.jp/en/bodyparts3d/lic.html
#
#
# Compatibility version : 4.3i
# File ID : FJ6386
# Representation ID : BP49813
# Build-up logic : FMA 3.2.1-inference part_of
# Concept ID : FMA24487
# English name : Left patella
# Bounds(mm): (59.191900,-122.899000,361.382700)-(101.024100,-100.829200,400.760900)
# Volume(cm3): 11.606800
#
v 61.289 -108.731 373.923
v 59.6623 -113.561 377.272
v 61.0205 -111.943 374.797
v 59.1919 -115.631 380.712
v 64.4061 -109.475 370.66
v 64.6297 -108.831 370.555
v 65.4561 -108.915 369.738
v 65.9068 -107.911 370.074
v 67.2365 -108.619 368.329
v 66.7158 -110.163 368.764
v 61.9052 -107.773 374.005
v 62.7483 -108.423 372.138
v 63.5016 -106.549 372.577
v 64.2343 -107.004 371.454
v 60.4748 -110.74 378.547
v 61.2476 -114.611 376.891
v 59.5846 -116.471 383.228
v 59.3778 -115.682 383.799
v 60.8016 -116.167 379.767
v 60.7435 -116.899 382.056
v 60.4336 -117.178 385.885
v 61.612 -113.114 386.931
v 60.603 -115.607 387.677
v 61.6952 -117.872 384.609
v 70.6129 -109.12 366.806
v 70.5678 -110.828 366.721
v 69.6522 -112.089 368.124
v 71.2978 -101.542 373.631
v 68.105 -103.278 372.334
v 67.2567 -103.421 374.386
v 68.6061 -118.802 379.681
v 62.7772 -114.586 390.141
v 62.9323 -117.42 389.725
v 64.1617 -118.771 388.764
v 67.0584 -109.672 392.398
v 66.3724 -117.272 391.936
v 73.5624 -106.566 367.416
v 75.1537 -108.448 364.073
v 75.6355 -102.052 370.584
v 73.9371 -115.082 369.561
v 69.7473 -104.683 380.585
v 74.2903 -102.864 379.669
v 67.8337 -107.711 389.249
v 71.0204 -120.543 389.512
v 68.7748 -114.357 393.928
v 79.7992 -109.566 362.026
v 80.8999 -108.279 361.698
v 80.3292 -106.632 363.222
v 82.7523 -110.07 361.514
v 83.4613 -108.321 361.518
v 83.0683 -106.441 362.978
v 80.0705 -111.528 363.155
v 83.2878 -111.676 362.921
v 82.0491 -105.004 366.18
v 77.9089 -101.252 371.239
v 77.3225 -101.213 373.324
v 76.5416 -120.506 379.903
v 73.5287 -104.87 385.987
v 77.8116 -105.405 384.754
v 73.4387 -121.745 385.504
v 77.3137 -106.045 389.841
v 71.1824 -108.017 395.752
v 71.7349 -107.194 395.003
v 74.6769 -106.905 396.285
v 74.1475 -108.124 398.154
v 72.9816 -109.93 397.746
v 71.6788 -113.204 395.695
v 74.6161 -117.161 394.755
v 85.2167 -108.863 361.786
v 85.1099 -109.536 361.65
v 84.9809 -107.266 362.593
v 85.2167 -106.279 364.204
v 86.3405 -109.593 362.244
v 87.2156 -107.971 363.728
v 86.1435 -110.822 362.597
v 86.6845 -105.058 368.983
v 83.0002 -116.035 369.892
v 82.6172 -102.745 373.035
v 80.1641 -104.24 379.493
v 79.4374 -106.211 384.189
v 82.0762 -108.64 384.167
v 79.2954 -106.659 385.622
v 81.9791 -122.753 386.605
v 81.2242 -122.595 389.787
v 76.8309 -107.37 397.524
v 76.572 -108.011 398.908
v 79.5573 -108.889 399.208
v 76.3627 -109.575 399.767
v 76.804 -112.954 399.028
v 79.3104 -109.632 400.23
v 89.3368 -110.974 364.96
v 89.2632 -113.418 367.136
v 88.9142 -106.871 373.252
v 83.3831 -109.82 388.258
v 81.4142 -118.76 395.969
v 80.8296 -112.472 400.634
v 80.5018 -114.008 399.911
v 92.9392 -108.075 371.654
v 90.5577 -111.191 381.413
v 91.6937 -120.31 382.292
v 90.4099 -122.34 390.329
v 88.5255 -122.396 386.444
v 87.6958 -122.089 393.001
v 89.1149 -121.488 394.107
v 90.1206 -122.167 391.882
v 87.7161 -122.784 390.454
v 85.8201 -112.001 397.846
v 86.9468 -116.109 399.782
v 88.5673 -117.955 398.454
v 88.4749 -114.461 399.994
v 87.8846 -120.386 395.733
v 89.3573 -120.05 396.066
v 84.6335 -112.306 400.364
v 85.0321 -114.292 400.605
v 96.5973 -111.008 372.139
v 96.3846 -112.318 372.136
v 95.3499 -109.33 374.724
v 96.2543 -109.432 373.656
v 99.1898 -110.803 376.202
v 99.8037 -111.495 376.889
v 99.1519 -110.713 377.739
v 97.9244 -114.551 375.99
v 97.5074 -115.986 377.998
v 99.5241 -112.659 376.645
v 99.3189 -114.5 378.008
v 92.9314 -121.097 385.846
v 92.5647 -121.361 390.362
v 94.232 -115.223 396.326
v 93.9731 -115.961 397.184
v 95.2294 -116.524 395.532
v 92.6349 -119.522 394.78
v 91.9581 -118.29 396.94
v 91.9201 -114.63 397.431
v 92.1983 -115.443 398.353
v 91.587 -116.16 398.741
v 93.2917 -115.327 397.404
v 93.5285 -116.734 397.257
v 100.342 -111.608 378.427
v 100.485 -112.346 378.5
v 100.169 -111.863 380.113
v 99.5422 -115.88 380.905
v 100.489 -114.79 381.669
v 100.046 -116.127 383.551
v 100.924 -113.767 383.485
v 98.1771 -117.651 382.951
v 99.3092 -116.871 386.974
v 100.86 -113.9 385.07
v 100.717 -114.624 384.974
v 98.6268 -117.728 385.773
v 96.3376 -114.062 391.228
v 98.6551 -113.874 388.535
v 98.3156 -116.841 390.698
v 98.1335 -115.052 392.204
v 98.4279 -115.678 391.895
v 99.2255 -115.522 390.602
v 97.3322 -118.157 389.571
v 61.289 -108.731 373.923
v 59.6623 -113.561 377.272
v 59.6623 -113.561 377.272
v 59.1919 -115.631 380.712
v 59.1919 -115.631 380.712
v 59.5846 -116.471 383.228
v 59.3778 -115.682 383.799
v 60.603 -115.607 387.677
v 62.7772 -114.586 390.141
v 67.0584 -109.672 392.398
v 75.1537 -108.448 364.073
v 80.8999 -108.279 361.698
v 71.1824 -108.017 395.752
v 88.4749 -114.461 399.994
v 84.6335 -112.306 400.364
v 96.2543 -109.432 373.656
v 100.86 -113.9 385.07
v 100.86 -113.9 385.07
v 98.1335 -115.052 392.204
v 98.4279 -115.678 391.895
v 99.2255 -115.522 390.602
v 99.2255 -115.522 390.602
vn -0.810195 -0.0899572 -0.579217
vn -0.855067 -0.0684446 -0.513979
vn -0.691102 -0.296586 -0.659102
vn -0.961226 0.272058 0.0450409
vn -0.661167 -0.0698548 -0.746979
vn -0.625425 0.271859 -0.731393
vn -0.643393 0.23517 -0.728519
vn -0.534983 0.44473 -0.718337
vn -0.508349 0.259341 -0.821172
vn -0.562796 -0.336612 -0.754953
vn -0.742387 0.669743 -0.0174878
vn -0.683226 0.180051 -0.707661
vn -0.670641 0.620619 -0.406291
vn -0.531162 0.461267 -0.710704
vn -0.861435 0.487794 0.141374
vn -0.451184 -0.695486 -0.559225
vn -0.504771 -0.852293 -0.137124
vn -0.901037 0.389021 0.191823
vn -0.393265 -0.833127 -0.388899
vn -0.410281 -0.8809 -0.235977
vn -0.736254 -0.636781 0.228996
vn -0.733557 0.600557 0.31816
vn -0.814937 0.442033 0.374812
vn -0.392682 -0.913303 -0.108071
vn -0.437915 0.341876 -0.831475
vn -0.440114 -0.253251 -0.861489
vn -0.389865 -0.626506 -0.674904
vn -0.246254 0.968831 -0.0269476
vn -0.418492 0.719074 -0.554794
vn -0.550926 0.823398 0.136002
vn -0.265693 -0.897029 -0.353195
vn -0.756609 0.445242 0.478856
vn -0.624261 -0.475598 0.619762
vn -0.379311 -0.880528 0.284243
vn -0.661331 0.65799 0.360127
vn -0.383033 -0.517238 0.765343
vn -0.307289 0.682441 -0.66321
vn -0.380269 0.663731 -0.644094
vn -0.207861 0.760787 -0.614814
vn -0.209752 -0.829547 -0.517548
vn -0.416635 0.865869 0.276922
vn -0.0513433 0.951586 0.303064
vn -0.533757 0.815244 0.224678
vn -0.238713 -0.857935 0.454933
vn -0.4592 -0.162682 0.87331
vn -0.324345 -0.242872 -0.914229
vn -0.215068 0.0108165 -0.976539
vn -0.2285 0.773218 -0.591542
vn -0.0365859 -0.362832 -0.931136
vn 0.0929786 0.327171 -0.94038
vn 0.0409378 0.776738 -0.628492
vn -0.203261 -0.68126 -0.703256
vn 0.048345 -0.770543 -0.635552
vn -0.00488059 0.874602 -0.484816
vn 0.1006 0.952694 -0.2868
vn 0.156842 0.9652 0.209258
vn -0.0489837 -0.928507 -0.368069
vn -0.101336 0.969542 0.222977
vn 0.354468 0.889888 0.287145
vn -0.211634 -0.974626 -0.0729008
vn 0.372801 0.91566 0.150286
vn -0.497187 0.742363 0.449113
vn -0.409311 0.842301 0.350704
vn -0.0813321 0.93998 0.331395
vn -0.408089 0.586831 0.699352
vn -0.588584 -0.0385457 0.807517
vn -0.513699 -0.282055 0.810283
vn -0.317117 -0.578937 0.751178
vn 0.403886 0.321676 -0.856388
vn 0.264034 -0.116794 -0.957416
vn 0.335103 0.63156 -0.69917
vn 0.328621 0.844685 -0.422511
vn 0.559058 0.0205038 -0.828875
vn 0.599968 0.560177 -0.571175
vn 0.320425 -0.545116 -0.77471
vn 0.409826 0.89702 -0.165524
vn 0.024989 -0.878985 -0.476194
vn 0.403215 0.905275 0.133774
vn 0.461015 0.802514 0.378729
vn 0.577205 0.740863 0.343449
vn 0.531051 0.796605 0.288801
vn 0.580148 0.792957 0.186137
vn -0.0281686 -0.991407 -0.127744
vn -0.133865 -0.955404 0.263217
vn 0.171646 0.935191 0.309767
vn -0.0458094 0.768051 0.638748
vn 0.35245 0.848276 0.39523
vn -0.335142 0.122952 0.934111
vn -0.409805 -0.376293 0.830941
vn 0.0640528 0.479936 0.874962
vn 0.647134 -0.207526 -0.733588
vn 0.340026 -0.763156 -0.549523
vn 0.423746 0.845256 0.32555
vn 0.425912 0.895922 0.126184
vn -0.2081 -0.740719 0.638772
vn -0.145269 -0.107761 0.983506
vn -0.244895 -0.531864 0.810646
vn 0.461404 0.875576 -0.143083
vn 0.242323 0.93382 0.263174
vn 0.236756 -0.896966 -0.373362
vn 0.286255 -0.957864 0.0235473
vn 0.140303 -0.965391 -0.219854
vn -0.0466843 -0.908582 0.415091
vn 0.170609 -0.853742 0.491953
vn 0.279174 -0.917247 0.284114
vn 0.0644173 -0.993466 0.09421
vn 0.458429 0.868808 0.187125
vn 0.0032519 -0.499134 0.866519
vn 0.0677892 -0.661824 0.746588
vn 0.249276 -0.0775151 0.965325
vn -0.0658562 -0.7954 0.602497
vn 0.198543 -0.767973 0.608932
vn 0.421628 0.787456 0.449603
vn 0.0161985 -0.193108 0.981044
vn 0.773606 0.190818 -0.604253
vn 0.675805 -0.390923 -0.624874
vn 0.24249 0.943572 0.225544
vn 0.615928 0.651832 -0.442434
vn 0.723754 0.629882 -0.281832
vn 0.890104 0.130867 -0.436564
vn 0.396279 0.908139 0.135078
vn 0.601411 -0.617605 -0.506822
vn 0.466592 -0.790309 -0.397119
vn 0.819203 -0.268459 -0.50679
vn 0.753815 -0.533974 -0.382929
vn 0.39146 -0.908614 -0.145529
vn 0.495571 -0.855518 0.149993
vn 0.533312 0.659108 0.530241
vn 0.669515 0.0986019 0.736225
vn 0.713117 -0.392661 0.580759
vn 0.497863 -0.744213 0.445286
vn 0.362117 -0.658556 0.659678
vn 0.389123 0.835077 0.388881
vn 0.507412 0.421407 0.751631
vn 0.387082 -0.304694 0.870246
vn 0.520447 0.616314 0.591009
vn 0.565465 -0.494448 0.660129
vn 0.835181 0.547569 -0.0513842
vn 0.951983 -0.126358 -0.27886
vn 0.618796 0.758393 0.204772
vn 0.687379 -0.66678 -0.287948
vn 0.894157 -0.401386 -0.198424
vn 0.823032 -0.563051 -0.074777
vn 0.999479 0.0322588 0.000338833
vn 0.524073 -0.817161 -0.239992
vn 0.823833 -0.538683 0.176406
vn 0.537064 0.77378 0.335896
vn 0.942121 -0.318122 0.105863
vn 0.617905 -0.786234 0.00552226
vn 0.264687 0.933213 0.243012
vn 0.358864 0.882095 0.305164
vn 0.703734 -0.617932 0.350597
vn 0.492745 0.768226 0.408694
vn 0.795983 0.0772682 0.600366
vn 0.665395 0.662273 0.344447
vn 0.621713 -0.752036 0.218895
vn -0.857059 0.460672 -0.230719
vn -0.960136 0.279458 -0.00648418
vn -0.545084 -0.616444 -0.568226
vn -0.51451 -0.777342 -0.361966
vn -0.955904 -0.288899 0.0527697
vn -0.934905 -0.333348 0.121783
vn -0.935607 -0.30309 0.181041
vn -0.820515 -0.283624 0.496299
vn -0.581267 -0.0893089 0.808797
vn -0.606214 0.0285622 0.794789
vn -0.448243 -0.00394802 -0.893903
vn -0.162639 0.617877 -0.76927
vn -0.63471 0.185038 0.750269
vn 0.436391 0.720393 0.53907
vn 0.102389 0.15366 0.982805
vn 0.334653 0.938957 0.0798002
vn 0.873925 0.480149 0.075575
vn 0.944113 -0.26969 0.189519
vn 0.791383 0.0144262 0.611151
vn 0.725582 -0.526278 0.443353
vn 0.837725 -0.476453 0.26685
vn 0.836662 0.130209 0.532017
g grp1
usemtl mtl1
f 3//3 2//2 1//1 
f 157//157 158//158 15//15 
f 158//158 4//4 15//15 
f 159//159 16//16 160//160 
f 160//160 16//16 19//19 
f 19//19 20//20 160//160 
f 15//15 4//4 18//18 
f 29//29 8//8 14//14 
f 8//8 6//6 12//12 
f 12//12 6//6 5//5 
f 5//5 6//6 7//7 
f 5//5 10//10 3//3 
f 12//12 14//14 8//8 
f 9//9 5//5 7//7 
f 8//8 9//9 7//7 
f 6//6 8//8 7//7 
f 9//9 10//10 5//5 
f 8//8 29//29 9//9 
f 10//10 9//9 26//26 
f 3//3 10//10 16//16 
f 13//13 30//30 29//29 
f 11//11 30//30 13//13 
f 13//13 12//12 157//157 
f 13//13 157//157 11//11 
f 11//11 157//157 15//15 
f 14//14 12//12 13//13 
f 12//12 3//3 1//1 
f 13//13 29//29 14//14 
f 3//3 12//12 5//5 
f 11//11 15//15 30//30 
f 15//15 22//22 30//30 
f 16//16 159//159 3//3 
f 19//19 16//16 31//31 
f 20//20 17//17 160//160 
f 161//161 162//162 163//163 
f 15//15 18//18 22//22 
f 19//19 31//31 20//20 
f 20//20 24//24 17//17 
f 31//31 24//24 20//20 
f 23//23 22//22 18//18 
f 163//163 162//162 21//21 
f 163//163 21//21 164//164 
f 164//164 21//21 33//33 
f 22//22 23//23 32//32 
f 33//33 165//165 164//164 
f 24//24 21//21 17//17 
f 24//24 34//34 21//21 
f 33//33 21//21 34//34 
f 24//24 60//60 34//34 
f 9//9 25//25 26//26 
f 25//25 37//37 38//38 
f 39//39 29//29 28//28 
f 37//37 9//9 29//29 
f 37//37 25//25 9//9 
f 27//27 16//16 10//10 
f 26//26 27//27 10//10 
f 27//27 40//40 16//16 
f 31//31 16//16 40//40 
f 52//52 40//40 27//27 
f 41//41 28//28 30//30 
f 28//28 29//29 30//30 
f 22//22 41//41 30//30 
f 22//22 43//43 41//41 
f 165//165 33//33 36//36 
f 22//22 32//32 35//35 
f 60//60 44//44 34//34 
f 33//33 34//34 36//36 
f 60//60 24//24 31//31 
f 36//36 34//34 44//44 
f 43//43 22//22 35//35 
f 63//63 43//43 35//35 
f 165//165 36//36 45//45 
f 167//167 47//47 46//46 
f 168//168 38//38 48//48 
f 48//48 38//38 37//37 
f 29//29 39//39 37//37 
f 167//167 26//26 25//25 
f 167//167 46//46 26//26 
f 52//52 27//27 26//26 
f 40//40 52//52 77//77 
f 28//28 55//55 39//39 
f 56//56 55//55 28//28 
f 57//57 31//31 40//40 
f 56//56 28//28 42//42 
f 28//28 41//41 42//42 
f 41//41 43//43 58//58 
f 42//42 41//41 58//58 
f 43//43 63//63 58//58 
f 35//35 62//62 63//63 
f 66//66 169//169 166//166 
f 166//166 67//67 66//66 
f 66//66 65//65 169//169 
f 45//45 36//36 68//68 
f 166//166 165//165 45//45 
f 166//166 45//45 67//67 
f 68//68 36//36 44//44 
f 72//72 51//51 54//54 
f 48//48 51//51 168//168 
f 46//46 52//52 26//26 
f 168//168 51//51 50//50 
f 54//54 48//48 37//37 
f 50//50 49//49 47//47 
f 47//47 49//49 46//46 
f 51//51 48//48 54//54 
f 52//52 46//46 49//49 
f 53//53 77//77 52//52 
f 49//49 53//53 52//52 
f 39//39 55//55 54//54 
f 39//39 54//54 37//37 
f 78//78 55//55 56//56 
f 40//40 77//77 57//57 
f 42//42 59//59 56//56 
f 56//56 59//59 79//79 
f 59//59 42//42 58//58 
f 57//57 60//60 31//31 
f 57//57 83//83 60//60 
f 58//58 61//61 59//59 
f 82//82 59//59 61//61 
f 95//95 68//68 44//44 
f 63//63 62//62 65//65 
f 64//64 61//61 58//58 
f 64//64 58//58 63//63 
f 65//65 64//64 63//63 
f 64//64 86//86 85//85 
f 86//86 64//64 65//65 
f 66//66 67//67 89//89 
f 65//65 66//66 88//88 
f 68//68 89//89 67//67 
f 45//45 68//68 67//67 
f 88//88 66//66 89//89 
f 50//50 70//70 49//49 
f 71//71 50//50 51//51 
f 69//69 70//70 50//50 
f 74//74 73//73 69//69 
f 69//69 73//73 70//70 
f 73//73 75//75 70//70 
f 49//49 70//70 75//75 
f 50//50 71//71 69//69 
f 69//69 71//71 74//74 
f 51//51 72//72 71//71 
f 72//72 74//74 71//71 
f 73//73 91//91 75//75 
f 77//77 53//53 92//92 
f 49//49 75//75 53//53 
f 92//92 53//53 75//75 
f 92//92 75//75 91//91 
f 54//54 55//55 76//76 
f 78//78 76//76 55//55 
f 76//76 72//72 54//54 
f 72//72 76//76 74//74 
f 92//92 100//100 77//77 
f 78//78 56//56 79//79 
f 79//79 81//81 93//93 
f 57//57 77//77 100//100 
f 79//79 59//59 80//80 
f 59//59 82//82 80//80 
f 80//80 82//82 81//81 
f 80//80 81//81 79//79 
f 82//82 94//94 81//81 
f 61//61 94//94 82//82 
f 60//60 83//83 84//84 
f 83//83 106//106 84//84 
f 84//84 44//44 60//60 
f 84//84 95//95 44//44 
f 61//61 64//64 85//85 
f 61//61 85//85 87//87 
f 87//87 85//85 86//86 
f 94//94 61//61 107//107 
f 61//61 87//87 107//107 
f 68//68 95//95 97//97 
f 89//89 68//68 97//97 
f 86//86 65//65 88//88 
f 96//96 88//88 89//89 
f 86//86 88//88 90//90 
f 87//87 86//86 90//90 
f 96//96 89//89 97//97 
f 90//90 88//88 96//96 
f 73//73 74//74 91//91 
f 76//76 78//78 93//93 
f 79//79 93//93 78//78 
f 76//76 93//93 117//117 
f 99//99 93//93 81//81 
f 102//102 83//83 57//57 
f 99//99 81//81 94//94 
f 102//102 106//106 83//83 
f 84//84 103//103 95//95 
f 107//107 87//87 113//113 
f 97//97 95//95 108//108 
f 97//97 108//108 114//114 
f 87//87 90//90 113//113 
f 90//90 96//96 171//171 
f 114//114 171//171 96//96 
f 114//114 110//110 171//171 
f 114//114 96//96 97//97 
f 76//76 98//98 74//74 
f 117//117 98//98 76//76 
f 118//118 74//74 98//98 
f 172//172 98//98 117//117 
f 91//91 116//116 92//92 
f 117//117 93//93 99//99 
f 57//57 100//100 102//102 
f 102//102 100//100 126//126 
f 126//126 101//101 102//102 
f 127//127 101//101 126//126 
f 101//101 106//106 102//102 
f 150//150 99//99 94//94 
f 106//106 103//103 84//84 
f 105//105 104//104 103//103 
f 104//104 111//111 103//103 
f 105//105 106//106 101//101 
f 105//105 103//103 106//106 
f 131//131 104//104 105//105 
f 131//131 112//112 104//104 
f 113//113 133//133 107//107 
f 133//133 94//94 107//107 
f 109//109 108//108 95//95 
f 111//111 109//109 95//95 
f 114//114 108//108 110//110 
f 109//109 135//135 108//108 
f 110//110 108//108 135//135 
f 111//111 95//95 103//103 
f 104//104 112//112 111//111 
f 112//112 109//109 111//111 
f 91//91 74//74 115//115 
f 115//115 116//116 91//91 
f 74//74 118//118 115//115 
f 115//115 118//118 119//119 
f 151//151 117//117 99//99 
f 117//117 121//121 172//172 
f 121//121 117//117 151//151 
f 119//119 172//172 121//121 
f 124//124 116//116 115//115 
f 120//120 115//115 119//119 
f 124//124 115//115 120//120 
f 123//123 100//100 92//92 
f 116//116 122//122 92//92 
f 123//123 92//92 122//122 
f 122//122 116//116 124//124 
f 124//124 125//125 122//122 
f 139//139 125//125 124//124 
f 122//122 125//125 123//123 
f 125//125 139//139 142//142 
f 142//142 141//141 125//125 
f 141//141 123//123 125//125 
f 123//123 145//145 100//100 
f 151//151 99//99 150//150 
f 126//126 145//145 149//149 
f 100//100 145//145 126//126 
f 149//149 127//127 126//126 
f 127//127 105//105 101//101 
f 156//156 127//127 149//149 
f 156//156 131//131 127//127 
f 133//133 150//150 94//94 
f 137//137 132//132 131//131 
f 136//136 128//128 133//133 
f 128//128 153//153 133//133 
f 128//128 136//136 129//129 
f 128//128 129//129 153//153 
f 137//137 130//130 129//129 
f 127//127 131//131 105//105 
f 112//112 131//131 132//132 
f 130//130 137//137 131//131 
f 132//132 109//109 112//112 
f 133//133 113//113 170//170 
f 132//132 135//135 109//109 
f 137//137 135//135 132//132 
f 133//133 170//170 134//134 
f 134//134 110//110 135//135 
f 134//134 136//136 133//133 
f 137//137 129//129 135//135 
f 129//129 134//134 135//135 
f 134//134 129//129 136//136 
f 139//139 124//124 120//120 
f 120//120 119//119 138//138 
f 138//138 119//119 121//121 
f 138//138 121//121 140//140 
f 140//140 121//121 151//151 
f 139//139 120//120 138//138 
f 140//140 144//144 138//138 
f 138//138 144//144 139//139 
f 142//142 139//139 144//144 
f 141//141 145//145 123//123 
f 141//141 143//143 145//145 
f 143//143 141//141 142//142 
f 144//144 143//143 142//142 
f 143//143 144//144 148//148 
f 143//143 149//149 145//145 
f 143//143 146//146 149//149 
f 149//149 146//146 156//156 
f 147//147 140//140 151//151 
f 173//173 144//144 140//140 
f 144//144 174//174 148//148 
f 143//143 148//148 146//146 
f 146//146 148//148 174//174 
f 156//156 152//152 131//131 
f 152//152 130//130 131//131 
f 146//146 152//152 156//156 
f 153//153 151//151 150//150 
f 133//133 153//153 150//150 
f 154//154 175//175 130//130 
f 130//130 152//152 176//176 
f 147//147 151//151 155//155 
f 152//152 146//146 177//177 
f 153//153 155//155 151//151 
f 178//178 175//175 154//154 
f 177//177 176//176 152//152 
f 146//146 174//174 177//177 
f 175//175 129//129 130//130 
