#
# The license for this database is specified in the Creative Commons Attribution-Share Alike 2.1 Japan. If you use data from this database, please be sure attribute this database as follows: "BodyParts3D, (c)  The Database Center for Life Science licensed under CC Attribution-Share Alike 2.1 Japan".
# http://dbarchive.biosciencedbc.jp/en/bodyparts3d/lic.html
#
#
# Compatibility version : 4.3i
# File ID : FJ6481
# Representation ID : BP49814
# Build-up logic : FMA 3.2.1-inference part_of
# Concept ID : FMA24439
# English name : Right triquetral
# Bounds(mm): (-242.819500,-130.000700,788.768800)-(-232.072900,-114.580300,802.590300)
# Volume(cm3): 0.969100
#
v -242.119 -123.328 799.981
v -242.168 -121.748 799.847
v -242.252 -122.731 799.306
v -242.724 -117.702 797.29
v -242.766 -116.139 796.669
v -240.264 -124.274 801.566
v -239.55 -125.073 801.469
v -241.252 -122.293 800.865
v -240.625 -125.607 800.264
v -241.954 -121.622 798.21
v -242.131 -119.253 799.06
v -242.321 -120.118 798.491
v -242.536 -117.599 797.989
v -242.316 -115.995 797.335
v -241.508 -117.59 798.813
v -242.253 -115.561 796.781
v -240.798 -114.987 797.358
v -240.71 -115.333 798.058
v -239.464 -127.695 797.944
v -242.277 -118.292 796.379
v -242.698 -116.318 795.992
v -242.185 -116.436 795.152
v -242.363 -115.877 795.433
v -240.699 -119.254 793.68
v -240.411 -120.939 792.825
v -240.219 -121.667 791.989
v -238.347 -114.942 799.061
v -237.719 -114.838 799.192
v -237.798 -127.763 799.26
v -237.947 -114.631 798.305
v -237.428 -114.719 798.493
v -239.048 -127.775 798.842
v -238.628 -128.434 798.618
v -238.324 -129.004 797.302
v -238.015 -128.62 798.471
v -238.901 -128.799 795.32
v -238.021 -122.287 792.305
v -239.917 -120.287 792.386
v -239.271 -119.558 791.999
v -239.238 -120.308 791.985
v -238.796 -120.348 792.131
v -238.87 -119.947 791.928
v -237.658 -120.88 792.037
v -238.889 -119.251 791.717
v -239.59 -114.806 793.391
v -239.662 -115.487 792.507
v -238.064 -115.78 791.787
v -239.334 -127.077 791.202
v -239.334 -123.061 790.773
v -238.682 -123.493 790.149
v -238.439 -122.976 790.358
v -239.462 -121.511 791.744
v -238.288 -120.095 791.141
v -237.541 -122.042 791.557
v -237.514 -121.975 790.111
v -237.725 -117.464 790.978
v -238.307 -127.432 789.803
v -238.642 -125.193 789.646
v -235.648 -122.518 802.59
v -234.033 -120.647 802.351
v -236.204 -119.828 802.042
v -234.39 -118.323 801.388
v -237.054 -115.832 800.081
v -236.561 -115.615 799.778
v -236.843 -115.1 798.166
v -236.9 -115.196 794.165
v -236.675 -129.736 791.301
v -235.585 -128.935 790.385
v -236.853 -122.477 789.115
v -236.707 -123.974 788.769
v -232.957 -120.411 800.803
v -233.863 -117.841 799.788
v -233.602 -125.016 799.045
v -232.202 -124.773 795.883
v -233.156 -118.933 796.246
v -232.528 -128.539 794.822
v -232.839 -126.771 793.168
v -232.157 -124.758 792.707
v -233.459 -120.005 792.824
v -233.682 -129.598 791.872
v -233.083 -127.708 791.635
v -232.869 -126.451 792.671
v -233.425 -125.956 790.213
v -232.824 -126.639 791.593
v -232.262 -125.764 792.148
v -232.384 -124.614 791.284
v -234.404 -119.972 790.68
v -242.119 -123.328 799.981
v -242.168 -121.748 799.847
v -239.55 -125.073 801.469
v -240.625 -125.607 800.264
v -242.131 -119.253 799.06
v -242.363 -115.877 795.433
v -238.347 -114.942 799.061
v -239.048 -127.775 798.842
v -238.628 -128.434 798.618
v -238.021 -122.287 792.305
v -238.021 -122.287 792.305
v -239.238 -120.308 791.985
v -238.87 -119.947 791.928
v -238.87 -119.947 791.928
v -238.87 -119.947 791.928
v -237.658 -120.88 792.037
v -237.658 -120.88 792.037
v -237.658 -120.88 792.037
v -239.662 -115.487 792.507
v -239.662 -115.487 792.507
v -238.064 -115.78 791.787
v -238.064 -115.78 791.787
v -239.334 -123.061 790.773
v -239.334 -123.061 790.773
v -239.334 -123.061 790.773
v -238.439 -122.976 790.358
v -239.462 -121.511 791.744
v -238.288 -120.095 791.141
v -238.288 -120.095 791.141
v -237.541 -122.042 791.557
v -237.541 -122.042 791.557
v -237.514 -121.975 790.111
v -237.514 -121.975 790.111
v -237.514 -121.975 790.111
v -237.725 -117.464 790.978
v -237.725 -117.464 790.978
v -238.307 -127.432 789.803
v -238.307 -127.432 789.803
v -234.033 -120.647 802.351
v -234.033 -120.647 802.351
v -234.39 -118.323 801.388
v -236.675 -129.736 791.301
v -236.853 -122.477 789.115
v -236.853 -122.477 789.115
v -232.202 -124.773 795.883
v -232.202 -124.773 795.883
v -232.528 -128.539 794.822
v -232.528 -128.539 794.822
v -233.682 -129.598 791.872
v -233.682 -129.598 791.872
v -232.824 -126.639 791.593
v -232.262 -125.764 792.148
vn -0.947149 -0.320764 0.00442254
vn -0.999487 0.000529056 0.0320265
vn -0.992261 -0.0734336 -0.10013
vn -0.992923 -0.115857 -0.0260982
vn -0.924317 0.358754 0.130131
vn -0.460942 -0.161655 0.872583
vn -0.419561 -0.630107 0.653402
vn -0.55982 0.17952 0.808934
vn -0.454822 -0.586157 0.67049
vn -0.964048 -0.0890708 -0.250355
vn -0.962147 0.032793 0.27055
vn -0.992865 -0.113913 0.0352516
vn -0.852702 0.183188 0.489225
vn -0.64923 0.492961 0.579215
vn -0.474022 0.371004 0.798535
vn -0.575356 0.799658 0.171795
vn -0.307092 0.9236 0.229473
vn -0.46193 0.648344 0.605203
vn -0.802381 -0.583996 0.123019
vn -0.902765 -0.260001 -0.342658
vn -0.943748 -0.036565 -0.328637
vn -0.819484 -0.0886056 -0.566212
vn -0.692863 0.68013 -0.239507
vn -0.814861 0.0044251 -0.57964
vn -0.900594 0.133554 -0.413634
vn -0.751179 0.183269 -0.634147
vn -0.355099 0.451783 0.818411
vn 0.0337843 0.86792 0.495553
vn 0.0745361 -0.658882 0.748544
vn -0.0153567 0.994843 0.100258
vn 0.37906 0.918182 0.11513
vn -0.724487 -0.629794 0.28014
vn -0.174566 -0.716593 0.675293
vn -0.247465 -0.948079 0.199768
vn 0.101261 -0.848044 0.520161
vn -0.711305 -0.702167 -0.0317256
vn 0.297009 0.12887 -0.946139
vn -0.676977 0.227009 -0.700121
vn -0.551868 0.0581684 -0.8319
vn -0.379894 0.150447 -0.912714
vn 0.0352964 -0.25926 -0.965162
vn 0.255248 -0.398145 -0.881095
vn -0.852874 0.123668 -0.50726
vn -0.643011 -0.0705352 -0.762602
vn -0.192377 0.945458 -0.262871
vn -0.706162 0.00953338 -0.707986
vn 0.251668 0.833118 -0.492521
vn -0.895472 -0.365263 -0.254389
vn -0.593602 0.282463 -0.753559
vn -0.558103 0.37216 -0.741632
vn -0.543248 0.827679 -0.14082
vn 0.482351 0.300647 -0.822769
vn -0.570274 -0.773587 -0.276318
vn -0.852874 0.123668 -0.50726
vn -0.954104 -0.28527 0.0911432
vn -0.681686 0.0944836 -0.725519
vn -0.664828 -0.676708 -0.316339
vn -0.657807 0.0518034 -0.751403
vn 0.135133 -0.285915 0.948679
vn -0.0280823 0.286918 0.957543
vn -0.205897 0.293866 0.933408
vn 0.060007 0.483594 0.873233
vn -0.128807 0.524421 0.84166
vn 0.447708 0.781433 0.43465
vn 0.639647 0.768101 0.0295356
vn 0.518331 0.828974 -0.210085
vn -0.456047 -0.883589 -0.106258
vn 0.157302 -0.507299 -0.847292
vn -0.590042 0.339015 -0.732748
vn 0.0495348 -0.022714 -0.998514
vn 0.930885 0.0841083 0.355497
vn 0.75931 0.62106 0.194251
vn 0.643555 -0.468016 0.605639
vn 0.997131 0.0651816 0.0384961
vn 0.879233 0.470785 -0.0728745
vn 0.321238 -0.8273 0.460848
vn 0.986184 -0.052748 -0.157028
vn 0.992615 0.102301 -0.0651903
vn 0.899791 0.384994 -0.205318
vn 0.106011 -0.9746 0.197274
vn 0.945726 -0.198575 -0.257235
vn 0.941262 -0.336871 0.0233239
vn 0.676432 -0.182081 -0.713643
vn 0.899722 -0.422192 0.110698
vn 0.792535 -0.593477 0.140262
vn 0.906538 0.099794 -0.410159
vn 0.548609 0.399135 -0.734656
vn -0.715669 -0.144468 0.683335
vn -0.698842 0.136011 0.702226
vn 0.00789947 -0.411932 0.91118
vn -0.823575 -0.56412 0.0591112
vn -0.593604 0.294843 0.7488
vn -0.800725 0.0463282 -0.597238
vn -0.251482 0.907843 0.335527
vn -0.257998 -0.558585 0.788302
vn -0.73832 -0.638579 0.217025
vn -0.852874 0.123668 -0.50726
vn -0.429101 0.876567 -0.217952
vn 0.336622 -0.0859972 -0.937705
vn -0.492527 -0.161241 -0.85523
vn -0.289718 -0.473673 -0.831683
vn -0.570274 -0.773587 -0.276318
vn -0.223712 -0.316358 -0.921884
vn -0.570274 -0.773587 -0.276318
vn -0.954104 -0.28527 0.0911432
vn -0.371235 0.750138 -0.547245
vn -0.32927 0.354456 -0.875181
vn -0.32927 0.354456 -0.875181
vn 0.272521 0.460982 -0.844528
vn 0.530825 0.480656 -0.697994
vn -0.220337 0.933493 -0.282917
vn -0.357748 0.474149 -0.804487
vn -0.558968 0.489918 -0.668981
vn -0.353479 0.362876 -0.862191
vn -0.765636 -0.0113286 -0.643175
vn -0.862723 -0.464492 0.199892
vn -0.678059 0.732372 -0.0621829
vn -0.995588 -0.0911301 -0.0223717
vn -0.636765 0.430291 -0.639828
vn -0.732011 0.681049 0.0182436
vn -0.844228 -0.0549782 -0.533157
vn -0.32927 0.354456 -0.875181
vn 0.236487 0.417194 -0.87751
vn -0.814504 -0.160857 -0.557413
vn -0.170681 -0.361455 -0.916634
vn 0.712258 -0.377423 0.591811
vn 0.743223 0.350568 0.569843
vn 0.723411 0.50888 0.466603
vn -0.0197467 -0.740888 -0.671338
vn -0.798032 0.0312678 -0.601803
vn 0.26766 0.308682 -0.912728
vn 0.981635 -0.0750681 -0.175376
vn 0.793437 -0.591345 0.144112
vn 0.897758 -0.229314 0.376094
vn 0.971465 -0.110904 -0.209656
vn 0.142874 -0.823092 -0.549643
vn 0.75028 -0.357034 -0.556423
vn 0.845749 -0.229353 -0.481774
vn 0.944531 -0.163035 -0.285097
g grp1
usemtl mtl1
f 1//1 2//2 3//3 
f 48//48 1//1 3//3 
f 3//3 10//10 48//48 
f 3//3 2//2 10//10 
f 20//20 12//12 4//4 
f 11//11 13//13 12//12 
f 12//12 13//13 4//4 
f 13//13 5//5 4//4 
f 21//21 4//4 5//5 
f 6//6 9//9 7//7 
f 7//7 9//9 29//29 
f 61//61 8//8 6//6 
f 91//91 19//19 32//32 
f 48//48 91//91 1//1 
f 9//9 6//6 88//88 
f 29//29 9//9 95//95 
f 8//8 88//88 6//6 
f 8//8 89//89 88//88 
f 89//89 8//8 92//92 
f 2//2 11//11 12//12 
f 2//2 12//12 10//10 
f 15//15 92//92 8//8 
f 13//13 92//92 15//15 
f 13//13 14//14 5//5 
f 5//5 14//14 16//16 
f 15//15 14//14 13//13 
f 18//18 16//16 14//14 
f 15//15 18//18 14//14 
f 17//17 45//45 16//16 
f 18//18 17//17 16//16 
f 19//19 36//36 34//34 
f 19//19 48//48 36//36 
f 19//19 91//91 48//48 
f 12//12 20//20 10//10 
f 23//23 5//5 16//16 
f 21//21 5//5 23//23 
f 4//4 21//21 20//20 
f 22//22 21//21 93//93 
f 20//20 21//21 22//22 
f 46//46 22//22 93//93 
f 20//20 22//22 24//24 
f 16//16 45//45 23//23 
f 23//23 45//45 106//106 
f 48//48 10//10 26//26 
f 10//10 20//20 24//24 
f 24//24 25//25 10//10 
f 26//26 10//10 25//25 
f 26//26 25//25 38//38 
f 38//38 25//25 24//24 
f 26//26 58//58 48//48 
f 48//48 67//67 36//36 
f 49//49 58//58 26//26 
f 6//6 90//90 59//59 
f 61//61 15//15 8//8 
f 63//63 15//15 61//61 
f 27//27 15//15 63//63 
f 28//28 27//27 63//63 
f 64//64 28//28 63//63 
f 64//64 31//31 28//28 
f 94//94 28//28 30//30 
f 17//17 94//94 30//30 
f 30//30 28//28 31//31 
f 29//29 95//95 33//33 
f 35//35 29//29 33//33 
f 29//29 59//59 90//90 
f 27//27 18//18 15//15 
f 18//18 94//94 17//17 
f 30//30 45//45 17//17 
f 30//30 31//31 66//66 
f 30//30 66//66 45//45 
f 31//31 64//64 65//65 
f 31//31 65//65 66//66 
f 96//96 19//19 34//34 
f 32//32 19//19 96//96 
f 33//33 34//34 35//35 
f 76//76 35//35 34//34 
f 52//52 37//37 110//110 
f 97//97 43//43 54//54 
f 26//26 38//38 40//40 
f 38//38 24//24 39//39 
f 40//40 38//38 39//39 
f 56//56 39//39 24//24 
f 99//99 41//41 37//37 
f 99//99 42//42 41//41 
f 100//100 40//40 39//39 
f 39//39 56//56 44//44 
f 39//39 44//44 100//100 
f 99//99 37//37 52//52 
f 101//101 103//103 41//41 
f 103//103 37//37 41//41 
f 53//53 104//104 102//102 
f 46//46 24//24 22//22 
f 56//56 24//24 46//46 
f 45//45 47//47 106//106 
f 107//107 108//108 122//122 
f 67//67 34//34 36//36 
f 67//67 80//80 34//34 
f 48//48 57//57 67//67 
f 49//49 50//50 58//58 
f 51//51 111//111 98//98 
f 49//49 113//113 50//50 
f 117//117 51//51 98//98 
f 50//50 69//69 58//58 
f 113//113 69//69 50//50 
f 26//26 114//114 112//112 
f 26//26 40//40 114//114 
f 44//44 115//115 100//100 
f 55//55 105//105 116//116 
f 118//118 105//105 55//55 
f 69//69 113//113 119//119 
f 120//120 51//51 117//117 
f 130//130 121//121 115//115 
f 44//44 56//56 115//115 
f 58//58 124//124 48//48 
f 70//70 125//125 58//58 
f 68//68 129//129 125//125 
f 68//68 125//125 70//70 
f 58//58 69//69 70//70 
f 6//6 59//59 61//61 
f 60//60 61//61 59//59 
f 60//60 62//62 61//61 
f 62//62 63//63 61//61 
f 63//63 62//62 64//64 
f 72//72 64//64 128//128 
f 76//76 29//29 35//35 
f 73//73 126//126 59//59 
f 73//73 59//59 29//29 
f 29//29 76//76 73//73 
f 72//72 65//65 64//64 
f 75//75 65//65 72//72 
f 47//47 45//45 66//66 
f 75//75 66//66 65//65 
f 80//80 76//76 34//34 
f 66//66 87//87 47//47 
f 129//129 68//68 136//136 
f 137//137 68//68 83//83 
f 81//81 137//137 83//83 
f 115//115 56//56 130//130 
f 123//123 87//87 131//131 
f 109//109 87//87 123//123 
f 70//70 83//83 68//68 
f 131//131 87//87 70//70 
f 83//83 70//70 87//87 
f 71//71 128//128 127//127 
f 128//128 71//71 72//72 
f 71//71 75//75 72//72 
f 126//126 73//73 71//71 
f 73//73 134//134 71//71 
f 71//71 74//74 75//75 
f 71//71 134//134 74//74 
f 79//79 75//75 74//74 
f 79//79 66//66 75//75 
f 81//81 135//135 137//137 
f 77//77 132//132 135//135 
f 81//81 77//77 135//135 
f 132//132 77//77 82//82 
f 77//77 81//81 82//82 
f 82//82 85//85 133//133 
f 78//78 79//79 74//74 
f 74//74 139//139 78//78 
f 79//79 87//87 66//66 
f 84//84 82//82 81//81 
f 85//85 82//82 84//84 
f 139//139 138//138 83//83 
f 83//83 138//138 81//81 
f 87//87 86//86 83//83 
f 83//83 86//86 139//139 
f 139//139 86//86 78//78 
f 79//79 78//78 86//86 
f 86//86 87//87 79//79 
