#
# The license for this database is specified in the Creative Commons Attribution-Share Alike 2.1 Japan. If you use data from this database, please be sure attribute this database as follows: "BodyParts3D, (c)  The Database Center for Life Science licensed under CC Attribution-Share Alike 2.1 Japan".
# http://dbarchive.biosciencedbc.jp/en/bodyparts3d/lic.html
#
#
# Compatibility version : 4.3i
# File ID : FJ6419
# Representation ID : BP50080
# Build-up logic : FMA 3.2.1-inference part_of
# Concept ID : FMA24454
# English name : Proximal phalanx of right little finger
# Bounds(mm): (220.769000,-159.557000,703.299900)-(235.162800,-138.654700,736.094200)
# Volume(cm3): 1.475500
#
v 220.972 -157.924 708.24
v 221.201 -158.472 707.806
v 221.224 -158.642 707.435
v 220.87 -158.442 707.341
v 220.993 -158.551 706.996
v 220.896 -157.855 706.425
v 221.809 -143.698 733.012
v 221.744 -153.246 710.996
v 222.087 -154.809 710.596
v 221.392 -157.759 708.938
v 221.747 -156.539 709.724
v 221.252 -156.042 710.007
v 221.078 -155.944 709.528
v 221.44 -154.69 710.19
v 221.82 -155.856 710.004
v 221.253 -155.079 709.037
v 221.762 -158.51 708.211
v 221.762 -158.797 707.574
v 221.67 -158.825 706.842
v 222.478 -158.662 707.921
v 222.404 -158.709 706.117
v 222.831 -158.882 706.939
v 223.044 -158.005 708.756
v 221.197 -158.414 706.268
v 221.58 -154.028 706.827
v 221.867 -155.031 704.732
v 222.67 -156.528 704.252
v 224.02 -143.631 735.541
v 223.717 -141.256 734.555
v 224.252 -145.897 735.062
v 225.661 -146.706 734.182
v 225.376 -145.984 735.562
v 222.545 -144.291 734.473
v 222.175 -143.013 733.863
v 222.255 -141.589 731.627
v 222.587 -140.985 731.818
v 222.662 -145.364 733.085
v 221.793 -143.452 731.801
v 221.869 -144.026 731.658
v 222.261 -144.055 730.391
v 222.161 -143.208 730.514
v 222.882 -145.052 730.297
v 222.521 -141.341 730.84
v 223.195 -145.918 726.171
v 222.862 -145.07 726.321
v 223.032 -146.176 724.291
v 222.93 -145.59 724.351
v 222.672 -147.271 720.712
v 222.883 -148.213 719.735
v 222.495 -149.143 717.496
v 224.527 -150.207 718.246
v 222.405 -148.628 717.499
v 222.684 -150.103 716.327
v 222.269 -149.967 715.272
v 223.238 -152.923 713.317
v 222.339 -151.387 711.023
v 223.299 -150.158 711.074
v 224.338 -157.074 708.601
v 225.072 -156.517 708.695
v 222.222 -152.966 706.957
v 224.099 -158.469 707.59
v 224.193 -158.683 706.888
v 224.476 -157.804 708.37
v 225.188 -158.626 707.347
v 224.999 -158.86 706.579
v 225.585 -158.025 708.165
v 225.707 -157.451 708.414
v 222.974 -153.852 704.881
v 223.046 -154.396 704.324
v 224.26 -153.405 705.244
v 224.744 -154.142 704.647
v 226.644 -159.461 706.334
v 224.038 -158.625 705.756
v 225.905 -159.038 705.073
v 224.714 -157.912 704.388
v 224.099 -155.384 704.132
v 224.525 -156.508 703.987
v 225.546 -156.992 703.842
v 225.524 -156.198 703.816
v 224.698 -140.205 733.85
v 227.981 -145.476 735.981
v 228.311 -146.073 735.557
v 226.085 -143.858 735.532
v 224.114 -139.88 732.927
v 224.659 -139.755 733.411
v 224.147 -140.522 728.545
v 225.608 -146.682 729.335
v 225.217 -147.966 723.606
v 227.454 -151.833 716.027
v 225.357 -148.939 711.395
v 228.602 -154.358 710.892
v 226.795 -154.852 710.661
v 228.115 -155.639 709.508
v 228.782 -155.256 709.703
v 228.933 -155.818 709.225
v 229.068 -156.695 708.816
v 227.152 -158.497 708.097
v 228.422 -159.002 707.028
v 229.175 -157.375 707.447
v 225.049 -153.763 704.938
v 225.283 -153.165 705.679
v 225.759 -153.711 705.044
v 227.774 -159.428 706.717
v 227.925 -159.459 705.616
v 228.29 -159.293 705.582
v 227.047 -159.195 704.754
v 226.797 -158.69 704.218
v 226.715 -157.723 703.766
v 227.685 -159.003 704.517
v 227.482 -158.514 704.042
v 227.336 -158.214 703.883
v 228.633 -158.697 705.683
v 228.084 -158.295 704.138
v 227.933 -157.995 703.836
v 227.672 -157.401 703.581
v 228.162 -157.492 703.932
v 225.47 -155.199 704.137
v 226.52 -155.118 703.798
v 226.681 -155.834 703.472
v 226.947 -156.614 703.403
v 227.114 -154.319 704.599
v 227.485 -155.998 703.388
v 228.163 -155.553 704.476
v 230.701 -145.719 735.281
v 226.834 -139.737 732.601
v 226.725 -138.915 729.81
v 226.763 -141.415 723.994
v 230.173 -148.117 723.033
v 228.931 -146.097 716.739
v 229.952 -150.944 713.518
v 229.302 -153.549 710.366
v 229.088 -155.155 709.398
v 229.159 -155.582 709.017
v 229.265 -154.957 708.534
v 229.094 -152.734 709.149
v 229.171 -155.09 707.039
v 231.369 -144.626 734.931
v 233.316 -144.499 734.29
v 231.807 -146.439 733.797
v 233.367 -146.121 733.504
v 231.591 -146.786 732.261
v 233.123 -147.029 731.665
v 233.504 -146.973 730.805
v 233.833 -146.792 731.673
v 232.343 -146.852 730.73
v 231.899 -146.898 729.844
v 232.631 -146.857 730.319
v 232.953 -146.675 729.755
v 233.073 -146.595 725.999
v 231.963 -147.32 723.864
v 232.256 -146.883 723.572
v 231.832 -145.822 721.528
v 231.104 -148.306 720.778
v 231.548 -147.506 720.746
v 233.744 -140.571 732.266
v 234.598 -140.787 731.86
v 233.174 -139.51 731.225
v 234.341 -145.789 732.626
v 234.782 -143.362 732.816
v 235.063 -142.595 731.655
v 233.796 -140.963 728.504
v 234.292 -145.359 728.914
v 234.927 -145.119 730.236
v 220.87 -158.442 707.341
v 220.993 -158.551 706.996
v 221.744 -153.246 710.996
v 221.744 -153.246 710.996
v 222.087 -154.809 710.596
v 221.252 -156.042 710.007
v 221.252 -156.042 710.007
v 221.44 -154.69 710.19
v 221.44 -154.69 710.19
v 221.44 -154.69 710.19
v 221.197 -158.414 706.268
v 221.867 -155.031 704.732
v 224.252 -145.897 735.062
v 225.376 -145.984 735.562
v 222.269 -149.967 715.272
v 223.238 -152.923 713.317
v 227.981 -145.476 735.981
v 224.114 -139.88 732.927
v 228.933 -155.818 709.225
v 229.068 -156.695 708.816
v 229.068 -156.695 708.816
v 229.068 -156.695 708.816
v 229.068 -156.695 708.816
v 228.422 -159.002 707.028
v 229.175 -157.375 707.447
v 227.774 -159.428 706.717
v 227.933 -157.995 703.836
v 230.701 -145.719 735.281
v 226.725 -138.915 729.81
v 229.952 -150.944 713.518
v 229.159 -155.582 709.017
v 233.316 -144.499 734.29
v 232.953 -146.675 729.755
v 233.073 -146.595 725.999
v 233.073 -146.595 725.999
v 231.963 -147.32 723.864
v 231.104 -148.306 720.778
v 234.598 -140.787 731.86
v 234.598 -140.787 731.86
v 233.174 -139.51 731.225
v 233.174 -139.51 731.225
v 234.782 -143.362 732.816
v 235.063 -142.595 731.655
v 233.796 -140.963 728.504
v 234.292 -145.359 728.914
v 234.292 -145.359 728.914
v 234.927 -145.119 730.236
vn -0.901221 -0.29402 0.31836
vn -0.487582 -0.75907 0.431366
vn -0.416618 -0.891697 0.176934
vn -0.575215 -0.765848 0.28741
vn -0.437743 -0.896939 -0.0622979
vn -0.939537 -0.0874663 -0.331087
vn -0.980912 -0.0912888 0.171691
vn -0.824977 -0.132953 0.549306
vn -0.0580817 -0.704415 0.707408
vn -0.323318 -0.629953 0.706134
vn 0.16126 -0.446583 0.88009
vn -0.896032 -0.160446 0.413986
vn -0.984118 0.0773951 0.159758
vn -0.503022 -0.596083 0.625823
vn 0.201724 -0.456612 0.866495
vn -0.982888 0.184079 0.00681911
vn -0.156058 -0.825687 0.542113
vn -0.169419 -0.950089 0.261969
vn -0.245496 -0.960721 -0.129406
vn 0.0971487 -0.906048 0.411872
vn -0.165821 -0.858185 -0.485822
vn 0.0648916 -0.99619 0.0582672
vn 0.168907 -0.633616 0.754984
vn -0.317296 -0.809002 -0.494812
vn -0.922316 0.347887 -0.168249
vn -0.746712 0.497955 -0.440978
vn -0.37428 -0.216496 -0.90169
vn -0.339748 0.0893798 0.93626
vn -0.42238 0.570749 0.70416
vn -0.456876 -0.228605 0.859654
vn -0.15978 -0.967848 0.194267
vn -0.281022 -0.153569 0.947335
vn -0.776974 -0.244058 0.580298
vn -0.832454 0.28267 0.476569
vn -0.944902 0.326309 -0.0261403
vn -0.76787 0.635069 0.0840451
vn -0.697982 -0.710767 0.0873616
vn -0.990356 0.0705661 -0.119226
vn -0.937056 -0.312741 -0.155304
vn -0.936143 -0.308269 -0.169138
vn -0.967332 0.0742333 -0.2424
vn -0.747235 -0.664127 -0.0239972
vn -0.863278 0.432754 -0.259759
vn -0.795816 -0.596134 0.106303
vn -0.991818 -0.0768813 -0.101917
vn -0.824284 -0.524223 0.213882
vn -0.997921 0.0643383 -0.00380118
vn -0.979419 -0.143004 0.142439
vn -0.70422 -0.624207 0.33829
vn -0.810077 -0.491841 0.319166
vn -0.441343 -0.78111 0.441683
vn -0.992348 0.123418 0.00364235
vn -0.710624 -0.562595 0.422493
vn -0.915341 -0.313881 0.252248
vn -0.405835 -0.721463 0.56106
vn -0.894842 0.422387 -0.144385
vn -0.568438 0.736249 -0.367172
vn 0.243523 -0.331515 0.911479
vn 0.0881452 -0.483562 0.87086
vn -0.645648 0.668049 -0.369932
vn 0.125548 -0.890754 0.436801
vn -0.0192536 -0.985963 0.165847
vn 0.113054 -0.535923 0.836663
vn -0.114706 -0.867474 0.484078
vn -0.238125 -0.965613 0.104341
vn -0.0600621 -0.60322 0.79531
vn 0.0134188 -0.337175 0.941346
vn -0.343968 0.729797 -0.590832
vn -0.161266 0.432329 -0.887178
vn 0.00212778 0.732093 -0.681202
vn 0.0520308 0.515485 -0.855318
vn -0.180005 -0.974676 0.132687
vn -0.127251 -0.96278 -0.238458
vn -0.299387 -0.880904 -0.366573
vn -0.259509 -0.553097 -0.791668
vn -0.0413813 0.198911 -0.979143
vn -0.164801 -0.024617 -0.98602
vn -0.24162 -0.191082 -0.951371
vn -0.269173 0.0941764 -0.958476
vn 0.137315 0.597566 0.789974
vn 0.0816971 0.211149 0.974034
vn 0.0704202 -0.829693 0.553761
vn 0.154201 0.444369 0.882473
vn -0.63417 0.659647 0.403353
vn -0.153239 0.865562 0.476781
vn -0.753445 0.617249 -0.226549
vn -0.255909 -0.962948 0.0850947
vn -0.351197 -0.889162 0.293346
vn 0.158792 -0.875949 0.45552
vn -0.0715371 0.833154 -0.548396
vn 0.531201 -0.67094 0.517363
vn 0.0670029 -0.81246 0.579154
vn 0.126817 -0.659683 0.740767
vn 0.542274 -0.544463 0.639921
vn 0.179842 -0.507847 0.842466
vn 0.0447012 -0.437362 0.898174
vn -0.00681111 -0.641949 0.766717
vn 0.273513 -0.702542 0.656983
vn 0.876511 -0.44985 0.171358
vn 0.0482524 0.684789 -0.727142
vn 0.0808336 0.783375 -0.61627
vn 0.0440691 0.679324 -0.732514
vn 0.0319468 -0.821719 0.568996
vn 0.167098 -0.96763 -0.189129
vn 0.640468 -0.741989 -0.198123
vn -0.0980348 -0.897917 -0.429109
vn -0.163795 -0.623561 -0.764423
vn -0.174357 -0.342382 -0.923241
vn 0.23753 -0.760979 -0.603731
vn 0.133047 -0.571089 -0.810034
vn -0.0385111 -0.412746 -0.910032
vn 0.924973 -0.321062 -0.203334
vn 0.661981 -0.457468 -0.593721
vn 0.162536 -0.467666 -0.868833
vn 0.203006 -0.217888 -0.954627
vn 0.827902 -0.0509923 -0.55855
vn -0.168094 0.3595 -0.91788
vn -0.0678475 0.531334 -0.844441
vn -0.214312 0.217494 -0.952243
vn -0.14606 -0.113655 -0.982725
vn 0.326691 0.691686 -0.644083
vn 0.351637 0.260154 -0.899261
vn 0.813671 0.338337 -0.472724
vn 0.284252 -0.640944 0.713016
vn 0.168286 0.733414 0.658622
vn -0.209225 0.977526 0.0258305
vn -0.117877 0.883145 -0.454049
vn 0.224853 -0.94812 0.224745
vn 0.506306 0.6862 -0.522286
vn 0.675325 -0.665996 0.316835
vn 0.966398 -0.223296 0.127338
vn 0.860076 -0.323006 0.394889
vn 0.756308 -0.280705 0.590934
vn 0.998433 -0.042281 0.0366478
vn 0.934767 0.226367 -0.273802
vn 0.98389 0.0643567 -0.166789
vn 0.213913 0.369277 0.904365
vn 0.366271 0.299801 0.880889
vn 0.158589 -0.901687 0.402256
vn 0.4844 -0.639007 0.597517
vn -0.0235015 -0.990952 0.132142
vn 0.0555112 -0.991328 0.119109
vn 0.329495 -0.924433 -0.191979
vn 0.549501 -0.807452 0.214639
vn -0.0657483 -0.997513 -0.0253954
vn 0.0980652 -0.994997 0.019104
vn 0.0387202 -0.990634 -0.130942
vn 0.227969 -0.941414 -0.248534
vn 0.327259 -0.943127 0.0584221
vn 0.334053 -0.927108 0.169939
vn 0.899062 -0.400358 -0.177202
vn 0.949212 0.066114 -0.307612
vn 0.435821 -0.869726 0.231597
vn 0.950428 -0.285219 -0.123842
vn 0.329174 0.531195 0.780689
vn 0.467485 0.555473 0.687682
vn 0.200191 0.837458 0.508516
vn 0.822447 -0.395324 0.409023
vn 0.495172 0.341523 0.798853
vn 0.966754 0.0305992 0.253871
vn 0.205121 0.878841 -0.430772
vn 0.607818 -0.711019 -0.353566
vn 0.89893 -0.438089 0.00154284
vn -0.997888 -0.0476643 -0.0441333
vn -0.896936 -0.347863 -0.272942
vn -0.782025 -0.466756 0.413008
vn -0.967161 0.253521 -0.0180489
vn -0.536845 -0.0392872 0.842766
vn 0.0853374 -0.482543 0.871705
vn -0.536845 -0.0392872 0.842766
vn -0.824977 -0.132953 0.549306
vn -0.970612 0.157162 0.182241
vn -0.536845 -0.0392872 0.842766
vn -0.806948 -0.289872 -0.514596
vn -0.559722 -0.0344886 -0.827962
vn -0.479657 -0.817407 0.319021
vn -0.100519 -0.809634 0.578264
vn -0.9503 0.290253 -0.112622
vn -0.824977 -0.132953 0.549306
vn 0.0783928 -0.547818 0.832916
vn -0.429148 0.900869 -0.0653205
vn 0.774947 -0.21908 0.592841
vn 0.759616 -0.174816 0.626437
vn 0.334649 -0.63396 0.697212
vn 0.835727 -0.462909 0.295424
vn 0.996977 -0.0680537 0.037497
vn 0.803235 -0.582137 0.126215
vn 0.977022 0.0012896 -0.213134
vn 0.321528 -0.943347 0.0819497
vn 0.671291 -0.168266 -0.721841
vn 0.281195 0.132724 0.950428
vn 0.183198 0.893738 -0.409476
vn 0.974608 -0.192369 -0.1146
vn 0.987728 -0.0558837 0.145846
vn 0.653353 -0.289106 0.699677
vn 0.703196 -0.710957 0.00749539
vn 0.703196 -0.710957 0.00749539
vn 0.932957 -0.198071 -0.300599
vn 0.788747 -0.604461 -0.111825
vn 0.855054 -0.517092 -0.0387176
vn 0.84253 0.488549 -0.226852
vn 0.915886 0.195599 0.350563
vn 0.17633 0.884431 -0.432075
vn 0.702612 0.681843 -0.203535
vn 0.938364 -0.0819956 0.335783
vn 0.940706 0.196948 -0.276196
vn 0.906729 0.235145 -0.350072
vn 0.703196 -0.710957 0.00749539
vn 0.903223 0.062243 -0.424634
vn 0.92101 0.0929107 -0.378296
g grp1
usemtl mtl1
f 2//2 10//10 1//1 
f 2//2 1//1 4//4 
f 1//1 16//16 164//164 
f 2//2 4//4 3//3 
f 5//5 19//19 3//3 
f 5//5 3//3 4//4 
f 19//19 5//5 24//24 
f 164//164 16//16 6//6 
f 164//164 6//6 165//165 
f 174//174 165//165 6//6 
f 7//7 39//39 37//37 
f 9//9 55//55 14//14 
f 179//179 8//8 171//171 
f 55//55 53//53 166//166 
f 53//53 54//54 166//166 
f 10//10 12//12 1//1 
f 11//11 169//169 10//10 
f 10//10 17//17 23//23 
f 11//11 10//10 23//23 
f 58//58 11//11 23//23 
f 11//11 58//58 59//59 
f 63//63 58//58 23//23 
f 1//1 13//13 16//16 
f 15//15 9//9 169//169 
f 11//11 15//15 169//169 
f 12//12 172//172 13//13 
f 1//1 12//12 13//13 
f 168//168 173//173 170//170 
f 11//11 59//59 15//15 
f 172//172 16//16 13//13 
f 16//16 172//172 167//167 
f 9//9 15//15 59//59 
f 56//56 16//16 167//167 
f 16//16 56//56 25//25 
f 2//2 17//17 10//10 
f 18//18 17//17 2//2 
f 2//2 3//3 18//18 
f 18//18 3//3 19//19 
f 20//20 23//23 17//17 
f 17//17 18//18 20//20 
f 18//18 22//22 20//20 
f 22//22 18//18 19//19 
f 21//21 19//19 24//24 
f 22//22 19//19 21//21 
f 61//61 20//20 22//22 
f 22//22 62//62 61//61 
f 21//21 73//73 22//22 
f 61//61 23//23 20//20 
f 62//62 22//22 73//73 
f 63//63 23//23 61//61 
f 16//16 25//25 6//6 
f 25//25 26//26 6//6 
f 27//27 6//6 175//175 
f 60//60 26//26 25//25 
f 73//73 21//21 75//75 
f 21//21 24//24 27//27 
f 6//6 27//27 174//174 
f 75//75 21//21 27//27 
f 28//28 83//83 29//29 
f 28//28 29//29 34//34 
f 83//83 80//80 29//29 
f 30//30 32//32 28//28 
f 31//31 177//177 176//176 
f 176//176 37//37 31//31 
f 81//81 28//28 32//32 
f 33//33 37//37 176//176 
f 7//7 37//37 33//33 
f 33//33 30//30 28//28 
f 83//83 28//28 81//81 
f 33//33 28//28 34//34 
f 33//33 34//34 7//7 
f 34//34 35//35 7//7 
f 39//39 7//7 38//38 
f 7//7 35//35 38//38 
f 41//41 38//38 35//35 
f 34//34 36//36 35//35 
f 36//36 43//43 35//35 
f 35//35 43//43 41//41 
f 43//43 36//36 86//86 
f 37//37 87//87 31//31 
f 87//87 37//37 42//42 
f 38//38 41//41 39//39 
f 39//39 42//42 37//37 
f 39//39 40//40 42//42 
f 41//41 40//40 39//39 
f 40//40 41//41 45//45 
f 41//41 43//43 45//45 
f 40//40 45//45 42//42 
f 44//44 88//88 42//42 
f 42//42 45//45 44//44 
f 43//43 86//86 45//45 
f 44//44 45//45 46//46 
f 45//45 47//47 46//46 
f 42//42 88//88 87//87 
f 88//88 44//44 46//46 
f 86//86 47//47 45//45 
f 47//47 48//48 46//46 
f 48//48 47//47 86//86 
f 88//88 46//46 51//51 
f 46//46 48//48 49//49 
f 52//52 48//48 86//86 
f 49//49 51//51 46//46 
f 51//51 50//50 53//53 
f 50//50 49//49 48//48 
f 48//48 52//52 50//50 
f 51//51 49//49 50//50 
f 55//55 51//51 53//53 
f 50//50 54//54 53//53 
f 50//50 52//52 54//54 
f 52//52 56//56 178//178 
f 52//52 86//86 56//56 
f 86//86 57//57 56//56 
f 86//86 127//127 57//57 
f 89//89 55//55 9//9 
f 51//51 55//55 89//89 
f 178//178 56//56 167//167 
f 90//90 60//60 57//57 
f 92//92 9//9 59//59 
f 89//89 9//9 92//92 
f 93//93 92//92 59//59 
f 56//56 57//57 60//60 
f 60//60 25//25 56//56 
f 97//97 64//64 72//72 
f 103//103 97//97 72//72 
f 62//62 73//73 65//65 
f 64//64 63//63 61//61 
f 62//62 64//64 61//61 
f 65//65 64//64 62//62 
f 63//63 59//59 58//58 
f 66//66 63//63 64//64 
f 66//66 64//64 97//97 
f 64//64 65//65 72//72 
f 67//67 59//59 63//63 
f 67//67 63//63 66//66 
f 67//67 66//66 97//97 
f 68//68 26//26 60//60 
f 68//68 69//69 26//26 
f 90//90 68//68 60//60 
f 27//27 175//175 69//69 
f 70//70 68//68 90//90 
f 70//70 69//69 68//68 
f 71//71 76//76 69//69 
f 69//69 70//70 71//71 
f 101//101 70//70 90//90 
f 100//100 70//70 101//101 
f 100//100 71//71 70//70 
f 65//65 74//74 72//72 
f 74//74 65//65 73//73 
f 74//74 73//73 75//75 
f 74//74 75//75 107//107 
f 106//106 74//74 107//107 
f 107//107 75//75 108//108 
f 72//72 74//74 106//106 
f 75//75 27//27 77//77 
f 76//76 77//77 27//27 
f 117//117 76//76 71//71 
f 77//77 76//76 117//117 
f 75//75 77//77 78//78 
f 78//78 79//79 120//120 
f 77//77 79//79 78//78 
f 79//79 77//77 117//117 
f 108//108 75//75 78//78 
f 102//102 117//117 71//71 
f 69//69 76//76 27//27 
f 80//80 85//85 29//29 
f 85//85 80//80 125//125 
f 180//180 177//177 82//82 
f 82//82 177//177 31//31 
f 124//124 180//180 82//82 
f 83//83 125//125 80//80 
f 34//34 29//29 36//36 
f 84//84 29//29 85//85 
f 36//36 29//29 84//84 
f 36//36 181//181 86//86 
f 181//181 126//126 86//86 
f 85//85 125//125 126//126 
f 126//126 181//181 85//85 
f 126//126 127//127 86//86 
f 146//146 31//31 87//87 
f 88//88 51//51 89//89 
f 127//127 90//90 57//57 
f 91//91 89//89 92//92 
f 130//130 89//89 91//91 
f 93//93 91//91 92//92 
f 93//93 94//94 91//91 
f 121//121 102//102 90//90 
f 129//129 121//121 90//90 
f 96//96 93//93 59//59 
f 93//93 95//95 94//94 
f 95//95 93//93 96//96 
f 91//91 94//94 132//132 
f 182//182 133//133 94//94 
f 133//133 132//132 94//94 
f 182//182 183//183 133//133 
f 97//97 103//103 98//98 
f 184//184 97//97 98//98 
f 185//185 187//187 99//99 
f 187//187 112//112 99//99 
f 67//67 97//97 59//59 
f 96//96 59//59 97//97 
f 102//102 118//118 117//117 
f 102//102 100//100 101//101 
f 100//100 102//102 71//71 
f 90//90 102//102 101//101 
f 104//104 189//189 72//72 
f 106//106 104//104 72//72 
f 105//105 189//189 104//104 
f 105//105 187//187 189//189 
f 105//105 112//112 187//187 
f 111//111 107//107 108//108 
f 109//109 104//104 106//106 
f 106//106 107//107 109//109 
f 109//109 107//107 110//110 
f 110//110 107//107 111//111 
f 105//105 104//104 109//109 
f 113//113 105//105 109//109 
f 113//113 109//109 110//110 
f 111//111 108//108 115//115 
f 115//115 108//108 120//120 
f 113//113 110//110 114//114 
f 110//110 111//111 114//114 
f 114//114 111//111 115//115 
f 105//105 113//113 112//112 
f 112//112 113//113 116//116 
f 116//116 113//113 190//190 
f 190//190 115//115 116//116 
f 188//188 112//112 116//116 
f 123//123 116//116 122//122 
f 123//123 188//188 116//116 
f 119//119 79//79 117//117 
f 118//118 119//119 117//117 
f 108//108 78//78 120//120 
f 79//79 119//119 120//120 
f 119//119 118//118 122//122 
f 121//121 118//118 102//102 
f 118//118 121//121 122//122 
f 122//122 120//120 119//119 
f 120//120 122//122 115//115 
f 116//116 115//115 122//122 
f 136//136 188//188 123//123 
f 123//123 122//122 121//121 
f 139//139 124//124 82//82 
f 81//81 137//137 83//83 
f 81//81 191//191 137//137 
f 137//137 125//125 83//83 
f 125//125 157//157 126//126 
f 141//141 139//139 82//82 
f 82//82 31//31 141//141 
f 31//31 146//146 141//141 
f 161//161 127//127 192//192 
f 146//146 87//87 128//128 
f 128//128 87//87 88//88 
f 161//161 129//129 127//127 
f 128//128 88//88 89//89 
f 89//89 153//153 128//128 
f 129//129 90//90 127//127 
f 130//130 153//153 89//89 
f 135//135 129//129 152//152 
f 123//123 129//129 135//135 
f 152//152 193//193 135//135 
f 121//121 129//129 123//123 
f 131//131 130//130 91//91 
f 193//193 131//131 135//135 
f 131//131 134//134 135//135 
f 132//132 131//131 91//91 
f 132//132 194//194 134//134 
f 194//194 186//186 134//134 
f 186//186 136//136 134//134 
f 131//131 132//132 134//134 
f 134//134 136//136 135//135 
f 136//136 186//186 188//188 
f 135//135 136//136 123//123 
f 191//191 138//138 137//137 
f 138//138 155//155 137//137 
f 155//155 125//125 137//137 
f 124//124 140//140 195//195 
f 140//140 124//124 139//139 
f 142//142 139//139 141//141 
f 144//144 139//139 142//142 
f 140//140 139//139 144//144 
f 144//144 158//158 140//140 
f 203//203 161//161 192//192 
f 141//141 145//145 142//142 
f 144//144 142//142 143//143 
f 143//143 142//142 145//145 
f 145//145 141//141 146//146 
f 146//146 147//147 145//145 
f 146//146 148//148 147//147 
f 145//145 147//147 143//143 
f 143//143 147//147 148//148 
f 148//148 146//146 149//149 
f 148//148 162//162 143//143 
f 196//196 197//197 208//208 
f 198//198 207//207 209//209 
f 146//146 128//128 149//149 
f 207//207 198//198 152//152 
f 150//150 128//128 153//153 
f 149//149 128//128 150//150 
f 200//200 151//151 199//199 
f 152//152 198//198 151//151 
f 199//199 151//151 198//198 
f 151//151 200//200 154//154 
f 154//154 200//200 193//193 
f 154//154 193//193 152//152 
f 151//151 154//154 152//152 
f 159//159 155//155 138//138 
f 155//155 159//159 156//156 
f 157//157 155//155 156//156 
f 204//204 201//201 207//207 
f 157//157 125//125 155//155 
f 163//163 158//158 144//144 
f 140//140 158//158 195//195 
f 205//205 195//195 158//158 
f 158//158 163//163 205//205 
f 163//163 160//160 205//205 
f 205//205 160//160 202//202 
f 207//207 201//201 206//206 
f 210//210 207//207 206//206 
f 143//143 162//162 163//163 
f 210//210 209//209 207//207 
f 143//143 163//163 144//144 
f 152//152 129//129 207//207 
