#
# The license for this database is specified in the Creative Commons Attribution-Share Alike 2.1 Japan. If you use data from this database, please be sure attribute this database as follows: "BodyParts3D, (c)  The Database Center for Life Science licensed under CC Attribution-Share Alike 2.1 Japan".
# http://dbarchive.biosciencedbc.jp/en/bodyparts3d/lic.html
#
#
# Compatibility version : 4.3i
# File ID : FJ6403
# Representation ID : BP49184
# Build-up logic : FMA 3.2.1-inference part_of
# Concept ID : FMA32644
# English name : Middle phalanx of right third toe
# Bounds(mm): (137.546900,-215.917100,-69.059800)-(150.520300,-198.902100,-60.848600)
# Volume(cm3): 0.410500
#
v 144.921 -215.543 -65.164
v 144.27 -215.678 -65.7146
v 144.405 -215.587 -65.3291
v 144.47 -215.053 -64.9286
v 144.83 -215.792 -65.4788
v 145.192 -215.65 -65.69
v 145.306 -215.564 -65.362
v 144.567 -215.867 -66.3788
v 145.035 -215.586 -66.6907
v 144.796 -215.388 -67.3723
v 146.255 -214.73 -64.8046
v 146.296 -214.084 -64.4559
v 143.917 -215.549 -67.4233
v 143.561 -214.293 -68.1376
v 143.738 -214.688 -65.2275
v 143.837 -214.476 -64.9764
v 143.522 -214.017 -65.1287
v 143.37 -214.688 -66.4202
v 143.655 -215.311 -66.9837
v 143.944 -214.026 -64.8372
v 143.694 -213.664 -64.9044
v 144.664 -211.862 -64.4871
v 142.866 -212.51 -66.6051
v 142.579 -210.875 -66.7164
v 143.203 -212.007 -65.2949
v 142.367 -210.323 -65.8625
v 142.478 -209.218 -64.5114
v 141.686 -208.674 -65.4814
v 142.832 -208.056 -63.4625
v 140.018 -206.394 -65.4709
v 140.25 -206.303 -64.0622
v 138.424 -204.865 -66.0323
v 139.225 -204.942 -63.2382
v 140.549 -204.189 -61.572
v 139.546 -203.76 -61.9713
v 140.096 -203.22 -61.3971
v 141.436 -203.086 -60.9255
v 142.079 -203.788 -61.1057
v 137.864 -204.36 -65.185
v 138.079 -203.307 -65.5312
v 137.633 -203.807 -66.7697
v 138.292 -203.93 -63.6428
v 138.289 -203.44 -64.0671
v 139.312 -202.845 -61.9534
v 140.032 -202.204 -61.4934
v 139.356 -202.356 -62.0059
v 140.426 -201.681 -61.7553
v 147.139 -214.208 -66.6189
v 147.149 -213.652 -67.3636
v 147.017 -214.537 -65.4435
v 148.812 -213.211 -64.423
v 148.616 -211.823 -64.0166
v 149.288 -213.44 -65.0129
v 144.596 -214.819 -68.0541
v 143.991 -214.509 -68.4277
v 144.425 -213.875 -68.548
v 144.149 -213.564 -68.5539
v 145.431 -212.626 -68.4048
v 145.146 -212.121 -68.3157
v 147.738 -209.792 -63.897
v 143.268 -212.192 -67.5975
v 143.172 -210.572 -67.3213
v 142.666 -209.079 -67.1254
v 142.122 -209.369 -66.509
v 144.559 -206.744 -62.7001
v 140.531 -206.634 -66.1481
v 141.426 -207.669 -66.4575
v 142.328 -207.507 -67.2543
v 141.353 -206.257 -67.3407
v 141.697 -205.659 -67.7634
v 139.516 -204.464 -68.545
v 139.52 -204.025 -68.793
v 138.644 -204.626 -67.3334
v 140.206 -204.917 -68.0061
v 140.76 -205.017 -68.1267
v 141.527 -201.287 -61.2467
v 141.886 -201.054 -61.7309
v 143.735 -202.347 -61.2402
v 142.902 -201.267 -61.1463
v 142.889 -200.856 -61.4507
v 138.383 -203.679 -68.18
v 138.908 -204.094 -68.4219
v 138.014 -204.343 -67.1744
v 138.095 -202.312 -67.9022
v 138.629 -201.489 -67.398
v 149.871 -212.937 -65.9973
v 150.164 -212.42 -66.3426
v 149.942 -211.723 -66.9777
v 150.162 -211.351 -66.8505
v 149.804 -212.866 -64.6859
v 149.265 -211.382 -64.0712
v 149.974 -213.05 -65.5303
v 150.201 -212.887 -65.2456
v 150.195 -212.513 -64.9772
v 150.37 -212.616 -65.8506
v 150.485 -212.443 -65.619
v 150.396 -212.063 -65.368
v 150.481 -211.847 -66.3561
v 150.441 -211.679 -65.9663
v 150.361 -211.481 -66.4438
v 149.9 -210.849 -66.604
v 147.168 -210.336 -67.4803
v 149.055 -211.284 -67.5483
v 148.6 -210.765 -67.5856
v 149.579 -210.644 -66.9309
v 149.411 -210.536 -64.3624
v 148.212 -208.707 -64.8347
v 149.627 -210.468 -65.6461
v 148.869 -209.577 -66.0848
v 148.206 -209.465 -66.679
v 146.146 -209.299 -67.3609
v 147.851 -208.422 -65.9129
v 147.182 -208.527 -66.581
v 144.153 -208.466 -67.4725
v 145.695 -206.797 -66.9182
v 146.15 -205.504 -66.0328
v 146.303 -205.96 -63.7648
v 143.613 -204.064 -67.577
v 145.902 -202.802 -63.7666
v 145.399 -202.852 -62.666
v 145.803 -202.717 -63.1409
v 145.566 -201.894 -62.6271
v 145.827 -201.841 -63.0953
v 145.522 -201.195 -62.815
v 141.163 -204.913 -68.1455
v 140.455 -204.516 -68.5868
v 141.391 -203.767 -68.3982
v 144.206 -201.029 -61.7183
v 143.405 -200.946 -62.9
v 144.21 -200.653 -62.2673
v 144.571 -200.431 -63.6327
v 138.783 -202.153 -68.5821
v 139.143 -201.098 -68.1644
v 140.092 -203.246 -68.9746
v 140.797 -201.461 -68.4957
v 145.208 -204.147 -67.0511
v 145.66 -203.32 -66.4554
v 145.199 -203.005 -67.3018
v 145.64 -202.401 -67.1536
v 145.753 -202.158 -66.8447
v 144.975 -202.339 -67.7671
v 145.615 -201.714 -67.3751
v 144.06 -202.871 -67.7645
v 144.75 -201.628 -67.892
v 144.465 -199.633 -64.9041
v 145.887 -200.598 -65.0594
v 145.544 -200.128 -66.5293
v 145.781 -200.78 -63.6658
v 145.386 -200.246 -63.6451
v 143.198 -199.217 -66.2999
v 144.689 -199.074 -65.9824
v 143.751 -199.327 -67.3713
v 144.567 -215.867 -66.3788
v 143.917 -215.549 -67.4233
v 143.917 -215.549 -67.4233
v 142.478 -209.218 -64.5114
v 137.864 -204.36 -65.185
v 138.079 -203.307 -65.5312
v 137.633 -203.807 -66.7697
v 138.289 -203.44 -64.0671
v 140.032 -202.204 -61.4934
v 139.356 -202.356 -62.0059
v 139.356 -202.356 -62.0059
v 143.991 -214.509 -68.4277
v 143.991 -214.509 -68.4277
v 142.122 -209.369 -66.509
v 141.527 -201.287 -61.2467
v 142.889 -200.856 -61.4507
v 150.162 -211.351 -66.8505
v 148.212 -208.707 -64.8347
v 144.153 -208.466 -67.4725
v 146.15 -205.504 -66.0328
v 146.303 -205.96 -63.7648
v 144.21 -200.653 -62.2673
v 139.143 -201.098 -68.1644
v 145.208 -204.147 -67.0511
v 145.615 -201.714 -67.3751
v 145.887 -200.598 -65.0594
v 145.544 -200.128 -66.5293
v 145.544 -200.128 -66.5293
v 145.386 -200.246 -63.6451
v 144.689 -199.074 -65.9824
v 144.689 -199.074 -65.9824
v 144.689 -199.074 -65.9824
v 143.751 -199.327 -67.3713
vn 0.0393895 -0.650917 0.758126
vn -0.593235 -0.776079 0.213948
vn -0.402403 -0.689338 0.602399
vn -0.294954 -0.41541 0.860486
vn 0.0522695 -0.94763 0.315064
vn 0.470722 -0.880542 -0.0553766
vn 0.40311 -0.847565 0.345161
vn -0.373455 -0.922775 0.0949626
vn 0.455624 -0.851373 -0.259944
vn 0.363622 -0.782062 -0.506122
vn 0.305563 -0.726787 0.615152
vn -0.0333883 -0.270027 0.962274
vn 0.150355 -0.787686 -0.597449
vn -0.849931 -0.211058 -0.482776
vn -0.727528 -0.479107 0.49108
vn -0.552039 -0.311054 0.773627
vn -0.811761 -0.210031 0.544913
vn -0.921662 -0.372303 0.109222
vn -0.842759 -0.536392 -0.0451697
vn -0.347067 -0.152711 0.925324
vn -0.53908 -0.072611 0.839119
vn -0.287285 -0.212067 0.934074
vn -0.977396 -0.210983 0.0135082
vn -0.884333 -0.179409 -0.431007
vn -0.744682 -0.171181 0.645094
vn -0.92674 -0.337538 0.164991
vn -0.831443 -0.454882 0.319037
vn -0.89453 -0.447 0.00273113
vn -0.330717 -0.494964 0.803515
vn -0.747432 -0.662309 -0.0518883
vn -0.616429 -0.656598 0.434619
vn -0.567918 -0.77926 -0.264996
vn -0.62361 -0.593018 0.509353
vn -0.36998 -0.499811 0.783137
vn -0.628842 -0.35453 0.692002
vn -0.470608 -0.149881 0.869519
vn -0.12591 -0.0514599 0.990706
vn 0.0285462 -0.354873 0.934479
vn -0.737898 -0.666007 0.109272
vn -0.93493 0.302585 0.185332
vn -0.885941 -0.303393 -0.350801
vn -0.911531 -0.0610267 0.406679
vn -0.949917 0.200383 0.2398
vn -0.712238 -0.0154393 0.701768
vn -0.453979 0.10936 0.884275
vn -0.826189 0.185347 0.532033
vn -0.495217 0.854942 0.154383
vn 0.492893 -0.815949 -0.302132
vn 0.439309 -0.51242 -0.737858
vn 0.490184 -0.870435 0.0454082
vn 0.271553 -0.466397 0.841862
vn 0.0828634 -0.158471 0.98388
vn 0.466218 -0.854475 0.229159
vn 0.295249 -0.574258 -0.763581
vn -0.641724 -0.508337 -0.574268
vn 0.228799 -0.21691 -0.949
vn -0.28246 0.100607 -0.953989
vn 0.178258 0.0549576 -0.982448
vn -0.0798292 0.245432 -0.966121
vn 0.255331 0.0798822 0.963548
vn -0.656958 0.088916 -0.748666
vn -0.532929 0.0291675 -0.845657
vn -0.53685 -0.134346 -0.832912
vn -0.931678 -0.313849 -0.182962
vn 0.210084 -0.249278 0.94537
vn -0.669369 -0.589235 -0.45249
vn -0.732678 -0.413341 -0.540677
vn -0.411739 -0.269062 -0.870676
vn -0.421307 -0.520705 -0.742541
vn 0.0622202 -0.330154 -0.941874
vn -0.296614 -0.702948 -0.64644
vn -0.256721 -0.27535 -0.926432
vn -0.40847 -0.841132 -0.354471
vn -0.298495 -0.803505 -0.515053
vn -0.0833367 -0.602063 -0.794088
vn -0.140279 0.326857 0.934605
vn -0.300194 0.949882 -0.0872166
vn 0.434187 -0.0573058 0.898998
vn 0.122965 0.329706 0.936041
vn -0.220974 0.969367 0.107227
vn -0.740233 -0.19476 -0.643525
vn -0.537116 -0.457253 -0.70882
vn -0.698343 -0.634218 -0.331792
vn -0.890682 0.341751 -0.299821
vn -0.687809 0.704442 0.175158
vn 0.510436 -0.732172 -0.450976
vn 0.591981 -0.537385 -0.600647
vn 0.562558 -0.305123 -0.768393
vn 0.833062 0.444666 -0.329058
vn 0.567513 -0.455802 0.685693
vn 0.424745 -0.0445217 0.904218
vn 0.540932 -0.824892 -0.164152
vn 0.753944 -0.617625 0.223848
vn 0.816477 -0.0917039 0.570048
vn 0.753871 -0.588977 -0.291179
vn 0.977447 -0.164008 0.133039
vn 0.917178 0.148918 0.369605
vn 0.921733 -0.109384 -0.372079
vn 0.934679 0.332314 0.126266
vn 0.886824 0.447866 -0.113835
vn 0.757943 0.625613 -0.184746
vn 0.162458 0.362747 -0.917617
vn 0.427314 0.0138788 -0.903997
vn 0.254204 0.418215 -0.872053
vn 0.616502 0.602266 -0.50715
vn 0.750756 0.37315 0.545091
vn 0.583856 0.369478 0.72291
vn 0.790129 0.612637 0.0192971
vn 0.703462 0.664564 -0.251984
vn 0.405861 0.58228 -0.704434
vn 0.283949 0.313487 -0.906145
vn 0.698432 0.569447 -0.4335
vn 0.50521 0.397924 -0.76578
vn -0.306958 -0.0824815 -0.948142
vn 0.450112 0.156823 -0.879094
vn 0.902796 0.428052 -0.0416006
vn 0.643096 0.0275352 0.76529
vn 0.263184 -0.0935515 -0.960199
vn 0.99855 0.0430639 0.0323161
vn 0.701851 -0.0993485 0.705362
vn 0.906142 -0.0260402 0.422172
vn 0.744363 0.026805 0.667237
vn 0.954952 0.0820321 0.285197
vn 0.751897 0.365146 0.548926
vn 0.224498 -0.403401 -0.887056
vn 0.0790118 -0.515819 -0.853046
vn 0.3557 -0.144148 -0.923417
vn 0.449323 0.496475 0.742712
vn -0.343819 0.928932 -0.137379
vn -0.248185 0.968513 -0.0196771
vn -0.363979 0.904956 0.220395
vn -0.429445 0.139841 -0.8922
vn -0.593303 0.768283 -0.240279
vn 0.102508 -0.0246707 -0.994426
vn 0.131846 0.123611 -0.983533
vn 0.319836 -0.148474 -0.935767
vn 0.957648 -0.0518288 -0.28324
vn 0.599258 -0.309405 -0.738348
vn 0.818597 -0.232164 -0.525356
vn 0.983017 -0.048594 -0.176963
vn 0.408287 -0.228621 -0.883761
vn 0.571688 0.158239 -0.805068
vn 0.237273 -0.274073 -0.931979
vn 0.342914 0.145771 -0.927987
vn -0.264405 0.816959 0.512512
vn 0.997898 0.0425622 -0.0488741
vn 0.973243 0.140596 -0.181741
vn 0.883653 0.373622 0.28207
vn 0.661771 0.646905 0.37891
vn -0.34864 0.90727 0.235182
vn 0.76653 0.639356 0.060461
vn -0.188788 0.962068 -0.196939
vn 0.325517 -0.917273 -0.229453
vn -0.546569 -0.835921 0.0499868
vn -0.766158 -0.467707 -0.44074
vn -0.497817 -0.433264 0.751306
vn -0.941927 0.26159 0.210579
vn -0.464757 0.760393 0.453656
vn -0.921437 0.335067 0.19668
vn -0.42088 0.892996 -0.159431
vn -0.518837 0.661861 0.541063
vn -0.491087 0.849601 -0.192385
vn -0.540527 0.665198 0.515113
vn 0.212325 -0.554701 -0.804503
vn -0.346472 -0.0671633 -0.935653
vn -0.69117 -0.186871 -0.698114
vn -0.39285 0.856941 0.333647
vn 0.131084 0.674912 0.726162
vn 0.609367 0.0387613 -0.79194
vn 0.807968 0.589155 -0.00919403
vn 0.180317 0.149567 -0.97217
vn 0.700166 0.212145 -0.681735
vn 0.965278 0.260783 0.0151628
vn 0.286731 0.789429 0.542758
vn -0.0761153 0.460938 -0.884162
vn 0.812896 0.0202904 -0.582055
vn 0.974281 0.0613297 -0.21683
vn 0.77826 0.622008 0.086132
vn 0.780764 0.624578 0.0176021
vn 0.543703 0.562381 -0.622989
vn -0.146063 0.916891 0.371452
vn -0.102316 0.8919 0.440506
vn 0.536586 0.688588 -0.487772
vn -0.0652552 0.988562 -0.135967
vn 0.352228 0.485909 -0.799893
g grp1
usemtl mtl1
f 10//10 54//54 49//49 
f 10//10 13//13 54//54 
f 3//3 4//4 15//15 
f 2//2 5//5 3//3 
f 3//3 5//5 1//1 
f 1//1 4//4 3//3 
f 1//1 12//12 4//4 
f 16//16 15//15 4//4 
f 6//6 7//7 5//5 
f 5//5 7//7 1//1 
f 12//12 1//1 11//11 
f 11//11 1//1 7//7 
f 2//2 8//8 5//5 
f 6//6 5//5 153//153 
f 154//154 8//8 2//2 
f 19//19 154//154 2//2 
f 6//6 50//50 7//7 
f 7//7 50//50 11//11 
f 10//10 153//153 13//13 
f 9//9 6//6 153//153 
f 10//10 9//9 153//153 
f 9//9 48//48 6//6 
f 9//9 10//10 48//48 
f 48//48 50//50 6//6 
f 10//10 49//49 48//48 
f 19//19 14//14 155//155 
f 19//19 18//18 14//14 
f 23//23 14//14 18//18 
f 14//14 55//55 155//155 
f 164//164 54//54 13//13 
f 57//57 165//165 14//14 
f 14//14 61//61 57//57 
f 23//23 61//61 14//14 
f 15//15 2//2 3//3 
f 15//15 16//16 17//17 
f 18//18 15//15 17//17 
f 16//16 4//4 20//20 
f 2//2 15//15 18//18 
f 16//16 20//20 17//17 
f 20//20 21//21 17//17 
f 18//18 17//17 23//23 
f 18//18 19//19 2//2 
f 21//21 20//20 22//22 
f 4//4 12//12 20//20 
f 12//12 22//22 20//20 
f 21//21 22//22 25//25 
f 22//22 12//12 60//60 
f 23//23 17//17 25//25 
f 23//23 25//25 27//27 
f 23//23 27//27 26//26 
f 23//23 24//24 61//61 
f 23//23 26//26 24//24 
f 24//24 62//62 61//61 
f 21//21 25//25 17//17 
f 25//25 22//22 156//156 
f 22//22 29//29 156//156 
f 22//22 65//65 29//29 
f 26//26 28//28 24//24 
f 28//28 64//64 24//24 
f 64//64 28//28 67//67 
f 26//26 27//27 28//28 
f 67//67 28//28 30//30 
f 27//27 30//30 28//28 
f 65//65 38//38 29//29 
f 30//30 32//32 66//66 
f 67//67 30//30 66//66 
f 31//31 29//29 34//34 
f 29//29 31//31 156//156 
f 27//27 31//31 30//30 
f 29//29 38//38 34//34 
f 39//39 30//30 31//31 
f 39//39 32//32 30//30 
f 34//34 35//35 33//33 
f 31//31 33//33 39//39 
f 33//33 35//35 42//42 
f 39//39 33//33 42//42 
f 34//34 33//33 31//31 
f 34//34 36//36 35//35 
f 35//35 44//44 42//42 
f 34//34 37//37 36//36 
f 44//44 35//35 36//36 
f 36//36 45//45 44//44 
f 34//34 38//38 37//37 
f 45//45 36//36 37//37 
f 45//45 37//37 76//76 
f 161//161 167//167 47//47 
f 83//83 32//32 39//39 
f 83//83 73//73 32//32 
f 83//83 39//39 41//41 
f 159//159 157//157 40//40 
f 84//84 159//159 40//40 
f 40//40 157//157 42//42 
f 40//40 42//42 43//43 
f 42//42 46//46 43//43 
f 131//131 158//158 160//160 
f 42//42 44//44 46//46 
f 46//46 44//44 45//45 
f 160//160 162//162 47//47 
f 163//163 161//161 47//47 
f 50//50 53//53 11//11 
f 50//50 48//48 53//53 
f 48//48 92//92 53//53 
f 11//11 51//51 12//12 
f 12//12 51//51 52//52 
f 11//11 53//53 51//51 
f 51//51 91//91 52//52 
f 92//92 93//93 53//53 
f 53//53 93//93 90//90 
f 90//90 51//51 53//53 
f 91//91 51//51 90//90 
f 52//52 91//91 60//60 
f 56//56 54//54 164//164 
f 165//165 57//57 56//56 
f 54//54 56//56 49//49 
f 58//58 49//49 56//56 
f 57//57 58//58 56//56 
f 57//57 59//59 58//58 
f 58//58 59//59 102//102 
f 60//60 12//12 52//52 
f 60//60 65//65 22//22 
f 114//114 61//61 62//62 
f 59//59 57//57 61//61 
f 59//59 61//61 114//114 
f 59//59 171//171 102//102 
f 117//117 65//65 60//60 
f 24//24 63//63 62//62 
f 24//24 166//166 63//63 
f 166//166 67//67 63//63 
f 68//68 63//63 67//67 
f 62//62 63//63 114//114 
f 63//63 68//68 114//114 
f 67//67 66//66 69//69 
f 69//69 66//66 32//32 
f 68//68 67//67 69//69 
f 114//114 68//68 69//69 
f 70//70 114//114 69//69 
f 78//78 65//65 117//117 
f 38//38 65//65 78//78 
f 122//122 78//78 120//120 
f 71//71 73//73 82//82 
f 126//126 74//74 71//71 
f 126//126 71//71 72//72 
f 72//72 71//71 82//82 
f 74//74 32//32 73//73 
f 69//69 32//32 74//74 
f 74//74 73//73 71//71 
f 70//70 69//69 75//75 
f 75//75 74//74 126//126 
f 75//75 69//69 74//74 
f 70//70 75//75 125//125 
f 125//125 75//75 126//126 
f 131//131 145//145 158//158 
f 77//77 160//160 47//47 
f 131//131 160//160 129//129 
f 47//47 167//167 77//77 
f 37//37 38//38 78//78 
f 78//78 79//79 37//37 
f 167//167 80//80 77//77 
f 37//37 79//79 76//76 
f 168//168 76//76 79//79 
f 160//160 77//77 129//129 
f 128//128 79//79 78//78 
f 128//128 168//168 79//79 
f 77//77 130//130 129//129 
f 174//174 168//168 128//128 
f 130//130 77//77 80//80 
f 122//122 128//128 78//78 
f 83//83 82//82 73//73 
f 83//83 81//81 82//82 
f 132//132 82//82 81//81 
f 82//82 132//132 72//72 
f 41//41 81//81 83//83 
f 84//84 81//81 41//41 
f 84//84 40//40 85//85 
f 85//85 158//158 150//150 
f 84//84 132//132 81//81 
f 133//133 84//84 85//85 
f 84//84 133//133 132//132 
f 85//85 150//150 133//133 
f 92//92 48//48 86//86 
f 92//92 86//86 95//95 
f 86//86 87//87 95//95 
f 48//48 49//49 86//86 
f 86//86 49//49 87//87 
f 87//87 98//98 95//95 
f 49//49 88//88 87//87 
f 88//88 98//98 87//87 
f 58//58 103//103 49//49 
f 89//89 100//100 98//98 
f 88//88 103//103 169//169 
f 49//49 103//103 88//88 
f 98//98 88//88 169//169 
f 100//100 89//89 101//101 
f 89//89 105//105 101//101 
f 103//103 105//105 169//169 
f 90//90 93//93 94//94 
f 94//94 91//91 90//90 
f 91//91 94//94 106//106 
f 91//91 106//106 60//60 
f 94//94 97//97 106//106 
f 93//93 92//92 95//95 
f 96//96 93//93 95//95 
f 96//96 94//94 93//93 
f 94//94 96//96 97//97 
f 97//97 99//99 106//106 
f 98//98 96//96 95//95 
f 99//99 96//96 98//98 
f 96//96 99//99 97//97 
f 99//99 98//98 100//100 
f 100//100 101//101 108//108 
f 99//99 100//100 108//108 
f 102//102 104//104 58//58 
f 104//104 103//103 58//58 
f 102//102 111//111 110//110 
f 104//104 102//102 110//110 
f 103//103 104//104 105//105 
f 105//105 104//104 110//110 
f 106//106 107//107 60//60 
f 108//108 106//106 99//99 
f 106//106 108//108 170//170 
f 170//170 108//108 109//109 
f 105//105 110//110 109//109 
f 101//101 105//105 108//108 
f 108//108 105//105 109//109 
f 102//102 171//171 111//111 
f 115//115 111//111 171//171 
f 115//115 113//113 111//111 
f 110//110 111//111 113//113 
f 109//109 112//112 170//170 
f 112//112 116//116 170//170 
f 112//112 113//113 172//172 
f 112//112 110//110 113//113 
f 112//112 109//109 110//110 
f 107//107 117//117 60//60 
f 171//171 118//118 115//115 
f 115//115 118//118 136//136 
f 172//172 113//113 115//115 
f 170//170 116//116 173//173 
f 137//137 173//173 116//116 
f 70//70 118//118 171//171 
f 70//70 127//127 118//118 
f 136//136 118//118 143//143 
f 115//115 176//176 172//172 
f 137//137 172//172 176//176 
f 135//135 143//143 118//118 
f 120//120 117//117 121//121 
f 119//119 121//121 173//173 
f 119//119 173//173 137//137 
f 146//146 119//119 137//137 
f 123//123 119//119 146//146 
f 78//78 117//117 120//120 
f 122//122 124//124 128//128 
f 120//120 121//121 122//122 
f 119//119 123//123 121//121 
f 122//122 121//121 123//123 
f 122//122 123//123 124//124 
f 124//124 123//123 148//148 
f 125//125 127//127 70//70 
f 125//125 126//126 127//127 
f 126//126 72//72 134//134 
f 127//127 126//126 134//134 
f 127//127 135//135 118//118 
f 127//127 134//134 135//135 
f 131//131 129//129 130//130 
f 149//149 128//128 124//124 
f 128//128 149//149 174//174 
f 148//148 149//149 124//124 
f 131//131 130//130 181//181 
f 72//72 132//132 134//134 
f 135//135 134//134 132//132 
f 132//132 175//175 135//135 
f 150//150 152//152 133//133 
f 135//135 175//175 185//185 
f 158//158 145//145 150//150 
f 136//136 143//143 138//138 
f 176//176 138//138 137//137 
f 143//143 141//141 138//138 
f 138//138 141//141 139//139 
f 138//138 139//139 137//137 
f 139//139 140//140 137//137 
f 146//146 137//137 140//140 
f 141//141 142//142 139//139 
f 177//177 140//140 139//139 
f 141//141 144//144 142//142 
f 146//146 148//148 123//123 
f 146//146 140//140 177//177 
f 147//147 146//146 177//177 
f 141//141 143//143 135//135 
f 135//135 144//144 141//141 
f 185//185 144//144 135//135 
f 142//142 144//144 185//185 
f 178//178 151//151 149//149 
f 182//182 145//145 181//181 
f 151//151 178//178 179//179 
f 185//185 180//180 142//142 
f 185//185 183//183 180//180 
f 148//148 178//178 149//149 
f 181//181 145//145 131//131 
f 184//184 152//152 150//150 
f 182//182 150//150 145//145 
