#
# The license for this database is specified in the Creative Commons Attribution-Share Alike 2.1 Japan. If you use data from this database, please be sure attribute this database as follows: "BodyParts3D, (c)  The Database Center for Life Science licensed under CC Attribution-Share Alike 2.1 Japan".
# http://dbarchive.biosciencedbc.jp/en/bodyparts3d/lic.html
#
#
# Compatibility version : 4.3i
# File ID : FJ6473
# Representation ID : BP47431
# Build-up logic : FMA 3.2.1-inference is_a
# Concept ID : FMA24486
# English name : Right patella
# Bounds(mm): (-102.288400,-122.857100,361.382700)-(-60.416000,-100.767800,401.004300)
# Volume(cm3): 11.451300
#
v -101.751 -111.615 378.965
v -101.301 -111.499 377.465
v -101.798 -112.921 379.077
v -100.862 -112.096 376.618
v -101.339 -116.036 383.406
v -99.7171 -117.377 382.474
v -102.288 -113.856 384.483
v -101.983 -114.608 385.109
v -100.938 -114.138 387.157
v -100.887 -116.302 387.073
v -100.028 -117.609 385.713
v -100.322 -113.287 386.223
v -99.0405 -113.125 386.063
v -100.607 -115.519 390.15
v -100.742 -114.836 388.878
v -99.971 -116.832 389.766
v -99.5967 -115.059 392.053
v -99.6544 -115.681 391.989
v -100.316 -114.108 389.036
v -98.961 -116.903 391.792
v -98.5627 -114.325 391.708
v -99.3078 -110.376 376.652
v -99.5181 -115.173 377.628
v -95.4045 -113.136 386.152
v -93.9332 -121.281 389.922
v -93.436 -118.402 396.493
v -94.7701 -115.364 397.204
v -95.1009 -116.539 397.017
v -93.2445 -114.703 397.724
v -92.4129 -116.773 398.634
v -91.3648 -114.654 399.19
v -91.5201 -115.58 399.402
v -97.0485 -110.276 371.355
v -96.2432 -108.872 372.411
v -94.6565 -108.446 373.238
v -96.0536 -111.484 370.003
v -93.3451 -111.103 379.924
v -93.8119 -120.56 383.686
v -91.6054 -122.327 388.034
v -90.3482 -121.817 392.958
v -88.9182 -122.714 390.361
v -87.3432 -112.012 398.137
v -89.0026 -117.977 398.213
v -87.3409 -116.1 399.656
v -90.1854 -112.152 365.134
v -88.2823 -104.905 370.49
v -91.8113 -107.071 370.294
v -91.4722 -113.628 367.864
v -86.9951 -106.019 376.279
v -89.9215 -109.428 378.74
v -89.3108 -110.873 381.749
v -86.1135 -109.137 381.075
v -87.7079 -111.164 389.8
v -88.0624 -122.271 385.567
v -85.7036 -111.652 399.815
v -85.2621 -112.673 400.796
v -82.0749 -109.469 399.1
v -80.9376 -112.073 400.509
v -82.6481 -114.348 399.906
v -88.1252 -109.63 362.63
v -88.3542 -107.944 363.598
v -87.8798 -110.272 362.506
v -87.108 -109.524 361.873
v -86.9137 -110.145 361.939
v -86.437 -108.838 361.776
v -86.3797 -109.51 361.615
v -88.6107 -112.585 364.735
v -86.9789 -110.858 362.387
v -85.517 -111.689 362.925
v -86.4608 -104.736 367.792
v -84.139 -102.942 369.849
v -85.4261 -114.246 366.926
v -81.3237 -104.325 379.918
v -80.8145 -106.478 384.706
v -79.5001 -106.134 388.065
v -84.383 -109.705 385.512
v -83.1824 -108.742 389.556
v -79.9271 -122.618 386.706
v -80.8925 -121.463 391.727
v -77.9988 -107.258 396.908
v -78.4151 -108.155 399.029
v -80.5266 -110.163 400.443
v -77.0733 -112.644 398.639
v -76.8185 -109.607 399.323
v -84.7267 -108.371 361.486
v -84.5193 -106.656 362.822
v -84.1172 -110.064 361.512
v -82.2764 -108.273 361.642
v -81.0658 -106.837 363.164
v -80.1827 -108.29 362.261
v -80.048 -109.016 362.296
v -81.721 -111.444 362.956
v -83.0481 -103.95 368.159
v -81.5417 -102.345 369.755
v -79.8337 -105.164 366.923
v -78.2758 -103.641 369.264
v -81.9088 -102.041 373.683
v -81.5923 -101.582 371.222
v -79.2668 -105.559 385.125
v -76.3776 -104.675 385.38
v -74.2715 -105.201 387.667
v -74.3941 -121.714 385.394
v -78.2225 -121.468 382.375
v -74.1577 -121.359 388.616
v -74.5251 -107.508 396.663
v -73.461 -115.121 395.028
v -76.2305 -118.794 393.437
v -76.6923 -105.675 367.646
v -76.394 -108.426 363.986
v -75.5398 -109.098 364.392
v -75.3168 -107.897 365.124
v -74.2725 -109.119 365.224
v -74.6838 -110.458 365.297
v -76.521 -100.992 371.942
v -75.4112 -101.306 374.252
v -75.4068 -115.059 369.597
v -72.9943 -104.363 382.087
v -70.7875 -119.574 390.851
v -69.0098 -108.562 392.021
v -68.9196 -109.844 393.198
v -71.5047 -113.127 394.963
v -73.1821 -107.408 367.541
v -71.88 -109.636 366.522
v -71.8701 -102.22 371.953
v -68.5798 -110.111 368.48
v -71.786 -101.623 373.54
v -69.1101 -102.789 373.22
v -68.0912 -103.892 374.827
v -69.2672 -106.552 382.335
v -69.6133 -118.705 379.669
v -67.2541 -109.507 389.858
v -64.2925 -116.9 390.144
v -64.0213 -114.386 390.094
v -66.4515 -118.805 389.824
v -64.3198 -117.579 389.807
v -66.7976 -116.934 391.713
v -68.7168 -108.356 368.457
v -65.4933 -106.414 371.919
v -64.1225 -107.065 373.064
v -63.692 -108.597 372.68
v -61.9355 -113.844 376.736
v -62.2338 -115.387 378.264
v -60.5966 -115.809 383.249
v -60.6185 -114.643 383.956
v -61.2984 -116.148 380.829
v -61.2438 -112.791 381.491
v -60.485 -113.863 381.388
v -63.2419 -116.713 389.263
v -62.5088 -114.014 387.614
v -61.8604 -115.584 387.668
v -64.3119 -118.546 387.461
v -62.5723 -117.335 387.701
v -62.9579 -117.831 384.585
v -61.4724 -110.558 377.47
v -60.6393 -114.818 379.567
v -101.751 -111.615 378.965
v -101.301 -111.499 377.465
v -102.288 -113.856 384.483
v -102.288 -113.856 384.483
v -101.983 -114.608 385.109
v -100.938 -114.138 387.157
v -100.607 -115.519 390.15
v -100.742 -114.836 388.878
v -99.5967 -115.059 392.053
v -91.5201 -115.58 399.402
v -97.0485 -110.276 371.355
v -96.2432 -108.872 372.411
v -91.8113 -107.071 370.294
v -85.7036 -111.652 399.815
v -85.2621 -112.673 400.796
v -78.4151 -108.155 399.029
v -80.5266 -110.163 400.443
v -82.2764 -108.273 361.642
v -80.1827 -108.29 362.261
v -71.88 -109.636 366.522
v -60.6185 -114.643 383.956
v -60.485 -113.863 381.388
v -61.4724 -110.558 377.47
vn -0.422269 0.892815 0.156746
vn -0.911359 0.0172659 -0.41125
vn -0.922798 -0.252871 -0.29069
vn -0.830622 -0.192099 -0.522652
vn -0.830344 -0.545089 -0.115787
vn -0.563811 -0.790256 -0.240026
vn -0.967859 -0.236939 -0.0843124
vn -0.899128 -0.436894 0.0263165
vn -0.700048 0.654872 0.284738
vn -0.925475 -0.339592 0.167848
vn -0.637402 -0.770527 0.00253916
vn -0.352345 0.894525 0.275097
vn -0.046957 0.96796 0.246676
vn -0.88423 -0.383812 0.266132
vn -0.85084 0.433259 0.297252
vn -0.727973 -0.645932 0.229839
vn -0.819503 0.145902 0.554191
vn -0.809695 -0.247577 0.532071
vn -0.690083 0.654155 0.309623
vn -0.669649 -0.622014 0.405793
vn -0.306612 0.898669 0.31366
vn -0.302903 0.945385 0.120406
vn -0.613999 -0.654605 -0.441019
vn -0.169339 0.969419 0.177629
vn -0.466944 -0.868391 0.166918
vn -0.401643 -0.739697 0.539936
vn -0.569126 0.458599 0.682483
vn -0.647104 -0.26683 0.714184
vn -0.441749 0.751012 0.490753
vn -0.320628 -0.520669 0.791266
vn -0.452075 0.588558 0.670244
vn -0.492485 0.104182 0.864063
vn -0.587025 0.728304 -0.353518
vn -0.626224 0.665064 -0.406858
vn -0.305024 0.910333 0.279739
vn -0.702344 -0.207399 -0.680954
vn -0.172969 0.915879 0.362282
vn -0.3296 -0.899284 -0.287492
vn -0.258246 -0.962407 -0.0841563
vn -0.147083 -0.88752 0.436664
vn -0.079113 -0.98852 0.128725
vn -0.393413 0.884672 0.250164
vn -0.00392061 -0.705612 0.708587
vn 0.0629819 -0.528701 0.846468
vn -0.474331 -0.557351 -0.681447
vn -0.486842 0.873458 0.00742394
vn -0.39419 0.902952 0.171152
vn -0.36045 -0.782372 -0.507907
vn -0.46341 0.802955 0.374853
vn -0.345715 0.806821 0.479084
vn -0.300072 0.901462 0.311967
vn -0.488155 0.762287 0.424998
vn -0.396863 0.91485 0.0744885
vn -0.0783643 -0.961947 -0.261758
vn -0.465877 0.841179 0.274549
vn -0.311812 0.533914 0.785945
vn -0.393037 0.840748 0.372377
vn 0.2445 -0.213348 0.945887
vn 0.221822 -0.494279 0.840526
vn -0.646215 0.115601 -0.754349
vn -0.55522 0.555182 -0.619276
vn -0.542753 -0.277835 -0.792608
vn -0.49084 0.075817 -0.867944
vn -0.293945 -0.362775 -0.884302
vn -0.353766 0.423546 -0.833941
vn -0.218454 -0.0398029 -0.975035
vn -0.223329 -0.776472 -0.589249
vn -0.260462 -0.58789 -0.765862
vn -0.0407622 -0.752417 -0.657424
vn -0.356802 0.846674 -0.394761
vn -0.293644 0.868111 -0.400196
vn -0.0503401 -0.883113 -0.466451
vn -0.469821 0.790907 0.392091
vn -0.588132 0.758653 0.280261
vn -0.474402 0.870381 0.131835
vn -0.479441 0.868394 0.126607
vn -0.517535 0.854742 0.0396676
vn 0.0842272 -0.996444 0.00204064
vn 0.148814 -0.884828 0.441513
vn -0.13916 0.954713 0.262978
vn -0.160264 0.867127 0.4716
vn 0.192924 0.136254 0.971707
vn 0.406524 -0.426096 0.808196
vn 0.452101 0.108438 0.885351
vn -0.100734 0.29777 -0.949308
vn -0.140369 0.760368 -0.634143
vn 0.0328888 -0.366617 -0.92979
vn 0.121295 0.636647 -0.761556
vn 0.234428 0.764697 -0.600235
vn 0.284367 0.624754 -0.727198
vn 0.344256 -0.196093 -0.918169
vn 0.190864 -0.673793 -0.713844
vn -0.00256222 0.829476 -0.558537
vn -0.0348926 0.783626 -0.620252
vn 0.189896 0.822123 -0.536707
vn 0.206913 0.686114 -0.697448
vn -0.311761 0.917131 0.248345
vn -0.269578 0.950804 -0.152642
vn -0.427248 0.867358 0.255244
vn -0.137691 0.957869 0.252048
vn 0.244731 0.944709 0.218245
vn 0.233704 -0.96537 -0.115944
vn 0.0746126 -0.935642 -0.344973
vn 0.219161 -0.932099 0.288373
vn 0.378267 0.75595 0.534279
vn 0.357717 -0.471876 0.805836
vn 0.247046 -0.688038 0.682329
vn 0.311752 0.780327 -0.542126
vn 0.457995 0.340862 -0.821007
vn 0.483494 -0.0901228 -0.870696
vn 0.451623 0.620335 -0.641265
vn 0.535025 0.121375 -0.836072
vn 0.417283 -0.411183 -0.810434
vn 0.0570056 0.953872 -0.294751
vn 0.0395295 0.970344 0.238475
vn 0.258699 -0.786515 -0.560776
vn 0.298653 0.909195 0.290123
vn 0.230377 -0.777206 0.585557
vn 0.605362 0.717444 0.344689
vn 0.631645 0.221718 0.742876
vn 0.513321 -0.211749 0.831663
vn 0.369632 0.675608 -0.637908
vn 0.447905 0.502814 -0.739296
vn 0.305023 0.727334 -0.614774
vn 0.537441 -0.329704 -0.776178
vn 0.290419 0.954778 0.0636821
vn 0.524536 0.830571 -0.187123
vn 0.54383 0.786884 0.291656
vn 0.559845 0.794585 0.234965
vn 0.263808 -0.898941 -0.349729
vn 0.711418 0.640691 0.28879
vn 0.586637 -0.219567 0.779517
vn 0.715963 0.228356 0.659736
vn 0.342262 -0.817322 0.46351
vn 0.545345 -0.611754 0.573024
vn 0.420502 -0.376222 0.825612
vn 0.442289 0.407099 -0.799156
vn 0.568675 0.536123 -0.623844
vn 0.756968 0.620699 -0.204284
vn 0.778826 0.114404 -0.616718
vn 0.695065 -0.418301 -0.584729
vn 0.449041 -0.751678 -0.483056
vn 0.909275 -0.4123 0.0568178
vn 0.806328 0.515471 0.290041
vn 0.553222 -0.788668 -0.26823
vn 0.695727 0.656415 0.291691
vn 0.804177 0.547003 0.232567
vn 0.727439 -0.259016 0.635408
vn 0.752042 0.558344 0.350264
vn 0.88881 -0.0197449 0.45785
vn 0.413508 -0.898001 0.15035
vn 0.721835 -0.626233 0.294596
vn 0.474447 -0.874969 -0.0965847
vn 0.688976 0.672217 0.270992
vn 0.890658 -0.337322 -0.304865
vn -0.982188 0.019614 -0.186873
vn -0.53161 0.833027 -0.153156
vn -0.512705 0.797189 0.318785
vn -0.891954 0.0138538 0.451915
vn -0.889512 -0.0125924 0.456737
vn -0.938861 -0.017904 0.343831
vn -0.872999 0.30565 0.380067
vn -0.994837 -0.0233204 0.0987751
vn -0.436555 0.804908 0.401924
vn -0.0940811 -0.438633 0.893728
vn -0.778579 0.125917 -0.614784
vn -0.31505 0.94145 0.120065
vn -0.517737 0.764108 -0.384821
vn -0.301818 0.58921 0.749492
vn 0.0419251 -0.237045 0.970594
vn 0.28834 0.483946 0.82623
vn -0.272566 0.690135 0.670389
vn 0.192808 -0.0503624 -0.979943
vn 0.350325 0.020054 -0.936414
vn 0.473262 -0.152705 -0.867585
vn 0.982842 -0.0817401 0.16535
vn 0.998976 0.00592449 -0.0448636
vn 0.939765 0.0972007 -0.32771
g grp1
usemtl mtl1
f 2//2 4//4 3//3 
f 1//1 22//22 157//157 
f 2//2 3//3 156//156 
f 22//22 33//33 157//157 
f 4//4 2//2 166//166 
f 4//4 23//23 3//3 
f 3//3 23//23 5//5 
f 5//5 7//7 3//3 
f 3//3 7//7 156//156 
f 5//5 8//8 7//7 
f 22//22 1//1 12//12 
f 5//5 10//10 8//8 
f 12//12 1//1 158//158 
f 9//9 12//12 158//158 
f 159//159 160//160 161//161 
f 160//160 10//10 161//161 
f 11//11 16//16 10//10 
f 19//19 12//12 9//9 
f 9//9 15//15 19//19 
f 161//161 10//10 163//163 
f 10//10 5//5 11//11 
f 21//21 12//12 19//19 
f 22//22 12//12 13//13 
f 6//6 11//11 5//5 
f 11//11 6//6 38//38 
f 163//163 10//10 14//14 
f 15//15 162//162 19//19 
f 14//14 10//10 16//16 
f 16//16 20//20 14//14 
f 17//17 19//19 162//162 
f 162//162 18//18 17//17 
f 20//20 18//18 14//14 
f 16//16 25//25 20//20 
f 19//19 164//164 21//21 
f 18//18 28//28 17//17 
f 18//18 20//20 28//28 
f 12//12 21//21 13//13 
f 16//16 11//11 25//25 
f 20//20 25//25 26//26 
f 20//20 26//26 28//28 
f 34//34 33//33 22//22 
f 166//166 36//36 4//4 
f 5//5 23//23 6//6 
f 23//23 4//4 36//36 
f 23//23 36//36 48//48 
f 48//48 38//38 23//23 
f 22//22 24//24 37//37 
f 6//6 23//23 38//38 
f 24//24 22//22 13//13 
f 38//38 25//25 11//11 
f 24//24 13//13 21//21 
f 38//38 39//39 25//25 
f 27//27 21//21 164//164 
f 28//28 27//27 17//17 
f 42//42 24//24 21//21 
f 27//27 29//29 21//21 
f 42//42 21//21 29//29 
f 26//26 25//25 40//40 
f 27//27 28//28 32//32 
f 28//28 26//26 30//30 
f 32//32 28//28 30//30 
f 31//31 27//27 32//32 
f 31//31 29//29 27//27 
f 31//31 42//42 29//29 
f 30//30 26//26 43//43 
f 165//165 30//30 43//43 
f 35//35 167//167 22//22 
f 167//167 35//35 47//47 
f 34//34 168//168 33//33 
f 45//45 48//48 36//36 
f 37//37 35//35 22//22 
f 35//35 37//37 50//50 
f 50//50 49//49 35//35 
f 50//50 37//37 51//51 
f 51//51 37//37 24//24 
f 76//76 51//51 24//24 
f 39//39 38//38 54//54 
f 76//76 24//24 53//53 
f 41//41 25//25 39//39 
f 54//54 41//41 39//39 
f 53//53 24//24 42//42 
f 40//40 43//43 26//26 
f 41//41 40//40 25//25 
f 79//79 43//43 40//40 
f 41//41 79//79 40//40 
f 78//78 79//79 41//41 
f 55//55 42//42 31//31 
f 31//31 56//56 169//169 
f 56//56 31//31 32//32 
f 170//170 165//165 44//44 
f 165//165 43//43 44//44 
f 107//107 43//43 79//79 
f 43//43 107//107 44//44 
f 166//166 61//61 36//36 
f 168//168 61//61 33//33 
f 36//36 61//61 60//60 
f 67//67 48//48 45//45 
f 47//47 35//35 49//49 
f 49//49 97//97 46//46 
f 47//47 49//49 46//46 
f 52//52 50//50 51//51 
f 52//52 49//49 50//50 
f 49//49 52//52 73//73 
f 51//51 76//76 52//52 
f 76//76 74//74 52//52 
f 73//73 52//52 74//74 
f 77//77 76//76 53//53 
f 77//77 53//53 57//57 
f 78//78 41//41 54//54 
f 42//42 55//55 57//57 
f 53//53 42//42 57//57 
f 59//59 44//44 107//107 
f 82//82 170//170 58//58 
f 58//58 170//170 59//59 
f 59//59 170//170 44//44 
f 57//57 169//169 56//56 
f 172//172 57//57 56//56 
f 86//86 70//70 93//93 
f 62//62 36//36 60//60 
f 45//45 36//36 62//62 
f 61//61 63//63 60//60 
f 63//63 62//62 60//60 
f 61//61 65//65 63//63 
f 70//70 61//61 168//168 
f 64//64 62//62 63//63 
f 64//64 68//68 62//62 
f 68//68 45//45 62//62 
f 65//65 66//66 63//63 
f 63//63 66//66 64//64 
f 61//61 70//70 86//86 
f 65//65 61//61 86//86 
f 86//86 85//85 65//65 
f 85//85 66//66 65//65 
f 64//64 66//66 87//87 
f 87//87 68//68 64//64 
f 66//66 85//85 87//87 
f 45//45 68//68 67//67 
f 48//48 67//67 72//72 
f 69//69 67//67 68//68 
f 69//69 92//92 72//72 
f 67//67 69//69 72//72 
f 69//69 68//68 87//87 
f 87//87 92//92 69//69 
f 70//70 168//168 46//46 
f 71//71 46//46 98//98 
f 71//71 70//70 46//46 
f 70//70 71//71 93//93 
f 71//71 98//98 94//94 
f 72//72 38//38 48//48 
f 97//97 98//98 46//46 
f 72//72 116//116 103//103 
f 49//49 73//73 97//97 
f 100//100 97//97 73//73 
f 38//38 72//72 54//54 
f 74//74 99//99 73//73 
f 100//100 73//73 99//99 
f 74//74 76//76 75//75 
f 75//75 77//77 57//57 
f 74//74 75//75 99//99 
f 75//75 100//100 99//99 
f 75//75 76//76 77//77 
f 103//103 78//78 54//54 
f 75//75 57//57 80//80 
f 79//79 78//78 104//104 
f 79//79 104//104 107//107 
f 104//104 78//78 102//102 
f 57//57 81//81 80//80 
f 105//105 80//80 81//81 
f 105//105 171//171 84//84 
f 59//59 107//107 83//83 
f 172//172 81//81 57//57 
f 84//84 171//171 82//82 
f 58//58 59//59 83//83 
f 84//84 82//82 58//58 
f 84//84 58//58 83//83 
f 89//89 93//93 95//95 
f 86//86 89//89 88//88 
f 85//85 86//86 88//88 
f 86//86 93//93 89//89 
f 85//85 173//173 87//87 
f 87//87 173//173 91//91 
f 91//91 92//92 87//87 
f 89//89 90//90 88//88 
f 173//173 174//174 91//91 
f 108//108 89//89 95//95 
f 94//94 93//93 71//71 
f 94//94 114//114 96//96 
f 93//93 94//94 96//96 
f 94//94 98//98 114//114 
f 95//95 93//93 96//96 
f 108//108 95//95 96//96 
f 92//92 116//116 72//72 
f 114//114 98//98 97//97 
f 72//72 103//103 54//54 
f 97//97 100//100 115//115 
f 103//103 102//102 78//78 
f 100//100 75//75 80//80 
f 101//101 100//100 80//80 
f 101//101 80//80 105//105 
f 104//104 118//118 107//107 
f 105//105 119//119 101//101 
f 84//84 121//121 120//120 
f 84//84 83//83 121//121 
f 107//107 106//106 83//83 
f 106//106 121//121 83//83 
f 89//89 109//109 90//90 
f 109//109 91//91 174//174 
f 96//96 122//122 108//108 
f 108//108 122//122 111//111 
f 91//91 113//113 92//92 
f 111//111 89//89 108//108 
f 110//110 91//91 109//109 
f 110//110 113//113 91//91 
f 89//89 111//111 109//109 
f 112//112 110//110 109//109 
f 113//113 110//110 112//112 
f 111//111 112//112 109//109 
f 115//115 114//114 97//97 
f 126//126 114//114 115//115 
f 124//124 96//96 114//114 
f 96//96 124//124 137//137 
f 130//130 103//103 116//116 
f 130//130 102//102 103//103 
f 100//100 117//117 115//115 
f 117//117 100//100 101//101 
f 101//101 129//129 117//117 
f 129//129 101//101 119//119 
f 129//129 119//119 131//131 
f 134//134 118//118 104//104 
f 120//120 105//105 84//84 
f 119//119 105//105 120//120 
f 136//136 107//107 118//118 
f 121//121 106//106 136//136 
f 136//136 106//106 107//107 
f 123//123 112//112 111//111 
f 111//111 122//122 123//123 
f 112//112 175//175 113//113 
f 175//175 125//125 113//113 
f 116//116 92//92 113//113 
f 126//126 124//124 114//114 
f 126//126 127//127 124//124 
f 138//138 124//124 127//127 
f 137//137 122//122 96//96 
f 124//124 138//138 137//137 
f 122//122 137//137 123//123 
f 125//125 175//175 137//137 
f 125//125 116//116 113//113 
f 126//126 115//115 117//117 
f 117//117 128//128 126//126 
f 127//127 126//126 128//128 
f 117//117 129//129 128//128 
f 119//119 133//133 131//131 
f 133//133 120//120 136//136 
f 149//149 129//129 131//131 
f 132//132 133//133 136//136 
f 132//132 148//148 133//133 
f 148//148 132//132 135//135 
f 148//148 135//135 152//152 
f 102//102 151//151 104//104 
f 151//151 134//134 104//104 
f 134//134 151//151 135//135 
f 152//152 135//135 151//151 
f 133//133 119//119 120//120 
f 136//136 120//120 121//121 
f 135//135 132//132 136//136 
f 118//118 134//134 136//136 
f 135//135 136//136 134//134 
f 137//137 140//140 125//125 
f 128//128 139//139 127//127 
f 127//127 139//139 138//138 
f 138//138 140//140 137//137 
f 154//154 128//128 146//146 
f 141//141 125//125 140//140 
f 139//139 140//140 138//138 
f 178//178 140//140 139//139 
f 128//128 154//154 139//139 
f 140//140 178//178 141//141 
f 116//116 125//125 141//141 
f 149//149 146//146 129//129 
f 129//129 146//146 128//128 
f 142//142 130//130 116//116 
f 143//143 153//153 145//145 
f 142//142 155//155 145//145 
f 145//145 155//155 143//143 
f 146//146 149//149 144//144 
f 146//146 144//144 147//147 
f 155//155 177//177 143//143 
f 143//143 177//177 176//176 
f 142//142 145//145 130//130 
f 153//153 130//130 145//145 
f 130//130 153//153 102//102 
f 149//149 133//133 150//150 
f 148//148 150//150 133//133 
f 152//152 150//150 148//148 
f 131//131 133//133 149//149 
f 149//149 150//150 144//144 
f 143//143 150//150 152//152 
f 176//176 150//150 143//143 
f 153//153 151//151 102//102 
f 153//153 143//143 152//152 
f 151//151 153//153 152//152 
f 146//146 147//147 154//154 
f 141//141 178//178 155//155 
f 141//141 155//155 142//142 
f 116//116 141//141 142//142 
f 155//155 178//178 177//177 
