#
# The license for this database is specified in the Creative Commons Attribution-Share Alike 2.1 Japan. If you use data from this database, please be sure attribute this database as follows: "BodyParts3D, (c)  The Database Center for Life Science licensed under CC Attribution-Share Alike 2.1 Japan".
# http://dbarchive.biosciencedbc.jp/en/bodyparts3d/lic.html
#
#
# Compatibility version : 4.3i
# File ID : FJ1232
# Representation ID : BP50206
# Build-up logic : FMA 3.2.1-inference part_of
# Concept ID : FMA45097
# English name : Sesamoid bone of right foot
# Bounds(mm): (-103.101100,-183.616000,-69.354400)-(-94.609800,-170.669500,-61.687200)
# Volume(cm3): 0.331900
#
v -101.756 -174.455 -68.0142
v -100.723 -173.556 -68.2805
v -101.299 -172.393 -67.2098
v -102.404 -174.161 -66.7608
v -100.222 -172.014 -67.4913
v -100.98 -171.443 -66.3727
v -101.65 -172.113 -65.8169
v -99.6656 -170.945 -66.3283
v -102.837 -178.74 -67.7851
v -101.842 -179.038 -68.8389
v -102.303 -179.956 -68.0907
v -100.427 -177.84 -69.2641
v -102.367 -177.215 -68.292
v -101.231 -177.261 -69.0913
v -102.924 -176.07 -66.8339
v -102.81 -175.525 -64.9499
v -100.249 -175.143 -68.9272
v -96.7763 -173.292 -67.3864
v -98.4997 -173.176 -68.2271
v -97.895 -171.606 -67.0231
v -100.66 -171.19 -65.3113
v -101.103 -171.99 -64.2541
v -102.169 -182.072 -65.9426
v -99.4432 -181.154 -68.2861
v -103.008 -179.113 -65.293
v -102.65 -181.151 -65.2267
v -102.219 -180.484 -63.6488
v -101.767 -180.26 -63.6214
v -98.397 -177.094 -68.9167
v -102.322 -177.424 -63.5716
v -102.274 -175.742 -63.372
v -102.222 -176.238 -63.2698
v -102.039 -176.826 -63.2551
v -102.056 -175.817 -63.1784
v -102.144 -175.349 -63.062
v -101.082 -173.95 -62.8807
v -101.355 -176.47 -63.2883
v -95.8603 -171.813 -64.7807
v -96.9767 -170.811 -64.5558
v -97.3401 -170.738 -63.5324
v -98.02 -171.7 -62.0459
v -97.417 -171.102 -62.5881
v -96.1275 -171.229 -63.3749
v -96.5171 -171.133 -62.783
v -97.5746 -171.964 -61.776
v -96.7773 -171.465 -62.1131
v -97.1709 -171.634 -61.9046
v -95.6929 -171.72 -63.0314
v -96.0893 -171.579 -62.4518
v -96.7004 -172.566 -61.7598
v -96.174 -171.932 -62.0098
v -96.5955 -172.061 -61.7234
v -101.294 -182.735 -66.4488
v -100.469 -182.575 -67.1739
v -101.204 -183.062 -65.4136
v -100.065 -183.443 -65.9017
v -102.039 -182.221 -64.8988
v -97.736 -182.881 -66.3234
v -98.7644 -183.055 -66.5547
v -101.89 -181.402 -63.6695
v -101.604 -181.954 -63.8632
v -101.321 -182.604 -64.3523
v -101.019 -182.305 -63.7464
v -100.485 -181.753 -64.0943
v -100.893 -182.726 -64.071
v -97.4471 -180.566 -67.8368
v -95.7441 -178.779 -66.9236
v -96.2371 -178.625 -64.5912
v -95.4613 -178.793 -64.8821
v -94.7991 -175.055 -64.6446
v -94.7786 -176.142 -63.6318
v -95.1943 -172.779 -63.3023
v -95.6135 -172.225 -62.3983
v -96.1251 -173.383 -62.0724
v -95.6651 -173.038 -61.8381
v -96.5492 -182.556 -65.7627
v -98.3932 -183.56 -65.5286
v -98.9417 -183.533 -64.2135
v -97.8816 -183.52 -65.2854
v -97.7061 -183.245 -65.1371
v -95.6503 -180.31 -65.1464
v -102.219 -180.484 -63.6488
v -102.274 -175.742 -63.372
v -102.222 -176.238 -63.2698
v -102.222 -176.238 -63.2698
v -102.222 -176.238 -63.2698
v -102.039 -176.826 -63.2551
v -102.056 -175.817 -63.1784
v -102.144 -175.349 -63.062
v -102.144 -175.349 -63.062
v -101.89 -181.402 -63.6695
v -101.019 -182.305 -63.7464
v -95.4613 -178.793 -64.8821
v -94.7786 -176.142 -63.6318
v -95.6651 -173.038 -61.8381
v -96.5492 -182.556 -65.7627
v -98.9417 -183.533 -64.2135
v -98.9417 -183.533 -64.2135
v -98.9417 -183.533 -64.2135
v -97.8816 -183.52 -65.2854
v -97.8816 -183.52 -65.2854
v -97.7061 -183.245 -65.1371
v -95.6503 -180.31 -65.1464
v -95.6503 -180.31 -65.1464
vn -0.648708 0.287585 -0.704608
vn -0.298611 0.409689 -0.861966
vn -0.650695 0.513086 -0.559767
vn -0.902665 0.341815 -0.261454
vn -0.179846 0.645715 -0.742096
vn -0.533531 0.775557 -0.337426
vn -0.845858 0.533322 -0.00955164
vn -0.104687 0.945227 -0.309171
vn -0.918167 -0.0972795 -0.384066
vn -0.462454 -0.169519 -0.870287
vn -0.657069 -0.446205 -0.607587
vn -0.0075926 -0.0638285 -0.997932
vn -0.733759 0.132113 -0.666442
vn -0.390386 0.127403 -0.911793
vn -0.953924 0.158437 -0.254806
vn -0.961378 0.183104 0.205487
vn -0.11697 0.219961 -0.96847
vn 0.665944 0.275975 -0.693077
vn 0.173672 0.383186 -0.907197
vn 0.331045 0.695806 -0.637387
vn -0.457594 0.873379 0.16678
vn -0.674541 0.58943 0.444486
vn -0.799973 -0.572241 -0.180509
vn 0.0834775 -0.458173 -0.884934
vn -0.979581 -0.0479949 0.195237
vn -0.944364 -0.320085 0.0756498
vn -0.875453 -0.142266 0.461891
vn 0.181842 -0.0272469 0.98295
vn 0.360471 -0.00346442 -0.932764
vn -0.801289 -0.0672161 0.594489
vn -0.946428 0.010678 0.322738
vn -0.937544 -0.0117149 0.347671
vn -0.640408 -0.099931 0.761506
vn -0.680516 -0.103896 0.72533
vn -0.858488 0.293443 0.420582
vn -0.218451 -0.0910505 0.971591
vn 0.084661 -0.150331 0.985004
vn 0.785473 0.538502 -0.305038
vn 0.368206 0.905544 -0.210745
vn 0.0652116 0.98713 0.146019
vn -0.352942 0.584626 0.73051
vn -0.149867 0.859411 0.488829
vn 0.579905 0.812184 0.0637706
vn 0.327037 0.875293 0.356242
vn -0.175087 0.179899 0.967978
vn 0.242963 0.724273 0.645289
vn -0.0395776 0.622006 0.782012
vn 0.814445 0.567399 0.121398
vn 0.581232 0.686043 0.437624
vn -0.0862264 -0.246977 0.965177
vn 0.511426 0.514687 0.688143
vn 0.16412 0.307754 0.937204
vn -0.517909 -0.740209 -0.428789
vn -0.19595 -0.699108 -0.687642
vn -0.510002 -0.855985 0.0847818
vn -0.173627 -0.943143 -0.283433
vn -0.759899 -0.595409 0.260847
vn 0.348882 -0.702452 -0.620357
vn 0.126662 -0.776523 -0.617227
vn -0.746762 -0.444572 0.494674
vn -0.58044 -0.588066 0.563265
vn -0.569305 -0.722442 0.392388
vn 0.287677 0.104296 0.952032
vn 0.419241 0.187326 0.888339
vn -0.418649 -0.746245 0.517543
vn 0.482646 -0.357514 -0.799523
vn 0.87378 -0.132764 -0.467849
vn 0.16555 -0.29583 0.940786
vn 0.980254 -0.142783 -0.136803
vn 0.954702 0.132968 -0.2662
vn 0.0193847 -0.466413 0.884355
vn 0.961265 0.255472 0.103461
vn 0.800169 0.421683 0.426513
vn -0.0908904 -0.470696 0.877601
vn -0.0494225 -0.348962 0.935833
vn 0.662715 -0.51394 -0.544678
vn 0.118763 -0.949701 -0.289764
vn -0.158984 -0.980157 0.11839
vn 0.356647 -0.817073 -0.452984
vn 0.34562 0.0325794 0.937809
vn 0.956807 -0.193361 -0.217098
vn 0.0154316 -0.0784278 0.9968
vn -0.680516 -0.103896 0.72533
vn -0.644639 0.0891179 0.759275
vn -0.569762 -0.157219 0.806631
vn -0.000987759 -0.0833491 0.99652
vn 0.0685374 -0.0387173 0.996897
vn -0.0597011 -0.227811 0.971873
vn -0.0191334 -0.210742 0.977354
vn -0.68938 -0.292786 0.662594
vn -0.000928114 -0.0419449 0.99912
vn -0.386356 -0.588969 0.70982
vn 0.266392 -0.334571 0.903934
vn 0.999027 -0.0336148 0.0285446
vn 0.787787 0.261638 0.557618
vn 0.626035 -0.540142 0.56243
vn 0.423782 0.310281 0.850961
vn -0.208132 -0.634805 0.744113
vn 0.54997 -0.640331 0.536199
vn 0.0565017 -0.997438 0.0438669
vn 0.587908 -0.641291 0.493062
vn 0.601593 -0.574856 0.554641
vn 0.217608 -0.206538 0.953933
vn 0.613747 -0.427712 0.663609
g grp1
usemtl mtl1
f 15//15 4//4 1//1 
f 17//17 14//14 1//1 
f 17//17 1//1 2//2 
f 2//2 1//1 3//3 
f 2//2 3//3 5//5 
f 1//1 4//4 3//3 
f 4//4 7//7 3//3 
f 3//3 6//6 5//5 
f 3//3 7//7 6//6 
f 5//5 6//6 8//8 
f 7//7 21//21 6//6 
f 8//8 6//6 21//21 
f 14//14 10//10 13//13 
f 13//13 10//10 9//9 
f 11//11 9//9 10//10 
f 9//9 26//26 25//25 
f 10//10 14//14 12//12 
f 9//9 11//11 26//26 
f 24//24 11//11 10//10 
f 24//24 10//10 12//12 
f 9//9 25//25 15//15 
f 29//29 12//12 17//17 
f 24//24 12//12 29//29 
f 13//13 9//9 15//15 
f 13//13 15//15 1//1 
f 1//1 14//14 13//13 
f 12//12 14//14 17//17 
f 25//25 16//16 15//15 
f 31//31 35//35 16//16 
f 17//17 2//2 19//19 
f 5//5 19//19 2//2 
f 17//17 19//19 29//29 
f 4//4 15//15 16//16 
f 16//16 7//7 4//4 
f 16//16 22//22 7//7 
f 22//22 16//16 35//35 
f 36//36 22//22 35//35 
f 18//18 29//29 19//19 
f 67//67 29//29 18//18 
f 70//70 67//67 18//18 
f 20//20 5//5 8//8 
f 5//5 20//20 19//19 
f 20//20 8//8 39//39 
f 19//19 20//20 18//18 
f 38//38 20//20 39//39 
f 20//20 38//38 18//18 
f 7//7 22//22 21//21 
f 22//22 42//42 21//21 
f 41//41 42//42 22//22 
f 36//36 41//41 22//22 
f 8//8 21//21 40//40 
f 8//8 40//40 39//39 
f 40//40 21//21 42//42 
f 11//11 23//23 26//26 
f 54//54 53//53 11//11 
f 53//53 23//23 11//11 
f 57//57 26//26 23//23 
f 57//57 23//23 55//55 
f 60//60 26//26 57//57 
f 11//11 24//24 54//54 
f 54//54 24//24 59//59 
f 27//27 25//25 26//26 
f 26//26 60//60 27//27 
f 28//28 37//37 82//82 
f 91//91 28//28 82//82 
f 66//66 24//24 29//29 
f 30//30 25//25 27//27 
f 27//27 33//33 30//30 
f 87//87 82//82 37//37 
f 80//80 37//37 28//28 
f 30//30 32//32 25//25 
f 16//16 25//25 32//32 
f 31//31 16//16 32//32 
f 83//83 84//84 34//34 
f 30//30 33//33 85//85 
f 86//86 87//87 37//37 
f 36//36 37//37 68//68 
f 37//37 88//88 86//86 
f 88//88 37//37 89//89 
f 83//83 34//34 90//90 
f 37//37 36//36 89//89 
f 18//18 38//38 70//70 
f 41//41 36//36 45//45 
f 74//74 36//36 71//71 
f 39//39 43//43 38//38 
f 43//43 39//39 40//40 
f 43//43 40//40 44//44 
f 44//44 40//40 42//42 
f 45//45 47//47 41//41 
f 47//47 42//42 41//41 
f 47//47 46//46 42//42 
f 38//38 43//43 48//48 
f 48//48 43//43 49//49 
f 43//43 44//44 49//49 
f 49//49 44//44 46//46 
f 44//44 42//42 46//46 
f 47//47 45//45 52//52 
f 52//52 46//46 47//47 
f 49//49 46//46 51//51 
f 52//52 51//51 46//46 
f 36//36 50//50 45//45 
f 50//50 52//52 45//45 
f 72//72 38//38 48//48 
f 73//73 49//49 51//51 
f 48//48 73//73 72//72 
f 49//49 73//73 48//48 
f 53//53 55//55 23//23 
f 54//54 59//59 56//56 
f 56//56 53//53 54//54 
f 55//55 53//53 56//56 
f 57//57 55//55 62//62 
f 58//58 24//24 66//66 
f 66//66 76//76 58//58 
f 59//59 24//24 58//58 
f 56//56 59//59 77//77 
f 77//77 59//59 58//58 
f 61//61 60//60 57//57 
f 63//63 28//28 91//91 
f 60//60 61//61 92//92 
f 61//61 57//57 62//62 
f 28//28 64//64 80//80 
f 64//64 28//28 63//63 
f 62//62 55//55 65//65 
f 61//61 62//62 65//65 
f 61//61 65//65 92//92 
f 65//65 55//55 78//78 
f 80//80 64//64 97//97 
f 63//63 97//97 64//64 
f 65//65 98//98 92//92 
f 29//29 67//67 66//66 
f 76//76 67//67 81//81 
f 66//66 67//67 76//76 
f 37//37 80//80 103//103 
f 67//67 70//70 94//94 
f 68//68 71//71 36//36 
f 69//69 67//67 94//94 
f 68//68 37//37 103//103 
f 93//93 68//68 103//103 
f 71//71 68//68 93//93 
f 69//69 81//81 67//67 
f 71//71 75//75 74//74 
f 38//38 72//72 70//70 
f 70//70 72//72 94//94 
f 72//72 95//95 94//94 
f 75//75 52//52 50//50 
f 95//95 72//72 73//73 
f 51//51 95//95 73//73 
f 52//52 95//95 51//51 
f 36//36 74//74 50//50 
f 50//50 74//74 75//75 
f 78//78 56//56 77//77 
f 55//55 56//56 78//78 
f 58//58 79//79 77//77 
f 58//58 76//76 79//79 
f 78//78 77//77 100//100 
f 102//102 99//99 101//101 
f 101//101 96//96 102//102 
f 104//104 102//102 96//96 
