#
# The license for this database is specified in the Creative Commons Attribution-Share Alike 2.1 Japan. If you use data from this database, please be sure attribute this database as follows: "BodyParts3D, (c)  The Database Center for Life Science licensed under CC Attribution-Share Alike 2.1 Japan".
# http://dbarchive.biosciencedbc.jp/en/bodyparts3d/lic.html
#
#
# Compatibility version : 4.3i
# File ID : FJ6298
# Representation ID : BP50044
# Build-up logic : FMA 3.2.1-inference part_of
# Concept ID : FMA23951
# English name : Distal phalanx of left thumb
# Bounds(mm): (309.079000,-173.358400,719.037000)-(322.636000,-157.135200,742.267800)
# Volume(cm3): 0.729700
#
v 309.176 -160.791 733.876
v 309.502 -161.462 734.743
v 309.445 -159.177 734.124
v 309.857 -158.957 733.227
v 309.546 -159.976 733.039
v 311.011 -162.497 740.601
v 310.076 -161.196 738.675
v 310.855 -163.11 740.205
v 310.508 -160.933 739.094
v 311.199 -160.948 739.203
v 310.815 -158.45 735.442
v 311.747 -157.135 734.21
v 313.056 -157.162 734.683
v 309.736 -161.305 732.948
v 311.078 -158.858 732.657
v 312.191 -158.062 733.354
v 310.177 -160.674 732.269
v 311.521 -162.054 731.753
v 311.679 -161.523 731.362
v 312.019 -164.31 741.897
v 312.094 -163.764 741.667
v 313.412 -164.78 742.109
v 315.166 -158.181 738.203
v 312.864 -166.595 741.512
v 311.904 -165.092 740.338
v 312.26 -165.482 738.745
v 313.796 -161.238 739.4
v 313.505 -157.951 733.902
v 311.564 -163.016 733.755
v 313.869 -160.705 732.034
v 312.544 -163.221 730.705
v 312.419 -161.126 731.363
v 312.629 -162.477 730.568
v 313.013 -163.497 729.999
v 313.407 -165.677 729.695
v 313.242 -166.267 742.066
v 314.644 -166.524 741.897
v 316.41 -161.28 740.294
v 315.845 -158.362 739.043
v 315.872 -158.258 738.82
v 314.431 -167.111 741.564
v 314.68 -168.001 740.097
v 317.151 -159.832 737.976
v 315.712 -158.245 736.326
v 312.952 -167.286 739.327
v 314.661 -168.311 739.072
v 314.19 -167.735 737.779
v 314.725 -168.111 737.203
v 315.898 -159.074 735.29
v 313.809 -166.467 735.556
v 314.374 -167.497 735.69
v 314.312 -168.24 733.521
v 314.121 -167.346 729.961
v 314.295 -164.596 728.241
v 313.845 -163.166 729.619
v 315.921 -164.029 728.451
v 316.712 -164.013 741.21
v 317.247 -163.862 740.695
v 317.241 -160.937 740.192
v 317.806 -162.026 739.383
v 315.704 -166.766 740.926
v 316.515 -166.724 739.536
v 317.509 -160.887 736.855
v 315.096 -168.216 739.442
v 315.963 -168.181 737.021
v 316.688 -167.054 737.321
v 317.831 -163.397 735.127
v 317.752 -164.887 735.783
v 317.069 -161.733 734.2
v 316.537 -169.03 733.84
v 317.074 -168.682 733.925
v 315.787 -166.514 725.267
v 316.075 -166.247 725.225
v 315.85 -167.252 725.16
v 316.151 -166.897 724.474
v 317.115 -165.925 725.523
v 317.136 -166.623 723.982
v 316.658 -167.944 722.47
v 316.866 -168.925 722.806
v 318.049 -168.056 733.074
v 317.728 -170.016 731.211
v 319.479 -166.953 728.876
v 318.478 -165.246 728.664
v 317.028 -169.665 725.644
v 318.007 -166.899 723.694
v 317.425 -167.576 721.612
v 319.166 -167.663 721.665
v 317.308 -168.976 721.678
v 318.623 -170.55 721.242
v 318.314 -168.584 720.45
v 318.745 -168.358 720.381
v 319.264 -169.128 719.699
v 319.882 -172.315 727.433
v 320.773 -170.318 726.561
v 320.704 -171.551 727.169
v 321.048 -169.647 725.436
v 319.703 -172.335 723.186
v 321.255 -169.277 723.373
v 319.995 -167.93 723.003
v 320.086 -169.401 719.381
v 320.487 -169.236 719.629
v 321.142 -169.115 720.784
v 319.569 -170.003 719.408
v 320.207 -171.079 719.716
v 320.835 -170.222 719.146
v 321.734 -171.214 725.052
v 321.949 -172.23 724.667
v 321.859 -172.88 723.7
v 322.502 -172.139 722.93
v 321.767 -173.168 722.547
v 322.556 -172.386 722.02
v 321.07 -171.319 719.812
v 321.367 -171.755 720.584
v 322.134 -170.467 720.862
v 322.287 -171.362 720.403
v 321.985 -171.173 719.877
v 322.127 -170.796 719.988
v 322.471 -171.204 721.552
v 322.558 -171.485 722.124
v 322.578 -171.7 721.435
v 322.458 -172.064 721.23
v 309.445 -159.177 734.124
v 309.857 -158.957 733.227
v 309.857 -158.957 733.227
v 311.011 -162.497 740.601
v 310.508 -160.933 739.094
v 310.815 -158.45 735.442
v 311.747 -157.135 734.21
v 313.056 -157.162 734.683
v 309.736 -161.305 732.948
v 311.679 -161.523 731.362
v 312.019 -164.31 741.897
v 315.166 -158.181 738.203
v 312.864 -166.595 741.512
v 313.796 -161.238 739.4
v 312.629 -162.477 730.568
v 313.013 -163.497 729.999
v 313.407 -165.677 729.695
v 313.242 -166.267 742.066
v 315.845 -158.362 739.043
v 315.845 -158.362 739.043
v 315.872 -158.258 738.82
v 315.872 -158.258 738.82
v 314.68 -168.001 740.097
v 315.712 -158.245 736.326
v 314.725 -168.111 737.203
v 314.312 -168.24 733.521
v 314.295 -164.596 728.241
v 316.712 -164.013 741.21
v 316.712 -164.013 741.21
v 316.712 -164.013 741.21
v 316.712 -164.013 741.21
v 317.241 -160.937 740.192
v 315.096 -168.216 739.442
v 315.963 -168.181 737.021
v 316.537 -169.03 733.84
v 315.787 -166.514 725.267
v 317.728 -170.016 731.211
v 317.425 -167.576 721.612
v 319.882 -172.315 727.433
v 319.882 -172.315 727.433
v 319.882 -172.315 727.433
v 320.704 -171.551 727.169
v 319.569 -170.003 719.408
v 320.207 -171.079 719.716
v 320.835 -170.222 719.146
v 320.835 -170.222 719.146
v 320.835 -170.222 719.146
v 321.949 -172.23 724.667
v 321.859 -172.88 723.7
v 322.502 -172.139 722.93
v 321.767 -173.168 722.547
v 321.767 -173.168 722.547
v 321.767 -173.168 722.547
v 322.556 -172.386 722.02
v 322.556 -172.386 722.02
v 322.287 -171.362 720.403
v 321.985 -171.173 719.877
v 322.458 -172.064 721.23
vn -0.984918 -0.132465 -0.111307
vn -0.832247 -0.554201 -0.015024
vn -0.679265 0.711351 0.180496
vn -0.656345 0.745092 -0.118531
vn -0.855823 0.140365 -0.49786
vn -0.857122 0.0565676 0.511998
vn -0.922201 0.173474 0.345619
vn -0.903664 -0.373249 0.209943
vn -0.74497 0.469469 0.473939
vn -0.0109297 0.739734 0.672811
vn -0.59694 0.657343 0.459959
vn -0.473011 0.838929 0.269183
vn 0.124159 0.970513 0.206616
vn -0.671032 -0.707547 -0.22157
vn -0.20586 0.524604 -0.826082
vn 0.154235 0.625668 -0.76469
vn -0.600182 0.0537168 -0.798057
vn -0.771597 -0.469077 -0.429658
vn -0.26265 0.401922 -0.877197
vn -0.837788 -0.327011 0.437236
vn -0.0237089 0.555609 0.831106
vn 0.0809999 0.277366 0.957344
vn -0.213871 0.879445 0.425248
vn -0.838426 -0.413746 0.354761
vn -0.898423 -0.435315 0.0577618
vn -0.86784 -0.466454 -0.171096
vn 0.0838497 0.678321 0.729966
vn 0.393252 0.659251 -0.640891
vn -0.742295 -0.644819 -0.182225
vn 0.3471 0.679122 -0.646773
vn -0.860618 -0.195949 -0.470043
vn -0.0166781 0.536134 -0.843968
vn -0.38171 0.389102 -0.838389
vn -0.835374 -0.0523144 -0.547187
vn -0.896253 -0.408355 -0.173138
vn -0.660093 -0.355491 0.661743
vn 0.31417 -0.28577 0.905336
vn -0.168761 0.328424 0.929332
vn -0.333183 0.425041 0.841623
vn -0.242597 0.889333 0.387599
vn 0.0868995 -0.728469 0.679545
vn -0.321126 -0.890435 0.322497
vn 0.868561 0.494645 0.0304689
vn 0.226842 0.973375 0.0329077
vn -0.723099 -0.689708 -0.037825
vn -0.280931 -0.958983 0.0378021
vn -0.635441 -0.743491 -0.208412
vn -0.82902 -0.556206 -0.0579774
vn 0.723626 0.547402 -0.420377
vn -0.820657 -0.556503 -0.129717
vn -0.909865 -0.401969 0.102797
vn -0.861722 -0.506873 -0.0226741
vn -0.844612 -0.504807 -0.178328
vn -0.867439 -0.00944887 -0.497453
vn -0.265146 0.566241 -0.780428
vn 0.0699664 0.81705 -0.572306
vn 0.249734 0.0589673 0.966517
vn 0.880049 -0.149751 0.450654
vn -0.0294087 0.351526 0.935716
vn 0.979671 0.133387 0.149839
vn 0.598259 -0.568768 0.564436
vn 0.815373 -0.489502 0.30912
vn 0.949378 0.292286 -0.115112
vn 0.0698014 -0.982666 0.171741
vn 0.0286311 -0.997413 0.0659422
vn 0.864622 -0.43483 0.251699
vn 0.979275 0.199083 0.0372302
vn 0.975296 -0.137059 0.173241
vn 0.805685 0.520369 -0.282999
vn -0.241361 -0.954928 0.172791
vn 0.594027 -0.697436 0.400893
vn -0.904849 -0.016614 -0.425409
vn -0.366181 0.733272 -0.572908
vn -0.932039 -0.147951 -0.330777
vn -0.73147 0.478357 -0.485928
vn 0.0874412 0.892232 -0.44303
vn -0.110006 0.900855 -0.419951
vn -0.906634 0.0255694 -0.421143
vn -0.848771 -0.488685 -0.201929
vn 0.795026 -0.413816 0.443497
vn -0.257503 -0.911667 0.320243
vn 0.953262 0.235367 0.189456
vn 0.66441 0.712511 -0.225582
vn -0.812904 -0.551868 -0.186092
vn 0.295044 0.919666 -0.259157
vn -0.508954 0.629503 -0.587105
vn 0.287958 0.901285 -0.323674
vn -0.808607 -0.249913 -0.532633
vn -0.710318 -0.598943 -0.369751
vn -0.608737 0.191842 -0.769829
vn -0.0887733 0.710071 -0.698512
vn -0.354035 0.353376 -0.865901
vn 0.582913 -0.610965 0.535662
vn 0.908208 0.182128 0.376812
vn 0.910722 0.108731 0.398451
vn 0.92315 0.287336 0.255406
vn -0.549425 -0.8044 -0.225994
vn 0.858776 0.506943 0.0742499
vn 0.502374 0.838273 -0.211941
vn -0.0373669 0.467497 -0.883205
vn 0.405319 0.70095 -0.586843
vn 0.682992 0.702882 -0.198692
vn -0.583631 -0.145075 -0.798954
vn -0.505437 -0.753701 -0.42008
vn 0.464812 0.516337 -0.719267
vn 0.920319 0.226139 0.319179
vn 0.711343 -0.586341 0.387551
vn 0.755759 -0.603847 0.25337
vn 0.802188 -0.568699 0.18187
vn -0.423814 -0.876814 -0.227109
vn 0.996699 -0.0725208 -0.0365014
vn -0.0525282 -0.771503 -0.634053
vn 0.00165719 -0.842866 -0.538121
vn 0.866555 0.494598 -0.0667516
vn 0.228519 -0.794151 -0.563119
vn 0.71132 -0.0626167 -0.700073
vn 0.83427 0.31302 -0.453886
vn 0.946796 0.316318 -0.0593345
vn 0.969731 0.221305 0.103174
vn 0.989181 0.0261036 -0.144357
vn 0.280851 -0.782145 -0.556212
vn -0.966176 0.225332 -0.125413
vn -0.886058 0.329684 -0.325898
vn -0.456285 0.47571 -0.752
vn -0.139724 0.595203 0.791335
vn -0.0854405 0.755875 0.649117
vn -0.00891346 0.832502 0.55395
vn 0.0227837 0.730931 -0.682071
vn 0.402397 0.749253 -0.52602
vn -0.77889 -0.170352 -0.603581
vn -0.705491 -0.1958 -0.681135
vn -0.17861 0.269135 0.946396
vn -0.242597 0.889333 0.387599
vn -0.345296 -0.823408 0.4503
vn -0.436511 0.410932 0.80037
vn -0.759947 -0.0326457 -0.649165
vn -0.507021 0.394414 -0.766399
vn -0.849238 -0.0311632 -0.52709
vn -0.0790372 -0.347576 0.934315
vn -0.242597 0.889333 0.387599
vn 0.809712 0.514223 0.282738
vn 0.804479 0.576368 0.143571
vn 0.109398 0.993996 -0.00197417
vn 0.452299 -0.724481 0.520147
vn 0.697752 0.652891 -0.294745
vn -0.147613 -0.986275 0.0739739
vn -0.288503 -0.927337 0.238352
vn -0.369532 0.641485 -0.672267
vn 0.711305 -0.357623 0.605104
vn 0.0774462 0.600437 0.795913
vn -0.162314 0.297153 0.940933
vn 0.668772 0.127281 0.732491
vn 0.856912 0.295569 0.422304
vn 0.61057 -0.693928 0.381666
vn 0.695684 -0.658559 0.286921
vn 0.455468 -0.79794 0.394766
vn -0.59288 0.546768 -0.591217
vn 0.524895 -0.66891 0.52635
vn -0.395299 0.522363 -0.755563
vn -0.155554 -0.880778 0.44725
vn -0.472422 -0.88104 0.0241983
vn 0.155674 -0.961175 0.227832
vn 0.661157 -0.525714 0.535254
vn -0.251563 -0.400935 -0.88089
vn -0.152618 -0.466893 -0.871045
vn 0.556002 0.0344472 -0.830467
vn -0.0554042 -0.47988 -0.875583
vn -0.1827 0.112733 -0.976684
vn 0.925605 0.0535921 0.374677
vn 0.155674 -0.961175 0.227832
vn 0.973312 0.100179 0.206467
vn 0.155674 -0.961175 0.227832
vn 0.777344 -0.610959 0.149883
vn 0.32869 -0.801656 -0.49931
vn 0.512203 -0.77139 -0.377631
vn 0.756018 -0.61906 0.212608
vn 0.950465 0.0269554 -0.309659
vn 0.199439 -0.74453 -0.637102
vn 0.952185 -0.168127 -0.255103
g grp1
usemtl mtl1
f 8//8 7//7 2//2 
f 7//7 11//11 3//3 
f 122//122 1//1 7//7 
f 7//7 1//1 2//2 
f 5//5 1//1 122//122 
f 2//2 1//1 14//14 
f 130//130 1//1 5//5 
f 130//130 5//5 17//17 
f 2//2 29//29 8//8 
f 3//3 12//12 4//4 
f 122//122 123//123 5//5 
f 5//5 124//124 17//17 
f 8//8 20//20 6//6 
f 125//125 21//21 10//10 
f 10//10 21//21 27//27 
f 132//132 21//21 125//125 
f 7//7 6//6 9//9 
f 126//126 125//125 10//10 
f 6//6 7//7 8//8 
f 10//10 127//127 126//126 
f 127//127 10//10 27//27 
f 23//23 11//11 135//135 
f 11//11 12//12 3//3 
f 11//11 7//7 9//9 
f 11//11 23//23 12//12 
f 13//13 12//12 23//23 
f 13//13 23//23 44//44 
f 145//145 28//28 129//129 
f 28//28 128//128 129//129 
f 28//28 16//16 128//128 
f 130//130 17//17 18//18 
f 2//2 14//14 29//29 
f 17//17 15//15 19//19 
f 16//16 32//32 15//15 
f 17//17 124//124 15//15 
f 124//124 128//128 15//15 
f 16//16 15//15 128//128 
f 18//18 29//29 14//14 
f 18//18 17//17 131//131 
f 19//19 15//15 32//32 
f 20//20 25//25 24//24 
f 36//36 20//20 24//24 
f 25//25 20//20 8//8 
f 22//22 21//21 132//132 
f 22//22 132//132 139//139 
f 22//22 27//27 21//21 
f 135//135 39//39 23//23 
f 25//25 45//45 24//24 
f 25//25 8//8 29//29 
f 29//29 26//26 25//25 
f 45//45 25//25 26//26 
f 26//26 29//29 50//50 
f 145//145 49//49 28//28 
f 28//28 32//32 16//16 
f 32//32 28//28 30//30 
f 49//49 30//30 28//28 
f 50//50 29//29 18//18 
f 31//31 52//52 18//18 
f 50//50 18//18 52//52 
f 31//31 18//18 131//131 
f 19//19 32//32 33//33 
f 55//55 33//33 32//32 
f 131//131 136//136 31//31 
f 31//31 136//136 34//34 
f 32//32 30//30 55//55 
f 31//31 35//35 52//52 
f 34//34 138//138 31//31 
f 138//138 34//34 54//54 
f 139//139 37//37 22//22 
f 41//41 37//37 139//139 
f 41//41 139//139 134//134 
f 41//41 61//61 37//37 
f 22//22 37//37 57//57 
f 149//149 37//37 61//61 
f 150//150 27//27 22//22 
f 135//135 38//38 39//39 
f 38//38 59//59 39//39 
f 140//140 40//40 133//133 
f 141//141 43//43 142//142 
f 153//153 43//43 141//141 
f 134//134 45//45 42//42 
f 42//42 41//41 134//134 
f 61//61 41//41 144//144 
f 46//46 42//42 45//45 
f 64//64 42//42 46//46 
f 154//154 61//61 144//144 
f 23//23 143//143 44//44 
f 142//142 43//43 145//145 
f 49//49 145//145 43//43 
f 46//46 45//45 47//47 
f 26//26 50//50 45//45 
f 45//45 50//50 47//47 
f 48//48 47//47 50//50 
f 47//47 48//48 46//46 
f 69//69 49//49 63//63 
f 48//48 50//50 51//51 
f 52//52 48//48 51//51 
f 51//51 50//50 52//52 
f 69//69 30//30 49//49 
f 35//35 53//53 52//52 
f 137//137 55//55 148//148 
f 137//137 33//33 55//55 
f 56//56 55//55 30//30 
f 55//55 56//56 148//148 
f 53//53 35//35 84//84 
f 52//52 53//53 84//84 
f 74//74 138//138 54//54 
f 151//151 38//38 135//135 
f 58//58 149//149 62//62 
f 62//62 68//68 58//58 
f 38//38 151//151 59//59 
f 153//153 152//152 58//58 
f 58//58 60//60 153//153 
f 68//68 60//60 58//58 
f 60//60 43//43 153//153 
f 61//61 62//62 149//149 
f 62//62 61//61 154//154 
f 68//68 63//63 60//60 
f 60//60 63//63 43//43 
f 43//43 63//63 49//49 
f 64//64 46//46 65//65 
f 62//62 154//154 155//155 
f 62//62 155//155 66//66 
f 66//66 155//155 80//80 
f 68//68 62//62 66//66 
f 68//68 66//66 80//80 
f 68//68 67//67 63//63 
f 67//67 68//68 82//82 
f 63//63 67//67 69//69 
f 65//65 46//46 146//146 
f 147//147 70//70 146//146 
f 65//65 146//146 70//70 
f 156//156 71//71 155//155 
f 67//67 82//82 69//69 
f 69//69 82//82 83//83 
f 69//69 83//83 30//30 
f 70//70 147//147 81//81 
f 155//155 71//71 80//80 
f 156//156 158//158 71//71 
f 83//83 56//56 30//30 
f 99//99 56//56 83//83 
f 35//35 74//74 84//84 
f 74//74 54//54 72//72 
f 56//56 99//99 76//76 
f 148//148 56//56 73//73 
f 73//73 157//157 148//148 
f 157//157 73//73 75//75 
f 76//76 73//73 56//56 
f 77//77 73//73 76//76 
f 72//72 75//75 74//74 
f 73//73 77//77 75//75 
f 85//85 77//77 76//76 
f 99//99 85//85 76//76 
f 74//74 75//75 78//78 
f 79//79 74//74 78//78 
f 79//79 84//84 74//74 
f 77//77 85//85 87//87 
f 77//77 86//86 75//75 
f 75//75 86//86 78//78 
f 80//80 71//71 158//158 
f 82//82 68//68 80//80 
f 82//82 80//80 95//95 
f 158//158 93//93 80//80 
f 81//81 147//147 160//160 
f 83//83 98//98 99//99 
f 83//83 82//82 98//98 
f 161//161 52//52 97//97 
f 52//52 84//84 97//97 
f 79//79 78//78 88//88 
f 87//87 86//86 77//77 
f 85//85 99//99 87//87 
f 99//99 102//102 87//87 
f 88//88 78//78 86//86 
f 79//79 88//88 89//89 
f 86//86 90//90 88//88 
f 103//103 89//89 88//88 
f 103//103 88//88 90//90 
f 90//90 91//91 92//92 
f 89//89 103//103 104//104 
f 86//86 87//87 91//91 
f 90//90 159//159 91//91 
f 163//163 80//80 93//93 
f 95//95 94//94 82//82 
f 94//94 96//96 82//82 
f 82//82 96//96 98//98 
f 106//106 98//98 96//96 
f 79//79 97//97 84//84 
f 99//99 98//98 102//102 
f 97//97 79//79 89//89 
f 90//90 92//92 103//103 
f 92//92 100//100 103//103 
f 97//97 89//89 104//104 
f 100//100 101//101 105//105 
f 104//104 112//112 97//97 
f 101//101 117//117 105//105 
f 97//97 113//113 110//110 
f 97//97 112//112 113//113 
f 116//116 166//166 117//117 
f 102//102 114//114 117//117 
f 100//100 92//92 91//91 
f 102//102 101//101 87//87 
f 101//101 91//91 87//87 
f 101//101 100//100 91//91 
f 117//117 101//101 102//102 
f 165//165 164//164 167//167 
f 167//167 112//112 165//165 
f 103//103 100//100 168//168 
f 112//112 167//167 178//178 
f 107//107 163//163 93//93 
f 169//169 106//106 95//95 
f 95//95 106//106 94//94 
f 106//106 96//96 94//94 
f 93//93 108//108 107//107 
f 110//110 161//161 97//97 
f 170//170 162//162 172//172 
f 107//107 108//108 109//109 
f 106//106 169//169 171//171 
f 173//173 109//109 108//108 
f 119//119 106//106 171//171 
f 171//171 111//111 119//119 
f 119//119 98//98 106//106 
f 119//119 118//118 98//98 
f 121//121 175//175 174//174 
f 173//173 176//176 109//109 
f 111//111 179//179 120//120 
f 98//98 114//114 102//102 
f 121//121 174//174 113//113 
f 118//118 114//114 98//98 
f 178//178 115//115 113//113 
f 178//178 113//113 112//112 
f 118//118 117//117 114//114 
f 121//121 113//113 115//115 
f 118//118 177//177 117//117 
f 117//117 177//177 116//116 
f 119//119 111//111 120//120 
f 119//119 120//120 118//118 
f 120//120 177//177 118//118 
f 120//120 179//179 177//177 
