#
# The license for this database is specified in the Creative Commons Attribution-Share Alike 2.1 Japan. If you use data from this database, please be sure attribute this database as follows: "BodyParts3D, (c)  The Database Center for Life Science licensed under CC Attribution-Share Alike 2.1 Japan".
# http://dbarchive.biosciencedbc.jp/en/bodyparts3d/lic.html
#
#
# Compatibility version : 4.3i
# File ID : FJ6308
# Representation ID : BP50216
# Build-up logic : FMA 3.2.1-inference part_of
# Concept ID : FMA24459
# English name : Distal phalanx of right thumb
# Bounds(mm): (-323.996300,-173.358400,719.037000)-(-310.183900,-157.135200,742.225500)
# Volume(cm3): 0.746600
#
v -323.846 -172.26 722.659
v -323.189 -172.908 723.628
v -323.109 -171.927 725.068
v -322.767 -173.148 723.559
v -323.746 -171.367 722.608
v -323.914 -172.118 721.833
v -323.137 -173.358 722.451
v -322.366 -172.651 721.345
v -323.392 -171.191 719.862
v -323.398 -170.745 720.025
v -320.851 -169.648 729.436
v -321.094 -172.176 727.954
v -320.39 -171.03 729.163
v -321.491 -172.527 727.401
v -321.565 -172.815 726.36
v -320.984 -172.511 727.46
v -322.565 -169.12 721.593
v -322.006 -168.399 723.9
v -321.728 -168.29 722.481
v -320.81 -171.714 721.578
v -321.919 -171.652 720.092
v -322.346 -169.797 719.392
v -322.129 -169.178 719.955
v -322.018 -169.553 719.347
v -321.71 -168.969 719.897
v -321.365 -169.494 719.347
v -322.159 -170.207 719.139
v -320.954 -170.069 719.24
v -319.027 -168.372 733.336
v -320.065 -165.543 731.203
v -319.269 -170.002 731.161
v -318.479 -170.134 730.432
v -319.587 -171.086 729.07
v -319.289 -165.308 727.323
v -320.335 -167.577 722.25
v -318.701 -167.485 721.505
v -318.463 -163.903 740.927
v -317.651 -164.29 741.385
v -319.127 -162.617 739.307
v -318.842 -161.92 740.225
v -318.222 -161.676 740.559
v -318.846 -160.786 739.146
v -317.801 -166.664 739.737
v -319.039 -161.424 736.976
v -316.278 -168.173 739.59
v -316.934 -168.212 737.901
v -316.262 -168.36 736.331
v -317.082 -168.923 733.948
v -317.341 -169.43 729.443
v -317.157 -165.296 726.674
v -317.863 -166.379 724.676
v -317.25 -167.405 724.797
v -317.933 -167.916 722.391
v -314.434 -166.493 741.865
v -316.341 -166.713 741.604
v -315.656 -166.421 742.033
v -317.822 -159.251 739.769
v -316.917 -159.012 739.27
v -316.911 -158.127 738.636
v -315.467 -167.128 741.566
v -314.351 -167.15 740.675
v -318.206 -159.46 737.69
v -315.959 -168.293 739.103
v -316.059 -168.071 737.722
v -315.58 -167.562 737.299
v -315.898 -167.994 736.28
v -315.796 -167.727 736.755
v -315.807 -167.725 736.099
v -315.849 -168.203 735.32
v -315.691 -167.693 735.134
v -315.375 -166.81 735.776
v -317.672 -160.978 733.983
v -315.853 -167.989 732.028
v -315.336 -166.794 729.352
v -314.609 -165.622 731.326
v -315.807 -163.727 728.862
v -316.294 -165.184 727.227
v -315.707 -165.721 727.848
v -314.193 -164.292 741.962
v -313.482 -163.691 741.678
v -313.136 -164.341 741.718
v -313.293 -165.187 740.419
v -316.485 -158.424 734.824
v -316.253 -157.879 735.404
v -314.815 -157.843 733.952
v -315.217 -159.368 733.23
v -313.309 -162.566 732.061
v -314.136 -161.233 731.288
v -314.672 -163.776 729.492
v -312.365 -163.526 740.436
v -311.967 -162.53 740.415
v -311.685 -162.162 739.572
v -311.468 -160.933 738.95
v -311.159 -160.678 737.845
v -311.223 -161.333 736.836
v -313.057 -157.135 734.21
v -311.887 -158.116 734.337
v -312.677 -162.925 733.619
v -312.064 -162.496 733.495
v -311.944 -162.244 732.814
v -311.522 -162.16 734.698
v -311.303 -161.989 733.445
v -310.76 -161.137 733.153
v -311.667 -160.183 732.234
v -310.986 -160.71 732.703
v -313.286 -158.172 733.235
v -312.041 -158.022 733.733
v -312.172 -158.543 732.916
v -311.859 -158.292 733.267
v -312.842 -161.482 731.41
v -311.311 -161.264 732.48
v -310.717 -160.282 735.969
v -311.064 -159.236 735.662
v -310.542 -160.97 734.975
v -310.356 -160.736 733.968
v -311.387 -158.593 733.448
v -310.932 -159.187 733.298
v -310.45 -160.474 733.594
v -310.263 -160.054 734.689
v -310.78 -159.025 733.96
v -323.846 -172.26 722.659
v -323.109 -171.927 725.068
v -322.767 -173.148 723.559
v -323.914 -172.118 721.833
v -323.137 -173.358 722.451
v -322.366 -172.651 721.345
v -322.366 -172.651 721.345
v -323.392 -171.191 719.862
v -323.392 -171.191 719.862
v -323.392 -171.191 719.862
v -323.392 -171.191 719.862
v -323.392 -171.191 719.862
v -323.398 -170.745 720.025
v -321.094 -172.176 727.954
v -320.39 -171.03 729.163
v -321.491 -172.527 727.401
v -321.491 -172.527 727.401
v -321.565 -172.815 726.36
v -321.565 -172.815 726.36
v -320.984 -172.511 727.46
v -320.81 -171.714 721.578
v -320.81 -171.714 721.578
v -320.81 -171.714 721.578
v -321.919 -171.652 720.092
v -321.919 -171.652 720.092
v -322.159 -170.207 719.139
v -320.954 -170.069 719.24
v -320.954 -170.069 719.24
v -320.954 -170.069 719.24
v -319.027 -168.372 733.336
v -318.701 -167.485 721.505
v -318.701 -167.485 721.505
v -316.278 -168.173 739.59
v -316.278 -168.173 739.59
v -317.863 -166.379 724.676
v -317.933 -167.916 722.391
v -317.933 -167.916 722.391
v -314.434 -166.493 741.865
v -314.434 -166.493 741.865
v -316.911 -158.127 738.636
v -316.911 -158.127 738.636
v -315.467 -167.128 741.566
v -314.351 -167.15 740.675
v -315.959 -168.293 739.103
v -315.959 -168.293 739.103
v -316.059 -168.071 737.722
v -316.294 -165.184 727.227
v -313.136 -164.341 741.718
v -313.309 -162.566 732.061
v -314.672 -163.776 729.492
v -311.967 -162.53 740.415
v -311.468 -160.933 738.95
v -313.057 -157.135 734.21
v -312.842 -161.482 731.41
v -312.842 -161.482 731.41
v -312.842 -161.482 731.41
v -312.842 -161.482 731.41
v -310.717 -160.282 735.969
v -310.263 -160.054 734.689
vn -0.974654 0.120075 0.188762
vn -0.671106 -0.670807 0.31565
vn -0.741079 -0.579781 0.338608
vn -0.434268 -0.850417 0.296987
vn -0.944884 0.311601 0.100497
vn -0.985619 0.156999 -0.062501
vn -0.650914 -0.746306 -0.13906
vn -0.188739 -0.762025 -0.619431
vn -0.422895 -0.714873 -0.55688
vn -0.892621 0.413034 -0.180641
vn -0.798683 -0.217936 0.560901
vn 0.047472 -0.793236 0.607061
vn -0.717977 -0.357307 0.597362
vn -0.630875 -0.734971 0.248626
vn -0.596154 -0.732829 0.327966
vn 0.0381374 -0.879575 0.47423
vn -0.77044 0.631428 -0.0878741
vn -0.769577 0.6378 -0.0310277
vn -0.584495 0.793458 -0.169674
vn 0.56629 -0.818482 -0.0969713
vn -0.321175 -0.925418 0.201117
vn -0.602398 0.46501 -0.648754
vn -0.585828 0.740126 -0.330181
vn -0.310635 0.581897 -0.7516
vn -0.245165 0.810952 -0.531274
vn 0.0705175 0.494325 -0.866412
vn -0.338882 0.279366 -0.898395
vn 0.753215 -0.565654 -0.335712
vn -0.912757 -0.218845 0.344937
vn -0.958531 0.233486 0.16341
vn -0.0889803 -0.868842 0.487028
vn 0.37092 -0.904657 0.209797
vn 0.270752 -0.860758 0.431031
vn -0.417555 0.833043 -0.362888
vn -0.374229 0.876993 -0.301389
vn -0.00159911 0.828413 -0.560116
vn -0.749977 -0.111381 0.652019
vn -0.364981 0.0409912 0.930112
vn -0.983094 -0.0508081 0.175908
vn -0.813882 0.219054 0.538155
vn -0.358698 0.268939 0.893872
vn -0.931731 0.334058 0.142416
vn -0.775758 -0.527673 0.346063
vn -0.914703 0.388813 -0.110192
vn -0.545389 -0.71815 0.432218
vn -0.204796 -0.965422 0.161302
vn 0.467778 -0.874457 0.128488
vn 0.0660988 -0.963355 0.259956
vn 0.731067 -0.676459 -0.0891299
vn 0.0738971 0.828138 -0.555632
vn 0.0536682 0.89577 -0.441266
vn 0.909325 -0.0258486 -0.415284
vn 0.808253 -0.558122 -0.187689
vn 0.14992 -0.225796 0.962569
vn -0.514527 -0.493729 0.701066
vn -0.140719 -0.257454 0.955989
vn -0.440746 0.588908 0.677444
vn 0.292177 0.553137 0.780174
vn -0.714853 0.699239 -0.00713778
vn -0.170951 -0.645329 0.744531
vn 0.295516 -0.864495 0.406594
vn -0.817789 0.562941 -0.119657
vn -0.0435549 -0.998532 -0.0321994
vn 0.159675 -0.987165 0.00308229
vn 0.723996 -0.673386 -0.149604
vn 0.862866 -0.4992 0.0791301
vn 0.862378 -0.504896 -0.0372179
vn 0.940396 -0.335628 0.0548609
vn 0.758862 -0.646188 0.081048
vn 0.945901 -0.321791 0.0414895
vn 0.845943 -0.523069 -0.103823
vn -0.651012 0.585814 -0.482705
vn 0.876615 -0.479847 -0.0359602
vn 0.884671 -0.381752 -0.267624
vn 0.905586 -0.423987 -0.0122072
vn 0.21716 0.680949 -0.699392
vn 0.330527 0.701305 -0.631604
vn 0.874673 -0.00127645 -0.484711
vn 0.0819264 0.274278 0.958154
vn 0.226958 0.389574 0.892593
vn 0.861394 -0.437954 0.257288
vn 0.876234 -0.481813 -0.00838481
vn -0.650007 0.567295 -0.505636
vn -0.52277 0.82217 -0.225272
vn -0.379369 0.680332 -0.627079
vn -0.447194 0.492197 -0.746833
vn 0.51452 -0.713871 -0.475034
vn -0.0317001 0.582957 -0.811885
vn 0.843513 -0.073012 -0.532122
vn 0.887031 -0.457385 0.0630459
vn 0.933475 -0.243353 0.263447
vn 0.9602 -0.220962 0.170856
vn 0.332687 0.714209 0.615812
vn 0.969788 0.0489626 0.238986
vn 0.888085 -0.446794 0.108078
vn -0.112267 0.854615 -0.506981
vn 0.641425 0.76482 0.0602097
vn 0.575963 -0.77398 -0.263101
vn 0.549171 -0.827554 -0.116471
vn 0.540123 -0.724518 -0.428183
vn 0.699029 -0.715089 -0.00239395
vn 0.709179 -0.682762 -0.175787
vn 0.84162 -0.337605 -0.421543
vn 0.453817 0.269105 -0.84949
vn 0.760083 0.0293453 -0.649163
vn -0.173918 0.6019 -0.779403
vn 0.615942 0.775907 -0.136327
vn 0.212675 0.566345 -0.796255
vn 0.501722 0.700365 -0.507705
vn 0.79827 -0.148684 -0.58366
vn 0.666347 -0.342141 -0.662511
vn 0.937641 -0.239815 0.251631
vn 0.703687 0.622425 0.342653
vn 0.88493 -0.438128 0.157933
vn 0.938848 -0.323605 -0.117663
vn 0.643676 0.724353 -0.24697
vn 0.694585 0.425236 -0.580281
vn 0.925899 0.0945941 -0.365737
vn 0.999598 -0.0257542 -0.0118425
vn 0.816489 0.569832 -0.0929346
vn -0.84881 -0.504133 0.159283
vn -0.917735 0.0193081 0.396724
vn 0.53877 -0.839097 -0.0751163
vn -0.76004 -0.599985 -0.249717
vn 0.548867 -0.829878 -0.100239
vn 0.526677 -0.833613 -0.166436
vn 0.410672 -0.491732 -0.76782
vn -0.971998 0.0696706 -0.224423
vn 0.410672 -0.491732 -0.76782
vn -0.321175 -0.925418 0.201117
vn -0.0437939 -0.555482 -0.830374
vn -0.633807 0.258913 -0.728871
vn -0.629217 0.221986 -0.744854
vn -0.639988 -0.342188 0.687984
vn -0.121118 -0.79975 0.587989
vn -0.746826 -0.265292 0.609812
vn -0.0200268 -0.90893 0.416468
vn 0.620382 -0.775222 -0.118984
vn -0.000949519 -0.963626 0.267252
vn 0.635328 -0.771601 0.0314539
vn 0.410672 -0.491732 -0.76782
vn 0.770278 -0.498134 -0.398163
vn -0.321175 -0.925418 0.201117
vn 0.608876 -0.630538 -0.481344
vn 0.0440618 -0.545337 -0.837058
vn 0.0440618 -0.545337 -0.837058
vn 0.131571 -0.530903 -0.837157
vn 0.21443 0.32353 -0.921601
vn 0.740033 -0.0580387 -0.670062
vn -0.437558 -0.792743 0.424383
vn 0.748243 0.539579 -0.385988
vn 0.740033 -0.0580387 -0.670062
vn -0.208726 -0.972473 0.103588
vn 0.262313 -0.889859 0.373286
vn 0.771243 0.4546 -0.445559
vn 0.789105 0.498162 -0.359371
vn 0.740033 -0.0580387 -0.670062
vn 0.359381 -0.806358 0.469716
vn 0.821275 -0.473384 0.318456
vn 0.269587 0.629976 0.728322
vn -0.21553 0.976007 0.0309284
vn 0.316158 -0.852325 0.416637
vn 0.822283 -0.568929 -0.0130559
vn 0.253778 -0.887011 0.385758
vn 0.657178 -0.736417 -0.160647
vn 0.745317 -0.66609 -0.0287536
vn 0.766648 0.242006 -0.594714
vn 0.311589 0.140837 0.939722
vn 0.917307 -0.39718 0.0282061
vn 0.346946 0.544279 -0.763799
vn 0.323702 0.498837 0.803977
vn 0.939642 0.139558 0.312406
vn 0.585793 0.799322 0.133908
vn 0.918856 -0.391424 -0.0499112
vn 0.509407 -0.576822 -0.638577
vn 0.17352 0.480954 -0.859404
vn 0.572619 0.00222896 -0.819819
vn 0.863514 0.382816 0.328322
vn 0.83269 0.472987 0.287944
g grp1
usemtl mtl1
f 14//14 3//3 15//15 
f 136//136 11//11 122//122 
f 30//30 122//122 11//11 
f 122//122 30//30 5//5 
f 122//122 5//5 1//1 
f 3//3 121//121 2//2 
f 1//1 5//5 6//6 
f 2//2 15//15 3//3 
f 15//15 2//2 4//4 
f 2//2 7//7 4//4 
f 20//20 138//138 123//123 
f 20//20 123//123 125//125 
f 30//30 18//18 5//5 
f 18//18 17//17 5//5 
f 2//2 121//121 7//7 
f 121//121 124//124 7//7 
f 5//5 10//10 6//6 
f 7//7 124//124 9//9 
f 6//6 10//10 128//128 
f 7//7 9//9 8//8 
f 125//125 126//126 20//20 
f 127//127 129//129 141//141 
f 13//13 29//29 11//11 
f 135//135 12//12 33//33 
f 33//33 12//12 16//16 
f 134//134 11//11 136//136 
f 134//134 13//13 11//11 
f 11//11 29//29 30//30 
f 137//137 16//16 12//12 
f 139//139 16//16 137//137 
f 140//140 138//138 49//49 
f 138//138 20//20 49//49 
f 49//49 28//28 53//53 
f 10//10 5//5 17//17 
f 17//17 18//18 19//19 
f 142//142 28//28 49//49 
f 143//143 130//130 21//21 
f 133//133 22//22 27//27 
f 28//28 142//142 144//144 
f 17//17 23//23 10//10 
f 19//19 23//23 17//17 
f 22//22 10//10 23//23 
f 24//24 22//22 23//23 
f 24//24 27//27 22//22 
f 24//24 23//23 25//25 
f 26//26 27//27 24//24 
f 25//25 26//26 24//24 
f 35//35 25//25 23//23 
f 145//145 131//131 146//146 
f 132//132 133//133 27//27 
f 147//147 145//145 146//146 
f 27//27 26//26 148//148 
f 48//48 46//46 150//150 
f 150//150 31//31 48//48 
f 34//34 30//30 44//44 
f 39//39 30//30 29//29 
f 31//31 150//150 135//135 
f 31//31 135//135 33//33 
f 32//32 31//31 33//33 
f 48//48 31//31 32//32 
f 49//49 33//33 140//140 
f 49//49 32//32 33//33 
f 49//49 69//69 32//32 
f 18//18 30//30 34//34 
f 34//34 19//19 18//18 
f 34//34 51//51 36//36 
f 53//53 52//52 49//49 
f 35//35 19//19 34//34 
f 19//19 35//35 23//23 
f 25//25 35//35 36//36 
f 34//34 36//36 35//35 
f 151//151 155//155 156//156 
f 36//36 148//148 26//26 
f 149//149 152//152 157//157 
f 36//36 26//26 25//25 
f 55//55 38//38 37//37 
f 38//38 41//41 37//37 
f 39//39 42//42 44//44 
f 37//37 41//41 40//40 
f 40//40 39//39 37//37 
f 39//39 40//40 42//42 
f 40//40 57//57 42//42 
f 41//41 57//57 40//40 
f 45//45 55//55 43//43 
f 43//43 46//46 45//45 
f 55//55 37//37 43//43 
f 39//39 43//43 37//37 
f 42//42 62//62 44//44 
f 153//153 46//46 63//63 
f 63//63 46//46 64//64 
f 44//44 62//62 72//72 
f 69//69 47//47 48//48 
f 64//64 46//46 47//47 
f 39//39 29//29 43//43 
f 150//150 46//46 43//43 
f 39//39 44//44 30//30 
f 47//47 46//46 48//48 
f 72//72 34//34 44//44 
f 48//48 32//32 69//69 
f 69//69 49//49 73//73 
f 77//77 51//51 50//50 
f 167//167 52//52 155//155 
f 76//76 77//77 50//50 
f 78//78 52//52 167//167 
f 51//51 34//34 50//50 
f 74//74 49//49 52//52 
f 52//52 156//156 155//155 
f 56//56 55//55 60//60 
f 60//60 54//54 56//56 
f 79//79 56//56 54//54 
f 56//56 38//38 55//55 
f 56//56 79//79 38//38 
f 41//41 38//38 79//79 
f 41//41 79//79 57//57 
f 57//57 79//79 58//58 
f 57//57 59//59 62//62 
f 160//160 57//57 58//58 
f 160//160 58//58 79//79 
f 55//55 45//45 60//60 
f 164//164 61//61 154//154 
f 154//154 61//61 162//162 
f 61//61 158//158 162//162 
f 159//159 163//163 81//81 
f 57//57 62//62 42//42 
f 62//62 59//59 84//84 
f 84//84 83//83 62//62 
f 65//65 165//165 166//166 
f 163//163 165//165 65//65 
f 166//166 67//67 65//65 
f 65//65 67//67 71//71 
f 65//65 71//71 163//163 
f 72//72 62//62 83//83 
f 166//166 47//47 66//66 
f 166//166 66//66 67//67 
f 67//67 66//66 68//68 
f 69//69 66//66 47//47 
f 66//66 69//69 68//68 
f 67//67 68//68 71//71 
f 68//68 69//69 70//70 
f 68//68 70//70 71//71 
f 71//71 70//70 73//73 
f 70//70 69//69 73//73 
f 71//71 73//73 75//75 
f 72//72 88//88 34//34 
f 73//73 49//49 74//74 
f 75//75 73//73 74//74 
f 89//89 110//110 74//74 
f 78//78 89//89 74//74 
f 88//88 76//76 34//34 
f 88//88 170//170 76//76 
f 78//78 74//74 52//52 
f 78//78 167//167 89//89 
f 170//170 77//77 76//76 
f 76//76 50//50 34//34 
f 54//54 168//168 79//79 
f 79//79 168//168 80//80 
f 91//91 81//81 90//90 
f 163//163 82//82 81//81 
f 71//71 82//82 163//163 
f 82//82 90//90 81//81 
f 71//71 90//90 82//82 
f 84//84 85//85 83//83 
f 85//85 84//84 96//96 
f 98//98 71//71 87//87 
f 87//87 100//100 98//98 
f 86//86 72//72 83//83 
f 86//86 88//88 72//72 
f 88//88 86//86 106//106 
f 86//86 83//83 85//85 
f 106//106 86//86 85//85 
f 74//74 174//174 75//75 
f 71//71 75//75 169//169 
f 169//169 75//75 174//174 
f 175//175 100//100 87//87 
f 176//176 170//170 88//88 
f 80//80 168//168 171//171 
f 171//171 160//160 80//80 
f 160//160 79//79 80//80 
f 90//90 92//92 91//91 
f 90//90 95//95 92//92 
f 93//93 160//160 171//171 
f 172//172 91//91 92//92 
f 92//92 95//95 94//94 
f 172//172 92//92 94//94 
f 95//95 90//90 71//71 
f 95//95 71//71 101//101 
f 94//94 95//95 112//112 
f 113//113 173//173 160//160 
f 161//161 96//96 84//84 
f 96//96 106//106 85//85 
f 97//97 173//173 113//113 
f 97//97 107//107 173//173 
f 98//98 100//100 99//99 
f 99//99 101//101 98//98 
f 98//98 101//101 71//71 
f 99//99 102//102 101//101 
f 102//102 99//99 100//100 
f 102//102 100//100 111//111 
f 103//103 102//102 111//111 
f 105//105 103//103 111//111 
f 108//108 104//104 88//88 
f 108//108 88//88 106//106 
f 104//104 105//105 111//111 
f 97//97 116//116 107//107 
f 107//107 116//116 109//109 
f 109//109 117//117 108//108 
f 117//117 104//104 108//108 
f 108//108 106//106 96//96 
f 109//109 173//173 107//107 
f 96//96 109//109 108//108 
f 111//111 100//100 175//175 
f 104//104 176//176 88//88 
f 177//177 104//104 111//111 
f 113//113 172//172 94//94 
f 94//94 178//178 113//113 
f 114//114 112//112 95//95 
f 114//114 119//119 112//112 
f 178//178 179//179 113//113 
f 160//160 93//93 113//113 
f 97//97 113//113 120//120 
f 179//179 120//120 113//113 
f 119//119 118//118 120//120 
f 114//114 95//95 101//101 
f 101//101 102//102 114//114 
f 103//103 105//105 118//118 
f 114//114 115//115 119//119 
f 114//114 102//102 115//115 
f 102//102 103//103 115//115 
f 115//115 103//103 118//118 
f 116//116 97//97 120//120 
f 109//109 116//116 117//117 
f 117//117 120//120 118//118 
f 120//120 117//117 116//116 
f 105//105 104//104 117//117 
f 119//119 115//115 118//118 
f 105//105 117//117 118//118 
