#
# The license for this database is specified in the Creative Commons Attribution-Share Alike 2.1 Japan. If you use data from this database, please be sure attribute this database as follows: "BodyParts3D, (c)  The Database Center for Life Science licensed under CC Attribution-Share Alike 2.1 Japan".
# http://dbarchive.biosciencedbc.jp/en/bodyparts3d/lic.html
#
#
# Compatibility version : 4.3i
# File ID : FJ6377
# Representation ID : BP50116
# Build-up logic : FMA 3.2.1-inference part_of
# Concept ID : FMA45098
# English name : Sesamoid bone of left foot
# Bounds(mm): (85.909000,-184.776100,-68.083700)-(92.850500,-175.393500,-61.465800)
# Volume(cm3): 0.137500
#
v 87.7632 -184.346 -64.5346
v 88.5383 -184.661 -64.5233
v 88.3041 -184.446 -64.3359
v 88.3958 -184.524 -65.3204
v 89.2082 -184.684 -65.0514
v 87.771 -183.956 -65.6307
v 86.8205 -183.671 -64.4125
v 87.4035 -184.063 -64.7327
v 87.5244 -184.072 -64.3925
v 86.3891 -182.698 -64.3035
v 86.375 -182.615 -64.8948
v 85.909 -181.122 -64.2801
v 85.9829 -179.606 -63.7054
v 89.0986 -184.126 -66.7125
v 89.7731 -184.243 -66.7522
v 90.0945 -184.303 -66.4619
v 90.5273 -183.919 -66.9318
v 89.7042 -183.534 -67.45
v 90.4881 -183.974 -64.1234
v 91.4691 -183.852 -65.6117
v 88.5573 -182.495 -67.5112
v 88.3191 -180.786 -67.4131
v 86.4365 -180.37 -65.5522
v 86.6873 -179.115 -65.5199
v 86.1912 -177.95 -63.9269
v 86.3302 -177.104 -62.9662
v 86.7152 -176.937 -62.6446
v 87.5898 -176.148 -62.5544
v 89.4684 -176.7 -61.5882
v 89.189 -176.332 -61.4658
v 90.6422 -182.985 -67.6577
v 89.6633 -182.226 -68.0184
v 91.4933 -182.937 -67.2405
v 90.7461 -181.844 -67.8603
v 92.6873 -182.633 -65.0106
v 92.609 -182.278 -64.6275
v 92.5574 -180.843 -66.4242
v 89.3092 -181.025 -67.9339
v 90.4309 -178.92 -67.3049
v 92.7613 -179.422 -64.282
v 91.5884 -178.007 -66.2578
v 88.4409 -177.053 -66.0495
v 92.0043 -177.286 -64.689
v 90.4894 -176.432 -65.5014
v 90.9489 -176.457 -62.1212
v 87.4204 -176.368 -64.5925
v 87.8699 -175.744 -63.6801
v 89.2311 -175.514 -62.9667
v 88.465 -176.063 -65.2023
v 90.0136 -175.718 -64.3134
v 87.7632 -184.346 -64.5346
v 87.7632 -184.346 -64.5346
v 88.5383 -184.661 -64.5233
v 88.5383 -184.661 -64.5233
v 88.3041 -184.446 -64.3359
v 86.8205 -183.671 -64.4125
v 86.8205 -183.671 -64.4125
v 87.4035 -184.063 -64.7327
v 87.5244 -184.072 -64.3925
v 87.5244 -184.072 -64.3925
v 86.3891 -182.698 -64.3035
v 86.3891 -182.698 -64.3035
v 85.909 -181.122 -64.2801
v 85.9829 -179.606 -63.7054
v 85.9829 -179.606 -63.7054
v 85.9829 -179.606 -63.7054
v 85.9829 -179.606 -63.7054
v 90.4881 -183.974 -64.1234
v 90.4881 -183.974 -64.1234
v 86.3302 -177.104 -62.9662
v 86.3302 -177.104 -62.9662
v 86.7152 -176.937 -62.6446
v 89.4684 -176.7 -61.5882
v 89.189 -176.332 -61.4658
v 89.189 -176.332 -61.4658
v 89.189 -176.332 -61.4658
v 92.6873 -182.633 -65.0106
v 92.609 -182.278 -64.6275
v 92.609 -182.278 -64.6275
v 92.7613 -179.422 -64.282
v 92.7613 -179.422 -64.282
v 92.7613 -179.422 -64.282
v 92.0043 -177.286 -64.689
v 90.9489 -176.457 -62.1212
v 90.9489 -176.457 -62.1212
v 90.0136 -175.718 -64.3134
vn -0.674553 -0.704524 0.22051
vn -0.141925 -0.734525 0.663574
vn -0.218998 -0.713551 0.665496
vn -0.337108 -0.90384 -0.263499
vn 0.0883678 -0.993073 -0.0774473
vn -0.611324 -0.652174 -0.448277
vn -0.786848 -0.547335 -0.285123
vn -0.58839 -0.786499 0.187661
vn -0.58839 -0.786499 0.187661
vn -0.0978955 -0.176354 0.979447
vn -0.865415 -0.327179 -0.379488
vn -0.970825 -0.0436511 -0.235782
vn -0.0104566 -0.105947 0.994317
vn -0.332419 -0.763979 -0.553023
vn 0.0152555 -0.864462 -0.502466
vn 0.275605 -0.925013 -0.26152
vn 0.345062 -0.744305 -0.571789
vn -0.0934512 -0.571165 -0.815498
vn 0.462109 -0.801266 0.380037
vn 0.543596 -0.834169 -0.0930848
vn -0.564366 -0.271883 -0.779468
vn -0.574997 0.14463 -0.80527
vn -0.833248 0.0232962 -0.552408
vn -0.727575 0.287616 -0.622825
vn -0.925553 0.243223 -0.290161
vn -0.991226 0.128723 0.0300336
vn -0.406829 -0.308961 0.85967
vn -0.47281 0.770112 0.428228
vn -0.302515 -0.380962 0.8737
vn -0.471764 0.435298 0.766782
vn 0.258315 -0.412643 -0.873498
vn -0.0767118 -0.195302 -0.977738
vn 0.653685 -0.424899 -0.626224
vn 0.35967 0.0201088 -0.932863
vn 0.589665 -0.65109 0.477888
vn 0.576057 -0.537419 0.615905
vn 0.826268 0.116085 -0.551185
vn -0.207505 0.164756 -0.96426
vn 0.234612 0.382514 -0.893667
vn 0.207974 -0.0698687 0.975636
vn 0.607139 0.466797 -0.643026
vn -0.346591 0.478781 -0.806625
vn 0.75535 0.590881 -0.283383
vn 0.279952 0.726234 -0.627863
vn 0.36247 -0.223332 0.904841
vn -0.676457 0.581845 -0.451511
vn -0.389421 0.916223 -0.0942662
vn 0.0204232 0.970289 0.241087
vn -0.206084 0.825415 -0.525566
vn 0.549785 0.83423 -0.0423897
vn -0.350126 -0.733997 0.581945
vn -0.479141 -0.848554 -0.224453
vn -0.261604 -0.958064 -0.116945
vn 0.245987 -0.903109 0.351972
vn -0.0891989 -0.0354665 0.995382
vn -0.49327 -0.856501 0.151955
vn -0.0883305 -0.126374 0.988042
vn -0.568952 -0.75613 -0.323359
vn -0.363992 -0.660062 0.657136
vn -0.087935 -0.0689196 0.993739
vn -0.937417 -0.347195 -0.02656
vn -0.699669 -0.223187 0.678712
vn -0.699669 -0.223187 0.678712
vn -0.699669 -0.223187 0.678712
vn -0.991391 0.116819 -0.0591442
vn -0.465236 -0.213724 0.858998
vn 0.0819805 -0.649232 0.75616
vn 0.0579827 -0.620075 0.782397
vn 0.0068387 -0.106373 0.994303
vn -0.594253 -0.150913 0.789993
vn -0.72401 0.689503 0.0198493
vn -0.566069 0.558136 0.606672
vn 0.276848 -0.378945 0.883038
vn -0.27649 -0.485625 0.829289
vn 0.345483 -0.049518 0.937118
vn 0.0100786 0.877981 0.47859
vn 0.955407 -0.253681 -0.151141
vn 0.326945 -0.130667 0.935966
vn 0.958048 -0.0842483 0.273947
vn 0.997349 0.0656918 -0.0312858
vn 0.229543 -0.530154 0.816239
vn 0.896505 0.365455 0.250443
vn 0.896505 0.365455 0.250443
vn 0.443995 0.872845 0.202509
vn 0.896505 0.365455 0.250443
vn -0.0207634 0.951492 -0.306973
g grp1
usemtl mtl1
f 8//8 1//1 9//9 
f 3//3 51//51 2//2 
f 51//51 3//3 59//59 
f 52//52 58//58 6//6 
f 53//53 4//4 5//5 
f 19//19 54//54 5//5 
f 2//2 68//68 3//3 
f 4//4 52//52 6//6 
f 4//4 53//53 52//52 
f 60//60 55//55 69//69 
f 20//20 19//19 5//5 
f 14//14 4//4 6//6 
f 5//5 4//4 14//14 
f 6//6 58//58 7//7 
f 56//56 8//8 9//9 
f 57//57 69//69 10//10 
f 11//11 6//6 7//7 
f 7//7 61//61 11//11 
f 69//69 13//13 10//10 
f 69//69 57//57 60//60 
f 11//11 61//61 12//12 
f 11//11 21//21 6//6 
f 62//62 64//64 63//63 
f 25//25 12//12 65//65 
f 23//23 12//12 25//25 
f 20//20 5//5 16//16 
f 15//15 5//5 14//14 
f 16//16 5//5 15//15 
f 14//14 6//6 21//21 
f 14//14 21//21 18//18 
f 14//14 18//18 15//15 
f 15//15 18//18 17//17 
f 15//15 17//17 16//16 
f 17//17 20//20 16//16 
f 17//17 18//18 31//31 
f 18//18 32//32 31//31 
f 32//32 18//18 21//21 
f 33//33 20//20 17//17 
f 17//17 31//31 33//33 
f 19//19 20//20 35//35 
f 36//36 19//19 35//35 
f 40//40 69//69 78//78 
f 77//77 80//80 79//79 
f 21//21 11//11 23//23 
f 22//22 21//21 23//23 
f 22//22 23//23 24//24 
f 38//38 21//21 22//22 
f 13//13 69//69 40//40 
f 11//11 12//12 23//23 
f 23//23 25//25 24//24 
f 42//42 24//24 46//46 
f 27//27 66//66 29//29 
f 81//81 73//73 67//67 
f 81//81 45//45 73//73 
f 25//25 46//46 24//24 
f 26//26 25//25 65//65 
f 70//70 66//66 27//27 
f 71//71 46//46 25//25 
f 72//72 28//28 71//71 
f 71//71 28//28 47//47 
f 46//46 71//71 47//47 
f 30//30 28//28 72//72 
f 29//29 74//74 27//27 
f 45//45 75//75 73//73 
f 76//76 48//48 28//28 
f 84//84 48//48 76//76 
f 31//31 34//34 33//33 
f 34//34 31//31 32//32 
f 37//37 34//34 39//39 
f 77//77 20//20 33//33 
f 37//37 33//33 34//34 
f 77//77 33//33 37//37 
f 34//34 32//32 38//38 
f 38//38 32//32 21//21 
f 42//42 38//38 22//22 
f 24//24 42//42 22//22 
f 39//39 38//38 42//42 
f 34//34 38//38 39//39 
f 37//37 39//39 41//41 
f 41//41 39//39 44//44 
f 77//77 37//37 80//80 
f 37//37 41//41 43//43 
f 37//37 43//43 80//80 
f 44//44 39//39 42//42 
f 42//42 49//49 44//44 
f 50//50 84//84 43//43 
f 86//86 44//44 49//49 
f 43//43 44//44 50//50 
f 41//41 44//44 43//43 
f 82//82 83//83 85//85 
f 42//42 46//46 49//49 
f 46//46 47//47 49//49 
f 48//48 47//47 28//28 
f 47//47 48//48 86//86 
f 84//84 50//50 48//48 
f 47//47 86//86 49//49 
