#
# The license for this database is specified in the Creative Commons Attribution-Share Alike 2.1 Japan. If you use data from this database, please be sure attribute this database as follows: "BodyParts3D, (c)  The Database Center for Life Science licensed under CC Attribution-Share Alike 2.1 Japan".
# http://dbarchive.biosciencedbc.jp/en/bodyparts3d/lic.html
#
#
# Compatibility version : 4.3i
# File ID : FJ6303
# Representation ID : BP50074
# Build-up logic : FMA 3.2.1-inference part_of
# Concept ID : FMA24460
# English name : Distal phalanx of right index finger
# Bounds(mm): (299.859500,-186.708300,661.704300)-(310.027500,-169.646900,675.556400)
# Volume(cm3): 0.371200
#
v 301.424 -173.13 673.924
v 300.201 -174.971 671.815
v 300.407 -174.809 672.686
v 300.811 -175.48 671.78
v 300.985 -175.287 672.614
v 301.148 -175.276 673.246
v 301.506 -174.932 673.692
v 301.62 -175.517 672.356
v 299.888 -173.706 672.049
v 299.925 -174.136 671.59
v 300.146 -173.331 672.632
v 299.97 -173.98 672.434
v 299.98 -173.362 671.987
v 300.594 -172.7 671.928
v 300.56 -173.027 672.673
v 300.681 -173.848 673.406
v 301.378 -175.879 671.488
v 301.156 -175.746 671.172
v 301.333 -175.232 670.213
v 300.207 -173.392 670.877
v 300.174 -174.589 671.101
v 302.34 -170.716 670.216
v 302.168 -171.893 669.897
v 301.884 -173.434 674.4
v 302.241 -173.03 674.671
v 302.273 -172.775 674.34
v 302.492 -173.021 674.86
v 302.518 -172.751 674.783
v 302.759 -172.673 675.163
v 302.824 -172.995 675.091
v 302.81 -172.565 674.899
v 302.853 -173.343 674.87
v 301.757 -175.369 673.06
v 301.963 -175.421 673.705
v 302.158 -175.424 673.415
v 302.341 -175.338 673.11
v 302.408 -175.624 672.698
v 302.64 -175.561 673.525
v 302.632 -175.515 673.254
v 302.685 -175.717 672.83
v 303.16 -175.939 673.021
v 302.116 -172.71 673.199
v 303.284 -169.957 670.787
v 302.988 -173.031 669.735
v 304.245 -171.697 669.733
v 304.006 -170.201 670.348
v 303.514 -178.568 667.96
v 303.252 -178.562 669.547
v 303.566 -179.351 668.586
v 303.713 -179.401 669.06
v 303.962 -174.246 668.537
v 303.859 -180.792 667.618
v 304.505 -184.162 666.275
v 304.037 -182.501 665.465
v 304.398 -180.35 665.427
v 304.154 -185.79 664.258
v 304.644 -183.708 662.64
v 304.301 -174.896 674.669
v 305.883 -174.586 674.841
v 304.486 -172.629 675.556
v 304.857 -172.065 675.063
v 305.997 -172.254 675.54
v 305.269 -175.454 674.331
v 304.766 -169.647 670.932
v 305.323 -169.891 671.663
v 306.189 -169.903 671.218
v 306.353 -177.035 672.105
v 306.121 -172.509 669.908
v 305.382 -169.974 670.773
v 305.667 -170.727 670.405
v 306.488 -170.308 671.003
v 304.507 -179.243 669.908
v 306.157 -174.82 668.055
v 306.75 -180.464 668.965
v 305.288 -179.452 664.646
v 305.427 -186.708 663.44
v 305.282 -186.574 662.514
v 305.832 -186.553 662.813
v 307.28 -186.581 663.072
v 307.578 -182.634 662.817
v 306.082 -184.101 661.704
v 306.96 -172.469 675.158
v 307.952 -171.708 674.651
v 308.506 -172.342 674.726
v 308.805 -173.671 674.3
v 308.462 -174.265 673.776
v 307.539 -170.652 671.56
v 307.183 -170.938 673.139
v 308.212 -171.05 672.967
v 307.125 -170.175 672.023
v 307.637 -177.094 671.2
v 307.971 -174.726 670.485
v 308.44 -175.05 671.789
v 308.445 -173.46 671.468
v 308.273 -175.33 672.291
v 307.112 -171.894 670.668
v 308.063 -173.078 671.067
v 308.123 -172.515 671.078
v 308.402 -172.481 671.328
v 307.428 -178.305 670.33
v 307.667 -176.561 668.758
v 308.07 -178.056 669.471
v 308.102 -177.846 669.182
v 308.093 -176.836 670.258
v 307.864 -182.579 667.229
v 308.67 -182.189 666.986
v 308.752 -181.618 667.013
v 307.926 -179.913 668.735
v 308.269 -179.267 668.366
v 308.51 -180.956 667.44
v 308.707 -181.047 666.891
v 308.519 -184.467 666.176
v 308.954 -181.995 666.818
v 309.202 -183.559 666.655
v 309.437 -182.657 666.739
v 308.466 -180.936 665.358
v 307.852 -186.163 664.426
v 308.682 -186.22 663.568
v 309.413 -184.552 663.373
v 309.536 -183.127 664.508
v 307.667 -186.04 662.646
v 308.532 -186.142 662.878
v 308.735 -185.594 662.613
v 308.795 -184.961 662.561
v 309.134 -185.571 662.927
v 309.07 -173.877 673.472
v 309.493 -184.35 666.063
v 309.805 -184.495 665.533
v 309.707 -183.668 666.376
v 309.622 -182.735 666.139
v 309.946 -183.447 666.043
v 309.969 -183.877 665.454
v 301.148 -175.276 673.246
v 301.148 -175.276 673.246
v 301.333 -175.232 670.213
v 302.34 -170.716 670.216
v 302.34 -170.716 670.216
v 302.759 -172.673 675.163
v 302.759 -172.673 675.163
v 301.963 -175.421 673.705
v 302.64 -175.561 673.525
v 303.284 -169.957 670.787
v 303.284 -169.957 670.787
v 303.252 -178.562 669.547
v 303.566 -179.351 668.586
v 303.859 -180.792 667.618
v 303.859 -180.792 667.618
v 303.859 -180.792 667.618
v 303.859 -180.792 667.618
v 304.505 -184.162 666.275
v 304.154 -185.79 664.258
v 304.154 -185.79 664.258
v 304.154 -185.79 664.258
v 305.883 -174.586 674.841
v 304.486 -172.629 675.556
v 305.997 -172.254 675.54
v 305.269 -175.454 674.331
v 304.766 -169.647 670.932
v 306.189 -169.903 671.218
v 305.427 -186.708 663.44
v 305.427 -186.708 663.44
v 305.282 -186.574 662.514
v 305.282 -186.574 662.514
v 305.282 -186.574 662.514
v 305.832 -186.553 662.813
v 307.28 -186.581 663.072
v 306.082 -184.101 661.704
v 307.952 -171.708 674.651
v 307.952 -171.708 674.651
v 308.506 -172.342 674.726
v 308.506 -172.342 674.726
v 308.506 -172.342 674.726
v 308.805 -173.671 674.3
v 308.805 -173.671 674.3
v 308.212 -171.05 672.967
v 308.212 -171.05 672.967
v 307.125 -170.175 672.023
v 308.44 -175.05 671.789
v 308.123 -172.515 671.078
v 308.402 -172.481 671.328
v 308.707 -181.047 666.891
v 308.954 -181.995 666.818
v 309.437 -182.657 666.739
v 309.07 -173.877 673.472
v 309.946 -183.447 666.043
vn -0.60393 0.586783 0.539402
vn -0.831412 -0.5548 0.0308256
vn -0.72748 -0.556676 0.401104
vn -0.509396 -0.831155 0.222928
vn -0.372681 -0.903341 0.212328
vn -0.608465 -0.345902 0.714229
vn -0.470353 -0.318786 0.822887
vn -0.29656 -0.86972 0.394511
vn -0.990102 0.134172 0.0411799
vn -0.981292 -0.146893 -0.124456
vn -0.799686 0.43936 0.409226
vn -0.927796 -0.151164 0.341093
vn -0.874107 0.485728 0.00225533
vn -0.566963 0.764283 0.307287
vn -0.438276 0.827003 0.35211
vn -0.710536 -0.0870915 0.69825
vn -0.557512 -0.775095 0.297335
vn -0.720159 -0.676572 -0.153692
vn -0.803686 -0.499337 -0.323652
vn -0.839007 0.247484 -0.484581
vn -0.81919 -0.369552 -0.438587
vn -0.740666 0.671468 0.0233483
vn -0.307867 0.13339 -0.942032
vn -0.526964 -0.170586 0.832592
vn -0.6597 0.348421 0.665882
vn -0.561369 0.778516 0.280674
vn -0.605531 -0.122479 0.786341
vn -0.703761 0.551213 0.448202
vn -0.377482 -0.27189 0.885202
vn -0.34053 -0.404947 0.848562
vn -0.43415 0.879836 0.193394
vn -0.313518 -0.447463 0.837546
vn -0.088343 -0.995597 0.0313491
vn -0.277217 -0.615531 0.737748
vn -0.109947 -0.973189 -0.202028
vn -0.302156 -0.946879 0.110099
vn -0.410854 -0.750517 0.517613
vn -0.393774 -0.898402 -0.194461
vn -0.569718 -0.816612 0.0925552
vn -0.519151 -0.744942 0.418979
vn -0.341198 -0.799578 0.494226
vn -0.337977 0.91915 0.202324
vn -0.673395 0.723442 0.152219
vn -0.353698 0.19392 -0.915037
vn -0.00738382 0.375156 -0.926932
vn 0.027266 0.581446 -0.813128
vn -0.921635 -0.121318 -0.368607
vn -0.569534 -0.683464 0.456628
vn -0.96937 -0.146089 -0.197432
vn -0.707454 -0.568961 0.419276
vn -0.519704 0.351454 -0.778709
vn -0.905451 -0.347682 0.243468
vn -0.0612172 -0.599112 0.798321
vn -0.976407 0.0893878 -0.196567
vn -0.927162 0.120317 -0.354816
vn -0.105347 -0.75169 0.651049
vn -0.818094 0.133186 -0.559449
vn -0.20134 -0.428823 0.880666
vn 0.149448 -0.33317 0.930947
vn -0.102756 -0.360775 0.926975
vn -0.183419 0.892005 0.413139
vn -0.106634 0.80983 0.576892
vn -0.0984765 -0.779109 0.619105
vn -0.0491906 0.935454 0.350009
vn -0.103284 0.849518 0.517351
vn 0.412171 0.722699 -0.554816
vn 0.318786 -0.648653 0.691104
vn 0.51685 0.371659 -0.771191
vn 0.24902 0.610691 -0.751695
vn 0.293415 0.403615 -0.866604
vn 0.43166 0.511938 -0.742691
vn -0.326548 -0.695479 0.640059
vn 0.388664 0.554639 -0.735742
vn 0.134248 -0.632304 0.763
vn -0.322865 0.506313 -0.799628
vn -0.104694 -0.73838 0.666209
vn -0.594673 -0.803626 -0.0234468
vn 0.0733134 -0.978228 -0.194152
vn 0.156377 -0.987502 0.0196683
vn 0.469764 0.485798 -0.737104
vn 0.12605 -0.0778907 -0.988961
vn 0.309995 -0.0389844 0.949938
vn 0.0274674 0.899004 0.437079
vn 0.264778 -0.261863 0.928073
vn 0.250062 -0.244211 0.936926
vn 0.484259 -0.72975 0.482657
vn 0.640955 0.585674 -0.496147
vn -0.0895015 0.868872 0.486878
vn 0.172557 0.867214 0.467081
vn 0.106117 0.889227 0.444987
vn 0.710528 -0.485198 0.509641
vn 0.847822 0.164119 -0.504245
vn 0.912542 -0.401037 0.0802329
vn 0.884233 -0.00989632 -0.46694
vn 0.659842 -0.609501 0.439451
vn 0.494087 0.291652 -0.819034
vn 0.613706 0.0717003 -0.786272
vn 0.561542 0.460751 -0.687298
vn 0.878275 0.122628 -0.462165
vn 0.653445 -0.463664 0.598352
vn 0.866929 0.334102 -0.369877
vn 0.918021 -0.21176 0.335255
vn 0.991609 0.125409 -0.0313643
vn 0.994672 -0.102796 0.00782492
vn 0.18012 -0.433215 0.883109
vn 0.498255 -0.0743318 0.863839
vn 0.802762 0.0157244 0.596093
vn 0.675028 -0.384812 0.629489
vn 0.974584 0.00686285 0.223915
vn 0.802415 -0.147976 0.578129
vn 0.912582 0.0877645 0.399363
vn 0.0603556 -0.603202 0.795301
vn 0.625013 0.0849441 0.775979
vn 0.257791 -0.383595 0.886791
vn 0.464876 -0.0382034 0.884551
vn 0.880302 0.414906 -0.230047
vn 0.133812 -0.83964 0.526402
vn 0.517686 -0.853103 0.0649309
vn 0.881548 0.107034 -0.459801
vn 0.846925 0.404824 -0.344724
vn 0.0633887 -0.517482 -0.853343
vn 0.395038 -0.715934 -0.57566
vn 0.360245 -0.329809 -0.872611
vn 0.558642 0.109635 -0.822131
vn 0.812404 -0.37329 -0.447944
vn 0.726319 -0.632244 0.269681
vn 0.371183 -0.629909 0.68223
vn 0.834925 -0.495401 0.239747
vn 0.666421 -0.306291 0.679757
vn 0.867016 0.495754 0.0501163
vn 0.925519 0.376939 -0.0364918
vn 0.992899 -0.0093611 -0.118592
vn -0.61506 -0.769377 0.17251
vn -0.148625 -0.988814 0.0125417
vn -0.514919 0.0659763 -0.854696
vn -0.595943 0.289832 -0.748899
vn -0.107028 0.468292 -0.877067
vn -0.843814 0.22052 0.489232
vn -0.349079 0.837191 0.421017
vn -0.163867 -0.983521 -0.0763844
vn -0.103391 -0.884784 0.454387
vn -0.280693 0.751628 0.596881
vn -0.1368 0.753108 -0.643517
vn -0.903824 -0.362309 -0.227672
vn -0.863079 -0.455141 0.218956
vn -0.983447 0.0397901 -0.176771
vn -0.387126 -0.709305 0.589084
vn -0.850328 -0.327196 0.412172
vn -0.0812037 -0.382253 0.920483
vn -0.850328 -0.327196 0.412172
vn -0.850328 -0.327196 0.412172
vn -0.962564 -0.0436462 -0.267516
vn -0.594673 -0.803626 -0.0234468
vn 0.365369 -0.728709 0.579214
vn -0.171021 0.709378 0.683765
vn 0.26265 -0.161782 0.951232
vn 0.453335 -0.631597 0.628946
vn 0.0968909 0.739511 -0.666135
vn 0.121497 0.970046 0.210357
vn -0.594673 -0.803626 -0.0234468
vn 0.0893631 -0.994864 -0.0475372
vn -0.730192 -0.133321 -0.670108
vn 0.124305 -0.97902 -0.161457
vn 0.447848 -0.405678 -0.79678
vn 0.303881 -0.417867 -0.856179
vn 0.0368816 -0.549734 -0.834525
vn -0.560078 -0.0886674 -0.823681
vn 0.312259 0.209976 0.926501
vn 0.682812 0.638502 0.355081
vn 0.231779 0.311689 0.921481
vn 0.682812 0.638502 0.355081
vn 0.961733 0.215372 0.169367
vn 0.489544 -0.718346 0.494293
vn 0.953335 0.126789 0.274
vn 0.887822 0.443904 -0.121333
vn 0.682812 0.638502 0.355081
vn 0.609143 0.75732 -0.235397
vn 0.944558 -0.0169188 -0.327909
vn 0.526321 -0.0390422 -0.849389
vn 0.556333 0.408668 -0.723522
vn 0.946569 0.296211 -0.127541
vn 0.874676 0.480016 0.0672812
vn 0.85649 0.474557 0.203029
vn 0.988071 0.130381 -0.0819546
vn 0.894345 -0.182577 0.408427
g grp1
usemtl mtl1
f 11//11 16//16 1//1 
f 3//3 12//12 2//2 
f 3//3 2//2 4//4 
f 2//2 21//21 18//18 
f 2//2 18//18 4//4 
f 3//3 4//4 5//5 
f 8//8 5//5 4//4 
f 6//6 16//16 3//3 
f 133//133 3//3 5//5 
f 8//8 4//4 17//17 
f 6//6 7//7 16//16 
f 16//16 7//7 24//24 
f 134//134 5//5 33//33 
f 6//6 34//34 7//7 
f 140//140 134//134 33//33 
f 48//48 17//17 18//18 
f 10//10 2//2 12//12 
f 12//12 9//9 10//10 
f 9//9 20//20 10//10 
f 9//9 13//13 20//20 
f 11//11 14//14 13//13 
f 9//9 12//12 11//11 
f 13//13 9//9 11//11 
f 13//13 14//14 20//20 
f 21//21 2//2 10//10 
f 10//10 20//20 21//21 
f 12//12 16//16 11//11 
f 15//15 14//14 11//11 
f 3//3 16//16 12//12 
f 11//11 1//1 15//15 
f 15//15 1//1 42//42 
f 15//15 42//42 14//14 
f 43//43 22//22 14//14 
f 18//18 21//21 19//19 
f 4//4 18//18 17//17 
f 135//135 21//21 20//20 
f 135//135 20//20 23//23 
f 20//20 14//14 22//22 
f 20//20 136//136 23//23 
f 58//58 34//34 63//63 
f 1//1 16//16 24//24 
f 24//24 25//25 1//1 
f 26//26 1//1 25//25 
f 26//26 42//42 1//1 
f 24//24 7//7 58//58 
f 25//25 27//27 28//28 
f 25//25 24//24 27//27 
f 25//25 28//28 26//26 
f 26//26 28//28 31//31 
f 26//26 31//31 42//42 
f 30//30 27//27 32//32 
f 29//29 27//27 30//30 
f 28//28 27//27 138//138 
f 28//28 139//139 31//31 
f 32//32 27//27 24//24 
f 31//31 61//61 42//42 
f 31//31 139//139 61//61 
f 24//24 58//58 32//32 
f 30//30 60//60 29//29 
f 30//30 32//32 60//60 
f 60//60 32//32 58//58 
f 139//139 155//155 61//61 
f 33//33 35//35 140//140 
f 35//35 33//33 36//36 
f 36//36 33//33 8//8 
f 8//8 33//33 5//5 
f 48//48 8//8 17//17 
f 140//140 35//35 38//38 
f 35//35 36//36 38//38 
f 37//37 36//36 8//8 
f 8//8 48//48 37//37 
f 58//58 7//7 34//34 
f 38//38 36//36 39//39 
f 40//40 36//36 37//37 
f 40//40 37//37 48//48 
f 40//40 48//48 41//41 
f 63//63 34//34 141//141 
f 39//39 41//41 38//38 
f 141//141 41//41 63//63 
f 39//39 40//40 41//41 
f 39//39 36//36 40//40 
f 42//42 61//61 88//88 
f 88//88 14//14 42//42 
f 14//14 65//65 142//142 
f 88//88 65//65 14//14 
f 64//64 142//142 65//65 
f 46//46 143//143 158//158 
f 19//19 144//144 18//18 
f 41//41 48//48 72//72 
f 135//135 23//23 44//44 
f 45//45 137//137 46//46 
f 23//23 137//137 45//45 
f 44//44 23//23 45//45 
f 143//143 46//46 137//137 
f 70//70 45//45 46//46 
f 144//144 47//47 49//49 
f 50//50 72//72 48//48 
f 145//145 50//50 48//48 
f 145//145 52//52 50//50 
f 49//49 47//47 55//55 
f 19//19 47//47 144//144 
f 135//135 51//51 47//47 
f 44//44 51//51 135//135 
f 45//45 51//51 44//44 
f 73//73 51//51 45//45 
f 49//49 55//55 146//146 
f 72//72 50//50 147//147 
f 54//54 146//146 55//55 
f 51//51 55//55 47//47 
f 51//51 73//73 75//75 
f 117//117 53//53 56//56 
f 112//112 53//53 117//117 
f 150//150 148//148 151//151 
f 146//146 54//54 152//152 
f 152//152 54//54 57//57 
f 54//54 55//55 57//57 
f 55//55 51//51 75//75 
f 76//76 117//117 56//56 
f 153//153 77//77 160//160 
f 152//152 57//57 162//162 
f 55//55 75//75 57//57 
f 57//57 75//75 81//81 
f 81//81 75//75 80//80 
f 162//162 57//57 167//167 
f 58//58 63//63 59//59 
f 59//59 60//60 58//58 
f 155//155 62//62 61//61 
f 60//60 59//59 156//156 
f 59//59 82//82 156//156 
f 88//88 61//61 83//83 
f 83//83 61//61 62//62 
f 63//63 41//41 67//67 
f 157//157 67//67 95//95 
f 66//66 69//69 158//158 
f 65//65 159//159 64//64 
f 88//88 90//90 65//65 
f 65//65 90//90 159//159 
f 66//66 71//71 69//69 
f 87//87 96//96 71//71 
f 87//87 71//71 66//66 
f 68//68 45//45 70//70 
f 96//96 68//68 70//70 
f 46//46 69//69 70//70 
f 69//69 46//46 158//158 
f 71//71 70//70 69//69 
f 96//96 70//70 71//71 
f 41//41 74//74 67//67 
f 73//73 45//45 68//68 
f 101//101 73//73 68//68 
f 73//73 101//101 116//116 
f 147//147 105//105 72//72 
f 72//72 74//74 41//41 
f 116//116 80//80 73//73 
f 80//80 75//75 73//73 
f 53//53 105//105 149//149 
f 53//53 112//112 105//105 
f 79//79 117//117 161//161 
f 78//78 161//161 163//163 
f 81//81 165//165 164//164 
f 161//161 78//78 79//79 
f 166//166 165//165 81//81 
f 166//166 81//81 121//121 
f 121//121 81//81 123//123 
f 84//84 82//82 59//59 
f 84//84 59//59 85//85 
f 156//156 82//82 168//168 
f 170//170 168//168 82//82 
f 95//95 154//154 157//157 
f 67//67 91//91 95//95 
f 86//86 173//173 154//154 
f 154//154 95//95 86//86 
f 126//126 173//173 86//86 
f 126//126 86//86 95//95 
f 89//89 88//88 83//83 
f 99//99 175//175 184//184 
f 169//169 171//171 176//176 
f 184//184 175//175 172//172 
f 177//177 87//87 66//66 
f 89//89 90//90 88//88 
f 175//175 87//87 177//177 
f 99//99 87//87 175//175 
f 67//67 100//100 91//91 
f 91//91 102//102 104//104 
f 104//104 95//95 91//91 
f 95//95 104//104 93//93 
f 178//178 104//104 92//92 
f 68//68 97//97 92//92 
f 92//92 101//101 68//68 
f 92//92 94//94 178//178 
f 97//97 94//94 92//92 
f 68//68 96//96 97//97 
f 180//180 96//96 87//87 
f 96//96 180//180 98//98 
f 179//179 97//97 96//96 
f 97//97 179//179 99//99 
f 94//94 99//99 184//184 
f 99//99 94//94 97//97 
f 108//108 67//67 74//74 
f 100//100 102//102 91//91 
f 100//100 67//67 108//108 
f 100//100 108//108 102//102 
f 101//101 92//92 104//104 
f 103//103 116//116 101//101 
f 104//104 102//102 103//103 
f 104//104 103//103 101//101 
f 102//102 109//109 103//103 
f 109//109 116//116 103//103 
f 108//108 105//105 110//110 
f 74//74 105//105 108//108 
f 72//72 105//105 74//74 
f 105//105 106//106 110//110 
f 110//110 106//106 107//107 
f 111//111 110//110 107//107 
f 107//107 106//106 113//113 
f 107//107 113//113 111//111 
f 109//109 102//102 108//108 
f 108//108 110//110 109//109 
f 116//116 109//109 181//181 
f 110//110 111//111 109//109 
f 105//105 112//112 114//114 
f 112//112 117//117 127//127 
f 114//114 112//112 127//127 
f 114//114 127//127 129//129 
f 127//127 117//117 128//128 
f 114//114 115//115 105//105 
f 115//115 106//106 105//105 
f 113//113 106//106 115//115 
f 130//130 116//116 182//182 
f 120//120 130//130 131//131 
f 183//183 130//130 182//182 
f 114//114 129//129 115//115 
f 120//120 80//80 116//116 
f 181//181 182//182 116//116 
f 117//117 79//79 118//118 
f 118//118 79//79 122//122 
f 125//125 128//128 118//118 
f 122//122 125//125 118//118 
f 125//125 119//119 128//128 
f 124//124 119//119 125//125 
f 119//119 124//124 80//80 
f 117//117 118//118 128//128 
f 120//120 119//119 80//80 
f 116//116 130//130 120//120 
f 122//122 166//166 121//121 
f 122//122 121//121 123//123 
f 123//123 81//81 124//124 
f 80//80 124//124 81//81 
f 125//125 122//122 123//123 
f 124//124 125//125 123//123 
f 174//174 184//184 172//172 
f 93//93 126//126 95//95 
f 178//178 94//94 184//184 
f 127//127 128//128 129//129 
f 132//132 128//128 119//119 
f 132//132 185//185 128//128 
f 183//183 131//131 130//130 
f 115//115 129//129 185//185 
f 128//128 185//185 129//129 
f 132//132 119//119 120//120 
f 132//132 120//120 131//131 
