#
# The license for this database is specified in the Creative Commons Attribution-Share Alike 2.1 Japan. If you use data from this database, please be sure attribute this database as follows: "BodyParts3D, (c)  The Database Center for Life Science licensed under CC Attribution-Share Alike 2.1 Japan".
# http://dbarchive.biosciencedbc.jp/en/bodyparts3d/lic.html
#
#
# Compatibility version : 4.3i
# File ID : FJ6307
# Representation ID : BP49781
# Build-up logic : FMA 3.2.1-inference part_of
# Concept ID : FMA24462
# English name : Distal phalanx of right ring finger
# Bounds(mm): (243.949000,-194.363800,664.713100)-(252.429100,-178.586000,673.966500)
# Volume(cm3): 0.226800
#
v 244.035 -182.359 671.646
v 244.145 -182.593 671.48
v 244.152 -182.206 672.028
v 244.336 -182.856 672.022
v 244.783 -182.206 672.739
v 244.4 -181.304 670.371
v 244.289 -181.173 671.137
v 244.042 -182.112 671.192
v 243.989 -181.881 671.502
v 244.586 -181.492 672.338
v 245.648 -180.782 672.221
v 246.772 -179.044 669.57
v 247.494 -178.907 670.181
v 247.682 -178.694 669.58
v 244.571 -183.272 671.655
v 244.942 -183.552 671.177
v 244.725 -183.216 672.11
v 245.136 -183.737 671.458
v 245.611 -184.443 670.636
v 244.391 -182.706 671.039
v 245.468 -183.471 669.746
v 246.656 -188.377 668.876
v 246.484 -187.024 667.842
v 246.441 -191.268 667.846
v 246.493 -192.71 665.719
v 248.939 -189.069 665.68
v 246.635 -193.618 666.007
v 247.035 -194.117 665.87
v 247.28 -193.513 665.248
v 247.778 -193.056 665.015
v 247.694 -193.872 665.221
v 249.154 -193.199 664.872
v 247.102 -181.075 673.966
v 247 -181.438 673.838
v 245.789 -183.837 672.013
v 247.219 -183.388 673.124
v 250.856 -179.547 669.86
v 246.944 -185.145 671.596
v 247.602 -187.663 670.203
v 248.969 -187.405 670.331
v 250.33 -187.092 668.985
v 249.765 -184.541 668.291
v 250.467 -185.592 668.554
v 247.674 -189.416 669.459
v 248.361 -190.043 669.408
v 249.347 -190.121 669.084
v 250.079 -188.329 666.863
v 250.246 -189.809 667.965
v 247.644 -192.513 668.339
v 249.064 -192.315 668.55
v 247.329 -193.843 666.936
v 248.823 -194.364 667.189
v 249.377 -194.114 666.417
v 250.077 -194.129 666.092
v 249.415 -193.711 667.361
v 250.58 -192.18 665.577
v 250.826 -193.499 666.016
v 247.995 -181.382 673.928
v 248.386 -180.964 673.926
v 249.891 -181.226 673.831
v 249.685 -181.576 673.671
v 250.234 -180.996 673.672
v 250.654 -181.385 673.375
v 251.336 -180.96 672.922
v 249.483 -182.303 673.439
v 251.141 -180.263 671.499
v 252.074 -180.517 671.356
v 252.288 -181.425 671.039
v 250.629 -185.425 670.339
v 251.503 -183.382 670.232
v 250.563 -184.331 671.653
v 251.344 -183.963 670.98
v 251.383 -183.163 669.889
v 249.977 -187.302 669.592
v 250.936 -192.142 667.209
v 250.803 -192.802 667.111
v 251.518 -183.098 672.672
v 251.927 -183.108 672.209
v 252.151 -181.885 672.782
v 251.804 -182.44 672.932
v 252.104 -182.302 672.809
v 252.046 -182.716 672.826
v 252.26 -180.81 672.399
v 252.339 -181.112 672.234
v 244.4 -181.304 670.371
v 244.4 -181.304 670.371
v 244.289 -181.173 671.137
v 246.772 -179.044 669.57
v 246.772 -179.044 669.57
v 246.772 -179.044 669.57
v 247.682 -178.694 669.58
v 247.682 -178.694 669.58
v 245.468 -183.471 669.746
v 246.656 -188.377 668.876
v 246.484 -187.024 667.842
v 246.484 -187.024 667.842
v 246.441 -191.268 667.846
v 246.493 -192.71 665.719
v 246.635 -193.618 666.007
v 246.635 -193.618 666.007
v 247.035 -194.117 665.87
v 247.035 -194.117 665.87
v 247.694 -193.872 665.221
v 247.694 -193.872 665.221
v 247.102 -181.075 673.966
v 250.856 -179.547 669.86
v 250.856 -179.547 669.86
v 246.944 -185.145 671.596
v 250.33 -187.092 668.985
v 249.765 -184.541 668.291
v 250.467 -185.592 668.554
v 250.079 -188.329 666.863
v 250.246 -189.809 667.965
v 248.823 -194.364 667.189
v 248.823 -194.364 667.189
v 249.377 -194.114 666.417
v 249.377 -194.114 666.417
v 250.077 -194.129 666.092
v 250.077 -194.129 666.092
v 249.415 -193.711 667.361
v 250.58 -192.18 665.577
v 250.826 -193.499 666.016
v 250.826 -193.499 666.016
v 248.386 -180.964 673.926
v 250.234 -180.996 673.672
v 250.234 -180.996 673.672
v 251.336 -180.96 672.922
v 252.074 -180.517 671.356
v 252.288 -181.425 671.039
v 250.629 -185.425 670.339
v 251.344 -183.963 670.98
v 251.383 -183.163 669.889
v 250.936 -192.142 667.209
v 250.803 -192.802 667.111
v 251.927 -183.108 672.209
v 252.151 -181.885 672.782
v 252.151 -181.885 672.782
v 252.104 -182.302 672.809
v 252.046 -182.716 672.826
v 252.046 -182.716 672.826
v 252.26 -180.81 672.399
v 252.26 -180.81 672.399
v 252.26 -180.81 672.399
v 252.339 -181.112 672.234
vn -0.965464 -0.24008 0.101195
vn -0.874506 -0.462632 -0.145641
vn -0.863527 0.0012543 0.5043
vn -0.807282 -0.447155 0.385161
vn -0.569277 -0.176303 0.80302
vn -0.859184 0.469113 -0.204293
vn -0.591144 0.725876 0.351643
vn -0.935098 -0.142159 -0.324626
vn -0.969272 0.198629 0.145117
vn -0.661524 0.481447 0.574974
vn -0.440594 0.799856 0.407562
vn -0.409683 0.864732 0.290513
vn -0.191057 0.90228 0.386508
vn 0.0204911 0.229912 -0.972996
vn -0.744298 -0.667844 0.00217798
vn -0.766125 -0.636828 -0.086617
vn -0.505191 -0.663645 0.551686
vn -0.606618 -0.751224 0.26015
vn -0.830644 -0.551689 0.0753029
vn -0.812692 -0.487563 -0.319083
vn -0.891987 -0.305718 -0.333009
vn -0.641604 -0.372752 0.670373
vn -0.69324 0.176325 -0.698804
vn -0.996748 -0.0379492 0.0710827
vn -0.997923 -0.0619764 0.0175806
vn 0.0337557 0.3385 -0.940361
vn -0.73082 -0.541824 0.415126
vn -0.530383 -0.774275 0.345241
vn -0.540401 -0.283319 -0.792273
vn -0.274682 0.0140889 -0.961432
vn 0.0210651 -0.975114 -0.220699
vn 0.224007 -0.240491 -0.94445
vn -0.291636 0.8264 0.481675
vn -0.252995 -0.246042 0.935659
vn -0.431262 -0.685593 0.586494
vn -0.125104 -0.553624 0.823316
vn 0.155242 0.265161 -0.951625
vn -0.561043 -0.59696 0.573472
vn -0.32422 -0.422874 0.846202
vn 0.321603 -0.437904 0.839531
vn 0.839774 -0.31335 0.443387
vn -0.0509703 0.339595 -0.93919
vn 0.64883 0.254147 -0.717237
vn -0.500156 -0.308531 0.809106
vn -0.0147433 -0.350034 0.936621
vn 0.621457 -0.246671 0.743602
vn 0.613378 0.320997 -0.721615
vn 0.789451 -0.106941 0.604426
vn -0.347128 -0.455221 0.819925
vn 0.321804 -0.40811 0.854335
vn -0.591412 -0.631672 0.501221
vn 0.0660062 -0.958453 -0.277508
vn -0.00715722 -0.982021 -0.188635
vn 0.285875 -0.645552 -0.708193
vn 0.678922 -0.684548 0.26544
vn 0.489563 0.12007 -0.863662
vn 0.476105 -0.376294 -0.794813
vn 0.0272774 -0.289775 0.956706
vn 0.0750767 0.120834 0.98983
vn 0.238693 -0.16446 0.957068
vn 0.219619 -0.431643 0.874901
vn 0.130898 0.425978 0.895214
vn 0.421136 -0.192702 0.88629
vn 0.170004 0.893916 0.414744
vn 0.15513 -0.33524 0.929273
vn 0.195443 0.911019 0.363107
vn 0.291764 0.915819 0.27595
vn 0.850851 0.255789 -0.458939
vn 0.960197 -0.272503 -0.061354
vn 0.932716 -0.259489 -0.250413
vn 0.418677 -0.668465 0.614706
vn 0.923715 -0.369594 -0.100756
vn 0.898491 -0.152304 -0.411725
vn 0.734955 -0.368969 0.568949
vn 0.996252 0.082244 -0.0268055
vn 0.561592 -0.536122 0.630228
vn 0.272156 -0.676011 0.684792
vn 0.510302 -0.773376 0.376141
vn 0.434913 0.252363 0.864386
vn 0.298056 -0.0184136 0.954371
vn 0.381463 -6.50088e-05 0.924384
vn 0.242672 -0.249249 0.937542
vn 0.193639 0.926384 0.322981
vn 0.975016 -0.0952103 0.200693
vn -0.791441 -0.226758 -0.567629
vn -0.383384 0.0762747 -0.920434
vn -0.887662 0.38867 -0.246966
vn -0.710817 0.669052 -0.217045
vn -0.549065 0.128823 -0.825792
vn -0.0710269 0.213578 -0.974341
vn -0.352361 0.911472 0.212274
vn 0.207814 0.899788 0.383659
vn -0.549065 0.128823 -0.825792
vn -0.989641 -0.143286 -0.00894867
vn -0.217503 0.320313 -0.922004
vn -0.997827 -0.0652586 0.00910693
vn -0.682581 -0.344177 0.64469
vn -0.534332 0.0833923 -0.841151
vn -0.988787 -0.133728 0.0664615
vn -0.69154 -0.343308 -0.635541
vn -0.592001 -0.449288 -0.669085
vn 0.077076 -0.955947 -0.283239
vn -0.297084 -0.330352 -0.895885
vn 0.169321 -0.717931 -0.675208
vn -0.192106 -0.171947 0.966193
vn 0.237103 0.901689 0.361578
vn 0.774009 0.216838 -0.594887
vn 0.0770515 -0.52936 0.844891
vn 0.993873 -0.0678775 -0.0872271
vn 0.632791 0.225257 -0.740833
vn 0.963382 -0.231653 -0.135025
vn 0.994569 0.085821 -0.0588874
vn 0.991863 0.125901 0.0189144
vn -0.0990943 -0.705686 0.70156
vn 0.678922 -0.684548 0.26544
vn 0.678922 -0.684548 0.26544
vn 0.158499 -0.91018 0.382689
vn -0.0691599 -0.99223 -0.103421
vn 0.444769 -0.772588 0.453088
vn 0.398228 -0.683021 0.612288
vn 0.964829 0.152871 -0.21386
vn 0.998032 -0.0559802 -0.0282579
vn 0.604614 -0.666055 0.436821
vn 0.0573506 0.901506 0.42895
vn 0.154067 0.914842 0.373265
vn 0.526881 -0.0770072 0.846443
vn 0.482615 0.162377 0.860649
vn 0.909432 0.310511 -0.276615
vn 0.96923 -0.228303 -0.0920377
vn 0.69368 -0.506895 0.511729
vn 0.640771 -0.667525 0.379241
vn 0.594076 0.204759 -0.777912
vn 0.654674 -0.159321 0.738931
vn 0.962826 -0.218104 0.159364
vn 0.95018 -0.287656 -0.120046
vn 0.293126 -0.0470894 0.954913
vn 0.983622 -0.100323 0.149741
vn 0.991438 -0.123599 0.0421277
vn 0.98241 -0.186732 -0.00147768
vn 0.450246 -0.790218 0.415734
vn 0.951424 0.287497 -0.110167
vn 0.443158 0.260634 0.857718
vn 0.926615 0.0394014 0.37394
vn 0.941329 0.314448 -0.122566
g grp1
usemtl mtl1
f 9//9 8//8 1//1 
f 8//8 2//2 1//1 
f 15//15 2//2 20//20 
f 20//20 2//2 8//8 
f 10//10 9//9 3//3 
f 3//3 9//9 1//1 
f 3//3 1//1 4//4 
f 4//4 1//1 2//2 
f 2//2 15//15 4//4 
f 5//5 10//10 3//3 
f 5//5 3//3 4//4 
f 17//17 4//4 15//15 
f 7//7 13//13 12//12 
f 88//88 6//6 87//87 
f 87//87 6//6 8//8 
f 85//85 21//21 8//8 
f 8//8 9//9 87//87 
f 10//10 7//7 9//9 
f 7//7 10//10 13//13 
f 10//10 11//11 13//13 
f 89//89 93//93 86//86 
f 89//89 23//23 93//93 
f 90//90 14//14 95//95 
f 13//13 91//91 12//12 
f 16//16 15//15 20//20 
f 19//19 16//16 20//20 
f 15//15 18//18 17//17 
f 15//15 16//16 18//18 
f 16//16 19//19 18//18 
f 17//17 18//18 35//35 
f 38//38 18//18 19//19 
f 8//8 21//21 20//20 
f 20//20 21//21 19//19 
f 14//14 42//42 95//95 
f 14//14 37//37 42//42 
f 38//38 19//19 22//22 
f 21//21 96//96 94//94 
f 21//21 94//94 19//19 
f 94//94 96//96 24//24 
f 39//39 22//22 44//44 
f 42//42 26//26 95//95 
f 25//25 24//24 96//96 
f 44//44 22//22 97//97 
f 97//97 27//27 51//51 
f 24//24 25//25 99//99 
f 29//29 100//100 98//98 
f 95//95 26//26 98//98 
f 27//27 28//28 51//51 
f 100//100 29//29 101//101 
f 102//102 31//31 52//52 
f 51//51 28//28 114//114 
f 26//26 30//30 98//98 
f 98//98 30//30 29//29 
f 101//101 29//29 103//103 
f 30//30 103//103 29//29 
f 30//30 26//26 32//32 
f 103//103 30//30 32//32 
f 17//17 5//5 4//4 
f 36//36 5//5 17//17 
f 34//34 5//5 36//36 
f 33//33 11//11 10//10 
f 10//10 5//5 34//34 
f 33//33 13//13 11//11 
f 10//10 34//34 105//105 
f 105//105 34//34 58//58 
f 105//105 58//58 59//59 
f 13//13 33//33 124//124 
f 34//34 65//65 58//58 
f 106//106 92//92 13//13 
f 106//106 13//13 66//66 
f 35//35 18//18 38//38 
f 36//36 17//17 35//35 
f 38//38 36//36 35//35 
f 39//39 38//38 22//22 
f 108//108 39//39 40//40 
f 45//45 40//40 39//39 
f 40//40 45//45 46//46 
f 46//46 41//41 74//74 
f 110//110 43//43 47//47 
f 111//111 109//109 112//112 
f 69//69 109//109 111//111 
f 49//49 44//44 97//97 
f 45//45 39//39 44//44 
f 45//45 44//44 49//49 
f 47//47 26//26 110//110 
f 48//48 41//41 46//46 
f 113//113 112//112 109//109 
f 49//49 97//97 51//51 
f 49//49 51//51 114//114 
f 114//114 50//50 49//49 
f 49//49 50//50 45//45 
f 46//46 45//45 50//50 
f 56//56 26//26 47//47 
f 121//121 112//112 75//75 
f 112//112 113//113 75//75 
f 52//52 31//31 53//53 
f 32//32 54//54 104//104 
f 53//53 31//31 118//118 
f 115//115 116//116 55//55 
f 50//50 114//114 120//120 
f 119//119 120//120 117//117 
f 120//120 119//119 76//76 
f 56//56 32//32 26//26 
f 56//56 57//57 32//32 
f 57//57 54//54 32//32 
f 75//75 122//122 121//121 
f 124//124 66//66 13//13 
f 34//34 36//36 65//65 
f 65//65 61//61 58//58 
f 58//58 60//60 59//59 
f 58//58 61//61 60//60 
f 61//61 65//65 63//63 
f 60//60 62//62 59//59 
f 124//124 125//125 66//66 
f 60//60 61//61 63//63 
f 66//66 125//125 64//64 
f 60//60 63//63 126//126 
f 127//127 126//126 63//63 
f 63//63 79//79 127//127 
f 71//71 36//36 108//108 
f 71//71 77//77 36//36 
f 136//136 63//63 65//65 
f 77//77 65//65 36//36 
f 71//71 78//78 77//77 
f 106//106 66//66 67//67 
f 66//66 64//64 83//83 
f 67//67 66//66 83//83 
f 141//141 68//68 128//128 
f 68//68 107//107 128//128 
f 79//79 142//142 127//127 
f 40//40 71//71 108//108 
f 40//40 74//74 130//130 
f 130//130 71//71 40//40 
f 70//70 111//111 73//73 
f 111//111 72//72 69//69 
f 111//111 70//70 72//72 
f 130//130 131//131 71//71 
f 129//129 72//72 70//70 
f 131//131 78//78 71//71 
f 129//129 135//135 72//72 
f 132//132 43//43 110//110 
f 110//110 107//107 68//68 
f 110//110 68//68 132//132 
f 73//73 129//129 70//70 
f 74//74 40//40 46//46 
f 41//41 130//130 74//74 
f 48//48 46//46 133//133 
f 46//46 50//50 133//133 
f 120//120 76//76 50//50 
f 50//50 76//76 133//133 
f 75//75 134//134 122//122 
f 123//123 76//76 119//119 
f 129//129 84//84 137//137 
f 65//65 77//77 82//82 
f 136//136 65//65 80//80 
f 136//136 80//80 81//81 
f 129//129 137//137 138//138 
f 82//82 80//80 65//65 
f 80//80 82//82 81//81 
f 138//138 139//139 129//129 
f 77//77 78//78 140//140 
f 135//135 129//129 139//139 
f 137//137 84//84 143//143 
f 144//144 68//68 141//141 
