#
# The license for this database is specified in the Creative Commons Attribution-Share Alike 2.1 Japan. If you use data from this database, please be sure attribute this database as follows: "BodyParts3D, (c)  The Database Center for Life Science licensed under CC Attribution-Share Alike 2.1 Japan".
# http://dbarchive.biosciencedbc.jp/en/bodyparts3d/lic.html
#
#
# Compatibility version : 4.3i
# File ID : FJ6423
# Representation ID : BP50025
# Build-up logic : FMA 3.2.1-inference part_of
# Concept ID : FMA24450
# English name : Proximal phalanx of right thumb
# Bounds(mm): (-318.742300,-164.882600,735.522500)-(-298.580800,-142.509000,767.250400)
# Volume(cm3): 1.857900
#
v -316.154 -164.46 743.126
v -316.199 -164.527 742.36
v -318.014 -161.91 742.093
v -317.148 -163.731 741.967
v -318.455 -160.33 742.008
v -318.637 -160.669 741.33
v -318.17 -157.942 741.201
v -317.853 -162.174 740.962
v -316.863 -163.79 741.619
v -316.682 -162.714 740.518
v -317.696 -160.414 740.034
v -315.003 -159.09 748.012
v -315.714 -154.981 745.478
v -316.725 -157.052 745.285
v -315.095 -164.818 743.325
v -315.156 -164.554 742.328
v -314.992 -163.531 744.954
v -314.581 -164.282 744.65
v -314.427 -164.611 743.747
v -314.439 -164.536 742.967
v -314.253 -163.912 742.208
v -313.891 -164.051 744.692
v -313.878 -164.211 743.633
v -313.574 -163.808 743.914
v -313.643 -163.614 742.758
v -315.961 -164.226 741.736
v -315.223 -163.651 741.306
v -314.68 -160.643 739.006
v -316.018 -156.092 738.943
v -313.949 -154.989 753.066
v -314.165 -159.857 747.889
v -313.331 -159.785 747.494
v -312.653 -159.329 746.957
v -313.978 -161.477 746.48
v -313.083 -162.45 744.857
v -313.021 -160.581 744.967
v -314.461 -154.025 742.668
v -312.96 -162.492 743.712
v -312.283 -158.978 743.642
v -312.214 -159.772 742.265
v -312.815 -161.238 740.963
v -313.26 -160.85 739.636
v -311.746 -159.874 740.105
v -315.191 -156.724 736.897
v -314.703 -156.145 736.73
v -313.288 -154.791 738.432
v -312.25 -159.239 736.66
v -312.993 -158.249 735.607
v -314.069 -156.561 736.142
v -312.254 -150.536 758.23
v -311.768 -152.996 758.891
v -310.83 -154.662 758.054
v -312.58 -155.965 754.026
v -310.859 -156.134 752.521
v -312.196 -153.299 742.214
v -311.193 -158.573 740.946
v -310.533 -156.93 742.735
v -310.111 -158.521 738.748
v -310.716 -159.05 737.221
v -310.407 -157.908 735.523
v -310.747 -150.867 764.505
v -310.062 -150.367 766.034
v -309.648 -151.995 765.773
v -311.122 -148.066 763.953
v -308.402 -153.809 764.438
v -309.958 -152.414 764.82
v -310.066 -152.857 763.157
v -309.592 -152.769 764.942
v -311.488 -149.105 763.061
v -311.046 -146.968 762.322
v -312.265 -149.607 755.842
v -310.447 -147.261 755.29
v -310.058 -151.986 744.836
v -309.215 -155.221 743.306
v -309.217 -153.713 743.342
v -308.369 -154.177 745.389
v -308.368 -153.548 744.853
v -309.757 -156.478 741.062
v -309.645 -156.816 740.395
v -310.326 -154.521 740.631
v -309.657 -154.434 741.706
v -309.428 -155.999 740.612
v -309.465 -155.356 740.228
v -309.343 -157.113 739.757
v -309.164 -157.302 738.06
v -309.087 -156.016 738.311
v -308.977 -156.264 739.494
v -308.961 -149.675 766.964
v -307.515 -152.204 766.868
v -307.259 -152.905 766.459
v -306.97 -151.477 766.963
v -306.858 -152.115 766.981
v -306.667 -152.643 766.798
v -306.574 -153.016 766.519
v -306.346 -152.213 766.768
v -306.148 -152.933 766.559
v -309.371 -149.522 766.629
v -308.619 -151.048 766.937
v -308.237 -150.732 767.199
v -308.148 -149.709 766.855
v -309.514 -147.051 765.21
v -308.885 -146.928 765.223
v -309.156 -145.297 763.81
v -308.016 -153.405 765.504
v -305.498 -153.504 765.676
v -308.959 -144.605 760.87
v -308.674 -146.235 754.75
v -307.4 -153.877 755.178
v -307.903 -154.475 749.914
v -306.267 -150.578 748.822
v -307.232 -153.48 747.893
v -308.215 -152.364 745.741
v -306.734 -152.379 747.544
v -304.774 -151.603 765.317
v -304.596 -152.882 765.689
v -303.179 -153.401 763.9
v -306.629 -144.031 761.949
v -306.96 -143.459 759.438
v -306.562 -143.038 761.114
v -303.957 -153.756 762.795
v -306.121 -145.55 754.628
v -302.113 -152.075 764.24
v -302.115 -151.236 764.108
v -301.466 -151.373 763.311
v -301.186 -150.77 762.726
v -301.512 -149.265 762.67
v -301.186 -150.313 762.922
v -305.251 -142.672 759.94
v -304.304 -143.29 760.465
v -303.149 -142.649 759.404
v -302.281 -152.753 762.984
v -301.255 -151.258 762.197
v -301.26 -150.87 759.814
v -305.417 -143.28 757.611
v -302.63 -145.774 755.256
v -302.976 -143.797 756.688
v -302.471 -150.427 754.27
v -301.09 -148.951 754.811
v -302.668 -146.636 754.095
v -302.518 -146.545 754.212
v -302.486 -146.646 754.122
v -301.869 -148.158 754.272
v -300.659 -149.644 762.297
v -299.606 -147.683 761.607
v -300.473 -150.242 761.578
v -299.418 -148.383 761.768
v -299.491 -148.92 761.514
v -299.115 -148.396 761.349
v -299.002 -147.944 761.31
v -298.907 -148.116 760.914
v -298.915 -146.352 760.24
v -298.675 -147.247 760.236
v -301.074 -143.735 759.748
v -300.845 -143.541 758.954
v -299.019 -148.854 759.13
v -299.266 -148.002 756.799
v -300.254 -146.374 755.802
v -299.166 -145.781 757.302
v -299.053 -146.819 756.756
v -298.648 -146.815 757.697
v -318.637 -160.669 741.33
v -313.891 -164.051 744.692
v -314.165 -159.857 747.889
v -313.978 -161.477 746.48
v -314.703 -156.145 736.73
v -313.288 -154.791 738.432
v -312.993 -158.249 735.607
v -312.993 -158.249 735.607
v -314.069 -156.561 736.142
v -314.069 -156.561 736.142
v -310.83 -154.662 758.054
v -312.58 -155.965 754.026
v -310.407 -157.908 735.523
v -310.407 -157.908 735.523
v -310.407 -157.908 735.523
v -310.407 -157.908 735.523
v -308.402 -153.809 764.438
v -310.058 -151.986 744.836
v -309.217 -153.713 743.342
v -310.326 -154.521 740.631
v -309.657 -154.434 741.706
v -309.428 -155.999 740.612
v -309.428 -155.999 740.612
v -309.087 -156.016 738.311
v -309.087 -156.016 738.311
v -306.148 -152.933 766.559
v -309.156 -145.297 763.81
v -306.734 -152.379 747.544
v -304.596 -152.882 765.689
v -306.562 -143.038 761.114
v -302.113 -152.075 764.24
v -305.251 -142.672 759.94
v -303.149 -142.649 759.404
v -302.668 -146.636 754.095
v -302.518 -146.545 754.212
v -302.486 -146.646 754.122
v -300.659 -149.644 762.297
v -299.418 -148.383 761.768
v -300.845 -143.541 758.954
vn -0.615674 -0.66733 0.419066
vn -0.341943 -0.910595 -0.232146
vn -0.861234 -0.357583 0.361124
vn -0.769363 -0.636615 -0.0529375
vn -0.925299 -0.0219186 0.378605
vn -0.967008 -0.181227 0.179031
vn -0.912023 0.383795 -0.144622
vn -0.752152 -0.478565 -0.453037
vn -0.466661 -0.704454 -0.534763
vn -0.256771 -0.550564 -0.794322
vn -0.585484 -0.32937 -0.740759
vn -0.731819 -0.377735 0.567236
vn -0.821497 0.570082 0.0122471
vn -0.94317 0.15882 0.291902
vn -0.0101015 -0.998374 0.0560949
vn 0.213126 -0.854395 -0.473905
vn -0.443904 -0.510452 0.73647
vn -0.126513 -0.767252 0.628744
vn 0.390331 -0.910066 0.139362
vn 0.515062 -0.812984 -0.271604
vn 0.542178 -0.651589 -0.530542
vn 0.672574 -0.675193 0.302917
vn 0.708582 -0.70367 -0.0525428
vn 0.863584 -0.50312 0.0330632
vn 0.790837 -0.556751 -0.254175
vn -0.07834 -0.766373 -0.637601
vn 0.291593 -0.6625 -0.689976
vn -0.0554701 -0.655087 -0.753514
vn -0.6567 0.680562 -0.324931
vn -0.85729 -0.285143 0.428658
vn -0.449073 -0.597736 0.664112
vn 0.533345 -0.698375 0.4773
vn 0.759074 -0.621044 0.195223
vn 0.360225 -0.620734 0.696367
vn 0.907861 -0.274284 0.317108
vn 0.929228 -0.266821 0.25562
vn -0.56302 0.798327 -0.213736
vn 0.93266 -0.359675 -0.0279264
vn 0.850223 -0.511046 0.126307
vn 0.92775 -0.330276 0.173773
vn 0.763331 -0.573541 -0.297283
vn 0.406147 -0.807007 -0.4287
vn 0.732992 -0.672715 0.100883
vn -0.721575 0.161501 -0.673236
vn -0.62466 0.562234 -0.541934
vn -0.418252 0.865228 -0.276487
vn 0.0332342 -0.816404 -0.576524
vn -0.57982 -0.159958 -0.798888
vn 0.0658316 0.778602 -0.624055
vn -0.973149 0.0923825 0.210823
vn -0.853433 -0.373356 0.363671
vn -0.716856 -0.592154 0.368063
vn -0.647628 -0.571524 0.503923
vn 0.430012 -0.859238 0.277128
vn -0.0519891 0.900484 -0.431771
vn 0.787884 -0.519021 0.331445
vn 0.786337 -0.609905 0.0984413
vn 0.753121 -0.65146 0.0916976
vn 0.572647 -0.790104 -0.218658
vn 0.178746 -0.770353 -0.612051
vn -0.881912 -0.30659 0.358098
vn -0.751839 -0.0349102 0.658422
vn -0.656139 -0.461106 0.59738
vn -0.87863 0.223267 0.422092
vn -0.576821 -0.745731 0.333411
vn -0.79987 -0.503297 0.326956
vn -0.748545 -0.614763 0.24849
vn -0.601353 -0.695658 0.392981
vn -0.975814 0.0193794 0.217742
vn -0.864438 0.484603 0.133814
vn -0.892596 0.44958 0.0339076
vn -0.694223 0.702412 -0.157069
vn -0.0120085 0.864133 -0.503119
vn 0.922629 -0.366429 -0.120355
vn 0.626691 0.608 -0.487436
vn 0.86234 -0.44905 -0.233929
vn 0.865466 0.0555449 -0.497879
vn 0.819958 -0.519571 0.240239
vn 0.78913 -0.417578 0.450447
vn 0.19472 0.868632 -0.45559
vn 0.649678 0.628868 -0.427134
vn 0.934046 -0.191446 0.301507
vn 0.867433 0.496834 -0.0267381
vn 0.812429 -0.458147 0.360637
vn 0.919698 -0.378419 -0.10467
vn 0.224114 0.820536 -0.525827
vn 0.985954 0.0127302 0.166529
vn -0.317923 0.231134 0.919512
vn -0.301315 -0.451991 0.839591
vn -0.264901 -0.646091 0.715817
vn 0.428228 0.234772 0.872641
vn 0.152117 -0.139453 0.978475
vn 0.0378591 -0.434813 0.899725
vn -0.055876 -0.759468 0.648141
vn 0.468302 0.0346967 0.882887
vn 0.40972 -0.147873 0.900146
vn -0.656537 0.227634 0.719126
vn -0.484161 -0.341982 0.805379
vn -0.0414679 -0.0212748 0.998913
vn 0.359901 0.422593 0.831797
vn -0.559725 0.492722 0.666283
vn 0.200334 0.580457 0.789263
vn -0.690048 0.68427 0.235815
vn -0.290004 -0.794403 0.533686
vn 0.243493 -0.851107 0.46511
vn -0.644544 0.764225 -0.0228539
vn -0.337643 0.850049 -0.404245
vn 0.42439 -0.905425 -0.00989954
vn 0.703341 -0.71048 -0.0230345
vn 0.562808 0.507086 -0.652772
vn 0.762941 -0.606199 -0.224598
vn 0.606489 0.513299 -0.607203
vn 0.820269 -0.467365 -0.329741
vn 0.469025 0.416601 0.778755
vn 0.458919 -0.67724 0.575099
vn 0.518766 -0.813841 0.261809
vn 0.322432 0.562707 0.761182
vn -0.48463 0.849823 -0.207205
vn -0.496412 0.867803 -0.0222058
vn 0.284465 -0.958605 -0.0124868
vn 0.0310712 0.775617 -0.630439
vn 0.660928 -0.641071 0.390131
vn 0.56477 0.247034 0.787407
vn 0.904642 -0.24039 0.351904
vn 0.910626 -0.272994 0.310216
vn 0.373389 0.343739 0.86164
vn 0.802773 0.0245178 0.595781
vn -0.273002 0.940608 -0.201807
vn 0.261081 0.597317 0.75832
vn 0.084454 0.938395 -0.335085
vn 0.730537 -0.682851 0.00540693
vn 0.854033 -0.515027 0.0733186
vn 0.644669 -0.745476 -0.169316
vn -0.197144 0.896615 -0.396504
vn 0.396861 0.532824 -0.747396
vn 0.247648 0.770236 -0.587713
vn 0.68916 -0.683708 -0.240004
vn 0.756473 -0.153973 -0.635643
vn -0.141826 -0.685855 0.713785
vn -0.141826 -0.685855 0.713785
vn -0.141826 -0.685855 0.713785
vn 0.563482 0.319381 -0.761895
vn 0.457836 0.173613 0.87192
vn 0.375577 0.4175 0.827427
vn 0.820251 -0.505826 0.267074
vn 0.407087 0.203769 0.89037
vn 0.765453 -0.485962 0.421809
vn 0.864046 -0.354662 0.357267
vn 0.829319 0.105694 0.548688
vn 0.952476 -0.240498 0.186949
vn 0.803162 0.477864 0.355777
vn 0.988099 0.00163667 0.153809
vn 0.426471 0.665614 0.612438
vn 0.654309 0.714192 0.248617
vn 0.855284 -0.516894 -0.0361823
vn 0.834766 -0.375259 -0.402922
vn 0.520384 0.399025 -0.754969
vn 0.741808 0.559671 -0.369445
vn 0.805339 0.0943174 -0.585264
vn 0.984451 0.0557047 -0.166594
vn -0.800965 -0.0694831 -0.594665
vn 0.138553 -0.561928 0.8155
vn 0.29295 -0.737275 0.608774
vn 0.783827 -0.236613 0.574133
vn -0.0376338 0.796913 -0.60292
vn 0.162447 0.82175 -0.546203
vn -0.0656112 -0.749597 -0.658635
vn -0.0660317 0.262907 -0.962559
vn -0.564846 0.0836415 -0.820947
vn -0.0660317 0.262907 -0.962559
vn 0.262309 -0.948776 0.176119
vn 0.222483 -0.907592 0.356059
vn 0.186598 0.757001 -0.626204
vn -0.0660317 0.262907 -0.962559
vn 0.780479 -0.575246 -0.244836
vn 0.894436 0.032989 -0.445977
vn 0.132508 -0.983926 0.119715
vn 0.493525 0.675993 -0.547236
vn 0.925893 0.0958059 -0.365437
vn 0.611486 0.722758 -0.322034
vn 0.992876 0.0981032 0.0676228
vn 0.996828 0.00298398 -0.0795331
vn 0.825918 0.39912 -0.398199
vn 0.787561 0.613703 -0.0558242
vn 0.960578 -0.00378976 -0.277985
vn 0.186026 -0.679281 0.70991
vn 0.103326 0.646644 0.755761
vn 0.713496 0.28678 -0.639282
vn 0.482794 0.1604 0.860919
vn 0.258219 0.686471 0.679765
vn 0.635792 0.121423 0.76225
vn 0.197258 0.79228 0.577392
vn 0.270045 0.78606 0.556044
vn 0.141826 0.685855 -0.713785
vn 0.141826 0.685855 -0.713785
vn 0.141826 0.685855 -0.713785
vn 0.741128 -0.37944 0.553854
vn 0.744128 -0.303647 0.59504
vn 0.371476 0.816705 -0.441586
g grp1
usemtl mtl1
f 1//1 4//4 2//2 
f 4//4 1//1 3//3 
f 2//2 4//4 9//9 
f 3//3 1//1 17//17 
f 3//3 8//8 4//4 
f 8//8 9//9 4//4 
f 5//5 6//6 3//3 
f 6//6 8//8 3//3 
f 5//5 7//7 6//6 
f 7//7 11//11 161//161 
f 11//11 8//8 161//161 
f 5//5 3//3 12//12 
f 10//10 8//8 11//11 
f 9//9 8//8 10//10 
f 26//26 2//2 9//9 
f 26//26 9//9 10//10 
f 7//7 44//44 11//11 
f 30//30 14//14 12//12 
f 31//31 12//12 17//17 
f 34//34 17//17 18//18 
f 35//35 164//164 22//22 
f 17//17 12//12 3//3 
f 17//17 34//34 163//163 
f 14//14 5//5 12//12 
f 5//5 14//14 7//7 
f 7//7 13//13 37//37 
f 13//13 7//7 14//14 
f 17//17 1//1 18//18 
f 18//18 1//1 15//15 
f 15//15 1//1 2//2 
f 16//16 15//15 2//2 
f 19//19 18//18 15//15 
f 20//20 19//19 15//15 
f 20//20 15//15 16//16 
f 19//19 22//22 18//18 
f 22//22 19//19 23//23 
f 20//20 23//23 19//19 
f 21//21 20//20 16//16 
f 34//34 18//18 162//162 
f 21//21 25//25 20//20 
f 23//23 24//24 22//22 
f 24//24 23//23 25//25 
f 20//20 25//25 23//23 
f 21//21 27//27 41//41 
f 25//25 21//21 41//41 
f 22//22 24//24 35//35 
f 38//38 24//24 25//25 
f 38//38 25//25 41//41 
f 7//7 37//37 29//29 
f 2//2 26//26 16//16 
f 16//16 26//26 27//27 
f 27//27 21//21 16//16 
f 27//27 26//26 10//10 
f 11//11 28//28 10//10 
f 27//27 10//10 28//28 
f 28//28 42//42 27//27 
f 27//27 42//42 41//41 
f 7//7 29//29 44//44 
f 51//51 30//30 53//53 
f 30//30 51//51 50//50 
f 31//31 53//53 12//12 
f 12//12 53//53 30//30 
f 14//14 30//30 50//50 
f 71//71 72//72 13//13 
f 34//34 32//32 163//163 
f 172//172 163//163 54//54 
f 54//54 163//163 32//32 
f 32//32 33//33 54//54 
f 13//13 72//72 37//37 
f 40//40 36//36 35//35 
f 36//36 164//164 35//35 
f 34//34 33//33 32//32 
f 33//33 34//34 36//36 
f 36//36 39//39 33//33 
f 40//40 39//39 36//36 
f 39//39 109//109 33//33 
f 37//37 72//72 107//107 
f 107//107 55//55 37//37 
f 24//24 38//38 35//35 
f 38//38 40//40 35//35 
f 38//38 41//41 40//40 
f 40//40 41//41 43//43 
f 39//39 40//40 56//56 
f 29//29 37//37 46//46 
f 37//37 55//55 46//46 
f 41//41 42//42 43//43 
f 46//46 45//45 29//29 
f 45//45 44//44 29//29 
f 166//166 49//49 165//165 
f 169//169 44//44 45//45 
f 11//11 44//44 48//48 
f 47//47 28//28 11//11 
f 47//47 11//11 167//167 
f 48//48 44//44 169//169 
f 60//60 47//47 167//167 
f 69//69 50//50 51//51 
f 53//53 52//52 51//51 
f 171//171 172//172 54//54 
f 108//108 171//171 54//54 
f 108//108 54//54 109//109 
f 13//13 14//14 71//71 
f 109//109 54//54 33//33 
f 57//57 109//109 39//39 
f 39//39 56//56 57//57 
f 56//56 84//84 79//79 
f 79//79 78//78 56//56 
f 55//55 80//80 166//166 
f 56//56 40//40 43//43 
f 84//84 56//56 43//43 
f 58//58 43//43 59//59 
f 58//58 84//84 43//43 
f 58//58 85//85 84//84 
f 166//166 173//173 49//49 
f 86//86 173//173 166//166 
f 47//47 42//42 28//28 
f 47//47 60//60 59//59 
f 59//59 43//43 42//42 
f 59//59 42//42 47//47 
f 59//59 85//85 58//58 
f 174//174 168//168 170//170 
f 85//85 59//59 175//175 
f 68//68 104//104 63//63 
f 63//63 62//62 61//61 
f 66//66 63//63 61//61 
f 68//68 63//63 66//66 
f 62//62 63//63 98//98 
f 98//98 63//63 104//104 
f 64//64 69//69 61//61 
f 64//64 70//70 69//69 
f 64//64 61//61 62//62 
f 101//101 64//64 62//62 
f 64//64 101//101 70//70 
f 97//97 101//101 62//62 
f 68//68 67//67 65//65 
f 104//104 68//68 65//65 
f 51//51 61//61 69//69 
f 51//51 52//52 61//61 
f 67//67 68//68 66//66 
f 61//61 67//67 66//66 
f 67//67 61//61 52//52 
f 67//67 52//52 65//65 
f 72//72 71//71 70//70 
f 50//50 71//71 14//14 
f 70//70 50//50 69//69 
f 50//50 70//70 71//71 
f 177//177 171//171 108//108 
f 73//73 55//55 107//107 
f 111//111 109//109 76//76 
f 112//112 75//75 178//178 
f 110//110 112//112 178//178 
f 78//78 74//74 57//57 
f 57//57 74//74 109//109 
f 74//74 76//76 109//109 
f 178//178 75//75 81//81 
f 77//77 74//74 179//179 
f 74//74 77//77 76//76 
f 57//57 56//56 78//78 
f 79//79 82//82 78//78 
f 81//81 180//180 178//178 
f 73//73 80//80 55//55 
f 179//179 74//74 182//182 
f 74//74 78//78 82//82 
f 181//181 82//82 83//83 
f 81//81 83//83 180//180 
f 82//82 87//87 83//83 
f 83//83 87//87 184//184 
f 83//83 184//184 180//180 
f 75//75 183//183 81//81 
f 85//85 176//176 185//185 
f 87//87 82//82 84//84 
f 82//82 79//79 84//84 
f 80//80 86//86 166//166 
f 84//84 85//85 87//87 
f 87//87 85//85 185//185 
f 98//98 88//88 62//62 
f 88//88 101//101 97//97 
f 62//62 88//88 97//97 
f 100//100 99//99 91//91 
f 88//88 99//99 100//100 
f 104//104 89//89 98//98 
f 89//89 104//104 90//90 
f 99//99 92//92 91//91 
f 89//89 93//93 92//92 
f 92//92 99//99 89//89 
f 93//93 90//90 94//94 
f 93//93 89//89 90//90 
f 105//105 94//94 104//104 
f 94//94 90//90 104//104 
f 95//95 91//91 92//92 
f 95//95 92//92 93//93 
f 95//95 93//93 96//96 
f 186//186 93//93 94//94 
f 186//186 94//94 105//105 
f 105//105 104//104 120//120 
f 91//91 95//95 114//114 
f 115//115 186//186 105//105 
f 96//96 189//189 95//95 
f 98//98 89//89 99//99 
f 88//88 98//98 99//99 
f 88//88 100//100 102//102 
f 114//114 100//100 91//91 
f 88//88 102//102 101//101 
f 100//100 114//114 102//102 
f 103//103 70//70 101//101 
f 106//106 70//70 103//103 
f 187//187 101//101 102//102 
f 117//117 187//187 102//102 
f 119//119 106//106 103//103 
f 117//117 190//190 187//187 
f 102//102 114//114 117//117 
f 177//177 120//120 104//104 
f 120//120 177//177 108//108 
f 70//70 106//106 72//72 
f 106//106 118//118 72//72 
f 118//118 106//106 119//119 
f 118//118 107//107 72//72 
f 121//121 73//73 107//107 
f 110//110 178//178 121//121 
f 111//111 76//76 113//113 
f 76//76 77//77 113//113 
f 179//179 112//112 77//77 
f 112//112 110//110 77//77 
f 188//188 77//77 110//110 
f 122//122 115//115 105//105 
f 114//114 95//95 189//189 
f 105//105 120//120 116//116 
f 105//105 116//116 122//122 
f 114//114 126//126 129//129 
f 114//114 129//129 117//117 
f 117//117 129//129 190//190 
f 119//119 128//128 118//118 
f 129//129 192//192 190//190 
f 116//116 120//120 131//131 
f 120//120 133//133 131//131 
f 128//128 134//134 118//118 
f 134//134 107//107 118//118 
f 107//107 134//134 121//121 
f 136//136 135//135 121//121 
f 135//135 110//110 121//121 
f 109//109 137//137 108//108 
f 137//137 109//109 111//111 
f 138//138 137//137 113//113 
f 137//137 111//111 113//113 
f 123//123 114//114 189//189 
f 131//131 122//122 116//116 
f 189//189 191//191 123//123 
f 191//191 124//124 123//123 
f 127//127 123//123 124//124 
f 127//127 124//124 125//125 
f 131//131 124//124 122//122 
f 125//125 124//124 132//132 
f 126//126 114//114 123//123 
f 127//127 126//126 123//123 
f 143//143 126//126 127//127 
f 130//130 134//134 128//128 
f 193//193 192//192 129//129 
f 124//124 131//131 132//132 
f 131//131 133//133 132//132 
f 125//125 132//132 145//145 
f 132//132 133//133 145//145 
f 127//127 145//145 197//197 
f 145//145 127//127 125//125 
f 136//136 121//121 134//134 
f 134//134 130//130 136//136 
f 133//133 120//120 108//108 
f 137//137 155//155 133//133 
f 137//137 133//133 108//108 
f 135//135 136//136 157//157 
f 142//142 135//135 157//157 
f 135//135 188//188 110//110 
f 142//142 188//188 135//135 
f 140//140 139//139 141//141 
f 195//195 196//196 194//194 
f 188//188 142//142 138//138 
f 143//143 146//146 126//126 
f 146//146 144//144 126//126 
f 144//144 129//129 126//126 
f 153//153 129//129 144//144 
f 198//198 197//197 147//147 
f 147//147 197//197 145//145 
f 155//155 147//147 145//145 
f 198//198 147//147 148//148 
f 148//148 150//150 149//149 
f 198//198 148//148 149//149 
f 146//146 149//149 144//144 
f 155//155 148//148 147//147 
f 148//148 155//155 150//150 
f 151//151 144//144 149//149 
f 152//152 149//149 150//150 
f 150//150 155//155 152//152 
f 149//149 152//152 151//151 
f 153//153 144//144 151//151 
f 154//154 153//153 151//151 
f 151//151 158//158 154//154 
f 158//158 136//136 199//199 
f 153//153 193//193 129//129 
f 199//199 136//136 130//130 
f 193//193 153//153 154//154 
f 155//155 145//145 133//133 
f 137//137 156//156 155//155 
f 159//159 156//156 138//138 
f 155//155 156//156 160//160 
f 152//152 155//155 160//160 
f 152//152 160//160 151//151 
f 156//156 159//159 160//160 
f 157//157 136//136 158//158 
f 142//142 157//157 138//138 
f 156//156 137//137 138//138 
f 157//157 159//159 138//138 
f 151//151 160//160 158//158 
f 158//158 160//160 159//159 
f 157//157 158//158 159//159 
