#
# The license for this database is specified in the Creative Commons Attribution-Share Alike 2.1 Japan. If you use data from this database, please be sure attribute this database as follows: "BodyParts3D, (c)  The Database Center for Life Science licensed under CC Attribution-Share Alike 2.1 Japan".
# http://dbarchive.biosciencedbc.jp/en/bodyparts3d/lic.html
#
#
# Compatibility version : 4.3i
# File ID : FJ6408
# Representation ID : BP50065
# Build-up logic : FMA 3.2.1-inference part_of
# Concept ID : FMA24456
# English name : Middle phalanx of right middle finger
# Bounds(mm): (265.153600,-180.895400,662.324800)-(278.936300,-157.857600,687.771700)
# Volume(cm3): 1.186000
#
v 265.319 -162.481 683.449
v 265.253 -163.321 683.801
v 265.591 -161.595 683.733
v 265.612 -161.621 683.385
v 265.867 -163.004 684.488
v 265.256 -164.175 682.967
v 266.208 -166.003 681.248
v 265.429 -163.104 682.58
v 266.555 -162.952 680.806
v 266.656 -159.84 682.995
v 266.476 -160.731 682.418
v 266.448 -165.864 679.814
v 266.078 -165.747 685.848
v 266.678 -164.684 686.307
v 265.761 -166.5 684.222
v 266.548 -166.634 685.354
v 267.029 -166.923 684.226
v 265.511 -164.526 685.13
v 265.557 -165.952 684.724
v 266.55 -160.755 684.068
v 267.192 -159.303 683.432
v 268.376 -158.858 684.255
v 268.657 -158.36 683.705
v 267.065 -166.553 682.107
v 267.378 -159.703 682.175
v 267.912 -158.729 682.926
v 268.982 -158.214 682.905
v 269.345 -158.432 682.303
v 266.596 -166.436 680.166
v 268.535 -167.094 680.454
v 269.628 -161.181 679.706
v 268.947 -170.58 672.893
v 270.332 -166.547 672.727
v 269.394 -172.257 670.421
v 269.713 -172.539 670.677
v 269.175 -170.634 670.635
v 270.271 -174.849 668.684
v 269.747 -174.326 668.421
v 269.719 -179.897 666.373
v 270.018 -180.341 666.258
v 270.245 -179.715 666.905
v 270.672 -180.319 666.469
v 269.461 -178.046 666.641
v 269.471 -179.019 666.045
v 269.839 -178.783 666.811
v 269.92 -178.058 667.042
v 269.454 -177.01 666.141
v 269.946 -175.834 667.716
v 269.76 -174.331 667.287
v 270.659 -172.647 666.918
v 269.652 -180.241 665.526
v 270.273 -180.895 664.937
v 270.306 -177.139 663.863
v 270.099 -179.673 663.771
v 270.408 -180.785 663.41
v 270.863 -179.347 662.628
v 271.046 -178.471 662.569
v 271.399 -178.801 662.376
v 271.557 -179.455 662.521
v 271.748 -177.152 662.853
v 267.718 -165.922 686.643
v 269.224 -166.903 685.695
v 269.17 -160.388 684.426
v 269.151 -158.988 684.565
v 269.554 -158.393 684.519
v 270.265 -158.024 683.996
v 270.333 -158.926 684.578
v 270.348 -158.569 684.595
v 269.313 -166.895 682.957
v 270.582 -157.933 682.679
v 269.962 -167.01 682.046
v 269.243 -166.826 681.498
v 272.019 -159.001 681.394
v 271.239 -167.866 679.428
v 271.966 -170.331 675.242
v 272.495 -165.711 672.786
v 272.687 -170.293 668.104
v 271.444 -178.16 667.515
v 271.376 -179.604 667.268
v 271.271 -179.239 667.441
v 272.024 -179.064 667.493
v 272.612 -177.844 667.767
v 271.707 -177.102 667.998
v 271.222 -180.8 665.209
v 272.86 -179.702 662.929
v 273.922 -177.467 662.83
v 274.384 -176.96 663.178
v 270.832 -166.089 687.225
v 270.947 -164.408 687.725
v 271.793 -166.417 686.167
v 271.367 -162.756 685.633
v 273.058 -158.055 683.046
v 274.163 -167.609 678.803
v 274.271 -171.891 672.969
v 274.769 -166.803 672.121
v 273.127 -173.777 671.019
v 274.706 -173.168 671.225
v 275.08 -172.874 671.246
v 274.815 -169.347 669.186
v 273.31 -179 667.314
v 273.662 -180.081 666.229
v 274.655 -180.32 665.098
v 275.351 -179.758 663.915
v 274.688 -176.904 663.33
v 274.982 -177.732 663.077
v 275.722 -177.774 663.155
v 276.11 -176.8 663.47
v 273.79 -164.367 687.734
v 273.727 -163.915 687.521
v 274.397 -164.061 687.696
v 274.342 -164.914 687.439
v 273.455 -160.212 684.336
v 274.715 -158.738 683.842
v 275.821 -159.507 683.896
v 275.811 -165.39 682.324
v 274.717 -158.929 682.621
v 275.266 -166.521 679.328
v 276.085 -165.502 680.721
v 275.339 -161.696 680.006
v 276.652 -166.643 677.436
v 276.747 -165.44 676.858
v 276.936 -165.804 677.073
v 276.979 -165.427 678.582
v 276.621 -168.342 675.008
v 276.939 -167.914 675.179
v 275.561 -170.137 673.485
v 276.557 -169.47 673.657
v 276.784 -170.368 672.476
v 277.007 -172.301 670.727
v 277.193 -170.491 672.039
v 275.571 -178.928 667.747
v 277.067 -175.301 668.959
v 277.988 -175.144 668.47
v 277.32 -171.442 669.933
v 277.675 -173.718 667.914
v 276.815 -170.571 669.704
v 277.232 -179.964 667.272
v 277.577 -180.528 666.217
v 276.755 -179.036 663.324
v 277.269 -180.24 664.107
v 277.766 -179.814 663.655
v 277.58 -180.596 665.05
v 277.961 -180.275 664.251
v 278.17 -179.757 663.983
v 278.239 -180.455 665.302
v 278.402 -180.066 664.978
v 277.234 -176.046 664.36
v 277.837 -178.116 663.251
v 278.625 -177.117 665.429
v 274.605 -165.808 685.59
v 276.35 -163.808 686.834
v 276.817 -164.547 685.864
v 277.291 -164.354 684.002
v 277.346 -164.023 685.636
v 277.382 -163.391 685.519
v 277.393 -164.331 685.325
v 277.503 -163.99 685.271
v 277.159 -164.654 684.951
v 277.471 -164.295 684.729
v 276.477 -161.665 684.982
v 276.802 -164.472 682.156
v 277.565 -162.537 683.723
v 276.695 -160.809 682.964
v 276.905 -163.895 680.51
v 276.86 -165.464 678.971
v 278.292 -178.008 668.117
v 278.322 -180.04 666.995
v 278.635 -179.438 667.124
v 278.624 -179.804 666.714
v 278.698 -179.22 666.404
v 278.835 -177.669 667.527
v 266.208 -166.003 681.248
v 265.761 -166.5 684.222
v 265.761 -166.5 684.222
v 268.376 -158.858 684.255
v 266.596 -166.436 680.166
v 268.947 -170.58 672.893
v 268.947 -170.58 672.893
v 269.394 -172.257 670.421
v 269.713 -172.539 670.677
v 269.175 -170.634 670.635
v 269.747 -174.326 668.421
v 269.461 -178.046 666.641
v 269.946 -175.834 667.716
v 269.76 -174.331 667.287
v 270.273 -180.895 664.937
v 270.408 -180.785 663.41
v 270.408 -180.785 663.41
v 269.554 -158.393 684.519
v 269.554 -158.393 684.519
v 270.348 -158.569 684.595
v 270.832 -166.089 687.225
v 270.947 -164.408 687.725
v 273.058 -158.055 683.046
v 275.351 -179.758 663.915
v 273.79 -164.367 687.734
v 274.397 -164.061 687.696
v 274.715 -158.738 683.842
v 274.715 -158.738 683.842
v 275.821 -159.507 683.896
v 275.821 -159.507 683.896
v 276.939 -167.914 675.179
v 277.007 -172.301 670.727
v 277.193 -170.491 672.039
v 277.988 -175.144 668.47
v 277.232 -179.964 667.272
v 277.766 -179.814 663.655
v 277.961 -180.275 664.251
v 277.837 -178.116 663.251
v 277.837 -178.116 663.251
v 274.605 -165.808 685.59
v 277.291 -164.354 684.002
v 277.565 -162.537 683.723
v 276.695 -160.809 682.964
v 278.635 -179.438 667.124
v 278.835 -177.669 667.527
vn -0.975473 0.210424 -0.0646087
vn -0.965113 0.140986 0.220635
vn -0.846179 0.398533 0.353768
vn -0.889919 0.372623 -0.263051
vn -0.492834 0.378831 0.783327
vn -0.984898 -0.133098 -0.110725
vn -0.927316 -0.323443 -0.188333
vn -0.918339 0.190833 -0.346751
vn -0.733724 0.390138 -0.556274
vn -0.777626 0.588044 -0.222493
vn -0.772506 0.400049 -0.493149
vn -0.95225 -0.144334 -0.269051
vn -0.670502 -0.299827 0.678624
vn -0.457081 0.337602 0.822862
vn -0.678229 -0.617329 0.398637
vn -0.379229 -0.807104 0.452514
vn -0.167614 -0.98582 -0.00809286
vn -0.886036 0.105473 0.451459
vn -0.892992 -0.360422 0.269558
vn -0.429788 0.305922 0.849525
vn -0.659787 0.682306 0.314864
vn -0.530391 0.688132 0.495136
vn -0.41432 0.877647 0.240986
vn -0.276943 -0.960464 -0.0285019
vn -0.550445 0.565116 -0.614536
vn -0.533735 0.803231 -0.264474
vn -0.296048 0.938568 -0.177329
vn -0.261541 0.737126 -0.62309
vn -0.928861 -0.336513 -0.154839
vn -0.194902 -0.937275 0.289015
vn -0.351972 0.659049 -0.664658
vn -0.957323 -0.270507 -0.10178
vn -0.481556 0.624941 -0.614453
vn -0.989762 -0.124661 -0.069498
vn -0.754518 -0.549352 0.359048
vn -0.794414 0.361005 -0.488448
vn -0.544158 -0.533183 0.647772
vn -0.737832 -0.477622 0.476949
vn -0.800447 -0.342336 0.492027
vn -0.391484 -0.791217 0.469804
vn -0.383459 -0.455769 0.803264
vn -0.049338 -0.817311 0.57408
vn -0.992524 0.0477346 0.112332
vn -0.988437 -0.112608 0.101551
vn -0.619053 -0.166958 0.767397
vn -0.455933 -0.25267 0.853395
vn -0.994537 0.0721914 -0.0753937
vn -0.552907 -0.354704 0.753976
vn -0.989893 -0.101151 0.0993975
vn -0.596438 0.505223 -0.623708
vn -0.902551 -0.430583 -0.000346719
vn -0.704108 -0.708655 0.0451723
vn -0.788839 0.276359 -0.548962
vn -0.923372 -0.0109052 -0.383752
vn -0.894293 -0.107419 -0.434397
vn -0.597109 -0.0847481 -0.797671
vn -0.51763 0.237318 -0.822034
vn -0.12103 0.0452774 -0.991616
vn 0.052828 -0.336546 -0.940184
vn -0.23911 0.475976 -0.846329
vn -0.320434 -0.385631 0.865223
vn 0.00466645 -0.970367 0.241589
vn -0.0781241 0.0882046 0.993034
vn -0.168217 0.088393 0.981779
vn -0.33397 0.852513 0.402102
vn -0.0297764 0.940044 0.339751
vn 0.00222095 -0.072542 0.997363
vn 0.0196993 0.0213296 0.999578
vn 0.00962206 -0.999907 -0.00967677
vn -0.0652601 0.93915 -0.337251
vn -0.116499 -0.980739 0.156777
vn -0.179618 -0.974204 0.136618
vn 0.103403 0.766047 -0.634413
vn -0.0805865 -0.921148 0.380778
vn -0.15336 -0.826051 0.54233
vn -0.0641101 0.7552 -0.652352
vn -0.0183763 0.641653 -0.766775
vn -0.224887 -0.200574 0.953518
vn -0.00587098 -0.602294 0.798253
vn -0.223972 -0.216524 0.950239
vn 0.0541344 -0.377356 0.924484
vn -0.072361 -0.402866 0.912394
vn -0.326165 -0.44146 0.8359
vn 0.0697123 -0.97267 0.221481
vn 0.241677 -0.544314 -0.803315
vn 0.163773 0.205621 -0.964831
vn 0.221016 0.493412 -0.841247
vn 0.0690648 -0.856189 0.512026
vn -0.171023 -0.189623 0.966847
vn 0.20092 -0.95322 0.225838
vn -0.11757 0.625711 0.771144
vn 0.0993977 0.960301 0.260656
vn 0.520844 -0.773195 0.361788
vn 0.311108 -0.735901 0.601383
vn 0.440592 0.71229 -0.546372
vn -0.121255 -0.700993 0.702784
vn 0.298007 -0.645043 0.703642
vn 0.389735 -0.589131 0.707835
vn 0.287158 0.684089 -0.670494
vn 0.00450984 -0.54873 0.835987
vn 0.0512182 -0.815746 0.576138
vn 0.0104909 -0.995847 -0.0904398
vn 0.344598 -0.304484 -0.887998
vn 0.182436 0.486576 -0.854377
vn 0.172683 0.0553103 -0.983423
vn 0.0846739 0.0960397 -0.991769
vn 0.132024 0.440199 -0.888141
vn 0.0969934 -0.330997 0.938634
vn -0.0722957 0.650906 0.755708
vn 0.0315798 0.611767 0.790407
vn 0.331202 -0.566265 0.754751
vn 0.0415026 0.213149 0.976138
vn 0.150797 0.821803 0.549455
vn 0.63276 0.745396 -0.209764
vn 0.634561 -0.771683 0.0428682
vn 0.499524 0.769279 -0.398353
vn 0.583585 -0.745423 0.322138
vn 0.736151 -0.655585 0.168197
vn 0.611188 0.622365 -0.488989
vn 0.752053 -0.559583 0.348256
vn 0.811554 0.491799 -0.315458
vn 0.999667 0.00567214 0.0251771
vn 0.964904 -0.23304 0.121051
vn 0.469933 -0.698744 0.53937
vn 0.587132 -0.635759 0.501085
vn 0.480418 -0.650618 0.588128
vn 0.328546 -0.726856 0.603107
vn 0.406843 -0.656238 0.635477
vn 0.451079 -0.550814 0.702234
vn 0.501914 -0.62091 0.602124
vn -0.0966117 -0.476809 0.873682
vn 0.238207 -0.431065 0.87031
vn 0.580999 -0.172594 0.795394
vn 0.970943 0.21901 -0.0964582
vn 0.916509 0.366086 -0.161219
vn 0.69708 0.554524 -0.454513
vn -0.0600766 -0.929009 0.365149
vn 0.0667607 -0.965527 0.251595
vn -0.00220613 -0.266097 -0.963944
vn -0.04739 -0.851962 -0.521454
vn 0.00753458 -0.564539 -0.825372
vn 0.0656606 -0.983922 -0.166089
vn 0.139691 -0.897776 -0.417714
vn 0.832025 -0.266239 -0.486674
vn 0.579339 -0.8144 -0.033453
vn 0.930411 -0.301955 -0.207745
vn 0.557277 0.563311 -0.610019
vn 0.143325 0.117728 -0.982649
vn 0.945305 0.181746 -0.270863
vn 0.114911 -0.975629 0.186933
vn 0.610786 -0.00692512 0.791765
vn 0.566893 -0.659484 0.493674
vn 0.681519 -0.720327 -0.129076
vn 0.819578 -0.207297 0.534154
vn 0.853221 0.262576 0.45063
vn 0.815802 -0.498692 0.29287
vn 0.974128 -0.0903572 0.207147
vn 0.616622 -0.784014 0.0714169
vn 0.92013 -0.389477 -0.0408432
vn 0.391207 0.606593 0.692099
vn 0.860132 -0.504366 -0.0760795
vn 0.895831 0.312336 -0.316123
vn 0.76183 0.511403 -0.397597
vn 0.993792 0.036968 -0.104935
vn 0.782265 -0.535305 0.318607
vn 0.406545 -0.289485 0.866556
vn 0.470601 -0.707882 0.526723
vn 0.69479 -0.385971 0.606871
vn 0.92948 -0.357068 0.0925686
vn 0.992377 -0.0870752 -0.0872136
vn 0.76237 -0.114518 0.636929
vn -0.49928 -0.864666 -0.0554287
vn -0.336301 -0.937406 -0.0903946
vn -0.947251 -0.284969 -0.146653
vn -0.32207 0.254827 0.911775
vn -0.435222 -0.884258 0.169321
vn -0.284921 -0.835518 0.46982
vn -0.751384 -0.601254 0.271874
vn -0.761019 -0.556913 0.332712
vn -0.321232 -0.714076 0.622017
vn -0.979645 -0.191874 -0.0589914
vn -0.990798 -0.133655 -0.0213275
vn -0.713274 -0.230964 0.661736
vn -0.983624 -0.0168436 0.179442
vn -0.850459 0.310348 -0.424738
vn 0.051627 -0.984778 0.165973
vn -0.769762 -0.628136 -0.113625
vn 0.10096 -0.858714 -0.502411
vn -0.193334 0.204902 0.959498
vn 0.102004 0.742381 0.662167
vn 0.121826 0.742085 0.659142
vn -0.0364522 -0.323098 0.945663
vn -0.118783 0.687895 0.716024
vn 0.277066 0.853506 -0.441317
vn -0.0860301 -0.703275 -0.705693
vn -0.0780251 0.415353 0.906308
vn 0.314242 -0.292418 0.903185
vn 0.152571 0.347763 0.925085
vn 0.503495 0.853751 -0.132675
vn 0.308949 0.500637 0.808649
vn 0.877512 0.399989 0.264541
vn 0.936462 -0.233602 0.261666
vn 0.957688 -0.0981055 0.27057
vn 0.972301 -0.161399 0.169063
vn 0.973163 0.162745 0.162691
vn 0.00109197 -0.51797 0.855398
vn 0.615169 -0.381677 -0.689848
vn 0.722727 -0.546316 -0.423325
vn 0.634969 -0.203721 -0.745193
vn 0.863173 0.261036 -0.432195
vn 0.42322 -0.848277 0.318293
vn 0.9559 -0.180145 -0.231955
vn 0.996997 0.066281 0.040042
vn 0.835205 0.467984 0.288832
vn 0.986707 -0.132979 0.0934159
vn 0.997768 0.0599117 0.0294972
g grp1
usemtl mtl1
f 6//6 18//18 2//2 
f 19//19 18//18 6//6 
f 2//2 1//1 8//8 
f 1//1 4//4 8//8 
f 5//5 3//3 2//2 
f 2//2 3//3 1//1 
f 3//3 4//4 1//1 
f 5//5 2//2 18//18 
f 21//21 10//10 3//3 
f 3//3 10//10 4//4 
f 3//3 20//20 21//21 
f 21//21 26//26 10//10 
f 6//6 8//8 12//12 
f 8//8 9//9 12//12 
f 12//12 7//7 6//6 
f 6//6 2//2 8//8 
f 4//4 11//11 8//8 
f 11//11 9//9 8//8 
f 4//4 10//10 11//11 
f 10//10 25//25 11//11 
f 11//11 25//25 9//9 
f 12//12 32//32 29//29 
f 12//12 29//29 7//7 
f 13//13 16//16 61//61 
f 13//13 14//14 18//18 
f 19//19 13//13 18//18 
f 5//5 18//18 14//14 
f 13//13 61//61 14//14 
f 15//15 16//16 19//19 
f 173//173 24//24 17//17 
f 16//16 173//173 17//17 
f 24//24 69//69 17//17 
f 174//174 19//19 6//6 
f 19//19 16//16 13//13 
f 3//3 5//5 20//20 
f 22//22 21//21 20//20 
f 5//5 63//63 20//20 
f 63//63 64//64 20//20 
f 20//20 64//64 175//175 
f 21//21 23//23 26//26 
f 22//22 23//23 21//21 
f 22//22 65//65 23//23 
f 66//66 27//27 23//23 
f 189//189 175//175 64//64 
f 172//172 24//24 173//173 
f 72//72 69//69 24//24 
f 6//6 7//7 174//174 
f 26//26 25//25 10//10 
f 28//28 25//25 26//26 
f 23//23 27//27 26//26 
f 26//26 27//27 28//28 
f 28//28 27//27 70//70 
f 24//24 172//172 176//176 
f 30//30 24//24 176//176 
f 176//176 177//177 30//30 
f 72//72 24//24 30//30 
f 12//12 9//9 36//36 
f 31//31 9//9 25//25 
f 74//74 30//30 177//177 
f 33//33 9//9 31//31 
f 33//33 36//36 9//9 
f 76//76 33//33 31//31 
f 32//32 12//12 181//181 
f 32//32 181//181 34//34 
f 179//179 35//35 178//178 
f 35//35 179//179 38//38 
f 34//34 181//181 182//182 
f 48//48 37//37 38//38 
f 48//48 83//83 37//37 
f 37//37 83//83 96//96 
f 180//180 37//37 96//96 
f 181//181 49//49 182//182 
f 35//35 38//38 37//37 
f 50//50 36//36 33//33 
f 39//39 45//45 44//44 
f 39//39 44//44 51//51 
f 44//44 54//54 51//51 
f 40//40 39//39 51//51 
f 39//39 40//40 41//41 
f 39//39 41//41 45//45 
f 40//40 42//42 41//41 
f 84//84 42//42 40//40 
f 101//101 42//42 84//84 
f 184//184 47//47 43//43 
f 45//45 183//183 44//44 
f 43//43 47//47 44//44 
f 183//183 45//45 46//46 
f 41//41 80//80 45//45 
f 184//184 49//49 47//47 
f 184//184 182//182 49//49 
f 183//183 46//46 48//48 
f 83//83 48//48 46//46 
f 36//36 50//50 185//185 
f 51//51 54//54 55//55 
f 52//52 51//51 187//187 
f 51//51 52//52 40//40 
f 84//84 40//40 186//186 
f 84//84 186//186 188//188 
f 102//102 84//84 188//188 
f 54//54 44//44 47//47 
f 47//47 185//185 53//53 
f 185//185 50//50 53//53 
f 47//47 53//53 54//54 
f 50//50 60//60 53//53 
f 56//56 55//55 54//54 
f 59//59 188//188 56//56 
f 85//85 188//188 59//59 
f 54//54 53//53 56//56 
f 56//56 53//53 57//57 
f 53//53 60//60 57//57 
f 56//56 57//57 58//58 
f 58//58 57//57 60//60 
f 59//59 58//58 86//86 
f 59//59 56//56 58//58 
f 58//58 60//60 86//86 
f 85//85 59//59 86//86 
f 61//61 89//89 14//14 
f 14//14 193//193 91//91 
f 61//61 16//16 88//88 
f 16//16 62//62 88//88 
f 91//91 193//193 109//109 
f 62//62 16//16 17//17 
f 17//17 69//69 62//62 
f 5//5 14//14 91//91 
f 91//91 63//63 5//5 
f 23//23 65//65 66//66 
f 70//70 27//27 66//66 
f 189//189 64//64 68//68 
f 64//64 63//63 68//68 
f 63//63 67//67 68//68 
f 190//190 191//191 66//66 
f 63//63 112//112 67//67 
f 112//112 68//68 67//67 
f 69//69 72//72 71//71 
f 150//150 69//69 71//71 
f 70//70 73//73 28//28 
f 31//31 28//28 73//73 
f 113//113 66//66 191//191 
f 92//92 70//70 66//66 
f 70//70 194//194 73//73 
f 74//74 72//72 30//30 
f 71//71 72//72 74//74 
f 150//150 71//71 74//74 
f 25//25 28//28 31//31 
f 74//74 177//177 75//75 
f 76//76 31//31 73//73 
f 177//177 180//180 96//96 
f 76//76 73//73 95//95 
f 50//50 33//33 77//77 
f 77//77 76//76 99//99 
f 33//33 76//76 77//77 
f 80//80 41//41 79//79 
f 79//79 41//41 42//42 
f 80//80 78//78 45//45 
f 46//46 45//45 78//78 
f 78//78 83//83 46//46 
f 79//79 81//81 80//80 
f 80//80 81//81 78//78 
f 81//81 82//82 78//78 
f 82//82 83//83 78//78 
f 101//101 79//79 42//42 
f 81//81 79//79 101//101 
f 81//81 100//100 82//82 
f 100//100 81//81 101//101 
f 83//83 82//82 96//96 
f 60//60 50//50 77//77 
f 102//102 101//101 84//84 
f 188//188 85//85 102//102 
f 77//77 86//86 60//60 
f 85//85 86//86 105//105 
f 105//105 86//86 87//87 
f 86//86 77//77 87//87 
f 104//104 87//87 77//77 
f 105//105 87//87 104//104 
f 192//192 89//89 61//61 
f 69//69 90//90 62//62 
f 112//112 198//198 68//68 
f 91//91 112//112 63//63 
f 116//116 73//73 194//194 
f 113//113 92//92 66//66 
f 116//116 194//194 199//199 
f 211//211 93//93 115//115 
f 116//116 119//119 73//73 
f 150//150 74//74 93//93 
f 94//94 93//93 74//74 
f 75//75 94//94 74//74 
f 95//95 73//73 119//119 
f 119//119 121//121 95//95 
f 96//96 75//75 177//177 
f 75//75 96//96 94//94 
f 94//94 98//98 129//129 
f 121//121 136//136 95//95 
f 97//97 94//94 96//96 
f 97//97 98//98 94//94 
f 97//97 96//96 132//132 
f 132//132 98//98 97//97 
f 129//129 98//98 132//132 
f 95//95 99//99 76//76 
f 136//136 99//99 95//95 
f 147//147 99//99 136//136 
f 131//131 82//82 100//100 
f 100//100 101//101 131//131 
f 82//82 131//131 132//132 
f 96//96 82//82 132//132 
f 99//99 147//147 77//77 
f 137//137 101//101 102//102 
f 131//131 101//101 206//206 
f 206//206 166//166 131//131 
f 105//105 103//103 85//85 
f 85//85 195//195 102//102 
f 139//139 195//195 105//105 
f 105//105 106//106 139//139 
f 139//139 106//106 148//148 
f 107//107 104//104 77//77 
f 106//106 105//105 107//107 
f 105//105 104//104 107//107 
f 106//106 107//107 148//148 
f 192//192 108//108 89//89 
f 193//193 196//196 109//109 
f 88//88 62//62 90//90 
f 150//150 90//90 69//69 
f 88//88 90//90 211//211 
f 111//111 88//88 211//211 
f 111//111 108//108 192//192 
f 196//196 110//110 109//109 
f 109//109 110//110 160//160 
f 109//109 160//160 91//91 
f 108//108 111//111 197//197 
f 160//160 112//112 91//91 
f 112//112 160//160 198//198 
f 114//114 116//116 199//199 
f 198//198 160//160 200//200 
f 93//93 118//118 115//115 
f 211//211 115//115 158//158 
f 119//119 163//163 164//164 
f 116//116 163//163 119//119 
f 163//163 162//162 164//164 
f 117//117 118//118 93//93 
f 117//117 93//93 120//120 
f 120//120 165//165 117//117 
f 165//165 118//118 117//117 
f 118//118 165//165 164//164 
f 164//164 121//121 119//119 
f 122//122 121//121 164//164 
f 123//123 164//164 165//165 
f 165//165 120//120 123//123 
f 123//123 120//120 122//122 
f 123//123 122//122 164//164 
f 124//124 120//120 93//93 
f 124//124 93//93 126//126 
f 124//124 130//130 125//125 
f 202//202 204//204 122//122 
f 125//125 120//120 124//124 
f 120//120 202//202 122//122 
f 136//136 121//121 134//134 
f 134//134 121//121 122//122 
f 93//93 94//94 126//126 
f 126//126 94//94 129//129 
f 128//128 127//127 126//126 
f 126//126 129//129 128//128 
f 127//127 124//124 126//126 
f 129//129 130//130 128//128 
f 124//124 127//127 128//128 
f 124//124 128//128 130//130 
f 122//122 204//204 134//134 
f 204//204 203//203 134//134 
f 166//166 132//132 131//131 
f 171//171 133//133 166//166 
f 205//205 216//216 135//135 
f 205//205 135//135 134//134 
f 129//129 132//132 133//133 
f 203//203 205//205 134//134 
f 166//166 133//133 132//132 
f 147//147 136//136 134//134 
f 134//134 135//135 147//147 
f 138//138 137//137 102//102 
f 138//138 167//167 137//137 
f 145//145 167//167 138//138 
f 167//167 166//166 206//206 
f 142//142 138//138 102//102 
f 195//195 140//140 102//102 
f 141//141 140//140 195//195 
f 141//141 195//195 139//139 
f 141//141 139//139 148//148 
f 140//140 142//142 102//102 
f 143//143 140//140 141//141 
f 207//207 209//209 144//144 
f 143//143 142//142 140//140 
f 208//208 207//207 144//144 
f 208//208 144//144 146//146 
f 138//138 142//142 145//145 
f 143//143 145//145 142//142 
f 145//145 208//208 146//146 
f 146//146 149//149 170//170 
f 144//144 149//149 146//146 
f 170//170 149//149 216//216 
f 148//148 107//107 147//147 
f 147//147 149//149 210//210 
f 210//210 149//149 144//144 
f 135//135 149//149 147//147 
f 107//107 77//77 147//147 
f 211//211 152//152 111//111 
f 160//160 110//110 151//151 
f 111//111 151//151 197//197 
f 151//151 111//111 152//152 
f 153//153 158//158 115//115 
f 152//152 211//211 158//158 
f 213//213 212//212 161//161 
f 151//151 152//152 154//154 
f 151//151 154//154 155//155 
f 152//152 156//156 154//154 
f 156//156 152//152 158//158 
f 154//154 156//156 157//157 
f 154//154 157//157 155//155 
f 155//155 157//157 213//213 
f 158//158 159//159 156//156 
f 156//156 159//159 157//157 
f 153//153 159//159 158//158 
f 159//159 212//212 213//213 
f 159//159 213//213 157//157 
f 160//160 151//151 155//155 
f 155//155 213//213 160//160 
f 213//213 214//214 160//160 
f 160//160 214//214 201//201 
f 118//118 161//161 115//115 
f 118//118 164//164 161//161 
f 164//164 213//213 161//161 
f 115//115 161//161 153//153 
f 163//163 116//116 114//114 
f 168//168 166//166 167//167 
f 170//170 216//216 169//169 
f 166//166 168//168 171//171 
f 168//168 167//167 169//169 
f 215//215 169//169 216//216 
f 169//169 167//167 145//145 
f 135//135 216//216 149//149 
f 169//169 145//145 146//146 
f 170//170 169//169 146//146 
