#
# The license for this database is specified in the Creative Commons Attribution-Share Alike 2.1 Japan. If you use data from this database, please be sure attribute this database as follows: "BodyParts3D, (c)  The Database Center for Life Science licensed under CC Attribution-Share Alike 2.1 Japan".
# http://dbarchive.biosciencedbc.jp/en/bodyparts3d/lic.html
#
#
# Compatibility version : 4.3i
# File ID : FJ6417
# Representation ID : BP49310
# Build-up logic : FMA 3.2.1-inference part_of
# Concept ID : FMA32638
# English name : Proximal phalanx of right fourth toe
# Bounds(mm): (132.997300,-188.489300,-69.679500)-(154.579300,-164.197600,-56.476500)
# Volume(cm3): 0.868700
#
v 147.514 -187.57 -63.5148
v 134.469 -172.332 -62.4624
v 135.706 -172.796 -60.5679
v 133.917 -171.758 -60.7851
v 133.262 -170.803 -60.4357
v 133.188 -170.913 -61.1977
v 133.133 -170.423 -61.6417
v 134.561 -170.77 -58.7127
v 133.555 -170.171 -59.2273
v 134.341 -169.91 -58.2543
v 135.439 -169.68 -57.5983
v 134.474 -169.375 -58.4565
v 133.045 -170.193 -60.3359
v 133.486 -169.551 -59.3778
v 133.076 -169.556 -60.5617
v 133.632 -169.289 -59.5451
v 148.909 -188.371 -63.2524
v 149.002 -188.429 -63.6161
v 149.545 -188.353 -63.4666
v 149.752 -188.068 -62.9189
v 149.611 -188.193 -63.8983
v 147.773 -187.896 -64.0323
v 147.872 -187.407 -64.6853
v 149.099 -187.832 -64.5544
v 148.625 -186.531 -65.4223
v 148.91 -187.929 -62.8928
v 148.439 -185.251 -61.537
v 150.286 -186.381 -61.7134
v 150.826 -186.482 -62.0742
v 149.497 -184.08 -61.2195
v 146.25 -186.056 -64.2146
v 146.337 -185.925 -63.7873
v 146.853 -186.798 -64.4979
v 146.826 -186.284 -64.7284
v 146.347 -185.197 -64.5321
v 146.062 -184.502 -63.9293
v 146.464 -184.281 -64.4644
v 146.627 -184.849 -62.765
v 146.161 -184.639 -63.3153
v 145.554 -182.571 -62.3826
v 145.534 -182.566 -63.4278
v 146.185 -182.756 -64.2982
v 143.629 -179.731 -62.5365
v 141.774 -176.847 -61.9695
v 140.965 -176.29 -62.3041
v 141.787 -177.206 -62.6499
v 139.564 -175.132 -62.1055
v 139.386 -174.505 -63.3171
v 135.783 -173.052 -63.1404
v 134.747 -172.148 -63.4258
v 136.169 -172.479 -64.0192
v 135.005 -170.751 -64.3102
v 133.685 -171.172 -62.5153
v 134.079 -169.971 -63.3052
v 134.586 -169.255 -59.1241
v 136.836 -170.052 -57.2404
v 136.295 -169.718 -57.1669
v 135.603 -169.468 -57.9867
v 136.284 -169.375 -57.2788
v 137.542 -168.695 -57.7715
v 137.142 -169.026 -56.9471
v 133.331 -169.564 -61.6992
v 133.295 -169.332 -60.7868
v 133.723 -169.211 -60.6113
v 150.639 -187.244 -64.7494
v 151.369 -186.587 -65.6373
v 151.609 -187.005 -64.004
v 150.295 -186.662 -65.6559
v 148.78 -185.011 -66.0908
v 149.743 -185.209 -66.8649
v 149.422 -184.492 -66.8304
v 150.997 -185.429 -62.0502
v 144.16 -178.736 -63.9105
v 145.898 -176.985 -59.493
v 146.846 -176.021 -59.8464
v 141.435 -176.295 -63.2915
v 142.411 -173.924 -58.8109
v 136.924 -170.18 -65.4801
v 138.701 -171.514 -65.2393
v 137.848 -169.236 -61.0796
v 134.768 -169.709 -63.9895
v 134.705 -169.391 -63.6539
v 134.843 -169.241 -63.1629
v 135.443 -169.623 -64.3204
v 135.822 -169.18 -63.9272
v 136.463 -169.207 -64.8956
v 136.825 -168.884 -64.1342
v 139.288 -167.94 -56.4765
v 139.025 -167.352 -57.0423
v 140 -167.303 -56.6085
v 153.096 -185.722 -67.8853
v 153.004 -185.573 -64.2754
v 151.32 -185.789 -67.2647
v 153.16 -184.217 -64.5731
v 148.744 -182.848 -66.4447
v 149.589 -183.652 -67.5505
v 149.773 -182.234 -67.7996
v 150.127 -182.808 -68.6689
v 151.917 -181.98 -64.2925
v 148.652 -181.077 -66.3361
v 147.243 -180.519 -65.395
v 148.954 -179.787 -65.9939
v 149.596 -180.132 -66.3917
v 149.491 -179.572 -65.8502
v 150.173 -179.188 -63.2327
v 149.781 -178.603 -63.885
v 147.477 -178.548 -65.2077
v 148.141 -178.185 -65.0139
v 148.839 -178.028 -64.4734
v 145.868 -177.87 -64.6866
v 146.353 -176.311 -64.3013
v 148.12 -175.986 -62.6875
v 147.489 -175.514 -63.1776
v 147.824 -176.359 -60.894
v 143.684 -175.569 -64.2476
v 145.374 -173.844 -63.7938
v 146.65 -173.82 -62.4891
v 146.447 -173.811 -59.7337
v 146.773 -173.758 -60.6799
v 143.384 -172.074 -64.7346
v 145.895 -171.378 -60.3653
v 139.819 -171.227 -65.952
v 140.479 -171.053 -66.1677
v 139.727 -170.82 -66.8395
v 141.289 -172.462 -65.068
v 144.163 -170.029 -57.9552
v 138.023 -168.833 -63.3731
v 139.852 -167.527 -62.8546
v 142.108 -166.325 -57.5714
v 136.982 -168.824 -65.5954
v 137.84 -167.899 -64.8105
v 140.161 -166.515 -58.1817
v 141.241 -165.748 -57.9563
v 141.121 -165.565 -59.7575
v 152.99 -184.938 -69.2293
v 154.579 -185.315 -67.7564
v 154.111 -184.872 -69.0814
v 154.165 -184.28 -68.5256
v 153.799 -184.203 -69.101
v 151.508 -184.325 -69.1865
v 152.122 -184.144 -69.629
v 152.015 -183.099 -69.4841
v 152.506 -182.21 -67.6649
v 153.168 -184.077 -69.639
v 153.68 -183.206 -66.4336
v 150.557 -183.24 -69.0616
v 150.872 -183.056 -69.3585
v 150.351 -182.63 -68.8852
v 150.307 -181.948 -68.1218
v 151.082 -182.64 -69.1313
v 151.771 -181.191 -65.2283
v 151.08 -180.661 -65.8197
v 144.629 -172.133 -63.9002
v 144.868 -170.044 -61.9748
v 142.616 -169.814 -65.5941
v 144.417 -167.736 -61.3941
v 144.39 -167.174 -60.1297
v 140.134 -168.83 -67.5899
v 142.993 -167.112 -63.9688
v 143.163 -165.614 -61.8704
v 143.213 -165.775 -58.8663
v 138.561 -168.274 -67.0234
v 138.961 -165.828 -66.1201
v 139.448 -165.587 -66.4141
v 139.762 -165.372 -65.6027
v 140.573 -165.666 -63.742
v 140.445 -165.468 -64.3901
v 141.029 -165.205 -63.8452
v 140.123 -165.482 -64.9754
v 141.531 -165.342 -64.2322
v 141.046 -165.292 -65.1463
v 140.779 -165.254 -64.7496
v 141.363 -164.838 -61.4734
v 141.489 -164.594 -61.7367
v 142.416 -165.119 -58.6986
v 141.588 -164.897 -59.3833
v 142.822 -164.807 -59.6162
v 142.054 -164.378 -60.0175
v 141.651 -164.481 -60.6668
v 142.883 -164.757 -60.3652
v 142.348 -164.382 -61.0299
v 142.364 -164.325 -60.3394
v 141.974 -164.261 -60.8908
v 140.431 -165.401 -66.2159
v 134.341 -169.91 -58.2543
v 135.439 -169.68 -57.5983
v 135.439 -169.68 -57.5983
v 135.439 -169.68 -57.5983
v 134.474 -169.375 -58.4565
v 149.002 -188.429 -63.6161
v 147.773 -187.896 -64.0323
v 150.286 -186.381 -61.7134
v 146.25 -186.056 -64.2146
v 146.853 -186.798 -64.4979
v 146.062 -184.502 -63.9293
v 145.534 -182.566 -63.4278
v 143.629 -179.731 -62.5365
v 140.965 -176.29 -62.3041
v 141.787 -177.206 -62.6499
v 136.284 -169.375 -57.2788
v 137.142 -169.026 -56.9471
v 137.142 -169.026 -56.9471
v 141.435 -176.295 -63.2915
v 137.848 -169.236 -61.0796
v 136.463 -169.207 -64.8956
v 136.825 -168.884 -64.1342
v 139.288 -167.94 -56.4765
v 139.025 -167.352 -57.0423
v 140 -167.303 -56.6085
v 143.684 -175.569 -64.2476
v 145.374 -173.844 -63.7938
v 140.479 -171.053 -66.1677
v 139.727 -170.82 -66.8395
v 141.289 -172.462 -65.068
v 136.982 -168.824 -65.5954
v 154.579 -185.315 -67.7564
v 154.579 -185.315 -67.7564
v 154.111 -184.872 -69.0814
v 154.111 -184.872 -69.0814
v 152.122 -184.144 -69.629
v 152.015 -183.099 -69.4841
v 153.168 -184.077 -69.639
v 153.168 -184.077 -69.639
v 150.872 -183.056 -69.3585
v 142.616 -169.814 -65.5941
v 140.134 -168.83 -67.5899
v 140.134 -168.83 -67.5899
v 140.134 -168.83 -67.5899
v 138.961 -165.828 -66.1201
v 138.961 -165.828 -66.1201
v 139.448 -165.587 -66.4141
v 139.762 -165.372 -65.6027
v 141.029 -165.205 -63.8452
v 141.531 -165.342 -64.2322
v 141.046 -165.292 -65.1463
v 140.779 -165.254 -64.7496
v 140.431 -165.401 -66.2159
v 140.431 -165.401 -66.2159
vn -0.673009 -0.607743 0.421553
vn -0.668656 -0.734925 -0.11307
vn -0.43054 -0.839699 0.33097
vn -0.652911 -0.71231 0.257529
vn -0.780354 -0.524099 0.341128
vn -0.888192 -0.45782 -0.0389262
vn -0.96302 -0.0241536 -0.268346
vn -0.451556 -0.633278 0.628536
vn -0.792037 -0.298156 0.532711
vn -0.482536 -0.441384 0.756531
vn -0.438947 -0.30972 0.843445
vn -0.597821 0.492409 0.632569
vn -0.97224 -0.118098 0.201994
vn -0.812647 0.32662 0.482622
vn -0.907586 0.417267 0.0466572
vn -0.433021 0.8767 0.2095
vn -0.22095 -0.876091 0.428539
vn 0.055611 -0.946416 -0.318125
vn 0.323914 -0.944723 0.050769
vn 0.281855 -0.748479 0.600281
vn 0.300932 -0.859522 -0.413113
vn -0.579183 -0.808197 0.106609
vn -0.28019 -0.608868 -0.742141
vn 0.00382375 -0.783753 -0.621061
vn -0.356643 -0.442338 -0.822887
vn -0.257537 -0.548664 0.795388
vn -0.408511 -0.405189 0.817888
vn 0.00973443 -0.487713 0.87295
vn 0.619444 -0.441638 0.649034
vn 0.39148 -0.0318395 0.919636
vn -0.869363 -0.451691 0.200459
vn -0.821931 -0.346483 0.452082
vn -0.770952 -0.63663 0.0182828
vn -0.547693 -0.269782 -0.791991
vn -0.726951 -0.00539464 -0.686668
vn -0.966095 -0.230938 0.115444
vn -0.693755 0.0468395 -0.718687
vn -0.677577 -0.410378 0.610311
vn -0.893819 -0.319002 0.31516
vn -0.819959 -0.441298 0.364586
vn -0.803507 -0.219695 -0.553272
vn -0.702988 -0.158454 -0.693326
vn -0.761502 -0.541116 0.356804
vn -0.667359 -0.580219 0.46688
vn -0.566412 -0.627943 0.533727
vn -0.707486 -0.629943 0.320368
vn -0.524462 -0.850108 0.0475068
vn -0.347111 -0.669052 -0.657178
vn -0.458142 -0.832432 -0.31171
vn -0.618178 -0.553155 -0.558458
vn -0.332748 -0.549566 -0.766326
vn -0.609901 -0.118152 -0.783621
vn -0.840846 -0.323949 -0.43363
vn -0.806944 0.168347 -0.566127
vn -0.00951124 0.995904 0.0899116
vn -0.145952 -0.492801 0.857814
vn -0.331774 -0.201786 0.921525
vn -0.205485 0.959782 0.191296
vn -0.432143 0.267808 0.861122
vn -0.498213 0.867049 0.00319744
vn -0.305312 0.0722181 0.94951
vn -0.746004 0.588188 -0.312271
vn -0.492697 0.867263 -0.0714519
vn -0.136738 0.990606 0.00170105
vn 0.286738 -0.827254 -0.483148
vn 0.119047 -0.906564 -0.404932
vn 0.526519 -0.850163 0.000845283
vn -0.0714317 -0.738665 -0.670277
vn -0.590611 -0.136571 -0.795316
vn -0.569434 -0.475936 -0.670246
vn -0.748018 -0.236228 -0.620214
vn 0.645502 0.0603291 0.761372
vn -0.51912 -0.226572 -0.824123
vn 0.199859 -0.151967 0.967968
vn 0.614001 0.0408922 0.788245
vn -0.680637 -0.61919 -0.391583
vn -0.309376 -0.514354 0.799829
vn -0.548672 -0.194308 -0.813144
vn -0.215497 -0.672594 -0.70794
vn -0.0168778 0.995102 0.0974059
vn -0.596642 0.334593 -0.729428
vn -0.482269 0.73891 -0.470561
vn -0.186093 0.978809 -0.0854497
vn -0.48823 0.486355 -0.724631
vn -0.299221 0.93 -0.213466
vn -0.686985 0.106354 -0.718846
vn -0.520326 0.846637 -0.111655
vn 0.0481976 -0.23182 0.971564
vn -0.635711 0.767477 -0.0827642
vn 0.314912 0.0120385 0.949044
vn 0.0928823 -0.916 -0.390277
vn 0.805137 -0.279858 0.522909
vn -0.225325 -0.811863 -0.538616
vn 0.829857 0.182998 0.527115
vn -0.721526 -0.0803818 -0.687706
vn -0.822517 -0.185643 -0.53759
vn -0.779139 0.216513 -0.588273
vn -0.816015 0.0249612 -0.577492
vn 0.781747 0.359616 0.509458
vn -0.530339 0.232981 -0.815144
vn -0.489209 0.010805 -0.8721
vn -0.143646 0.479808 -0.865535
vn -0.116068 0.617023 -0.778338
vn 0.262694 0.718511 -0.643999
vn 0.848011 0.497594 0.182419
vn 0.750178 0.618825 -0.232998
vn -0.200185 0.301482 -0.93222
vn 0.188129 0.565379 -0.80309
vn 0.549383 0.672757 -0.495556
vn -0.239278 0.104685 -0.965291
vn 0.136268 0.360714 -0.922668
vn 0.841313 0.536267 -0.0679048
vn 0.579026 0.558972 -0.593531
vn 0.838982 0.282733 0.464942
vn -0.312608 -0.241197 -0.918749
vn 0.181132 -0.0302021 -0.982995
vn 0.799235 0.461956 -0.384473
vn 0.83386 0.228391 0.502509
vn 0.910438 0.386412 0.147612
vn 0.389928 -0.129676 -0.911669
vn 0.937274 0.341621 0.0693747
vn -0.0602315 -0.815425 -0.575721
vn 0.0100469 -0.79257 -0.609698
vn -0.274488 -0.667496 -0.692175
vn -0.210753 -0.558757 -0.802106
vn 0.564003 0.0760366 0.822264
vn -0.357625 0.896974 0.25989
vn -0.788569 0.590657 0.171121
vn 0.371989 0.461619 0.805315
vn -0.753386 0.655634 0.0505317
vn -0.65028 0.682747 0.333156
vn -0.695537 0.718167 -0.0215466
vn -0.277014 0.811516 0.514495
vn -0.825444 0.564475 -0.00314365
vn -0.083648 -0.699587 -0.709634
vn 0.27651 -0.913204 -0.299333
vn 0.197072 -0.870334 -0.451311
vn 0.846765 0.467194 -0.2544
vn 0.687639 0.51865 -0.508089
vn -0.449228 -0.560894 -0.695408
vn -0.260891 -0.50062 -0.825419
vn -0.0671153 0.260963 -0.963013
vn 0.497896 0.771222 -0.396631
vn 0.0812552 -0.44162 -0.893515
vn 0.851685 0.500593 0.15505
vn -0.686096 -0.247242 -0.68421
vn -0.568293 -0.248178 -0.784507
vn -0.583052 0.383905 -0.716008
vn -0.28285 0.67213 -0.684279
vn -0.023556 0.735565 -0.677044
vn 0.759321 0.650435 -0.0191169
vn 0.608793 0.743059 -0.277909
vn 0.687419 0.224744 -0.690612
vn 0.846304 0.326461 -0.420943
vn 0.43763 -0.344982 -0.830342
vn 0.887701 0.355225 -0.29292
vn 0.892683 0.435422 0.116296
vn -0.404821 -0.248942 -0.879857
vn 0.79406 0.395096 -0.461918
vn 0.784498 0.547843 -0.290571
vn 0.721386 0.454804 0.52226
vn -0.542326 0.0768845 -0.836643
vn -0.72808 0.601831 0.328176
vn -0.253217 0.354353 -0.900175
vn -0.56781 0.69798 0.436367
vn -0.752591 0.613402 0.239466
vn -0.540382 0.806315 0.240506
vn -0.618981 0.774926 0.127875
vn -0.593936 0.706424 0.384974
vn 0.705526 0.591025 -0.391054
vn 0.742113 0.52284 -0.419412
vn -0.427148 0.876914 0.220377
vn -0.874503 0.479199 0.0749243
vn -0.635551 0.770127 -0.0545815
vn 0.299837 0.741828 0.599824
vn -0.658198 0.726547 0.197241
vn 0.609942 0.73184 0.303942
vn -0.158744 0.925076 0.345014
vn -0.748457 0.653436 0.113288
vn 0.753146 0.656085 -0.0481966
vn 0.514489 0.827226 -0.225829
vn 0.380106 0.919346 0.101601
vn -0.137074 0.987911 -0.0724091
vn 0.718954 0.332277 -0.610489
vn -0.671975 0.299393 0.677357
vn -0.528871 0.412667 0.74162
vn -0.424224 0.269187 0.864623
vn -0.269627 0.888226 0.371962
vn -0.070111 0.962528 0.261964
vn -0.409434 -0.911419 0.0409635
vn -0.294811 -0.759932 -0.579301
vn 0.50131 -0.0691456 0.862501
vn -0.787591 -0.184814 -0.58783
vn -0.500901 -0.449911 -0.739377
vn -0.839861 -0.00944014 -0.542719
vn -0.907639 -0.419471 0.0153809
vn -0.730355 -0.448507 -0.515192
vn -0.699884 -0.633196 -0.330492
vn -0.747716 -0.54982 -0.372316
vn -0.409401 0.882243 0.232463
vn -0.551497 0.831582 0.0657491
vn -0.426048 0.521349 0.739377
vn -0.312233 -0.327065 -0.89193
vn -0.594628 0.797065 -0.105382
vn -0.567067 0.80435 -0.177358
vn -0.300857 0.858415 0.415462
vn -0.393481 0.540247 0.743845
vn -0.365397 0.615437 0.698371
vn -0.202575 0.65981 0.723612
vn 0.125893 0.139651 -0.982165
vn 0.596753 0.342298 -0.725753
vn 0.463173 -0.443945 -0.767062
vn 0.480937 -0.449431 -0.752802
vn 0.286894 -0.247235 -0.925509
vn -0.732409 0.100071 -0.673471
vn 0.713969 -0.643739 0.275406
vn 0.973225 0.187805 0.132521
vn 0.142795 -0.448907 -0.882095
vn 0.8233 0.281366 -0.49296
vn -0.0610463 0.130923 -0.989511
vn 0.386644 0.783126 -0.487052
vn 0.590513 0.574094 -0.567195
vn -0.0181734 0.135442 -0.990619
vn -0.149435 0.408 -0.900669
vn 0.766197 0.26248 -0.586555
vn 0.476018 -0.393757 -0.78636
vn 0.663381 0.228043 -0.712687
vn -0.0582721 0.329386 -0.942395
vn -0.65053 0.35438 -0.671734
vn -0.468617 0.881855 -0.0522473
vn -0.310818 0.941653 -0.12916
vn -0.169503 0.978894 -0.114173
vn 0.101645 0.984995 -0.139475
vn 0.0724534 0.967162 -0.243614
vn 0.052429 0.995329 -0.081062
vn 0.0120677 0.995978 -0.0887767
vn 0.118459 0.360511 -0.925202
vn -0.0875565 0.98589 -0.142668
g grp1
usemtl mtl1
f 1//1 33//33 22//22 
f 22//22 17//17 1//1 
f 17//17 26//26 1//1 
f 1//1 26//26 27//27 
f 3//3 77//77 8//8 
f 2//2 3//3 4//4 
f 49//49 3//3 2//2 
f 50//50 49//49 2//2 
f 4//4 3//3 8//8 
f 5//5 4//4 8//8 
f 5//5 13//13 6//6 
f 7//7 6//6 13//13 
f 4//4 6//6 2//2 
f 4//4 5//5 6//6 
f 2//2 6//6 53//53 
f 7//7 53//53 6//6 
f 53//53 50//50 2//2 
f 8//8 9//9 5//5 
f 5//5 9//9 13//13 
f 8//8 10//10 9//9 
f 13//13 9//9 14//14 
f 185//185 14//14 9//9 
f 185//185 12//12 14//14 
f 12//12 16//16 14//14 
f 58//58 55//55 189//189 
f 189//189 55//55 16//16 
f 11//11 10//10 57//57 
f 57//57 10//10 8//8 
f 186//186 12//12 185//185 
f 187//187 57//57 59//59 
f 200//200 58//58 188//188 
f 188//188 58//58 189//189 
f 13//13 15//15 7//7 
f 7//7 15//15 62//62 
f 62//62 15//15 63//63 
f 13//13 14//14 15//15 
f 15//15 14//14 16//16 
f 15//15 16//16 63//63 
f 63//63 16//16 64//64 
f 18//18 191//191 24//24 
f 21//21 18//18 24//24 
f 65//65 67//67 21//21 
f 21//21 24//24 65//65 
f 68//68 65//65 24//24 
f 18//18 19//19 17//17 
f 22//22 190//190 17//17 
f 19//19 20//20 17//17 
f 19//19 18//18 21//21 
f 26//26 17//17 20//20 
f 67//67 19//19 21//21 
f 20//20 28//28 26//26 
f 19//19 67//67 20//20 
f 28//28 20//20 29//29 
f 23//23 191//191 194//194 
f 25//25 23//23 194//194 
f 24//24 191//191 23//23 
f 68//68 24//24 23//23 
f 1//1 27//27 32//32 
f 28//28 30//30 27//27 
f 26//26 28//28 27//27 
f 72//72 192//192 29//29 
f 72//72 30//30 192//192 
f 1//1 31//31 33//33 
f 1//1 32//32 31//31 
f 31//31 32//32 36//36 
f 36//36 32//32 39//39 
f 25//25 194//194 34//34 
f 34//34 194//194 193//193 
f 193//193 35//35 34//34 
f 35//35 193//193 195//195 
f 69//69 34//34 35//35 
f 37//37 35//35 195//195 
f 37//37 69//69 35//35 
f 195//195 42//42 37//37 
f 32//32 27//27 38//38 
f 38//38 39//39 32//32 
f 40//40 39//39 38//38 
f 40//40 38//38 27//27 
f 39//39 40//40 36//36 
f 69//69 37//37 42//42 
f 69//69 42//42 95//95 
f 41//41 42//42 195//195 
f 40//40 196//196 36//36 
f 196//196 40//40 43//43 
f 41//41 197//197 42//42 
f 40//40 27//27 77//77 
f 77//77 30//30 74//74 
f 27//27 30//30 77//77 
f 43//43 44//44 46//46 
f 199//199 76//76 197//197 
f 73//73 42//42 197//197 
f 73//73 197//197 76//76 
f 40//40 77//77 43//43 
f 43//43 77//77 44//44 
f 44//44 45//45 46//46 
f 44//44 77//77 45//45 
f 77//77 47//47 45//45 
f 76//76 199//199 198//198 
f 198//198 47//47 76//76 
f 47//47 48//48 76//76 
f 49//49 48//48 47//47 
f 47//47 3//3 49//49 
f 51//51 48//48 49//49 
f 47//47 77//77 3//3 
f 51//51 49//49 50//50 
f 51//51 50//50 52//52 
f 56//56 8//8 77//77 
f 88//88 56//56 77//77 
f 53//53 52//52 50//50 
f 53//53 54//54 52//52 
f 52//52 54//54 81//81 
f 81//81 54//54 82//82 
f 53//53 7//7 54//54 
f 54//54 7//7 62//62 
f 54//54 62//62 82//82 
f 64//64 55//55 83//83 
f 83//83 55//55 80//80 
f 57//57 8//8 56//56 
f 60//60 58//58 200//200 
f 55//55 58//58 80//80 
f 57//57 61//61 59//59 
f 60//60 200//200 201//201 
f 58//58 60//60 204//204 
f 89//89 204//204 60//60 
f 56//56 88//88 57//57 
f 61//61 57//57 88//88 
f 207//207 208//208 202//202 
f 201//201 89//89 60//60 
f 62//62 63//63 83//83 
f 83//83 82//82 62//62 
f 55//55 64//64 16//16 
f 63//63 64//64 83//83 
f 68//68 66//66 65//65 
f 93//93 66//66 68//68 
f 67//67 29//29 20//20 
f 92//92 29//29 67//67 
f 66//66 67//67 65//65 
f 69//69 25//25 34//34 
f 23//23 25//25 68//68 
f 25//25 69//69 70//70 
f 68//68 25//25 70//70 
f 93//93 68//68 70//70 
f 70//70 69//69 71//71 
f 70//70 71//71 96//96 
f 92//92 72//72 29//29 
f 72//72 99//99 30//30 
f 71//71 69//69 95//95 
f 101//101 95//95 42//42 
f 101//101 42//42 73//73 
f 30//30 75//75 74//74 
f 73//73 203//203 115//115 
f 125//125 203//203 48//48 
f 74//74 75//75 126//126 
f 51//51 79//79 48//48 
f 77//77 126//126 88//88 
f 126//126 77//77 74//74 
f 78//78 51//51 52//52 
f 78//78 79//79 51//51 
f 204//204 128//128 127//127 
f 128//128 204//204 132//132 
f 89//89 132//132 204//204 
f 126//126 90//90 88//88 
f 129//129 90//90 126//126 
f 82//82 84//84 81//81 
f 84//84 78//78 52//52 
f 84//84 52//52 81//81 
f 84//84 86//86 78//78 
f 84//84 82//82 85//85 
f 83//83 85//85 82//82 
f 205//205 84//84 85//85 
f 83//83 127//127 85//85 
f 85//85 87//87 205//205 
f 127//127 206//206 85//85 
f 130//130 205//205 131//131 
f 131//131 205//205 87//87 
f 131//131 206//206 127//127 
f 127//127 83//83 80//80 
f 208//208 207//207 209//209 
f 208//208 209//209 133//133 
f 132//132 89//89 133//133 
f 129//129 133//133 209//209 
f 67//67 66//66 91//91 
f 66//66 93//93 91//91 
f 135//135 93//93 140//140 
f 91//91 136//136 67//67 
f 146//146 70//70 96//96 
f 141//141 135//135 140//140 
f 140//140 70//70 146//146 
f 70//70 140//140 93//93 
f 94//94 99//99 72//72 
f 94//94 72//72 92//92 
f 145//145 99//99 94//94 
f 99//99 145//145 151//151 
f 146//146 98//98 148//148 
f 71//71 95//95 96//96 
f 96//96 98//98 146//146 
f 96//96 95//95 97//97 
f 100//100 97//97 95//95 
f 98//98 96//96 97//97 
f 149//149 97//97 100//100 
f 100//100 103//103 149//149 
f 148//148 98//98 97//97 
f 148//148 97//97 149//149 
f 151//151 105//105 99//99 
f 100//100 95//95 101//101 
f 101//101 107//107 100//100 
f 102//102 100//100 107//107 
f 100//100 102//102 103//103 
f 108//108 104//104 102//102 
f 107//107 108//108 102//102 
f 104//104 108//108 109//109 
f 151//151 152//152 109//109 
f 151//151 109//109 106//106 
f 152//152 104//104 109//109 
f 102//102 104//104 103//103 
f 99//99 114//114 30//30 
f 151//151 106//106 105//105 
f 101//101 73//73 110//110 
f 101//101 110//110 107//107 
f 110//110 111//111 107//107 
f 111//111 108//108 107//107 
f 99//99 105//105 114//114 
f 106//106 112//112 105//105 
f 109//109 108//108 113//113 
f 109//109 113//113 106//106 
f 30//30 114//114 75//75 
f 110//110 73//73 115//115 
f 110//110 210//210 111//111 
f 111//111 113//113 108//108 
f 106//106 113//113 112//112 
f 112//112 113//113 117//117 
f 114//114 118//118 75//75 
f 118//118 114//114 119//119 
f 119//119 114//114 112//112 
f 119//119 112//112 117//117 
f 105//105 112//112 114//114 
f 125//125 115//115 203//203 
f 116//116 210//210 214//214 
f 210//210 116//116 111//111 
f 116//116 214//214 120//120 
f 113//113 111//111 211//211 
f 113//113 211//211 117//117 
f 211//211 153//153 117//117 
f 117//117 153//153 154//154 
f 121//121 119//119 117//117 
f 117//117 154//154 121//121 
f 120//120 153//153 211//211 
f 126//126 75//75 118//118 
f 118//118 119//119 121//121 
f 124//124 122//122 79//79 
f 122//122 124//124 123//123 
f 212//212 155//155 214//214 
f 212//212 213//213 155//155 
f 125//125 48//48 79//79 
f 122//122 125//125 79//79 
f 123//123 125//125 122//122 
f 155//155 120//120 214//214 
f 121//121 126//126 118//118 
f 161//161 129//129 126//126 
f 157//157 161//161 126//126 
f 124//124 79//79 78//78 
f 124//124 78//78 162//162 
f 162//162 78//78 215//215 
f 124//124 162//162 158//158 
f 127//127 128//128 131//131 
f 129//129 161//161 175//175 
f 78//78 86//86 215//215 
f 128//128 166//166 169//169 
f 132//132 134//134 128//128 
f 128//128 134//134 179//179 
f 176//176 132//132 133//133 
f 134//134 132//132 176//176 
f 175//175 133//133 129//129 
f 141//141 144//144 135//135 
f 216//216 92//92 67//67 
f 94//94 92//92 217//217 
f 91//91 93//93 135//135 
f 91//91 135//135 137//137 
f 91//91 137//137 136//136 
f 135//135 144//144 218//218 
f 217//217 219//219 138//138 
f 222//222 139//139 219//219 
f 219//219 139//139 138//138 
f 138//138 139//139 143//143 
f 139//139 222//222 143//143 
f 94//94 217//217 145//145 
f 140//140 146//146 147//147 
f 147//147 141//141 140//140 
f 220//220 224//224 142//142 
f 142//142 223//223 220//220 
f 222//222 221//221 143//143 
f 217//217 138//138 145//145 
f 151//151 145//145 143//143 
f 145//145 138//138 143//143 
f 147//147 146//146 148//148 
f 224//224 148//148 150//150 
f 142//142 224//224 150//150 
f 150//150 148//148 149//149 
f 143//143 150//150 149//149 
f 143//143 149//149 103//103 
f 104//104 143//143 103//103 
f 143//143 221//221 150//150 
f 151//151 143//143 152//152 
f 104//104 152//152 143//143 
f 154//154 153//153 225//225 
f 121//121 154//154 156//156 
f 120//120 155//155 153//153 
f 159//159 154//154 225//225 
f 154//154 159//159 156//156 
f 156//156 159//159 160//160 
f 156//156 160//160 157//157 
f 121//121 157//157 126//126 
f 121//121 156//156 157//157 
f 226//226 155//155 213//213 
f 184//184 225//225 227//227 
f 225//225 184//184 159//159 
f 159//159 170//170 160//160 
f 170//170 181//181 160//160 
f 175//175 161//161 177//177 
f 161//161 157//157 177//177 
f 157//157 160//160 180//180 
f 177//177 157//157 180//180 
f 162//162 164//164 228//228 
f 128//128 169//169 131//131 
f 131//131 163//163 130//130 
f 165//165 131//131 169//169 
f 131//131 165//165 163//163 
f 229//229 162//162 215//215 
f 164//164 162//162 229//229 
f 231//231 230//230 232//232 
f 165//165 169//169 172//172 
f 184//184 171//171 159//159 
f 228//228 164//164 237//237 
f 231//231 232//232 238//238 
f 169//169 166//166 167//167 
f 167//167 166//166 168//168 
f 166//166 174//174 168//168 
f 167//167 168//168 172//172 
f 169//169 167//167 172//172 
f 171//171 170//170 159//159 
f 234//234 235//235 233//233 
f 233//233 235//235 236//236 
f 179//179 134//134 176//176 
f 128//128 174//174 166//166 
f 179//179 173//173 128//128 
f 128//128 173//173 174//174 
f 173//173 179//179 174//174 
f 174//174 179//179 183//183 
f 233//233 174//174 234//234 
f 183//183 234//234 174//174 
f 181//181 234//234 183//183 
f 175//175 178//178 133//133 
f 178//178 176//176 133//133 
f 177//177 178//178 175//175 
f 182//182 177//177 180//180 
f 182//182 178//178 177//177 
f 179//179 176//176 178//178 
f 182//182 183//183 178//178 
f 178//178 183//183 179//179 
f 160//160 181//181 180//180 
f 180//180 181//181 182//182 
f 183//183 182//182 181//181 
f 235//235 238//238 232//232 
f 236//236 235//235 232//232 
