#
# The license for this database is specified in the Creative Commons Attribution-Share Alike 2.1 Japan. If you use data from this database, please be sure attribute this database as follows: "BodyParts3D, (c)  The Database Center for Life Science licensed under CC Attribution-Share Alike 2.1 Japan".
# http://dbarchive.biosciencedbc.jp/en/bodyparts3d/lic.html
#
#
# Compatibility version : 4.3i
# File ID : FJ6467
# Representation ID : BP49794
# Build-up logic : FMA 3.2.1-inference part_of
# Concept ID : FMA24437
# English name : Right lunate
# Bounds(mm): (-252.886400,-127.115300,797.236900)-(-236.172300,-110.498100,810.000800)
# Volume(cm3): 1.242600
#
v -250.303 -125.927 805.496
v -251.827 -121.97 803.421
v -251.718 -121.884 802.822
v -251.272 -120.442 803.374
v -251.15 -122.45 802.154
v -250.97 -119.174 803.657
v -251.045 -119.446 803.048
v -252.65 -124.469 802.667
v -252.612 -123.857 802.643
v -252.724 -124.634 801.719
v -252.107 -125.472 801.368
v -252.213 -123.495 802.042
v -252.195 -125.163 800.741
v -247.733 -123.628 809.14
v -249.852 -120.959 808.395
v -250.219 -119.579 807.416
v -248.944 -115.124 807.082
v -247.832 -126.372 806.857
v -250.063 -111.84 802.909
v -249.12 -111.113 803.134
v -248.596 -126.924 804.534
v -250.656 -120.357 802.635
v -248.611 -119.872 802.479
v -250.826 -117.16 802.567
v -250.2 -117.21 802.077
v -250.521 -113.924 802.292
v -250.855 -112.057 801.503
v -250.546 -113.912 800.811
v -250.738 -113.198 800.654
v -249.515 -114.426 800.209
v -250.965 -111.456 800.918
v -250.67 -110.988 800.474
v -250.212 -111.106 802.221
v -249.388 -110.635 800.887
v -251.275 -112.364 799.91
v -251.342 -112.108 799.429
v -251.207 -112.557 799.167
v -251.187 -112.241 798.71
v -250.643 -112.937 798.847
v -250.704 -112.661 798.372
v -250.716 -112.322 798.126
v -250.272 -113.49 799.679
v -250.007 -112.668 798.028
v -249.607 -113.622 799.395
v -249.737 -112.339 797.647
v -251.202 -111.808 799.06
v -250.883 -111.941 798.301
v -250.769 -111.515 798.624
v -250.421 -111.585 798.185
v -250.398 -111.982 797.921
v -249.954 -111.08 798.827
v -249.023 -111.638 797.821
v -249.753 -125.927 799.543
v -249.166 -125.345 799.504
v -245.451 -123.999 809.253
v -247.014 -126.864 805.689
v -246.23 -126.489 806.238
v -247.164 -119.498 802.232
v -246.966 -122.79 800.755
v -248.394 -112.646 797.865
v -248.084 -112.238 797.495
v -247.69 -111.829 797.772
v -246.979 -125.437 799.097
v -245.696 -124.352 798.64
v -245.482 -123.585 799.079
v -244.438 -118.106 809.716
v -244.061 -124.089 808.749
v -243.317 -123.409 809.053
v -243.237 -121.698 809.82
v -244.357 -113.846 807.615
v -243.524 -125.487 806.513
v -243.167 -125.774 805.416
v -242.743 -125.09 806.462
v -242.076 -124.996 805.557
v -245.287 -111.481 803.653
v -245.854 -111.414 803.202
v -245.592 -111.554 802.772
v -245.182 -111.763 803.356
v -244.478 -112.098 802.636
v -244.118 -111.694 804.361
v -244.156 -111.923 804.036
v -244.15 -112.228 803.758
v -244.123 -112.411 803.406
v -243.729 -112.126 804.102
v -243.322 -112.432 803.846
v -243.766 -112.367 803.02
v -244.021 -126.194 804.236
v -244.114 -126.208 802.798
v -243.429 -125.867 803.693
v -242.5 -125.058 804.608
v -242.584 -125.032 802.84
v -242.227 -124.449 803.662
v -242.069 -124.658 802.683
v -242.449 -124.779 801.94
v -244.297 -112.076 801.269
v -243.882 -112.263 801.964
v -243.939 -112.265 800.828
v -243.489 -112.327 802.326
v -243.492 -112.652 801.657
v -243.546 -112.524 801.102
v -243.085 -112.411 802.333
v -243.099 -112.615 802.015
v -243.137 -112.594 801.205
v -244.115 -122.638 799.198
v -243.893 -120.083 800.105
v -242.737 -120.242 799.825
v -242.637 -122.156 799.428
v -242.732 -121.349 799.518
v -243.74 -118.585 799.891
v -242.899 -118.876 799.828
v -244.231 -116.121 799.138
v -245.933 -112.158 797.463
v -245.607 -112.937 797.461
v -245.091 -111.682 798.801
v -243.964 -112.411 797.999
v -243.656 -112.04 798.943
v -241.532 -113.158 806.247
v -241.382 -124.663 805.437
v -240.716 -124.157 805.836
v -239.698 -123.798 804.904
v -242.278 -112.703 805.148
v -242.426 -112.388 803.015
v -241.792 -124.665 804.767
v -240.515 -124.301 804.602
v -241.802 -124.393 804.036
v -241.53 -124.295 803.325
v -241.618 -124.343 802.946
v -241.246 -124.189 802.613
v -240.871 -124.162 803.543
v -240.501 -123.905 803.245
v -239.773 -123.794 804.162
v -242.418 -112.452 802.274
v -242.178 -112.645 801.621
v -241.893 -112.712 800.88
v -241.792 -112.972 800.378
v -240.959 -112.847 802.114
v -241.495 -119.633 800.276
v -241.902 -115.249 799.561
v -238.712 -118.787 808.693
v -238.207 -119.596 808.517
v -238.308 -120.22 808.194
v -237.189 -118.55 807.86
v -236.978 -118.981 807.675
v -236.694 -119.514 806.999
v -239.031 -115.913 807.706
v -237.34 -116.924 807.402
v -236.868 -116.397 806.436
v -239.754 -114.056 806.724
v -239.273 -113.842 805.818
v -238.152 -115.038 806.657
v -237.834 -121.492 804.185
v -237.618 -121.502 805.752
v -237.162 -121.095 805.376
v -237.513 -115.394 805.479
v -238.199 -115.319 803.806
v -239 -123.147 804.436
v -239.32 -122.92 803.441
v -238.165 -120.582 803.563
v -236.542 -117.981 807.1
v -236.418 -119.017 806.973
v -236.331 -119.188 806.584
v -236.202 -118.741 806.547
v -236.238 -118.003 806.399
v -236.315 -119.209 806.228
v -236.502 -119.139 805.453
v -236.212 -118.456 806.083
v -236.625 -116.821 805.76
v -236.719 -117.893 805.088
v -251.045 -119.446 803.048
v -252.65 -124.469 802.667
v -252.724 -124.634 801.719
v -252.724 -124.634 801.719
v -252.195 -125.163 800.741
v -252.195 -125.163 800.741
v -250.656 -120.357 802.635
v -248.611 -119.872 802.479
v -250.826 -117.16 802.567
v -249.737 -112.339 797.647
v -249.753 -125.927 799.543
v -249.753 -125.927 799.543
v -248.084 -112.238 797.495
v -248.084 -112.238 797.495
v -247.69 -111.829 797.772
v -246.979 -125.437 799.097
v -245.696 -124.352 798.64
v -245.696 -124.352 798.64
v -242.076 -124.996 805.557
v -245.287 -111.481 803.653
v -245.854 -111.414 803.202
v -244.118 -111.694 804.361
v -245.933 -112.158 797.463
v -245.933 -112.158 797.463
v -245.607 -112.937 797.461
v -243.964 -112.411 797.999
v -243.656 -112.04 798.943
v -241.902 -115.249 799.561
vn -0.615512 -0.641178 0.458297
vn -0.934237 0.355091 0.0333469
vn -0.777714 0.426018 -0.462243
vn -0.949609 0.266698 -0.164666
vn -0.399486 0.436493 -0.806154
vn -0.964979 0.195051 0.175414
vn -0.989518 0.141964 0.0264775
vn -0.936485 -0.0368202 0.34877
vn -0.961071 0.27066 0.0555574
vn -0.759708 0.469036 -0.450387
vn -0.607136 -0.794302 -0.0216781
vn -0.668664 0.494384 -0.555404
vn -0.43134 -0.832022 -0.348833
vn -0.313697 -0.293925 0.902885
vn -0.71545 0.0180369 0.698431
vn -0.918572 0.242318 0.312262
vn -0.678707 0.376163 0.63076
vn -0.14753 -0.824752 0.545911
vn -0.792443 0.306942 0.527086
vn -0.186224 0.884521 0.427718
vn -0.140439 -0.990089 -7.01929e-06
vn -0.574476 0.247138 -0.78032
vn -0.210324 0.406547 -0.889091
vn -0.995598 0.0937154 0.00102847
vn -0.453392 -0.249344 -0.855724
vn -0.9851 0.0269504 0.169856
vn -0.940368 0.0259856 0.339164
vn -0.851618 -0.342185 -0.397059
vn -0.918538 -0.395331 -0.000927174
vn -0.383941 -0.598654 -0.702995
vn -0.910808 0.362922 0.196767
vn -0.555654 0.830884 -0.0296547
vn -0.640029 0.659616 0.394042
vn 0.00406467 0.999967 0.00704839
vn -0.968036 -0.192299 0.161021
vn -0.997661 0.0536083 -0.0424113
vn -0.817099 -0.549048 -0.175774
vn -0.896601 -0.130217 -0.423262
vn -0.492431 -0.794785 -0.354723
vn -0.534928 -0.671489 -0.512792
vn -0.583149 -0.284013 -0.761101
vn -0.613927 -0.700366 -0.364116
vn -0.226654 -0.715596 -0.66072
vn -0.275429 -0.794904 -0.540617
vn -0.235865 -0.545181 -0.804453
vn -0.860599 0.465466 -0.206665
vn -0.719053 0.329331 -0.611967
vn -0.572925 0.732782 -0.367134
vn -0.369396 0.673272 -0.640509
vn -0.406492 0.283064 -0.8687
vn -0.149072 0.927421 -0.343026
vn -0.0468509 0.670805 -0.740152
vn -0.199592 -0.94976 -0.24108
vn -0.336338 0.47355 -0.814019
vn 0.0978993 -0.588244 0.802736
vn 0.119694 -0.978314 0.16904
vn 0.226923 -0.878334 0.420756
vn -0.381162 -0.129636 -0.915374
vn -0.330925 0.473108 -0.816491
vn -0.126448 -0.714498 -0.688116
vn -0.102721 -0.623919 -0.774709
vn 0.00571687 0.558101 -0.829754
vn 0.268362 -0.885288 -0.379799
vn -0.22614 0.402537 -0.887031
vn -0.358302 0.595664 -0.718891
vn -0.065657 0.237474 0.969172
vn 0.298053 -0.732066 0.612571
vn 0.383755 -0.589527 0.710767
vn 0.183032 -0.211116 0.960171
vn 0.00650731 0.655595 0.755084
vn 0.349852 -0.819357 0.454156
vn 0.484363 -0.865926 0.12476
vn 0.463326 -0.772253 0.434689
vn 0.483704 -0.826218 0.288781
vn 0.479534 0.683088 -0.550851
vn 0.237873 0.970988 0.0244486
vn 0.403834 0.914807 0.00678833
vn 0.508851 0.808933 -0.294446
vn 0.31996 0.940413 0.115105
vn 0.0332365 0.899204 0.436266
vn 0.436252 0.662659 -0.608742
vn 0.402457 0.741685 -0.536593
vn 0.293691 0.955216 -0.0361641
vn 0.436252 0.757914 -0.485027
vn 0.277606 0.944714 -0.1745
vn 0.126273 0.978517 0.162971
vn 0.347835 -0.935598 0.0605649
vn 0.32354 -0.929675 -0.176142
vn 0.633043 -0.771285 -0.0661547
vn 0.615672 -0.761705 -0.201876
vn 0.65292 -0.756853 0.0294821
vn 0.517886 -0.854895 -0.0308078
vn 0.530319 -0.843457 0.0856872
vn 0.561923 -0.729005 -0.390889
vn 0.471785 0.88164 0.011417
vn 0.424393 0.894388 -0.141285
vn 0.435658 0.892959 0.113256
vn 0.247713 0.946291 -0.207778
vn 0.336522 0.939503 -0.0639283
vn 0.292435 0.937007 0.19105
vn 0.112409 0.927463 -0.35662
vn 0.0762297 0.916964 -0.391619
vn 0.0901404 0.986067 0.139811
vn -0.189008 0.390136 -0.901149
vn -0.317248 0.156399 -0.935357
vn 0.0275339 0.139982 -0.989771
vn 0.517489 -0.167338 -0.839168
vn 0.0813167 0.23194 -0.969325
vn -0.338212 -0.219208 -0.915183
vn 0.00560502 -0.115951 -0.993239
vn -0.0818172 -0.347679 -0.934037
vn -0.0336803 0.583557 -0.811373
vn -0.228038 -0.63055 -0.741893
vn 0.232715 0.946437 -0.22383
vn 0.57117 0.595683 -0.564737
vn 0.237274 0.953408 0.186316
vn 0.280597 0.878468 0.386728
vn 0.418074 -0.90805 0.0256632
vn 0.518927 -0.769524 0.37222
vn 0.609326 -0.784879 0.112631
vn 0.453517 0.885738 -0.0989422
vn 0.138167 0.990056 0.0264519
vn 0.383841 -0.884152 -0.266349
vn 0.367928 -0.922857 -0.113859
vn 0.2318 -0.949966 -0.209366
vn 0.238814 -0.969417 -0.0565549
vn 0.403043 -0.906163 0.128161
vn 0.496487 -0.848392 -0.183662
vn 0.341835 -0.923622 -0.173411
vn 0.520263 -0.796877 -0.307104
vn 0.596658 -0.767285 -0.2351
vn 0.0905848 0.963958 -0.250158
vn 0.063216 0.993454 -0.0951449
vn 0.316364 0.943725 -0.0964206
vn 0.671147 0.607497 -0.424863
vn 0.478653 0.862052 -0.166609
vn 0.407084 0.00924614 -0.913344
vn 0.296978 -0.237807 -0.924798
vn 0.323473 0.187407 0.927493
vn 0.49369 -0.189192 0.848809
vn 0.552878 -0.528809 0.643962
vn 0.577594 0.133055 0.805408
vn 0.706013 -0.207798 0.677027
vn 0.740508 -0.495326 0.454202
vn 0.285257 0.447099 0.84778
vn 0.545048 0.385022 0.744769
vn 0.820621 0.479311 0.311194
vn 0.316954 0.697906 0.642236
vn 0.436186 0.884247 0.166882
vn 0.577993 0.642272 0.503399
vn 0.782293 -0.36838 -0.502309
vn 0.677392 -0.658173 0.328556
vn 0.862153 -0.506413 -0.0153898
vn 0.763903 0.642274 -0.0627395
vn 0.790952 0.35142 -0.500899
vn 0.727537 -0.671721 -0.139575
vn 0.653989 -0.569197 -0.49831
vn 0.73187 -0.0856904 -0.676035
vn 0.808463 0.181193 0.559961
vn 0.848403 -0.20148 0.489509
vn 0.894377 -0.387928 0.222715
vn 0.977581 -0.0774972 0.19578
vn 0.965463 0.221043 0.137917
vn 0.957145 -0.272267 -0.0987108
vn 0.885578 -0.15433 -0.438102
vn 0.9718 0.0170117 -0.235191
vn 0.915326 0.33279 -0.226779
vn 0.827509 0.0793697 -0.555813
vn -0.711391 -0.0509815 -0.700945
vn -0.729649 -0.653945 0.199923
vn -0.803511 -0.595227 0.00864183
vn -0.995673 0.0644525 0.0669435
vn -0.401093 0.494118 -0.771344
vn -0.825182 -0.544138 -0.151617
vn -0.0350792 -0.169516 -0.984903
vn -0.0728504 -0.191147 -0.978854
vn -0.611698 -0.224793 -0.758481
vn -0.135427 0.366063 -0.920683
vn -0.322899 0.265101 -0.908547
vn -0.10432 -0.278583 -0.95473
vn -0.0322125 0.489421 -0.871452
vn -0.014551 -0.00396476 -0.999886
vn 0.108225 0.908805 -0.402939
vn -0.10432 -0.278583 -0.95473
vn -0.10432 -0.278583 -0.95473
vn 0.499239 -0.648137 -0.575047
vn 0.495767 -0.843534 -0.206558
vn 0.0805996 0.990984 0.107024
vn 0.486082 0.712831 -0.505565
vn 0.495063 0.786472 -0.369291
vn 0.168907 0.890378 -0.422726
vn 0.131773 0.0571379 -0.989632
vn 0.236586 -0.118406 -0.964369
vn 0.326784 -0.0570083 -0.943378
vn 0.512778 0.762958 -0.393642
vn 0.73231 0.0588681 -0.678423
g grp1
usemtl mtl1
f 14//14 15//15 1//1 
f 10//10 9//9 12//12 
f 16//16 9//9 15//15 
f 15//15 9//9 8//8 
f 15//15 8//8 1//1 
f 9//9 2//2 3//3 
f 12//12 9//9 3//3 
f 12//12 3//3 5//5 
f 16//16 2//2 9//9 
f 16//16 4//4 2//2 
f 4//4 3//3 2//2 
f 16//16 6//6 4//4 
f 3//3 4//4 22//22 
f 3//3 22//22 5//5 
f 4//4 6//6 7//7 
f 22//22 4//4 169//169 
f 5//5 22//22 59//59 
f 6//6 26//26 7//7 
f 26//26 24//24 7//7 
f 11//11 53//53 21//21 
f 11//11 13//13 53//53 
f 171//171 11//11 170//170 
f 8//8 9//9 172//172 
f 170//170 11//11 1//1 
f 10//10 12//12 173//173 
f 171//171 174//174 11//11 
f 12//12 5//5 173//173 
f 54//54 173//173 59//59 
f 15//15 17//17 16//16 
f 66//66 17//17 15//15 
f 18//18 14//14 1//1 
f 18//18 1//1 21//21 
f 56//56 18//18 21//21 
f 55//55 18//18 57//57 
f 57//57 18//18 56//56 
f 16//16 17//17 6//6 
f 6//6 17//17 26//26 
f 19//19 33//33 27//27 
f 19//19 20//20 33//33 
f 20//20 19//19 17//17 
f 17//17 19//19 26//26 
f 33//33 20//20 34//34 
f 1//1 11//11 21//21 
f 59//59 22//22 23//23 
f 176//176 175//175 25//25 
f 23//23 58//58 59//59 
f 58//58 176//176 25//25 
f 22//22 169//169 25//25 
f 177//177 25//25 169//169 
f 24//24 26//26 28//28 
f 28//28 25//25 177//177 
f 25//25 28//28 30//30 
f 35//35 27//27 31//31 
f 35//35 31//31 36//36 
f 27//27 29//29 26//26 
f 27//27 35//35 29//29 
f 26//26 29//29 28//28 
f 31//31 27//27 33//33 
f 19//19 27//27 26//26 
f 42//42 28//28 29//29 
f 30//30 28//28 42//42 
f 32//32 46//46 31//31 
f 33//33 32//32 31//31 
f 32//32 33//33 34//34 
f 34//34 51//51 32//32 
f 114//114 51//51 34//34 
f 59//59 173//173 5//5 
f 29//29 35//35 37//37 
f 35//35 36//36 37//37 
f 31//31 46//46 36//36 
f 36//36 38//38 37//37 
f 36//36 46//46 38//38 
f 40//40 37//37 38//38 
f 37//37 42//42 29//29 
f 42//42 37//37 39//39 
f 39//39 37//37 40//40 
f 47//47 38//38 46//46 
f 40//40 38//38 41//41 
f 41//41 38//38 47//47 
f 42//42 39//39 44//44 
f 40//40 44//44 39//39 
f 41//41 47//47 50//50 
f 30//30 42//42 44//44 
f 43//43 44//44 40//40 
f 40//40 41//41 43//43 
f 60//60 44//44 43//43 
f 43//43 41//41 45//45 
f 45//45 41//41 50//50 
f 60//60 43//43 45//45 
f 44//44 60//60 30//30 
f 178//178 50//50 52//52 
f 60//60 45//45 61//61 
f 181//181 178//178 52//52 
f 46//46 32//32 48//48 
f 47//47 46//46 48//48 
f 51//51 48//48 32//32 
f 47//47 48//48 49//49 
f 48//48 51//51 49//49 
f 47//47 49//49 50//50 
f 49//49 52//52 50//50 
f 52//52 49//49 51//51 
f 114//114 52//52 51//51 
f 173//173 54//54 179//179 
f 69//69 66//66 14//14 
f 15//15 14//14 66//66 
f 18//18 55//55 14//14 
f 69//69 14//14 55//55 
f 70//70 20//20 17//17 
f 20//20 76//76 34//34 
f 77//77 34//34 76//76 
f 88//88 56//56 21//21 
f 57//57 56//56 87//87 
f 87//87 56//56 88//88 
f 58//58 25//25 30//30 
f 59//59 58//58 105//105 
f 109//109 105//105 58//58 
f 58//58 30//30 111//111 
f 77//77 114//114 34//34 
f 88//88 21//21 63//63 
f 94//94 88//88 63//63 
f 65//65 54//54 59//59 
f 104//104 65//65 59//59 
f 59//59 105//105 104//104 
f 111//111 30//30 113//113 
f 30//30 60//60 113//113 
f 181//181 52//52 62//62 
f 112//112 181//181 62//62 
f 60//60 61//61 113//113 
f 114//114 191//191 183//183 
f 192//192 193//193 182//182 
f 183//183 52//52 114//114 
f 63//63 21//21 53//53 
f 54//54 64//64 179//179 
f 180//180 185//185 184//184 
f 65//65 64//64 54//54 
f 94//94 63//63 186//186 
f 104//104 64//64 65//65 
f 55//55 67//67 68//68 
f 73//73 68//68 67//67 
f 73//73 119//119 68//68 
f 69//69 55//55 68//68 
f 68//68 141//141 69//69 
f 70//70 17//17 66//66 
f 80//80 70//70 117//117 
f 67//67 55//55 57//57 
f 67//67 57//57 71//71 
f 72//72 71//71 57//57 
f 73//73 67//67 71//71 
f 73//73 71//71 72//72 
f 73//73 74//74 119//119 
f 72//72 90//90 187//187 
f 72//72 74//74 73//73 
f 90//90 123//123 187//187 
f 189//189 75//75 78//78 
f 20//20 188//188 76//76 
f 77//77 76//76 78//78 
f 83//83 78//78 82//82 
f 82//82 78//78 75//75 
f 78//78 83//83 77//77 
f 80//80 20//20 70//70 
f 83//83 79//79 77//77 
f 190//190 81//81 75//75 
f 20//20 80//80 188//188 
f 81//81 82//82 75//75 
f 190//190 117//117 121//121 
f 81//81 84//84 82//82 
f 84//84 85//85 82//82 
f 85//85 83//83 82//82 
f 86//86 79//79 83//83 
f 79//79 86//86 98//98 
f 84//84 190//190 121//121 
f 84//84 81//81 190//190 
f 85//85 122//122 83//83 
f 122//122 86//86 83//83 
f 86//86 122//122 98//98 
f 121//121 85//85 84//84 
f 98//98 122//122 101//101 
f 121//121 149//149 85//85 
f 149//149 122//122 85//85 
f 132//132 101//101 122//122 
f 57//57 87//87 72//72 
f 72//72 87//87 89//89 
f 87//87 88//88 89//89 
f 89//89 91//91 92//92 
f 89//89 88//88 94//94 
f 90//90 72//72 89//89 
f 89//89 92//92 90//90 
f 90//90 92//92 123//123 
f 89//89 94//94 91//91 
f 92//92 125//125 123//123 
f 92//92 91//91 93//93 
f 94//94 93//93 91//91 
f 92//92 126//126 125//125 
f 109//109 58//58 111//111 
f 77//77 95//95 114//114 
f 114//114 97//97 116//116 
f 95//95 79//79 96//96 
f 79//79 95//95 77//77 
f 99//99 95//95 96//96 
f 99//99 97//97 95//95 
f 95//95 97//97 114//114 
f 98//98 96//96 79//79 
f 96//96 98//98 99//99 
f 100//100 97//97 99//99 
f 101//101 102//102 98//98 
f 102//102 99//99 98//98 
f 103//103 100//100 99//99 
f 100//100 103//103 116//116 
f 100//100 116//116 97//97 
f 132//132 102//102 101//101 
f 132//132 133//133 102//102 
f 133//133 99//99 102//102 
f 133//133 103//103 99//99 
f 116//116 103//103 134//134 
f 94//94 186//186 107//107 
f 104//104 107//107 64//64 
f 107//107 104//104 108//108 
f 104//104 105//105 108//108 
f 105//105 110//110 106//106 
f 105//105 106//106 108//108 
f 110//110 105//105 109//109 
f 111//111 110//110 109//109 
f 110//110 111//111 137//137 
f 191//191 114//114 115//115 
f 194//194 193//193 192//192 
f 195//195 115//115 114//114 
f 138//138 193//193 194//194 
f 115//115 195//195 135//135 
f 141//141 68//68 119//119 
f 119//119 152//152 141//141 
f 66//66 145//145 70//70 
f 148//148 117//117 70//70 
f 117//117 148//148 149//149 
f 145//145 148//148 70//70 
f 119//119 74//74 118//118 
f 123//123 118//118 187//187 
f 119//119 118//118 124//124 
f 119//119 124//124 120//120 
f 120//120 124//124 131//131 
f 120//120 152//152 119//119 
f 131//131 156//156 120//120 
f 149//149 121//121 117//117 
f 149//149 136//136 122//122 
f 136//136 132//132 122//122 
f 125//125 124//124 123//123 
f 124//124 118//118 123//123 
f 125//125 126//126 124//124 
f 126//126 92//92 127//127 
f 127//127 92//92 93//93 
f 129//129 124//124 126//126 
f 93//93 128//128 127//127 
f 94//94 128//128 93//93 
f 94//94 157//157 128//128 
f 127//127 128//128 126//126 
f 129//129 128//128 130//130 
f 126//126 128//128 129//129 
f 129//129 130//130 124//124 
f 128//128 157//157 130//130 
f 124//124 130//130 131//131 
f 131//131 130//130 157//157 
f 158//158 137//137 196//196 
f 196//196 115//115 155//155 
f 155//155 115//115 135//135 
f 195//195 134//134 135//135 
f 133//133 134//134 103//103 
f 136//136 134//134 133//133 
f 136//136 133//133 132//132 
f 136//136 135//135 134//134 
f 108//108 106//106 137//137 
f 107//107 157//157 94//94 
f 107//107 108//108 137//137 
f 158//158 107//107 137//137 
f 110//110 137//137 106//106 
f 137//137 111//111 138//138 
f 111//111 193//193 138//138 
f 66//66 69//69 139//139 
f 139//139 69//69 140//140 
f 69//69 141//141 140//140 
f 140//140 142//142 139//139 
f 142//142 146//146 139//139 
f 140//140 141//141 143//143 
f 143//143 142//142 140//140 
f 146//146 142//142 159//159 
f 152//152 144//144 141//141 
f 143//143 159//159 142//142 
f 144//144 160//160 143//143 
f 141//141 144//144 143//143 
f 160//160 144//144 161//161 
f 144//144 153//153 161//161 
f 139//139 145//145 66//66 
f 146//146 145//145 139//139 
f 150//150 148//148 145//145 
f 150//150 145//145 146//146 
f 146//146 147//147 150//150 
f 147//147 146//146 159//159 
f 154//154 147//147 167//167 
f 154//154 149//149 150//150 
f 150//150 149//149 148//148 
f 149//149 154//154 136//136 
f 147//147 154//154 150//150 
f 120//120 156//156 152//152 
f 152//152 153//153 144//144 
f 156//156 153//153 152//152 
f 151//151 153//153 156//156 
f 151//151 158//158 165//165 
f 165//165 153//153 151//151 
f 168//168 155//155 167//167 
f 196//196 168//168 158//158 
f 136//136 154//154 155//155 
f 155//155 154//154 167//167 
f 156//156 131//131 157//157 
f 157//157 151//151 156//156 
f 157//157 107//107 151//151 
f 107//107 158//158 151//151 
f 196//196 155//155 168//168 
f 136//136 155//155 135//135 
f 159//159 143//143 160//160 
f 160//160 161//161 162//162 
f 159//159 160//160 162//162 
f 162//162 163//163 159//159 
f 159//159 163//163 147//147 
f 153//153 164//164 161//161 
f 161//161 164//164 162//162 
f 162//162 164//164 166//166 
f 162//162 166//166 163//163 
f 166//166 167//167 163//163 
f 167//167 147//147 163//163 
f 165//165 164//164 153//153 
f 164//164 165//165 166//166 
f 166//166 165//165 168//168 
f 166//166 168//168 167//167 
f 168//168 165//165 158//158 
