#
# The license for this database is specified in the Creative Commons Attribution-Share Alike 2.1 Japan. If you use data from this database, please be sure attribute this database as follows: "BodyParts3D, (c)  The Database Center for Life Science licensed under CC Attribution-Share Alike 2.1 Japan".
# http://dbarchive.biosciencedbc.jp/en/bodyparts3d/lic.html
#
#
# Compatibility version : 4.3i
# File ID : FJ6404
# Representation ID : BP49233
# Build-up logic : FMA 3.2.1-inference part_of
# Concept ID : FMA32646
# English name : Middle phalanx of right fourth toe
# Bounds(mm): (147.716800,-198.905400,-69.880600)-(160.198200,-185.324800,-61.882700)
# Volume(cm3): 0.344500
#
v 155.75 -198.588 -63.7717
v 153.929 -198.247 -66.3233
v 154.437 -197.477 -66.9012
v 154.13 -197.237 -66.8713
v 155.137 -197.979 -66.4844
v 153.375 -198.001 -65.5774
v 154.391 -198.684 -65.0515
v 155.095 -198.905 -65.1531
v 154.049 -197.981 -63.7662
v 154.126 -197.534 -63.2011
v 154.489 -196.683 -62.9326
v 155.687 -197.393 -63.158
v 152.651 -196.209 -64.608
v 153.193 -197.409 -66.1122
v 152.773 -195.108 -65.5262
v 152.631 -196.183 -63.6308
v 152.649 -195.245 -63.8999
v 153.384 -195.455 -63.3532
v 152.591 -194.672 -64.1118
v 152.815 -194.818 -63.803
v 153.637 -194.772 -63.3944
v 154.345 -195.1 -63.3511
v 151.708 -192.925 -65.2952
v 152.133 -193.553 -64.2812
v 151.642 -192.773 -64.15
v 152.615 -193.192 -63.4874
v 150.622 -191.562 -66.172
v 149.898 -190.881 -63.3799
v 150.385 -191.486 -64.0707
v 150.615 -190.655 -62.9521
v 151.029 -191.171 -63.232
v 147.988 -189.695 -65.4007
v 148.992 -190.892 -66.2185
v 148.271 -189.97 -66.5401
v 149.414 -190.682 -67.0295
v 149.099 -190.839 -63.9731
v 149.385 -190.056 -62.9872
v 148.708 -190.168 -64.3829
v 150.439 -189.949 -62.4315
v 149.631 -188.579 -63.2232
v 150.245 -188.654 -62.3308
v 147.737 -189.071 -65.4988
v 147.777 -189.165 -66.0891
v 147.738 -188.458 -65.6577
v 148.65 -188.492 -67.4921
v 147.892 -188.935 -65.2041
v 148.591 -188.763 -64.7089
v 148.713 -188.335 -64.9371
v 155.864 -198.148 -65.8088
v 156.912 -197.115 -64.0627
v 157.327 -196.567 -63.9703
v 156.888 -195.11 -63.8473
v 155.359 -195.718 -67.4712
v 156.1 -195.836 -67.5388
v 153.414 -194.876 -66.4202
v 154.565 -194.314 -67.3258
v 155.163 -193.758 -63.6775
v 152.691 -192.374 -66.8878
v 153.713 -193.608 -63.3293
v 153.081 -191.493 -62.9332
v 154.078 -190.63 -63.0552
v 150.88 -191.117 -66.9122
v 151.763 -190.185 -62.5916
v 152.372 -189.016 -62.1167
v 151.694 -188.491 -61.9369
v 151.56 -187.257 -62.2196
v 152.342 -187.723 -61.9388
v 149.634 -186.476 -67.1598
v 150.141 -186.489 -66.7712
v 158.754 -196.311 -65.8534
v 159.129 -196.02 -65.3657
v 158.35 -194.848 -64.3413
v 156.811 -194.862 -68.2992
v 156.301 -193.264 -68.7645
v 157.037 -193.259 -64.6144
v 158.098 -193.637 -64.8625
v 157.03 -191.812 -65.1821
v 157.935 -192.487 -65.5156
v 155.007 -191.828 -68.1057
v 155.984 -189.667 -65.1275
v 153.602 -188.723 -62.6234
v 154.49 -188.336 -63.3803
v 154.916 -187.978 -63.932
v 153.158 -187.847 -62.1797
v 152.846 -186.983 -62.2631
v 152.302 -186.198 -63.54
v 152.535 -186.254 -62.7947
v 153.641 -186.842 -62.6629
v 153.147 -186.462 -62.6796
v 154.259 -187.21 -63.0511
v 153.751 -186.45 -62.9849
v 153.259 -185.86 -63.5106
v 154.328 -186.439 -63.6378
v 159.959 -195.279 -66.6565
v 159.962 -194.998 -66.0604
v 160.137 -194.659 -66.8402
v 159.465 -194.696 -67.9547
v 160.001 -194.622 -67.5133
v 159.94 -194.095 -67.6043
v 159.439 -193.537 -67.9564
v 157.464 -193.717 -69.369
v 156.951 -192.48 -68.8109
v 158.139 -194.104 -69.2588
v 158.011 -193.283 -69.352
v 158.637 -194.117 -69.1189
v 158.399 -193.808 -69.4246
v 158.999 -193.801 -69.0288
v 159.055 -193.504 -68.7642
v 158.727 -193.458 -69.1439
v 158.806 -193.301 -68.8849
v 159.017 -192.576 -66.7817
v 158.293 -192.016 -67.8962
v 158.222 -192.25 -65.9304
v 159.243 -193.1 -65.9512
v 156.274 -191.276 -68.4121
v 157.703 -191.78 -68.3563
v 157.694 -191.355 -66.9606
v 157.122 -190.578 -67.2092
v 156.713 -190.46 -68.1429
v 154.896 -189.8 -68.563
v 155.741 -189.068 -68.4017
v 155.924 -188.505 -67.7677
v 153.521 -188.445 -69.3532
v 154.69 -186.424 -69.2389
v 154.209 -185.578 -69.133
v 155.138 -186.149 -68.4962
v 154.918 -185.699 -68.5882
v 155.067 -185.515 -68.001
v 154.241 -185.407 -68.3665
v 155.332 -186.58 -65.5135
v 154.424 -185.483 -66.2721
v 155.396 -186.236 -66.6562
v 155.079 -185.579 -66.1241
v 152.623 -186.28 -69.7129
v 152.394 -185.603 -69.435
v 155.75 -198.588 -63.7717
v 155.75 -198.588 -63.7717
v 155.095 -198.905 -65.1531
v 155.095 -198.905 -65.1531
v 155.095 -198.905 -65.1531
v 155.687 -197.393 -63.158
v 155.687 -197.393 -63.158
v 152.631 -196.183 -63.6308
v 152.649 -195.245 -63.8999
v 151.708 -192.925 -65.2952
v 147.988 -189.695 -65.4007
v 149.099 -190.839 -63.9731
v 149.385 -190.056 -62.9872
v 148.708 -190.168 -64.3829
v 150.245 -188.654 -62.3308
v 147.738 -188.458 -65.6577
v 147.892 -188.935 -65.2041
v 155.864 -198.148 -65.8088
v 155.864 -198.148 -65.8088
v 156.912 -197.115 -64.0627
v 157.327 -196.567 -63.9703
v 157.327 -196.567 -63.9703
v 157.327 -196.567 -63.9703
v 151.56 -187.257 -62.2196
v 149.634 -186.476 -67.1598
v 158.754 -196.311 -65.8534
v 159.129 -196.02 -65.3657
v 152.535 -186.254 -62.7947
v 159.959 -195.279 -66.6565
v 159.962 -194.998 -66.0604
v 160.001 -194.622 -67.5133
v 157.464 -193.717 -69.369
v 158.399 -193.808 -69.4246
v 158.999 -193.801 -69.0288
v 156.713 -190.46 -68.1429
v 155.741 -189.068 -68.4017
v 154.209 -185.578 -69.133
v 154.918 -185.699 -68.5882
v 155.067 -185.515 -68.001
v 152.623 -186.28 -69.7129
v 152.394 -185.603 -69.435
v 152.394 -185.603 -69.435
vn -0.208636 -0.783076 0.585886
vn -0.383721 -0.714841 -0.584602
vn -0.115123 -0.396366 -0.910846
vn -0.46576 -0.180923 -0.866219
vn 0.227715 -0.67196 -0.704709
vn -0.791128 -0.61164 -0.00359946
vn -0.419512 -0.897532 0.135816
vn -0.240164 -0.914936 0.324365
vn -0.536377 -0.727578 0.427703
vn -0.273645 -0.468173 0.840198
vn -0.0649918 0.0417166 0.997013
vn 0.00886409 -0.380017 0.924937
vn -0.986685 -0.148576 -0.0661606
vn -0.829193 -0.242553 -0.503595
vn -0.90405 -0.20705 -0.373931
vn -0.889765 -0.406002 0.208521
vn -0.999033 -0.026944 0.0347406
vn -0.350321 0.142283 0.925759
vn -0.942847 -0.173354 0.284584
vn -0.637701 -0.00180363 0.770282
vn -0.234448 -0.00619722 0.972109
vn 0.0697386 0.125775 0.989605
vn -0.839238 -0.542266 0.0403346
vn -0.831354 -0.423329 0.360059
vn -0.727653 -0.613751 0.306318
vn -0.453787 -0.348021 0.820341
vn -0.455283 -0.808951 -0.371908
vn -0.337455 -0.681086 0.649805
vn -0.547708 -0.788148 0.280781
vn -0.145059 -0.587672 0.795989
vn -0.302542 -0.582192 0.754666
vn -0.833036 -0.553196 0.00497167
vn -0.624447 -0.774533 -0.100815
vn -0.768883 -0.482698 -0.419311
vn -0.376241 -0.627371 -0.681798
vn -0.456803 -0.80135 0.386224
vn -0.441851 -0.44991 0.776111
vn -0.874341 -0.18488 0.448718
vn -0.187067 -0.407485 0.893847
vn -0.740607 0.494588 0.454846
vn -0.736908 0.405896 0.540569
vn -0.962066 -0.137146 0.235838
vn -0.951849 -0.173655 -0.25264
vn -0.968979 0.209172 -0.131629
vn -0.669455 0.0185774 -0.74262
vn -0.863039 -0.122294 0.490111
vn -0.708946 0.301651 0.637497
vn -0.579877 0.612569 0.537123
vn 0.741471 -0.660231 -0.119647
vn 0.595756 -0.441243 0.671103
vn 0.800811 -0.583304 -0.135861
vn 0.285214 0.186623 0.94012
vn -0.334225 -0.222809 -0.915778
vn 0.175875 -0.544186 -0.820323
vn -0.625873 -0.145371 -0.766257
vn -0.4748 -0.247124 -0.844686
vn 0.29556 0.0826867 0.951739
vn -0.482491 -0.461773 -0.744291
vn 0.0357822 -0.0826992 0.995932
vn 0.0767206 -0.228287 0.970566
vn 0.492053 -0.00579503 0.870546
vn -0.277403 -0.653895 -0.703896
vn -0.09267 -0.439402 0.893498
vn 0.166262 -0.245256 0.955095
vn -0.122966 -0.0384912 0.991664
vn -0.167639 0.350613 0.921395
vn 0.0915827 0.120158 0.988521
vn -0.265296 0.888137 0.375273
vn -0.366129 0.876202 0.313401
vn 0.238742 -0.7675 -0.594934
vn 0.650812 -0.746145 0.140395
vn 0.527895 0.169517 0.83222
vn -0.158323 -0.584825 -0.795559
vn -0.4511 0.00705229 -0.892445
vn 0.424685 0.320498 0.846713
vn 0.424665 0.461978 0.778611
vn 0.641305 0.429568 0.635767
vn 0.490751 0.468319 0.734739
vn -0.33583 -0.0562047 -0.940244
vn 0.847413 0.302818 0.436111
vn 0.562338 -0.0994947 0.8209
vn 0.730045 -0.0194561 0.683122
vn 0.835871 0.128302 0.533722
vn 0.44629 0.021073 0.89464
vn 0.162131 0.430195 0.888057
vn -0.440494 0.882793 0.163223
vn -0.483099 0.848872 0.214548
vn 0.476082 0.348082 0.80758
vn 0.245536 0.641132 0.727091
vn 0.738746 0.158349 0.655118
vn 0.507358 0.584931 0.632807
vn 0.12682 0.922067 0.365663
vn 0.683644 0.553243 0.475975
vn 0.874878 -0.483482 0.0288536
vn 0.90672 -0.383459 0.175554
vn 0.99771 0.0593547 0.0324462
vn 0.463535 -0.665402 -0.585129
vn 0.941281 -0.0844894 -0.326881
vn 0.901766 0.357397 -0.243075
vn 0.760894 0.582775 -0.285333
vn -0.327491 -0.44437 -0.833838
vn -0.137439 0.308129 -0.941364
vn 0.0204035 -0.677981 -0.734797
vn 0.0865319 0.40041 -0.912241
vn 0.341678 -0.641218 -0.687092
vn 0.215277 -0.484146 -0.848091
vn 0.568367 -0.440187 -0.695122
vn 0.738979 0.522474 -0.42536
vn 0.553118 0.447167 -0.702924
vn 0.650081 0.587567 -0.48183
vn 0.749474 0.66171 -0.0207178
vn 0.725641 0.639457 -0.254045
vn 0.580234 0.661869 0.474614
vn 0.72541 0.493217 0.480122
vn 0.0222806 0.0784923 -0.996666
vn 0.46919 0.57988 -0.666033
vn 0.723478 0.655858 0.215474
vn 0.810928 0.584787 -0.0204868
vn 0.212719 0.251681 -0.944144
vn -0.0775976 -0.234665 -0.968974
vn 0.311245 -0.0517143 -0.948921
vn 0.935584 0.317169 -0.155198
vn -0.0289611 -0.344708 -0.938263
vn 0.536894 0.155127 -0.829265
vn 0.334009 0.374839 -0.864832
vn 0.875573 0.243806 -0.41705
vn 0.764467 0.355564 -0.537741
vn 0.930968 0.331118 -0.153819
vn 0.00939453 0.997394 -0.0715382
vn 0.913995 0.27591 0.297466
vn -0.0461028 0.997276 0.0575791
vn 0.952178 0.302301 0.0443994
vn 0.631122 0.743304 0.221775
vn -0.456639 -0.0701879 -0.886879
vn -0.608393 0.292119 -0.737919
vn 0.708953 -0.696455 -0.111065
vn 0.607656 -0.337112 0.719103
vn -0.319524 -0.925652 -0.202667
vn 0.212074 -0.805301 -0.553637
vn 0.638652 -0.758705 -0.128414
vn 0.346112 0.0996476 0.932886
vn 0.595756 -0.441243 0.671103
vn -0.428093 0.0408716 0.90281
vn -0.635998 0.149206 0.757128
vn -0.630223 -0.526078 -0.571018
vn -0.825372 -0.23645 0.512691
vn -0.895145 -0.367067 0.252936
vn -0.871822 0.0682466 0.485045
vn -0.841594 -0.232037 0.487727
vn -0.330823 -0.0212067 0.943455
vn -0.467207 0.682489 0.562073
vn -0.587979 0.375313 0.716534
vn 0.394557 -0.647001 -0.652468
vn 0.517482 -0.80769 0.282575
vn 0.787256 -0.605931 -0.114348
vn 0.57594 -0.53951 0.614185
vn 0.469071 -0.0523793 0.881606
vn 0.472026 -0.847517 0.242706
vn -0.640261 0.693088 0.331202
vn -0.730019 0.442107 -0.521165
vn 0.53404 -0.831469 0.153169
vn 0.680062 -0.17092 0.712953
vn 0.0404389 0.66182 0.748571
vn 0.435292 -0.747629 -0.501569
vn 0.802198 0.148661 0.578255
vn 0.562123 -0.58572 -0.583909
vn -0.217337 0.227657 -0.949177
vn 0.290313 0.218029 -0.931763
vn 0.750451 0.208248 -0.627261
vn 0.743876 0.522076 -0.417235
vn 0.822137 0.243874 -0.514409
vn 0.176226 0.95915 -0.221305
vn 0.299685 0.910509 -0.284891
vn 0.179794 0.978698 -0.0991202
vn 0.202672 0.203164 -0.95794
vn -0.104528 0.993256 0.0501622
vn 0.143479 0.41724 -0.897399
g grp1
usemtl mtl1
f 2//2 6//6 14//14 
f 5//5 2//2 3//3 
f 3//3 2//2 4//4 
f 4//4 2//2 14//14 
f 14//14 55//55 4//4 
f 53//53 4//4 55//55 
f 3//3 4//4 53//53 
f 7//7 9//9 6//6 
f 7//7 1//1 9//9 
f 9//9 16//16 6//6 
f 8//8 1//1 7//7 
f 7//7 6//6 2//2 
f 138//138 7//7 2//2 
f 2//2 5//5 139//139 
f 136//136 140//140 49//49 
f 139//139 5//5 153//153 
f 9//9 10//10 16//16 
f 143//143 10//10 11//11 
f 10//10 9//9 1//1 
f 12//12 10//10 1//1 
f 10//10 12//12 11//11 
f 52//52 22//22 11//11 
f 52//52 11//11 141//141 
f 6//6 16//16 13//13 
f 16//16 17//17 13//13 
f 13//13 17//17 19//19 
f 13//13 14//14 6//6 
f 55//55 14//14 15//15 
f 13//13 15//15 14//14 
f 15//15 13//13 19//19 
f 11//11 18//18 143//143 
f 18//18 144//144 143//143 
f 22//22 18//18 11//11 
f 20//20 144//144 18//18 
f 144//144 20//20 19//19 
f 21//21 18//18 22//22 
f 20//20 18//18 21//21 
f 22//22 59//59 21//21 
f 23//23 15//15 19//19 
f 23//23 24//24 25//25 
f 145//145 58//58 15//15 
f 20//20 26//26 19//19 
f 24//24 23//23 19//19 
f 24//24 19//19 26//26 
f 26//26 20//20 21//21 
f 24//24 26//26 25//25 
f 21//21 59//59 26//26 
f 23//23 29//29 27//27 
f 58//58 145//145 27//27 
f 58//58 27//27 62//62 
f 29//29 28//28 36//36 
f 28//28 30//30 39//39 
f 29//29 31//31 28//28 
f 63//63 30//30 31//31 
f 30//30 28//28 31//31 
f 25//25 29//29 23//23 
f 29//29 25//25 26//26 
f 29//29 26//26 31//31 
f 30//30 63//63 39//39 
f 26//26 63//63 31//31 
f 34//34 33//33 32//32 
f 34//34 32//32 43//43 
f 33//33 38//38 32//32 
f 149//149 46//46 146//146 
f 34//34 35//35 33//33 
f 45//45 35//35 34//34 
f 29//29 33//33 27//27 
f 27//27 33//33 35//35 
f 62//62 27//27 35//35 
f 36//36 28//28 37//37 
f 148//148 38//38 147//147 
f 147//147 38//38 33//33 
f 36//36 33//33 29//29 
f 28//28 39//39 37//37 
f 38//38 40//40 47//47 
f 148//148 40//40 38//38 
f 152//152 38//38 47//47 
f 41//41 40//40 148//148 
f 47//47 40//40 48//48 
f 150//150 37//37 39//39 
f 65//65 150//150 39//39 
f 43//43 32//32 42//42 
f 146//146 46//46 42//42 
f 44//44 42//42 46//46 
f 44//44 43//43 42//42 
f 45//45 34//34 43//43 
f 45//45 43//43 44//44 
f 68//68 151//151 69//69 
f 152//152 48//48 151//151 
f 152//152 47//47 48//48 
f 69//69 151//151 48//48 
f 40//40 69//69 48//48 
f 54//54 5//5 3//3 
f 54//54 3//3 53//53 
f 142//142 137//137 50//50 
f 136//136 49//49 155//155 
f 5//5 54//54 153//153 
f 54//54 70//70 153//153 
f 49//49 51//51 155//155 
f 156//156 142//142 50//50 
f 141//141 157//157 52//52 
f 161//161 158//158 154//154 
f 157//157 72//72 52//52 
f 75//75 52//52 72//72 
f 55//55 56//56 53//53 
f 73//73 54//54 53//53 
f 73//73 53//53 56//56 
f 59//59 22//22 57//57 
f 52//52 57//57 22//22 
f 61//61 59//59 57//57 
f 75//75 57//57 52//52 
f 58//58 55//55 15//15 
f 56//56 55//55 58//58 
f 56//56 58//58 120//120 
f 26//26 59//59 60//60 
f 60//60 59//59 61//61 
f 26//26 60//60 64//64 
f 60//60 61//61 64//64 
f 62//62 35//35 123//123 
f 58//58 62//62 123//123 
f 58//58 123//123 120//120 
f 26//26 64//64 63//63 
f 63//63 64//64 39//39 
f 64//64 61//61 81//81 
f 64//64 81//81 84//84 
f 123//123 35//35 45//45 
f 65//65 39//39 64//64 
f 65//65 66//66 150//150 
f 65//65 67//67 66//66 
f 41//41 159//159 40//40 
f 40//40 159//159 86//86 
f 64//64 67//67 65//65 
f 84//84 67//67 64//64 
f 45//45 44//44 160//160 
f 71//71 161//161 94//94 
f 73//73 70//70 54//54 
f 95//95 71//71 94//94 
f 161//161 71//71 158//158 
f 76//76 75//75 72//72 
f 162//162 72//72 157//157 
f 162//162 165//165 72//72 
f 70//70 73//73 103//103 
f 101//101 73//73 56//56 
f 101//101 56//56 74//74 
f 70//70 103//103 105//105 
f 101//101 103//103 73//73 
f 167//167 74//74 102//102 
f 74//74 79//79 102//102 
f 78//78 75//75 76//76 
f 78//78 77//77 75//75 
f 78//78 113//113 77//77 
f 74//74 56//56 79//79 
f 79//79 56//56 120//120 
f 120//120 115//115 79//79 
f 57//57 75//75 61//61 
f 75//75 77//77 61//61 
f 61//61 80//80 82//82 
f 61//61 77//77 80//80 
f 81//81 61//61 82//82 
f 81//81 90//90 84//84 
f 80//80 83//83 82//82 
f 81//81 82//82 90//90 
f 83//83 90//90 82//82 
f 130//130 90//90 83//83 
f 45//45 134//134 123//123 
f 88//88 85//85 84//84 
f 85//85 67//67 84//84 
f 85//85 66//66 67//67 
f 86//86 159//159 87//87 
f 90//90 88//88 84//84 
f 85//85 163//163 66//66 
f 85//85 89//89 163//163 
f 89//89 88//88 91//91 
f 88//88 89//89 85//85 
f 92//92 89//89 91//91 
f 92//92 163//163 89//89 
f 87//87 92//92 86//86 
f 90//90 91//91 88//88 
f 90//90 93//93 91//91 
f 91//91 93//93 92//92 
f 90//90 130//130 93//93 
f 45//45 160//160 135//135 
f 135//135 134//134 45//45 
f 86//86 69//69 40//40 
f 176//176 68//68 69//69 
f 129//129 69//69 86//86 
f 70//70 105//105 97//97 
f 107//107 97//97 105//105 
f 169//169 108//108 99//99 
f 164//164 70//70 97//97 
f 95//95 94//94 96//96 
f 96//96 94//94 98//98 
f 164//164 97//97 166//166 
f 166//166 97//97 107//107 
f 96//96 114//114 165//165 
f 98//98 169//169 99//99 
f 98//98 99//99 96//96 
f 114//114 96//96 99//99 
f 99//99 108//108 100//100 
f 99//99 100//100 111//111 
f 99//99 111//111 114//114 
f 165//165 114//114 72//72 
f 114//114 76//76 72//72 
f 104//104 167//167 102//102 
f 102//102 116//116 104//104 
f 105//105 103//103 106//106 
f 104//104 168//168 167//167 
f 101//101 106//106 103//103 
f 106//106 107//107 105//105 
f 168//168 104//104 109//109 
f 109//109 104//104 116//116 
f 168//168 109//109 169//169 
f 169//169 109//109 108//108 
f 108//108 109//109 110//110 
f 108//108 110//110 116//116 
f 109//109 116//116 110//110 
f 117//117 77//77 113//113 
f 117//117 80//80 77//77 
f 111//111 117//117 113//113 
f 117//117 111//111 112//112 
f 100//100 108//108 111//111 
f 114//114 111//111 113//113 
f 111//111 108//108 112//112 
f 116//116 112//112 108//108 
f 114//114 78//78 76//76 
f 114//114 113//113 78//78 
f 115//115 102//102 79//79 
f 116//116 102//102 119//119 
f 102//102 115//115 119//119 
f 120//120 121//121 115//115 
f 117//117 112//112 118//118 
f 117//117 118//118 80//80 
f 116//116 170//170 112//112 
f 112//112 170//170 118//118 
f 121//121 119//119 115//115 
f 170//170 171//171 122//122 
f 118//118 170//170 122//122 
f 118//118 122//122 80//80 
f 121//121 120//120 123//123 
f 126//126 122//122 171//171 
f 128//128 122//122 126//126 
f 83//83 80//80 130//130 
f 122//122 130//130 80//80 
f 123//123 175//175 124//124 
f 124//124 121//121 123//123 
f 171//171 124//124 126//126 
f 126//126 124//124 127//127 
f 126//126 127//127 128//128 
f 124//124 125//125 127//127 
f 173//173 172//172 129//129 
f 173//173 129//129 174//174 
f 174//174 129//129 131//131 
f 131//131 133//133 174//174 
f 92//92 131//131 86//86 
f 93//93 130//130 133//133 
f 133//133 131//131 92//92 
f 132//132 122//122 128//128 
f 132//132 130//130 122//122 
f 132//132 133//133 130//130 
f 128//128 133//133 132//132 
f 133//133 92//92 93//93 
f 175//175 125//125 124//124 
f 177//177 125//125 175//175 
f 131//131 129//129 86//86 
f 69//69 129//129 176//176 
f 129//129 172//172 176//176 
